<svg width="1024px" height="768px" viewBox="0 0 10240 7680" x="0px" y="0px" xmlns="http://www.w3.org/2000/svg"><defs></defs><path d="M2775.9,74.75L901.55,1930.27L901.55,5772.38L2775.9,7627.9L7656.08,7627.9L9530.43,5772.38L9530.43,1930.27L7656.08,74.75L2775.9,74.75Z" id="POCHE" fill="#f6f6f6" fill-opacity="1.0" stroke="#d4d4d4" stroke-opacity="1.0" stroke-width="3.0" /><path d="M4854.65,1231.05L4854.65,2838.25L5584.1,2838.25L5584.1,1231.06L4854.65,1231.05Z" id="107" fill="#ffffff" fill-opacity="1.0" stroke="#dddddd" stroke-opacity="1.0" stroke-width="7.0" /><path d="M2673.92,1816.3L2032.1,2458.12L3323.56,2976.28L3583.89,2717.93L2673.92,1816.3Z" id="103" fill="#ffffff" fill-opacity="1.0" stroke="#dddddd" stroke-opacity="1.0" stroke-width="7.0" /><path d="M3259.25,1231.05L2673.95,1816.33L3582.84,2716.95L3797.76,2817.81L3882.36,2726.81L3323.68,1231.05L3259.25,1231.05Z" id="104" fill="#ffffff" fill-opacity="1.0" stroke="#dddddd" stroke-opacity="1.0" stroke-width="7.0" /><path d="M3323.7,1231.05L3798.03,2501.68L3923.73,2838.23L4119.85,2838.25L4119.67,1231.06L3323.7,1231.05Z" id="105" fill="#ffffff" fill-opacity="1.0" stroke="#dddddd" stroke-opacity="1.0" stroke-width="7.0" /><path d="M4119.67,1231.05L4119.65,2838.25L4854.62,2838.25L4854.62,1231.06L4119.67,1231.05Z" id="106" fill="#ffffff" fill-opacity="1.0" stroke="#dddddd" stroke-opacity="1.0" stroke-width="7.0" /><path d="M5584.1,1231.05L5584.1,2838.25L6309.7,2838.25L6309.7,1231.06L5584.1,1231.05Z" id="108" fill="#ffffff" fill-opacity="1.0" stroke="#dddddd" stroke-opacity="1.0" stroke-width="7.0" /><path d="M7110.12,1231.05L6309.72,1231.11L6309.7,2838.25L6522.4,2838.25L6522.36,2800.51L7110.12,1231.05Z" id="109" fill="#ffffff" fill-opacity="1.0" stroke="#dddddd" stroke-opacity="1.0" stroke-width="7.0" /><path d="M7110.09,1231.05L6522.52,2800.56L6522.45,2838.28L6561.48,2838.28L6860.52,2739.01L6860.67,2734.66L7790.58,1849.66L7171.98,1231.05L7110.09,1231.05Z" id="110" fill="#ffffff" fill-opacity="1.0" stroke="#dddddd" stroke-opacity="1.0" stroke-width="7.0" /><path d="M7790.62,1849.65L6860.85,2734.76L7070.61,2951.11L7070.81,3003.06L8358.86,2479.34L8358.87,2417.9L7790.62,1849.65Z" id="111" fill="#ffffff" fill-opacity="1.0" stroke="#dddddd" stroke-opacity="1.0" stroke-width="7.0" /><path d="M8358.94,2479.35L7441.0,2850.59L7441.0,3282.0L8358.93,3282.03L8358.94,2479.35Z" id="112" fill="#ffffff" fill-opacity="1.0" stroke="#dddddd" stroke-opacity="1.0" stroke-width="7.0" /><path d="M7440.85,2850.7L7071.0,3002.6L7071.17,3847.03L8358.57,3846.91L8358.58,3282.01L8356.4,3282.04L7440.85,3282.01L7440.85,2850.7Z" id="113" fill="#ffffff" fill-opacity="1.0" stroke="#dddddd" stroke-opacity="1.0" stroke-width="7.0" /><path d="M8358.78,3847.0L7071.2,3847.21L7071.2,4336.64L7309.55,4336.67L7309.67,4811.4L7440.81,4860.92L7438.87,4446.75L8358.78,4446.75L8358.78,3847.0Z" id="114" fill="#ffffff" fill-opacity="1.0" stroke="#dddddd" stroke-opacity="1.0" stroke-width="7.0" /><path d="M8358.81,4446.6L7438.9,4446.81L7440.57,4860.98L8358.71,5229.45L8358.81,4446.6Z" id="115" fill="#ffffff" fill-opacity="1.0" stroke="#dddddd" stroke-opacity="1.0" stroke-width="7.0" /><path d="M6759.31,4615.55L6647.15,4727.71L7762.47,5871.74L8358.74,5275.48L8358.74,5229.55L7441.65,4860.87L7439.9,4860.26L7310.65,4811.37L6818.41,4615.55L6759.31,4615.55Z" id="116" fill="#ffffff" fill-opacity="1.0" stroke="#dddddd" stroke-opacity="1.0" stroke-width="7.0" /><path d="M6647.11,4727.75L6523.25,4851.61L7099.05,6461.91L7172.22,6461.91L7762.43,5871.71L6647.11,4727.75Z" id="117" fill="#ffffff" fill-opacity="1.0" stroke="#dddddd" stroke-opacity="1.0" stroke-width="7.0" /><path d="M6307.87,4851.35L6307.75,6462.07L7099.24,6462.07L6523.36,4851.46L6307.87,4851.35Z" id="118" fill="#ffffff" fill-opacity="1.0" stroke="#dddddd" stroke-opacity="1.0" stroke-width="7.0" /><path d="M5556.75,4851.35L5556.75,6462.1L6307.75,6462.1L6307.75,4851.35L5556.75,4851.35Z" id="119" fill="#ffffff" fill-opacity="1.0" stroke="#dddddd" stroke-opacity="1.0" stroke-width="7.0" /><path d="M4859.2,4851.35L4859.2,6462.09L5556.75,6462.1L5556.75,4851.35L4859.2,4851.35Z" id="120" fill="#ffffff" fill-opacity="1.0" stroke="#dddddd" stroke-opacity="1.0" stroke-width="7.0" /><path d="M4134.95,4851.35L4134.95,6462.09L4859.2,6462.09L4859.2,4851.35L4134.95,4851.35Z" id="121" fill="#ffffff" fill-opacity="1.0" stroke="#dddddd" stroke-opacity="1.0" stroke-width="7.0" /><path d="M3923.73,4851.38L3798.58,5198.93L3338.7,6462.08L4134.94,6462.09L4134.85,4851.35L3923.73,4851.38Z" id="122" fill="#ffffff" fill-opacity="1.0" stroke="#dddddd" stroke-opacity="1.0" stroke-width="7.0" /><path d="M3660.52,4879.0L2675.6,5875.65L3261.93,6461.98L3338.88,6461.55L3798.58,5198.92L3846.73,5065.21L3660.52,4879.0Z" id="123" fill="#ffffff" fill-opacity="1.0" stroke="#dddddd" stroke-opacity="1.0" stroke-width="7.0" /><path d="M3469.3,4687.75L2900.84,4903.38L2034.05,5234.09L2300.76,5500.72L2675.6,5875.63L3660.52,4878.97L3469.3,4687.75Z" id="124" fill="#ffffff" fill-opacity="1.0" stroke="#dddddd" stroke-opacity="1.0" stroke-width="7.0" /><path d="M2900.8,3854.95L1995.3,3855.59L1995.45,4431.79L2900.8,4431.75L2900.8,3854.95Z" id="126" fill="#ffffff" fill-opacity="1.0" stroke="#dddddd" stroke-opacity="1.0" stroke-width="7.0" /><path d="M2900.78,4431.85L1995.45,4431.87L1995.64,5195.84L2034.07,5234.24L2900.78,4903.42L2900.78,4431.85Z" id="125" fill="#ffffff" fill-opacity="1.0" stroke="#dddddd" stroke-opacity="1.0" stroke-width="7.0" /><path d="M2032.12,2458.15L1995.0,2495.26L1995.2,3279.66L2900.79,3279.49L2900.8,2806.69L2032.12,2458.15Z" id="102" fill="#ffffff" fill-opacity="1.0" stroke="#dddddd" stroke-opacity="1.0" stroke-width="7.0" /><path d="M1995.15,3279.55L1995.29,3855.55L2900.8,3854.94L2900.8,3279.56L1995.15,3279.55Z" id="101" fill="#ffffff" fill-opacity="1.0" stroke="#dddddd" stroke-opacity="1.0" stroke-width="7.0" /><path d="M4496.95,4011.49L4496.95,4801.3L3653.51,4801.3L3482.35,4629.6L2950.75,4629.1L2950.75,4380.45L3226.4,4380.45L3226.4,3638.6L2950.75,3638.6L2950.75,3035.3L3335.75,3035.3L3483.33,2888.15L4496.95,2888.15L4496.95,3669.27L3895.47,3669.27L3895.47,4011.49L4496.95,4011.49Z" id="GAPIT5" fill="#ffffff" fill-opacity="1.0" stroke="#dddddd" stroke-opacity="1.0" stroke-width="7.0" /><path d="M5907.8,4011.49L5907.8,4801.3L6502.85,4801.3L6576.89,4727.26L6738.2,4565.0L7021.19,4565.0L7021.19,4045.15L6540.2,4045.15L6540.2,3631.7L7021.19,3631.7L7021.19,3077.21L7020.69,2971.45L6939.92,2888.15L5907.8,2888.15L5907.8,3669.27L6284.03,3669.27L6284.03,4011.49L5907.8,4011.49Z" id="GAPIT1" fill="#ffffff" fill-opacity="1.0" stroke="#dddddd" stroke-opacity="1.0" stroke-width="7.0" /><path d="M4498.0,2888.15L4498.0,3352.92L5906.8,3352.92L5906.8,2888.15L4498.0,2888.15Z" id="FLR 1" fill="#ffffff" fill-opacity="1.0" stroke="#dddddd" stroke-opacity="1.0" stroke-width="7.0" /><path d="M4498.0,4324.88L4498.0,4801.25L5906.8,4801.25L5906.8,4324.88L4498.0,4324.88Z" id="FLR 2" fill="#ffffff" fill-opacity="1.0" stroke="#dddddd" stroke-opacity="1.0" stroke-width="7.0" /><path d="M3259.3,1231.05L7172.05,1231.08L8358.9,2417.95L8358.89,4773.0L8358.88,5275.7L7172.41,6462.16L3261.93,6462.13L1995.67,5195.87L1995.0,2495.3L3259.3,1231.05ZM2858.15,274.75L1101.55,2013.7L1101.55,5688.95L2858.15,7427.9L7573.83,7427.9L9330.43,5688.95L9330.43,2013.7L7573.83,274.75L2858.15,274.75Z" id="TRAY - 200 LEVEL" fill="#dfdfdf" fill-opacity="1.0" stroke="#dfdfdf" stroke-opacity="1.0" stroke-width="7.0" /><path d="M2675.55,5875.8L1986.4,6564.95L2794.41,7364.84L3208.87,6409.11L2675.55,5875.8Z" id="221" fill="#ffffff" fill-opacity="1.0" stroke="#dddddd" stroke-opacity="1.0" stroke-width="7.0" /><path d="M4707.33,274.75L4707.3,1230.91L5697.25,1230.92L5697.33,274.75L4707.33,274.75Z" id="205" fill="#ffffff" fill-opacity="1.0" stroke="#dddddd" stroke-opacity="1.0" stroke-width="7.0" /><path d="M2034.03,5234.1L1101.45,5688.91L1986.38,6564.92L2675.54,5875.77L2034.03,5234.1Z" id="222" fill="#ffffff" fill-opacity="1.0" stroke="#dddddd" stroke-opacity="1.0" stroke-width="7.0" /><path d="M5697.28,274.78L5697.25,1231.07L6629.95,1231.08L6629.95,274.75L5697.28,274.78Z" id="206" fill="#ffffff" fill-opacity="1.0" stroke="#dddddd" stroke-opacity="1.0" stroke-width="7.0" /><path d="M6629.95,274.75L6629.95,1231.08L7172.05,1231.08L7232.08,1291.11L7620.25,320.706L7573.83,274.75L6629.95,274.75Z" id="207" fill="#ffffff" fill-opacity="1.0" stroke="#dddddd" stroke-opacity="1.0" stroke-width="7.0" /><path d="M7620.22,320.7L7232.05,1291.1L7756.85,1815.91L8440.26,1132.5L7620.22,320.7Z" id="208" fill="#ffffff" fill-opacity="1.0" stroke="#dddddd" stroke-opacity="1.0" stroke-width="7.0" /><path d="M8440.26,1132.5L7756.85,1815.91L8305.04,2364.11L9251.0,1935.09L8440.26,1132.5Z" id="209" fill="#ffffff" fill-opacity="1.0" stroke="#dddddd" stroke-opacity="1.0" stroke-width="7.0" /><path d="M8305.0,2364.1L8358.85,2417.95L8358.85,2890.85L8539.2,2890.85L8539.2,2784.6L9330.45,2784.6L9330.45,2013.75L9251.05,1935.15L8305.0,2364.1Z" id="210" fill="#ffffff" fill-opacity="1.0" stroke="#dddddd" stroke-opacity="1.0" stroke-width="7.0" /><path d="M8539.15,2784.55L8539.15,2890.85L8358.86,2890.86L8358.85,3846.91L9070.96,3846.91L9070.96,3542.45L9330.31,3542.45L9330.39,2784.55L8539.15,2784.55Z" id="211" fill="#ffffff" fill-opacity="1.0" stroke="#dddddd" stroke-opacity="1.0" stroke-width="7.0" /><path d="M8358.86,3847.0L8358.85,4769.73L8536.86,4769.69L8536.86,4883.94L9330.39,4883.94L9330.35,4148.45L9071.0,4148.45L9071.0,3847.0L8358.86,3847.0Z" id="212" fill="#ffffff" fill-opacity="1.0" stroke="#dddddd" stroke-opacity="1.0" stroke-width="7.0" /><path d="M8536.85,4769.65L8536.85,4883.95L9330.4,4883.95L9330.4,5689.0L9278.6,5740.2L8311.65,5322.85L8358.85,5275.8L8358.84,4769.69L8536.85,4769.65Z" id="213" fill="#ffffff" fill-opacity="1.0" stroke="#dddddd" stroke-opacity="1.0" stroke-width="7.0" /><path d="M8311.69,5322.85L7783.65,5850.88L8471.74,6538.96L9278.66,5740.15L8311.69,5322.85Z" id="214" fill="#ffffff" fill-opacity="1.0" stroke="#dddddd" stroke-opacity="1.0" stroke-width="7.0" /><path d="M7783.62,5850.9L7248.5,6386.01L7651.19,7351.26L8471.71,6538.99L7783.62,5850.9Z" id="215" fill="#ffffff" fill-opacity="1.0" stroke="#dddddd" stroke-opacity="1.0" stroke-width="7.0" /><path d="M7248.54,6386.0L7172.41,6462.13L6656.85,6462.13L6656.88,7427.53L7573.83,7427.87L7651.24,7351.24L7248.54,6386.0Z" id="216" fill="#ffffff" fill-opacity="1.0" stroke="#dddddd" stroke-opacity="1.0" stroke-width="7.0" /><path d="M5737.65,6462.1L5737.68,7427.78L6656.98,7427.78L6656.85,6462.11L5737.65,6462.1Z" id="217" fill="#ffffff" fill-opacity="1.0" stroke="#dddddd" stroke-opacity="1.0" stroke-width="7.0" /><path d="M4730.9,6462.1L4730.93,7427.78L5737.33,7427.78L5737.65,6462.11L4730.9,6462.1Z" id="218" fill="#ffffff" fill-opacity="1.0" stroke="#dddddd" stroke-opacity="1.0" stroke-width="7.0" /><path d="M3804.9,6462.1L3804.93,7427.78L4730.98,7427.78L4730.9,6462.11L3804.9,6462.1Z" id="219" fill="#ffffff" fill-opacity="1.0" stroke="#dddddd" stroke-opacity="1.0" stroke-width="7.0" /><path d="M3208.91,6409.1L2794.45,7364.83L2858.15,7427.89L3804.88,7427.43L3804.9,6462.12L3261.93,6462.12L3208.91,6409.1Z" id="220" fill="#ffffff" fill-opacity="1.0" stroke="#dddddd" stroke-opacity="1.0" stroke-width="7.0" /><path d="M2858.13,274.75L2784.4,347.74L3183.91,1306.42L3259.28,1231.05L3774.58,1231.05L3774.58,274.75L2858.13,274.75Z" id="203" fill="#ffffff" fill-opacity="1.0" stroke="#dddddd" stroke-opacity="1.0" stroke-width="7.0" /><path d="M3774.6,274.75L3774.6,1231.05L4707.3,1231.06L4707.48,274.78L3774.6,274.75Z" id="204" fill="#ffffff" fill-opacity="1.0" stroke="#dddddd" stroke-opacity="1.0" stroke-width="7.0" /><path d="M2784.37,347.7L1956.4,1167.36L2639.64,1850.6L3183.88,1306.38L2784.37,347.7Z" id="202" fill="#ffffff" fill-opacity="1.0" stroke="#dddddd" stroke-opacity="1.0" stroke-width="7.0" /><path d="M1956.38,1167.35L1101.8,2013.57L2032.15,2458.07L2639.63,1850.59L1956.38,1167.35Z" id="201" fill="#ffffff" fill-opacity="1.0" stroke="#dddddd" stroke-opacity="1.0" stroke-width="7.0" /><path d="M2057.9,3912.15L2253.0,3912.15L2253.0,4377.1L2057.9,4377.1L2057.9,3912.15Z" id="VOM00" fill="#dfdfdf" fill-opacity="1.0" /><path d="M9071.0,3542.45L9330.35,3542.45L9330.35,4148.45L9071.0,4148.45L9071.0,3542.45Z" id="INACTIVE 200" fill="#dfdfdf" fill-opacity="1.0" stroke="#dfdfdf" stroke-opacity="1.0" stroke-width="7.0" /><path d="M8530.0,2412.93L8763.49,2313.0L8763.49,5378.01L8530.0,5278.09L8530.0,2412.93Z" id="INACTIVE 200" fill="#dfdfdf" fill-opacity="1.0" /><path d="M7509.35,6576.35L7412.08,6673.61L7338.98,6494.15L7436.06,6397.07L7509.35,6576.35Z" id="VOM08" fill="#dfdfdf" fill-opacity="1.0" /><path d="M8645.05,5484.2L8548.56,5580.69L8362.25,5503.19L8459.34,5406.1L8645.05,5484.2Z" id="VOM10" fill="#dfdfdf" fill-opacity="1.0" /><path d="M8203.15,6149.2L8081.81,6270.54L7794.55,5983.28L7915.89,5861.94L8203.15,6149.2Z" id="MASK00" fill="#ffffff" fill-opacity="1.0" /><path d="M8057.6,6027.8L7960.51,6124.89L7831.75,5996.12L7928.83,5899.03L8057.6,6027.8Z" id="VOM09" fill="#dfdfdf" fill-opacity="1.0" /><path d="M2915.39,1103.06L3012.44,1006.01L3096.6,1187.77L2999.51,1284.86L2915.39,1103.06Z" id="VOM21" fill="#dfdfdf" fill-opacity="1.0" /><path d="M2217.45,1548.35L2338.79,1427.01L2626.05,1714.27L2504.71,1835.61L2217.45,1548.35Z" id="MASK01" fill="#ffffff" fill-opacity="1.0" /><path d="M2363.05,1669.7L2460.14,1572.61L2588.9,1701.38L2491.81,1798.46L2363.05,1669.7Z" id="MASK02" fill="#dfdfdf" fill-opacity="1.0" /><path d="M2217.45,1548.35L2338.79,1427.01L2626.05,1714.27L2504.71,1835.61L2217.45,1548.35Z" id="MASK03" fill="#ffffff" fill-opacity="1.0" /><path d="M2363.05,1669.7L2460.14,1572.61L2588.9,1701.38L2491.81,1798.46L2363.05,1669.7Z" id="VOM22" fill="#dfdfdf" fill-opacity="1.0" /><path d="M3030.55,6701.45L2933.75,6604.65L3020.23,6436.72L3117.31,6533.81L3030.55,6701.45Z" id="VOM03" fill="#dfdfdf" fill-opacity="1.0" /><path d="M2365.95,6282.0L2244.61,6160.66L2531.87,5873.4L2653.21,5994.74L2365.95,6282.0Z" id="MASK04" fill="#ffffff" fill-opacity="1.0" /><path d="M2487.3,6136.4L2390.21,6039.31L2518.98,5910.55L2616.06,6007.64L2487.3,6136.4Z" id="VOM02" fill="#dfdfdf" fill-opacity="1.0" /><path d="M4816.7,6961.3L4645.1,6961.3L4645.1,6555.05L4816.7,6555.05L4816.7,6961.3Z" id="MASK14" fill="#ffffff" fill-opacity="1.0" /><path d="M4799.55,6772.55L4662.25,6772.55L4662.25,6590.45L4799.55,6590.45L4799.55,6772.55Z" id="VOM05" fill="#dfdfdf" fill-opacity="1.0" /><path d="M3890.7,6961.3L3719.1,6961.3L3719.1,6555.05L3890.7,6555.05L3890.7,6961.3Z" id="MASK13" fill="#ffffff" fill-opacity="1.0" /><path d="M3873.55,6772.55L3736.25,6772.55L3736.25,6590.45L3873.55,6590.45L3873.55,6772.55Z" id="VOM04" fill="#dfdfdf" fill-opacity="1.0" /><path d="M5823.45,6961.3L5651.85,6961.3L5651.85,6555.05L5823.45,6555.05L5823.45,6961.3Z" id="MASK16" fill="#ffffff" fill-opacity="1.0" /><path d="M5806.3,6772.5L5669.0,6772.5L5669.0,6590.4L5806.3,6590.4L5806.3,6772.5Z" id="VOM06" fill="#dfdfdf" fill-opacity="1.0" /><path d="M6742.65,6961.25L6571.05,6961.25L6571.05,6555.0L6742.65,6555.0L6742.65,6961.25Z" id="MASK15" fill="#ffffff" fill-opacity="1.0" /><path d="M6725.5,6772.5L6588.2,6772.5L6588.2,6590.4L6725.5,6590.4L6725.5,6772.5Z" id="VOM07" fill="#dfdfdf" fill-opacity="1.0" /><path d="M9170.0,4791.95L9170.0,4963.55L8763.75,4963.55L8763.75,4791.95L9170.0,4791.95Z" id="MASK09" fill="#ffffff" fill-opacity="1.0" /><path d="M8981.25,4809.15L8981.25,4946.45L8832.58,4946.77L8832.58,4810.02L8981.25,4809.15Z" id="VOM11" fill="#dfdfdf" fill-opacity="1.0" /><path d="M9067.17,3746.45L9067.17,3911.05L8764.4,3911.99L8764.4,3747.64L9067.17,3746.45Z" id="MASK10" fill="#ffffff" fill-opacity="1.0" /><path d="M8928.25,3760.15L8928.25,3897.45L8815.79,3897.77L8815.79,3761.02L8928.25,3760.15Z" id="VOM" fill="#dfdfdf" fill-opacity="1.0" /><path d="M8924.75,3763.68L8924.75,3893.96L8819.29,3894.26L8819.29,3764.49L8924.75,3763.68Z" id="VOM12" fill="#dfdfdf" fill-opacity="1.0" /><path d="M9169.8,2698.7L9169.8,2870.3L8763.55,2870.3L8763.55,2698.7L9169.8,2698.7Z" id="MASK11" fill="#ffffff" fill-opacity="1.0" /><path d="M8981.05,2715.85L8981.05,2853.15L8832.38,2853.47L8832.38,2716.72L8981.05,2715.85Z" id="VOM13" fill="#dfdfdf" fill-opacity="1.0" /><path d="M8505.65,2087.4L8602.49,2184.24L8420.41,2259.62L8323.32,2162.53L8505.65,2087.4Z" id="VOM14" fill="#dfdfdf" fill-opacity="1.0" /><path d="M7980.0,1297.0L8184.39,1502.52L7897.13,1789.78L7775.79,1668.44L7980.0,1297.0Z" id="MASK12" fill="#ffffff" fill-opacity="1.0" /><path d="M7941.7,1526.8L8038.78,1623.89L7910.02,1752.65L7812.94,1655.56L7941.7,1526.8Z" id="VOM15" fill="#dfdfdf" fill-opacity="1.0" /><path d="M1749.7,2294.2L1846.4,2197.5L2014.97,2282.92L1917.89,2380.01L1749.7,2294.2Z" id="VOM23" fill="#dfdfdf" fill-opacity="1.0" /><path d="M6544.1,738.3L6715.7,738.3L6715.7,1144.55L6544.1,1144.55L6544.1,738.3Z" id="MASK07" fill="#ffffff" fill-opacity="1.0" /><path d="M6561.25,927.05L6698.55,927.05L6698.55,1109.15L6561.25,1109.15L6561.25,927.05Z" id="VOM17" fill="#dfdfdf" fill-opacity="1.0" /><path d="M5611.4,738.3L5783.0,738.3L5783.0,1144.55L5611.4,1144.55L5611.4,738.3Z" id="MASK06" fill="#ffffff" fill-opacity="1.0" /><path d="M5628.55,927.05L5765.85,927.05L5765.85,1109.15L5628.55,1109.15L5628.55,927.05Z" id="VOM18" fill="#dfdfdf" fill-opacity="1.0" /><path d="M4621.5,738.3L4793.1,738.3L4793.1,1144.55L4621.5,1144.55L4621.5,738.3Z" id="MASK05" fill="#ffffff" fill-opacity="1.0" /><path d="M4638.65,927.05L4775.95,927.05L4775.95,1109.15L4638.65,1109.15L4638.65,927.05Z" id="VOM19" fill="#dfdfdf" fill-opacity="1.0" /><path d="M3688.8,738.3L3860.4,738.3L3860.4,1144.55L3688.8,1144.55L3688.8,738.3Z" id="MASK08" fill="#ffffff" fill-opacity="1.0" /><path d="M3705.95,927.05L3843.25,927.05L3843.25,1109.15L3705.95,1109.15L3705.95,927.05Z" id="VOM20" fill="#dfdfdf" fill-opacity="1.0" /><path d="M1840.65,5503.84L1738.43,5411.8L1913.82,5329.41L2015.85,5421.28L1840.65,5503.84Z" id="VOM01" fill="#dfdfdf" fill-opacity="1.0" /><path d="M7412.3,994.299L7509.0,1091.0L7423.58,1259.57L7326.49,1162.49L7412.3,994.299Z" id="VOM16" fill="#dfdfdf" fill-opacity="1.0" /><path d="M2900.8,3688.6L3176.45,3688.6L3176.45,4330.45L2900.8,4330.45L2900.8,3688.6Z" id="Shape002" fill="#dfdfdf" fill-opacity="1.0" /><path d="M6590.2,3681.7L7071.15,3681.7L7071.15,3995.15L6590.2,3995.15L6590.2,3681.7Z" id="Shape003" fill="#dfdfdf" fill-opacity="1.0" /><text text-align="left" id="MIX" fill="#727272" fill-opacity="1.0" font-family="averta,arial,'arial bold'" font-weight="bold" font-size="130.686" x="6720.34" y="3888.52"><tspan text-anchor="start" x="6720.34">MIX</tspan></text><text text-align="left" id="CAMERA" fill="#727272" fill-opacity="1.0" font-family="averta,arial,'arial bold'" font-weight="bold" font-size="91.4416" transform="rotate(-90.0,2984.24,4204.43)" x="2984.24" y="4286.02"><tspan text-anchor="start" x="2984.24">CAMERA</tspan></text><path d="M5828.56,3214.69C5808.07,3214.69,5791.4,3231.36,5791.4,3251.85C5791.4,3272.34,5808.07,3289.01,5828.56,3289.01C5849.05,3289.01,5865.72,3272.34,5865.72,3251.85L5865.72,3251.85C5865.72,3231.36,5849.05,3214.69,5828.56,3214.69Z" id="CIRCLE" fill="#727272" fill-opacity="1.0" /><path d="M5828.56,3284.59C5810.51,3284.59,5795.82,3269.91,5795.82,3251.85C5795.82,3233.8,5810.51,3219.12,5828.56,3219.12C5846.61,3219.12,5861.3,3233.8,5861.3,3251.85L5861.3,3251.85C5861.3,3269.91,5846.61,3284.59,5828.56,3284.59Z" id="CIRCLE" fill="#ffffff" fill-opacity="1.0" /><path d="M5821.86,3247.26C5818.03,3249.11,5815.64,3252.8,5815.64,3257.34C5815.64,3263.65,5820.77,3268.78,5827.09,3268.78C5832.45,3268.78,5836.96,3265.09,5838.2,3260.09C5838.2,3260.09,5839.91,3264.1,5839.91,3264.1C5837.55,3268.97,5832.9,3271.89,5827.12,3271.89C5819.06,3271.89,5812.53,3265.36,5812.53,3257.32C5812.53,3251.12,5816.38,3245.84,5821.84,3243.71L5821.84,3243.71C5821.84,3243.71,5821.85,3245.49,5821.86,3247.26Z" id="WHEEL" fill="#727272" fill-opacity="1.0" /><path d="M5849.16,3263.43L5845.48,3264.81L5840.05,3250.34L5827.3,3249.69L5827.29,3247.49L5836.49,3247.47L5836.49,3243.8L5827.29,3243.82C5827.29,3240.65,5827.29,3237.48,5827.29,3237.48C5829.09,3236.99,5830.42,3235.37,5830.42,3233.4C5830.42,3231.07,5828.53,3229.17,5826.19,3229.17C5823.85,3229.17,5821.95,3231.07,5821.95,3233.4C5821.95,3234.68,5822.53,3235.82,5823.42,3236.59C5823.42,3236.59,5823.42,3244.88,5823.42,3253.17L5823.42,3253.17L5827.13,3253.36L5837.4,3253.85L5843.09,3268.89L5850.2,3266.2L5849.16,3263.43Z" id="BODY" fill="#727272" fill-opacity="1.0" /><path d="M5828.56,4383.44C5808.07,4383.44,5791.4,4400.11,5791.4,4420.6C5791.4,4441.1,5808.07,4457.76,5828.56,4457.76C5849.05,4457.76,5865.72,4441.1,5865.72,4420.6L5865.72,4420.6C5865.72,4400.11,5849.05,4383.44,5828.56,4383.44Z" id="CIRCLE" fill="#727272" fill-opacity="1.0" /><path d="M5828.56,4453.34C5810.51,4453.34,5795.82,4438.66,5795.82,4420.6C5795.82,4402.55,5810.51,4387.87,5828.56,4387.87C5846.61,4387.87,5861.3,4402.55,5861.3,4420.6L5861.3,4420.6C5861.3,4438.66,5846.61,4453.34,5828.56,4453.34Z" id="CIRCLE" fill="#ffffff" fill-opacity="1.0" /><path d="M5821.86,4416.01C5818.03,4417.86,5815.64,4421.55,5815.64,4426.09C5815.64,4432.4,5820.77,4437.53,5827.09,4437.53C5832.45,4437.53,5836.96,4433.84,5838.2,4428.84C5838.2,4428.84,5839.91,4432.85,5839.91,4432.85C5837.55,4437.72,5832.9,4440.64,5827.12,4440.64C5819.06,4440.64,5812.53,4434.11,5812.53,4426.07C5812.53,4419.87,5816.38,4414.59,5821.84,4412.46L5821.84,4412.46C5821.84,4412.46,5821.85,4414.24,5821.86,4416.01Z" id="WHEEL" fill="#727272" fill-opacity="1.0" /><path d="M5849.16,4432.18L5845.48,4433.56L5840.05,4419.09L5827.3,4418.44L5827.29,4416.24L5836.49,4416.22L5836.49,4412.55L5827.29,4412.57C5827.29,4409.4,5827.29,4406.23,5827.29,4406.23C5829.09,4405.74,5830.42,4404.12,5830.42,4402.15C5830.42,4399.82,5828.53,4397.92,5826.19,4397.92C5823.85,4397.92,5821.95,4399.82,5821.95,4402.15C5821.95,4403.43,5822.53,4404.57,5823.42,4405.34C5823.42,4405.34,5823.42,4413.63,5823.42,4421.92L5823.42,4421.92L5827.13,4422.11L5837.4,4422.6L5843.09,4437.64L5850.2,4434.95L5849.16,4432.18Z" id="BODY" fill="#727272" fill-opacity="1.0" /><path d="M5707.1,3923.81L6196.36,3923.81L6196.36,3756.94L5707.1,3756.94L5707.1,3592.89L5543.03,3592.89L5543.03,3505.2L4881.22,3505.2L4881.22,3592.89L4717.21,3592.89L4717.21,3756.94L3983.15,3756.94L3983.15,3923.81L4717.21,3923.81L4717.21,4087.84L4881.22,4087.84L4881.22,4175.5L5543.03,4175.5L5543.03,4087.84L5707.1,4087.84L5707.1,3923.81Z" id="Shape004pf" fill="#262626" fill-opacity="1.0" /><text text-align="left" id="STAGE" fill="#ffffff" fill-opacity="1.0" font-family="averta,arial,'arial bold'" font-weight="bold" font-size="248.755" x="4789.04" y="3933.8"><tspan text-anchor="start" x="4789.04">STAGE</tspan></text></svg>