<svg width="1024px" height="768px" viewBox="0 0 10240 7680" x="0px" y="0px" xmlns="http://www.w3.org/2000/svg"><defs></defs><path d="M3218.67,313.171L2685.93,446.269L2355.95,547.872L1590.72,988.575L974.159,1608.1L534.835,2373.21L307.603,3219.45L307.6,4695.85L531.861,5539.09L965.831,6299.23L1599.79,6930.27L2371.15,7370.97L3145.71,7580.21L7089.01,7581.3L7867.35,7372.16L8632.58,6929.76L9251.48,6310.86L9699.39,5540.47L9929.81,4699.44L9929.86,3222.01L9699.54,2372.52L9257.17,1610.37L8629.85,983.054L7867.76,540.718L7030.95,313.209L5889.6,313.209L3218.67,313.171Z" id="POCHE" fill="#f6f6f6" fill-opacity="1.0" stroke="#d4d4d4" stroke-opacity="1.0" stroke-width="3.0" /><path d="M6257.54,3881.19C5494.98,3881.19,4732.42,3881.19,3969.86,3881.19C3969.86,3933.22,3969.86,3985.25,3969.86,4037.27C4732.42,4037.27,5494.98,4037.27,6257.54,4037.27L6257.54,4037.27C6257.54,3985.25,6257.54,3933.22,6257.54,3881.19Z" id="Rectangle003" fill="#262626" fill-opacity="1.0" /><path d="M4374.95,3230.6L4374.95,3501.3L5852.45,3501.3L5852.45,3230.6L4374.95,3230.6Z" id="bg|||EFLOOR" fill="#ffffff" fill-opacity="1.0" stroke="#dddddd" stroke-opacity="1.0" stroke-width="7.0" /><path d="M5852.45,3197.0L5852.45,3830.3L6308.43,3830.3L6308.43,4088.16L5852.45,4088.11L5852.45,4718.75C6225.98,4718.75,6599.51,4718.75,6599.51,4718.75C6666.72,4718.75,6733.61,4696.84,6794.1,4661.46C6820.98,4645.73,6846.62,4627.29,6870.53,4606.69C6911.07,4571.77,6946.65,4530.65,6974.71,4485.75C7014.52,4422.06,7039.51,4350.6,7039.51,4278.75C7039.51,4278.75,7039.51,4228.35,7039.51,4177.95L7039.51,4177.95L6670.41,4177.95L6670.41,3740.5L7039.51,3740.5C7039.51,3688.75,7039.51,3637.0,7039.51,3637.0C7039.51,3569.79,7017.6,3502.91,6982.22,3442.41C6966.49,3415.53,6948.05,3389.89,6927.45,3365.98C6892.53,3325.44,6851.41,3289.86,6806.51,3261.8C6742.82,3221.99,6671.37,3197.0,6599.51,3197.0L6599.51,3197.0C6599.51,3197.0,6225.98,3197.0,5852.45,3197.0Z" id="bg|||HEART1" fill="#ffffff" fill-opacity="1.0" stroke="#dddddd" stroke-opacity="1.0" stroke-width="7.0" /><path d="M4374.95,4417.15L4374.95,4687.85L5852.45,4687.85L5852.45,4417.15L4374.95,4417.15Z" id="bg|||WFLOOR" fill="#ffffff" fill-opacity="1.0" stroke="#dddddd" stroke-opacity="1.0" stroke-width="7.0" /><path d="M3627.5,3197.0C3560.29,3197.0,3493.41,3218.91,3432.91,3254.29C3406.03,3270.02,3380.39,3288.46,3356.47,3309.06C3315.94,3343.98,3280.36,3385.1,3252.3,3430.0C3212.49,3493.69,3187.5,3565.15,3187.5,3637.0C3187.5,3637.0,3187.5,4278.75,3187.5,4278.75C3187.5,4427.03,3289.99,4572.39,3420.5,4653.95C3484.19,4693.76,3555.64,4718.75,3627.5,4718.75C3627.5,4718.75,4001.2,4718.75,4374.9,4718.75L4374.9,4718.75L4374.9,4088.16L3918.97,4088.16L3918.97,3830.3L4374.9,3830.3L4374.9,3197.0C4125.77,3197.0,3876.63,3197.0,3627.5,3197.0Z" id="bg|||SOUL1" fill="#ffffff" fill-opacity="1.0" stroke="#dddddd" stroke-opacity="1.0" stroke-width="7.0" /><path d="M4731.74,1999.3L4099.44,1999.55L4099.3,2167.58L4099.37,3096.95L4731.71,3096.95L4731.74,1999.3Z" id="bg|||111" fill="#ffffff" fill-opacity="1.0" stroke="#dddddd" stroke-opacity="1.0" stroke-width="7.0" /><path d="M4731.75,1999.2L4731.76,3096.85L5495.58,3096.85L5495.63,1999.2L4731.75,1999.2Z" id="bg|||112" fill="#ffffff" fill-opacity="1.0" stroke="#dddddd" stroke-opacity="1.0" stroke-width="7.0" /><path d="M5495.65,1999.3L5495.7,3096.9L6133.65,3096.9L6133.48,1999.3L5495.65,1999.3Z" id="bg|||113" fill="#ffffff" fill-opacity="1.0" stroke="#dddddd" stroke-opacity="1.0" stroke-width="7.0" /><path d="M6812.77,1922.05L6756.17,2167.45L6227.5,2167.39L6227.4,1999.34L6133.4,1999.44L6133.62,2167.48L6133.04,2219.08L6133.65,3096.95L6805.47,3096.95L6817.5,3071.09L7103.1,2391.07L7146.09,2289.66L7150.63,2278.86L7146.1,2289.65L7186.28,2195.62L6935.42,2126.9L6974.12,1959.3L6887.57,1939.35L6812.77,1922.05Z" id="bg|||114" fill="#ffffff" fill-opacity="1.0" stroke="#dddddd" stroke-opacity="1.0" stroke-width="7.0" /><path d="M6817.5,3071.11L6841.32,3019.93L6910.31,3060.46L7314.29,2512.07L7103.38,2391.25L6817.5,3071.11Z" id="bg|||115" fill="#ffffff" fill-opacity="1.0" stroke="#dddddd" stroke-opacity="1.0" stroke-width="7.0" /><path d="M7314.22,2512.1L6910.24,3060.49L6880.95,3101.07L6946.75,3151.8L6915.83,3201.38L7038.55,3346.5L7039.16,3348.38C7064.42,3412.56,7089.68,3476.74,7089.68,3476.74C7427.26,3431.56,7787.22,3383.12,7912.8,3366.21C7912.8,3366.21,7911.81,3362.53,7910.82,3358.85L7910.82,3358.85L7850.84,3136.69L7670.74,2824.68L7417.08,2571.02L7314.22,2512.1Z" id="bg|||116" fill="#ffffff" fill-opacity="1.0" stroke="#dddddd" stroke-opacity="1.0" stroke-width="7.0" /><path d="M7912.84,3366.2C7787.25,3383.11,7427.25,3431.56,7089.65,3476.74C7089.65,3476.74,7115.33,3541.98,7141.01,3607.22L7141.01,3607.22L7140.99,3957.0L7944.71,3957.02L7944.7,3484.22C7934.08,3444.88,7923.46,3405.54,7912.84,3366.2Z" id="bg|||117" fill="#ffffff" fill-opacity="1.0" stroke="#dddddd" stroke-opacity="1.0" stroke-width="7.0" /><path d="M7944.72,3957.05L7141.01,3957.06L7140.99,4324.2L7096.25,4438.21L7911.77,4552.6L7944.72,4432.93L7944.72,3957.05Z" id="bg|||118" fill="#ffffff" fill-opacity="1.0" stroke="#dddddd" stroke-opacity="1.0" stroke-width="7.0" /><path d="M7096.28,4438.2L7038.69,4584.96L6928.86,4697.42L6984.87,4811.75L6911.85,4853.7L7315.83,5400.07L7414.62,5343.53L7670.83,5089.88L7848.38,4782.97L7910.35,4557.94L7911.82,4552.6L7096.28,4438.2Z" id="bg|||119" fill="#ffffff" fill-opacity="1.0" stroke="#dddddd" stroke-opacity="1.0" stroke-width="7.0" /><path d="M7316.05,5400.12L7102.91,5522.31L6838.85,4894.38L6911.91,4853.65L7316.05,5400.12Z" id="bg|||120" fill="#ffffff" fill-opacity="1.0" stroke="#dddddd" stroke-opacity="1.0" stroke-width="7.0" /><path d="M6136.79,4821.7L6136.79,5746.86L6136.6,5957.0L6225.35,5956.9L6225.35,5746.85L6786.4,5746.75L6829.25,5967.45L6972.45,5939.5L6943.3,5789.2L7184.2,5723.64L7102.93,5522.43L6838.76,4894.55L6803.36,4821.75L6617.32,4821.73L6136.79,4821.7Z" id="bg|||121" fill="#ffffff" fill-opacity="1.0" stroke="#dddddd" stroke-opacity="1.0" stroke-width="7.0" /><path d="M5495.81,4821.7L5495.63,5956.54L5568.68,5956.7L5568.68,5850.45L6059.19,5850.41L6075.53,5850.46L6075.53,5956.9L6136.61,5956.9L6136.81,5746.88L6136.91,4821.7L5495.81,4821.7Z" id="bg|||122" fill="#ffffff" fill-opacity="1.0" stroke="#dddddd" stroke-opacity="1.0" stroke-width="7.0" /><path d="M4098.73,4821.7L4098.79,5746.95L4098.84,5956.78L4165.49,5956.61L4165.39,5850.6L4656.39,5850.35L4656.29,5956.8L4716.44,5956.57L4716.43,4821.7L4098.73,4821.7Z" id="bg|||102" fill="#ffffff" fill-opacity="1.0" stroke="#dddddd" stroke-opacity="1.0" stroke-width="7.0" /><path d="M3435.09,4822.0L3046.86,5718.92L3044.85,5723.7L3290.34,5788.74L3253.89,5935.34L3395.44,5970.8L3451.24,5746.9L3999.62,5746.85L3999.67,5956.65L4098.82,5956.52L4098.7,4822.0L3435.09,4822.0Z" id="bg|||103" fill="#ffffff" fill-opacity="1.0" stroke="#dddddd" stroke-opacity="1.0" stroke-width="7.0" /><path d="M3072.79,5201.97L2914.0,5402.11L3128.02,5526.19L3229.29,5293.89L3072.79,5201.97Z" id="bg|||104" fill="#ffffff" fill-opacity="1.0" stroke="#dddddd" stroke-opacity="1.0" stroke-width="7.0" /><path d="M3142.8,4450.67L2322.85,4561.02L2324.54,4567.27L2382.12,4780.49L2559.72,5092.46L2818.43,5346.11L2914.17,5401.64L3072.73,5202.03L2972.93,5130.52L2797.36,4954.89L3223.21,4601.09L3142.8,4450.67Z" id="bg|||105" fill="#ffffff" fill-opacity="1.0" stroke="#dddddd" stroke-opacity="1.0" stroke-width="7.0" /><path d="M2288.27,3958.0L2288.25,4433.01L2322.82,4561.03L3142.82,4450.65L3100.19,4329.06L3100.18,4068.95L2535.9,4068.95L2535.9,3958.0L2288.27,3958.0Z" id="bg|||106" fill="#ffffff" fill-opacity="1.0" stroke="#dddddd" stroke-opacity="1.0" stroke-width="7.0" /><path d="M2322.51,3352.0L2288.37,3486.79L2288.35,3957.95L2535.9,3957.94L2535.9,3847.25L3100.2,3847.25L3100.2,3585.0L3143.15,3470.52L2322.51,3352.0Z" id="bg|||107" fill="#ffffff" fill-opacity="1.0" stroke="#dddddd" stroke-opacity="1.0" stroke-width="7.0" /><path d="M2914.08,2510.0L2813.26,2568.48L2557.05,2822.14L2376.94,3136.66L2322.32,3351.89L3143.14,3470.49L3223.14,3326.81L3338.08,3219.11L3311.83,3188.17L3309.44,3187.52L3247.47,3112.35L3325.18,3060.4L2914.08,2510.0Z" id="bg|||108" fill="#ffffff" fill-opacity="1.0" stroke="#dddddd" stroke-opacity="1.0" stroke-width="7.0" /><path d="M3325.01,3061.29L3397.65,3021.69L3127.72,2386.95L2914.0,2510.92L3325.01,3061.29Z" id="bg|||109" fill="#ffffff" fill-opacity="1.0" stroke="#dddddd" stroke-opacity="1.0" stroke-width="7.0" /><path d="M3400.97,1924.55L3343.17,1937.85L3243.77,1960.9L3282.67,2128.45L3046.8,2195.51L3128.02,2385.49L3093.34,2304.55L3127.9,2385.83L3235.6,2639.55L3425.22,3096.77L4099.37,3096.95L4099.3,2169.21L4099.25,2167.33L4099.39,1999.39L3997.14,1999.14L3997.19,2167.29L3457.02,2167.25L3400.97,1924.55Z" id="bg|||110" fill="#ffffff" fill-opacity="1.0" stroke="#dddddd" stroke-opacity="1.0" stroke-width="7.0" /><path d="M4716.45,4821.7L4716.45,5956.65L5495.62,5956.65L5495.62,4821.7L4716.45,4821.7Z" id="bg|||101" fill="#ffffff" fill-opacity="1.0" stroke="#dddddd" stroke-opacity="1.0" stroke-width="7.0" /><path d="M6870.69,6486.25L7440.6,6336.6L7184.2,5723.61L6943.34,5789.28L6972.55,5939.55L6829.28,5967.4L6786.4,5746.79L6225.45,5746.82L6225.45,5956.9L6075.5,5956.75L6075.55,5850.45L5568.6,5850.4L5568.6,5956.9L4656.4,5956.9L4656.4,5850.29L4165.55,5850.26L4165.55,5956.55L3999.6,5956.6L3999.6,5746.65L3451.34,5746.78L3395.55,5970.55L3253.94,5935.24L3290.5,5788.57L3044.84,5723.61L2793.94,6333.52L3358.6,6486.25L6870.69,6486.25Z" id="200 LEVEL NORTH TRAY" fill="#ffffff" fill-opacity="1.0" stroke="#dddddd" stroke-opacity="1.0" stroke-width="7.0" /><path d="M2793.57,6333.65L3044.62,5723.74L3127.85,5525.7L2818.15,5345.98L2559.43,5092.33L2381.83,4780.36L2288.0,4432.87L2288.03,3486.7L2376.73,3136.61L2556.83,2822.09L2813.04,2568.43L3127.85,2385.82L3046.45,2195.6L2790.63,1582.21L2278.07,1873.79L1860.7,2294.25L1569.12,2794.57L1415.66,3365.44L1415.66,4553.22L1572.15,5124.19L1866.77,5627.59L2287.32,6048.04L2793.57,6333.65Z" id="200 LEVEL EAST TRAY" fill="#dfdfdf" fill-opacity="1.0" stroke="#dfdfdf" stroke-opacity="1.0" stroke-width="7.0" /><path d="M7440.39,6336.6L7183.99,5723.55L7102.73,5522.44L7414.41,5343.49L7670.62,5089.83L7848.17,4782.93L7944.56,4432.88L7944.55,3484.21L7850.72,3136.67L7670.62,2824.65L7416.97,2571.0L7102.64,2390.94L7186.11,2195.6L7440.63,1582.37L7950.1,1876.99L8373.5,2291.22L8662.05,2803.88L8815.5,3371.72L8815.5,4550.33L8662.0,5121.16L8364.34,5624.56L7952.9,6045.02L7440.39,6336.6Z" id="200 LEVEL WEST TRAY" fill="#ffffff" fill-opacity="1.0" stroke="#dddddd" stroke-opacity="1.0" stroke-width="7.0" /><path d="M7186.28,2195.65L7440.85,1582.41L6870.6,1429.01L3358.6,1428.81L2790.77,1582.27L3046.59,2195.65L3282.54,2128.74L3243.81,1961.02L3401.03,1924.73L3457.06,2167.42L3997.25,2167.56L3997.25,1999.35L5374.56,1999.35L6133.71,1999.26L6227.5,1999.35L6227.5,2167.5L6756.13,2167.42L6812.8,1921.95L6974.16,1959.21L6935.45,2126.88L7186.28,2195.65Z" id="200 LEVEL SOUTH TRAY" fill="#ffffff" fill-opacity="1.0" stroke="#dddddd" stroke-opacity="1.0" stroke-width="7.0" /><path d="M2322.32,3352.86L2376.85,3137.43L2507.76,2908.83L1812.64,2377.75L1569.24,2795.39L1448.95,3242.9L2322.32,3352.86Z" id="bg|||210" fill="#ffffff" fill-opacity="1.0" stroke="#dddddd" stroke-opacity="1.0" stroke-width="7.0" /><path d="M2288.15,3957.81L2288.17,3487.42L2322.18,3352.67L1448.96,3242.8L1415.8,3366.16L1415.8,3957.81L2288.15,3957.81Z" id="bg|||209" fill="#ffffff" fill-opacity="1.0" stroke="#dddddd" stroke-opacity="1.0" stroke-width="7.0" /><path d="M1447.3,4669.81L2322.74,4561.81L2288.14,4433.63L2288.15,3957.85L1415.8,3957.85L1415.8,4553.98L1447.3,4669.81Z" id="bg|||208" fill="#ffffff" fill-opacity="1.0" stroke="#dddddd" stroke-opacity="1.0" stroke-width="7.0" /><path d="M2376.71,6099.21L2914.06,5402.38L2818.23,5346.76L2559.52,5093.11L2514.68,5014.35L1811.95,5534.56L1866.85,5628.37L2287.41,6048.83L2376.71,6099.21Z" id="bg|||206" fill="#ffffff" fill-opacity="1.0" stroke="#dddddd" stroke-opacity="1.0" stroke-width="7.0" /><path d="M2793.64,6334.4L3044.69,5724.49L3127.92,5526.46L2914.06,5402.35L2376.7,6099.18L2793.64,6334.4Z" id="bg|||205" fill="#ffffff" fill-opacity="1.0" stroke="#dddddd" stroke-opacity="1.0" stroke-width="7.0" /><path d="M3226.73,6451.41L3348.07,5959.5L3253.82,5936.01L3290.39,5789.37L3044.71,5724.4L2793.8,6334.31L3226.73,6451.41Z" id="bg|||204" fill="#ffffff" fill-opacity="1.0" stroke="#dddddd" stroke-opacity="1.0" stroke-width="7.0" /><path d="M4098.66,6487.0L4098.66,5957.3L3999.71,5956.51L3999.76,5746.8L3451.2,5747.54L3395.41,5971.3L3349.5,5959.86L3226.7,6451.38L3358.43,6487.0L4098.66,6487.0Z" id="bg|||203" fill="#ffffff" fill-opacity="1.0" stroke="#dddddd" stroke-opacity="1.0" stroke-width="7.0" /><path d="M4716.32,6487.04L4716.32,5957.69L4656.32,5957.69L4656.32,5851.15L4165.42,5851.15L4165.42,5957.34L4098.7,5957.34L4098.7,6487.04L4716.32,6487.04Z" id="bg|||202" fill="#ffffff" fill-opacity="1.0" stroke="#dddddd" stroke-opacity="1.0" stroke-width="7.0" /><path d="M5495.52,6487.05L5495.52,5957.7L4716.3,5957.7L4716.3,6487.05L5495.52,6487.05Z" id="bg|||201" fill="#ffffff" fill-opacity="1.0" stroke="#dddddd" stroke-opacity="1.0" stroke-width="7.0" /><path d="M6136.79,6486.24L6136.79,5956.89L6075.54,5956.89L6075.54,5850.45L6059.2,5850.4L5568.7,5850.39L5568.7,5956.89L5495.65,5956.89L5495.65,6486.24L6136.79,6486.24Z" id="bg|||230" fill="#ffffff" fill-opacity="1.0" stroke="#dddddd" stroke-opacity="1.0" stroke-width="7.0" /><path d="M6870.57,6487.01L6962.48,6462.88L6869.61,5960.3L6829.16,5968.16L6786.27,5747.55L6225.43,5747.55L6225.43,5957.66L6136.7,5957.66L6136.7,6487.01L6870.57,6487.01Z" id="bg|||229" fill="#ffffff" fill-opacity="1.0" stroke="#dddddd" stroke-opacity="1.0" stroke-width="7.0" /><path d="M6962.49,6462.91L7440.49,6337.4L7184.1,5724.4L6943.24,5790.07L6972.44,5940.31L6869.7,5960.28L6962.49,6462.91Z" id="bg|||228" fill="#ffffff" fill-opacity="1.0" stroke="#dddddd" stroke-opacity="1.0" stroke-width="7.0" /><path d="M7440.46,6337.37L7856.48,6100.68L7315.81,5400.9L7102.8,5523.2L7184.06,5724.32L7440.46,6337.37Z" id="bg|||227" fill="#ffffff" fill-opacity="1.0" stroke="#dddddd" stroke-opacity="1.0" stroke-width="7.0" /><path d="M7856.51,6100.73L7953.0,6045.83L8364.45,5625.38L8416.19,5537.86L7720.68,5004.3L7670.72,5090.65L7414.52,5344.3L7315.85,5400.95L7856.51,6100.73Z" id="bg|||226" fill="#ffffff" fill-opacity="1.0" stroke="#dddddd" stroke-opacity="1.0" stroke-width="7.0" /><path d="M8416.22,5537.81L8662.12,5121.92L8778.12,4690.57L7911.5,4554.15L7848.3,4783.69L7720.7,5004.25L8416.22,5537.81Z" id="bg|||225" fill="#ffffff" fill-opacity="1.0" stroke="#dddddd" stroke-opacity="1.0" stroke-width="7.0" /><path d="M8778.06,4690.56L8815.57,4551.08L8815.57,3957.8L7944.63,3957.8L7944.63,4433.63L7911.45,4554.14L8778.06,4690.56Z" id="bg|||224" fill="#ffffff" fill-opacity="1.0" stroke="#dddddd" stroke-opacity="1.0" stroke-width="7.0" /><path d="M8815.56,3957.81L8815.56,3372.47L8785.17,3260.0L7912.95,3367.68L7944.61,3484.96L7944.62,3957.81L8815.56,3957.81Z" id="bg|||223" fill="#ffffff" fill-opacity="1.0" stroke="#dddddd" stroke-opacity="1.0" stroke-width="7.0" /><path d="M7913.02,3367.67L8785.24,3259.99L8662.18,2804.63L8425.0,2383.25L7716.7,2905.01L7850.86,3137.42L7913.02,3367.67Z" id="bg|||222" fill="#ffffff" fill-opacity="1.0" stroke="#dddddd" stroke-opacity="1.0" stroke-width="7.0" /><path d="M7716.63,2905.01L8424.93,2383.26L8373.56,2291.98L7950.16,1877.74L7863.45,1827.6L7317.0,2514.46L7417.02,2571.75L7670.67,2825.41L7716.63,2905.01Z" id="bg|||221" fill="#ffffff" fill-opacity="1.0" stroke="#dddddd" stroke-opacity="1.0" stroke-width="7.0" /><path d="M7317.01,2514.49L7863.46,1827.63L7440.69,1583.15L7186.17,2196.39L7102.7,2391.72L7317.01,2514.49Z" id="bg|||220" fill="#ffffff" fill-opacity="1.0" stroke="#dddddd" stroke-opacity="1.0" stroke-width="7.0" /><path d="M7186.15,2196.41L7440.72,1583.17L7014.08,1468.4L6887.35,1939.96L6974.03,1959.97L6935.32,2127.64L7186.15,2196.41Z" id="bg|||219" fill="#ffffff" fill-opacity="1.0" stroke="#dddddd" stroke-opacity="1.0" stroke-width="7.0" /><path d="M6227.36,2168.28L6756.0,2168.19L6812.66,1922.75L6887.46,1940.02L7014.11,1468.47L6870.5,1429.84L6133.5,1429.8L6133.5,2000.15L6227.36,2000.15L6227.36,2168.28Z" id="bg|||218" fill="#ffffff" fill-opacity="1.0" stroke="#dddddd" stroke-opacity="1.0" stroke-width="7.0" /><path d="M6133.46,1999.97L6133.46,1429.73L5495.5,1429.7L5495.5,1999.97L6133.46,1999.97Z" id="bg|||217" fill="#ffffff" fill-opacity="1.0" stroke="#dddddd" stroke-opacity="1.0" stroke-width="7.0" /><path d="M5495.55,1999.96L5495.55,1429.69L4731.7,1429.65L4731.7,1999.96L5495.55,1999.96Z" id="bg|||216" fill="#ffffff" fill-opacity="1.0" stroke="#dddddd" stroke-opacity="1.0" stroke-width="7.0" /><path d="M4137.37,1999.89L4099.34,2000.16L4731.67,1999.99L4731.67,1429.68L4099.2,1429.65L4099.27,2000.02L4137.37,1999.89Z" id="bg|||215" fill="#ffffff" fill-opacity="1.0" stroke="#dddddd" stroke-opacity="1.0" stroke-width="7.0" /><path d="M3997.13,2168.19L3997.13,2000.14L4099.23,2000.14L4099.23,1429.64L3358.51,1429.6L3216.15,1468.07L3343.07,1938.87L3400.91,1925.52L3456.93,2168.19L3997.13,2168.19Z" id="bg|||214" fill="#ffffff" fill-opacity="1.0" stroke="#dddddd" stroke-opacity="1.0" stroke-width="7.0" /><path d="M3046.62,2196.41L3282.46,2129.54L3243.73,1961.79L3343.12,1938.84L3216.27,1468.05L2790.8,1583.03L3046.62,2196.41Z" id="bg|||213" fill="#ffffff" fill-opacity="1.0" stroke="#dddddd" stroke-opacity="1.0" stroke-width="7.0" /><path d="M2912.18,2511.75L3127.91,2386.61L3046.51,2196.38L2790.69,1583.0L2365.35,1824.96L2912.18,2511.75Z" id="bg|||212" fill="#ffffff" fill-opacity="1.0" stroke="#dddddd" stroke-opacity="1.0" stroke-width="7.0" /><path d="M2507.72,2908.78L2556.92,2822.86L2813.12,2569.21L2912.2,2511.74L2365.38,1824.95L2278.15,1874.57L1860.78,2295.02L1812.6,2377.7L2507.72,2908.78Z" id="bg|||211" fill="#ffffff" fill-opacity="1.0" stroke="#dddddd" stroke-opacity="1.0" stroke-width="7.0" /><path d="M1811.96,5534.59L2514.69,5014.38L2381.93,4781.17L2322.75,4561.75L1447.25,4669.8L1572.24,5125.0L1811.96,5534.59Z" id="bg|||207" fill="#ffffff" fill-opacity="1.0" stroke="#dddddd" stroke-opacity="1.0" stroke-width="7.0" /><path d="M7440.5,6336.45L7184.05,5723.55L6838.7,4894.4" id="polyline_NW WALL" fill="none" stroke="#dfdfdf" stroke-opacity="1.0" stroke-width="14.0" /><path d="M2793.67,6333.5L3046.72,5719.0L3127.92,5525.7L3436.4,4821.62" id="polyline_NE WALL" fill="none" stroke="#dfdfdf" stroke-opacity="1.0" stroke-width="14.0" /><path d="M2790.5,1582.15L3046.3,2195.55L3127.45,2386.05L3426.9,3096.95" id="polyline_SE WALL" fill="none" stroke="#dfdfdf" stroke-opacity="1.0" stroke-width="14.0" /><path d="M7440.85,1582.4L7186.35,2195.75L7102.9,2391.0L6841.3,3020.1" id="polyline_SW WALL" fill="none" stroke="#dfdfdf" stroke-opacity="1.0" stroke-width="14.0" /><path d="M6870.68,6486.3L3358.68,6486.28L2793.88,6333.61L2287.49,6048.2L1866.99,5627.65L1572.32,5124.29L1415.78,4553.37L1415.81,3365.59L1569.24,2794.72L1860.82,2294.41L2278.24,1873.95L2790.8,1582.37L3358.64,1428.91L6870.68,1428.95L7440.83,1582.37L7950.31,1877.04L8373.75,2291.37L8662.25,2803.93L8815.7,3371.72L8815.68,4550.34L8662.25,5121.21L8364.54,5624.61L7953.2,6045.07L7440.64,6336.65L6870.68,6486.3ZM7005.24,7406.25L7792.85,7194.62L8514.19,6777.59L9097.45,6194.33L9520.13,5467.35L9737.06,4675.56L9737.1,3249.74L9520.13,2449.45L9103.09,1730.96L8511.35,1139.21L7792.85,722.178L7005.24,508.046L6082.4,508.046L6082.4,564.389L3247.74,564.385L2605.29,739.093L2579.94,682.753L2433.38,727.815L1709.25,1144.85L1128.73,1728.16L714.541,2449.5L500.412,3246.94L500.41,4672.7L711.746,5467.35L1120.35,6183.05L1717.68,6777.64L2445.33,7193.37L3233.33,7406.24L3330.88,7406.18L6888.98,7406.02L7005.24,7406.25Z" id="300 LEVEL TRAY" fill="#dfdfdf" fill-opacity="1.0" /><path d="M1449.25,3241.68L1569.18,2795.46L1611.8,2722.33L771.147,2351.55L714.481,2450.24L532.75,3127.03L1449.25,3241.68Z" id="bg|||311" fill="#ffffff" fill-opacity="1.0" stroke="#dddddd" stroke-opacity="1.0" stroke-width="7.0" /><path d="M1415.64,3958.83L1415.65,3366.31L1449.15,3241.66L532.65,3127.0L500.252,3247.65L500.25,3958.83L1415.64,3958.83Z" id="bg|||310" fill="#ffffff" fill-opacity="1.0" stroke="#dddddd" stroke-opacity="1.0" stroke-width="7.0" /><path d="M527.117,4774.09L1447.44,4669.78L1415.72,4554.11L1415.74,3958.85L500.352,3958.85L500.35,4673.44L527.117,4774.09Z" id="bg|||309" fill="#ffffff" fill-opacity="1.0" stroke="#dddddd" stroke-opacity="1.0" stroke-width="7.0" /><path d="M764.201,5560.16L1617.63,5202.62L1572.2,5125.0L1447.37,4669.75L527.05,4774.06L711.62,5468.06L764.201,5560.16Z" id="bg|||308" fill="#ffffff" fill-opacity="1.0" stroke="#dddddd" stroke-opacity="1.0" stroke-width="7.0" /><path d="M1611.75,2722.32L1860.71,2295.14L1911.64,2243.84L1213.86,1643.25L1128.62,1728.89L771.1,2351.54L1611.75,2722.32Z" id="bg|||312" fill="#ffffff" fill-opacity="1.0" stroke="#dddddd" stroke-opacity="1.0" stroke-width="7.0" /><path d="M1207.83,6270.9L1924.34,5685.77L1866.91,5628.34L1617.68,5202.6L764.25,5560.14L1120.27,6183.74L1207.83,6270.9Z" id="bg|||307" fill="#ffffff" fill-opacity="1.0" stroke="#dddddd" stroke-opacity="1.0" stroke-width="7.0" /><path d="M6136.74,7406.96L6136.74,6487.0L5495.6,6487.0L5495.6,7406.96L6136.74,7406.96Z" id="bg|||334" fill="#ffffff" fill-opacity="1.0" stroke="#dddddd" stroke-opacity="1.0" stroke-width="7.0" /><path d="M6888.81,7406.96L6766.92,6487.0L6136.75,6487.0L6136.75,7406.95L6888.81,7406.96Z" id="bg|||333" fill="#ffffff" fill-opacity="1.0" stroke="#dddddd" stroke-opacity="1.0" stroke-width="7.0" /><path d="M7005.16,7406.98L7698.0,7220.82L7336.89,6364.6L6870.6,6487.03L6766.95,6487.03L6888.84,7406.98L7005.16,7406.98Z" id="bg|||332" fill="#ffffff" fill-opacity="1.0" stroke="#dddddd" stroke-opacity="1.0" stroke-width="7.0" /><path d="M7697.96,7220.82L7792.74,7195.36L8420.32,6832.53L7855.96,6101.05L7440.52,6337.38L7336.85,6364.6L7697.96,7220.82Z" id="bg|||331" fill="#ffffff" fill-opacity="1.0" stroke="#dddddd" stroke-opacity="1.0" stroke-width="7.0" /><path d="M8420.36,6832.53L8514.12,6778.32L9028.22,6264.22L8293.63,5697.75L7953.12,6045.8L7856.0,6101.05L8420.36,6832.53Z" id="bg|||330" fill="#ffffff" fill-opacity="1.0" stroke="#dddddd" stroke-opacity="1.0" stroke-width="7.0" /><path d="M9028.24,6264.19L9097.39,6195.04L9463.39,5565.54L8607.02,5215.2L8364.49,5625.32L8293.65,5697.72L9028.24,6264.19Z" id="bg|||329" fill="#ffffff" fill-opacity="1.0" stroke="#dddddd" stroke-opacity="1.0" stroke-width="7.0" /><path d="M9463.32,5565.52L9519.99,5468.04L9692.12,4839.77L8776.76,4695.35L8662.12,5121.9L8606.95,5215.19L9463.32,5565.52Z" id="bg|||328" fill="#ffffff" fill-opacity="1.0" stroke="#dddddd" stroke-opacity="1.0" stroke-width="7.0" /><path d="M9692.16,4839.83L9736.96,4676.31L9736.98,3957.85L8815.6,3957.85L8815.59,4551.09L8776.8,4695.41L9692.16,4839.83Z" id="bg|||327" fill="#ffffff" fill-opacity="1.0" stroke="#dddddd" stroke-opacity="1.0" stroke-width="7.0" /><path d="M9736.93,3957.82L9736.96,3250.46L9707.67,3142.45L8784.7,3258.27L8815.56,3372.44L8815.55,3957.82L9736.93,3957.82Z" id="bg|||326" fill="#ffffff" fill-opacity="1.0" stroke="#dddddd" stroke-opacity="1.0" stroke-width="7.0" /><path d="M8784.75,3258.27L9707.72,3142.45L9520.03,2450.17L9463.66,2353.05L8615.95,2722.56L8662.15,2804.65L8784.75,3258.27Z" id="bg|||325" fill="#ffffff" fill-opacity="1.0" stroke="#dddddd" stroke-opacity="1.0" stroke-width="7.0" /><path d="M8615.98,2722.58L9463.69,2353.07L9103.03,1731.69L9028.23,1656.9L8298.2,2218.25L8373.68,2292.11L8615.98,2722.58Z" id="bg|||324" fill="#ffffff" fill-opacity="1.0" stroke="#dddddd" stroke-opacity="1.0" stroke-width="7.0" /><path d="M8298.21,2218.2L9028.24,1656.86L8511.29,1139.9L8442.62,1100.05L7863.65,1827.64L7950.25,1877.73L8298.21,2218.2Z" id="bg|||323" fill="#ffffff" fill-opacity="1.0" stroke="#dddddd" stroke-opacity="1.0" stroke-width="7.0" /><path d="M7863.62,1827.7L8442.59,1100.11L7792.76,722.927L7688.57,694.6L7347.35,1557.99L7440.74,1583.12L7863.62,1827.7Z" id="bg|||322" fill="#ffffff" fill-opacity="1.0" stroke="#dddddd" stroke-opacity="1.0" stroke-width="7.0" /><path d="M7347.35,1557.99L7688.57,694.605L7005.15,508.8L6888.31,508.8L6762.35,1429.7L6870.59,1429.7L7347.35,1557.99Z" id="bg|||321" fill="#ffffff" fill-opacity="1.0" stroke="#dddddd" stroke-opacity="1.0" stroke-width="7.0" /><path d="M6762.31,1429.6L6888.26,508.7L6133.45,508.7L6133.45,1429.59L6762.31,1429.6Z" id="bg|||320" fill="#ffffff" fill-opacity="1.0" stroke="#dddddd" stroke-opacity="1.0" stroke-width="7.0" /><path d="M6133.42,1429.59L6133.42,508.7L6082.24,508.7L6082.23,565.044L5495.55,565.043L5495.55,1429.59L6133.42,1429.59Z" id="bg|||319" fill="#ffffff" fill-opacity="1.0" stroke="#dddddd" stroke-opacity="1.0" stroke-width="7.0" /><path d="M5495.6,1429.6L5495.6,565.051L4731.7,565.05L4731.7,1429.59L5495.6,1429.6Z" id="bg|||318" fill="#ffffff" fill-opacity="1.0" stroke="#dddddd" stroke-opacity="1.0" stroke-width="7.0" /><path d="M4731.67,1429.59L4731.67,565.051L4099.2,565.05L4099.2,1429.58L4731.67,1429.59Z" id="bg|||317" fill="#ffffff" fill-opacity="1.0" stroke="#dddddd" stroke-opacity="1.0" stroke-width="7.0" /><path d="M4099.24,1429.6L4099.24,769.036L3371.0,768.9L3453.65,1429.59L4099.24,1429.6Z" id="bg|||316" fill="#ffffff" fill-opacity="1.0" stroke="#dddddd" stroke-opacity="1.0" stroke-width="7.0" /><path d="M2894.02,1555.05L3358.49,1429.53L3453.62,1429.53L3370.98,768.853L3354.25,768.85L3332.65,768.95L2643.6,959.632L2894.02,1555.05Z" id="bg|||315" fill="#ffffff" fill-opacity="1.0" stroke="#dddddd" stroke-opacity="1.0" stroke-width="7.0" /><path d="M2365.07,1825.22L2790.68,1583.1L2894.04,1555.16L2643.63,959.75L2543.82,987.369L1962.65,1320.37L2365.07,1825.22Z" id="bg|||314" fill="#ffffff" fill-opacity="1.0" stroke="#dddddd" stroke-opacity="1.0" stroke-width="7.0" /><path d="M1911.67,2243.82L2278.16,1874.66L2365.1,1825.2L1962.68,1320.35L1886.03,1364.27L1419.15,1819.91L1911.67,2243.82Z" id="bg|||313" fill="#ffffff" fill-opacity="1.0" stroke="#dddddd" stroke-opacity="1.0" stroke-width="7.0" /><path d="M1803.67,6827.58L2375.77,6098.76L2287.33,6048.92L1924.26,5685.8L1207.75,6270.93L1717.52,6778.36L1803.67,6827.58Z" id="bg|||306" fill="#ffffff" fill-opacity="1.0" stroke="#dddddd" stroke-opacity="1.0" stroke-width="7.0" /><path d="M2527.99,7216.43L2885.23,6359.03L2793.8,6334.32L2375.84,6098.75L1803.75,6827.57L2445.25,7194.08L2527.99,7216.43Z" id="bg|||305" fill="#ffffff" fill-opacity="1.0" stroke="#dddddd" stroke-opacity="1.0" stroke-width="7.0" /><path d="M3330.78,7406.96L3471.6,6487.0L3358.56,6487.0L2885.18,6359.05L2527.95,7216.45L3233.2,7406.96L3330.78,7406.96Z" id="bg|||304" fill="#ffffff" fill-opacity="1.0" stroke="#dddddd" stroke-opacity="1.0" stroke-width="7.0" /><path d="M4098.76,7406.96L4098.76,6487.0L3471.57,6487.0L3330.75,7406.96L4098.76,7406.96Z" id="bg|||303" fill="#ffffff" fill-opacity="1.0" stroke="#dddddd" stroke-opacity="1.0" stroke-width="7.0" /><path d="M4716.42,7406.96L4716.42,6487.0L4098.8,6487.0L4098.8,7406.96L4716.42,7406.96Z" id="bg|||302" fill="#ffffff" fill-opacity="1.0" stroke="#dddddd" stroke-opacity="1.0" stroke-width="7.0" /><path d="M5495.57,7406.96L5495.57,6487.0L4716.4,6487.0L4716.4,7406.96L5495.57,7406.96Z" id="bg|||301" fill="#ffffff" fill-opacity="1.0" stroke="#dddddd" stroke-opacity="1.0" stroke-width="7.0" /><path d="M1418.8,1819.25L1885.97,1363.29L2543.79,986.259L3332.69,768.009L3354.22,767.981L4099.2,768.033L4099.2,564.284L3247.87,564.241L2605.42,739.091L2580.17,682.591L2533.77,696.941L2433.62,727.741L1787.77,1099.69L1709.42,1144.84L1213.6,1642.97L1418.8,1819.25Z" id="BOXES INACTIVE" fill="#dfdfdf" fill-opacity="1.0" stroke="#dfdfdf" stroke-opacity="1.0" stroke-width="7.0" /><path d="M9067.95,3189.4L8802.6,3189.4L8802.6,3104.85L9067.95,3104.85L9067.95,3189.4Z" id="CAMERA" fill="#dfdfdf" fill-opacity="1.0" /><text text-align="left" id="CAMERA" fill="#727272" fill-opacity="1.0" font-family="averta,arial,'arial bold'" font-weight="bold" font-size="42.5059" x="8832.93" y="3162.4"><tspan text-anchor="start" x="8832.93">CAMERA</tspan></text><path d="M5518.2,672.65L4682.85,672.65L4682.85,568.2L5518.2,568.2L5518.2,672.65Z" id="MASK" fill="#ffffff" fill-opacity="1.0" /><path d="M5437.99,3767.64L5437.94,3644.08L4789.46,3644.08L4789.46,3767.76L4620.1,3767.77L4620.1,4150.7L4789.46,4150.7L4789.46,4274.39L5437.94,4274.39L5437.94,4150.7L5607.31,4150.7L5607.31,3767.68L5437.99,3767.64Z" id="STAGE" fill="#262626" fill-opacity="1.0" /><path d="M6700.45,3770.5L6700.45,4147.95L7139.59,4147.95L7139.59,3770.5L6700.45,3770.5Z" id="MIX" fill="#dfdfdf" fill-opacity="1.0" /><text text-align="left" id="MIX" fill="#727272" fill-opacity="1.0" font-family="averta,arial,'arial bold'" font-weight="bold" font-size="108.6" x="6828.34" y="4000.82"><tspan text-anchor="start" x="6828.34">MIX</tspan></text><text text-align="left" id="STAGE" fill="#ffffff" fill-opacity="1.0" font-family="averta,arial,'arial bold'" font-weight="bold" font-size="224.184" x="4741.18" y="4038.48"><tspan text-anchor="start" x="4741.18">STAGE</tspan></text><path d="M2565.85,3877.2L2752.34,3877.2L2752.34,4038.91L2565.85,4038.91L2565.85,3877.2Z" id="CAM" fill="#dfdfdf" fill-opacity="1.0" /><text text-align="left" id="CAM" fill="#727272" fill-opacity="1.0" font-family="averta,arial,'arial bold'" font-weight="bold" font-size="63.35" x="2585.27" y="3980.47"><tspan text-anchor="start" x="2585.27">CAM</tspan></text></svg>