<svg width="1024px" height="768px" viewBox="0 0 10240 7680" x="0px" y="0px" xmlns="http://www.w3.org/2000/svg"><defs></defs><path d="M3243.24,8.95L2767.42,485.426L1034.3,2216.9L1034.3,5452.13L3243.0,7659.65L7027.98,7659.65L9225.02,5463.2L9226.11,2209.68L7024.68,8.95L3243.24,8.95Z" id="POCHE" fill="#f6f6f6" fill-opacity="1.0" stroke="#d4d4d4" stroke-opacity="1.0" stroke-width="3.0" /><path d="M5509.94,3750.8C4888.18,3750.8,4266.43,3750.8,3644.67,3750.8C3644.67,3809.06,3644.67,3867.32,3644.67,3925.58C4266.43,3925.58,4888.18,3925.58,5509.94,3925.58L5509.94,3925.58C5509.94,3867.32,5509.94,3809.06,5509.94,3750.8Z" id="Rectangle003" fill="#262626" fill-opacity="1.0" /><path d="M4043.7,3136.0L4043.7,3404.35L5318.45,3404.35L5318.45,3136.0L4043.7,3136.0Z" id="bg|||F2" fill="#ffffff" fill-opacity="1.0" stroke="#dddddd" stroke-opacity="1.0" stroke-width="6.0" /><path d="M4043.7,4272.05L4043.7,4540.5L5318.45,4540.5L5318.45,4272.05L4043.7,4272.05Z" id="bg|||F1" fill="#ffffff" fill-opacity="1.0" stroke="#dddddd" stroke-opacity="1.0" stroke-width="6.0" /><path d="M3333.15,3136.0C3269.83,3136.0,3206.68,3156.25,3149.63,3189.62C3124.9,3204.08,3101.31,3221.04,3079.31,3239.98C3042.1,3272.04,3009.46,3309.8,2983.7,3351.02C2946.2,3411.01,2923.15,3478.41,2923.15,3546.0C2923.15,3546.0,2923.15,3610.2,2923.15,3674.4L2923.15,3674.4L3120.14,3674.4L3120.14,4002.0L2923.15,4002.0C2923.15,4066.25,2923.15,4130.5,2923.15,4130.5C2923.15,4267.97,3016.62,4403.98,3138.17,4479.95C3198.16,4517.45,3265.56,4540.5,3333.15,4540.5C3333.15,4540.5,3688.42,4540.5,4043.7,4540.5L4043.7,4540.5L4043.7,3970.63L3599.53,3970.72L3599.53,3705.65L4043.7,3705.75L4043.7,3136.0C3806.85,3136.0,3570.0,3136.0,3333.15,3136.0Z" id="bg|||SOUL" fill="#ffffff" fill-opacity="1.0" stroke="#dddddd" stroke-opacity="1.0" stroke-width="6.0" /><path d="M5318.45,3136.0L5318.45,3705.75L5555.09,3705.65L5555.09,3970.72L5318.45,3970.63L5318.45,4540.5C5660.0,4540.5,6001.55,4540.5,6001.55,4540.5C6064.87,4540.5,6128.02,4520.25,6185.07,4486.88C6209.8,4472.42,6233.39,4455.46,6255.39,4436.51C6292.6,4404.46,6325.24,4366.7,6351.0,4325.48C6388.5,4265.49,6411.55,4198.09,6411.55,4130.5C6411.55,4130.5,6411.55,4081.25,6411.55,4032.0L6411.55,4032.0L5875.5,4032.0L5875.5,3644.4L6411.55,3644.4C6411.55,3595.2,6411.55,3546.0,6411.55,3546.0C6411.55,3482.68,6391.3,3419.53,6357.93,3362.48C6343.47,3337.75,6326.52,3314.15,6307.57,3292.16C6275.51,3254.95,6237.75,3222.31,6196.53,3196.55C6136.54,3159.05,6069.14,3136.0,6001.55,3136.0L6001.55,3136.0C6001.55,3136.0,5660.0,3136.0,5318.45,3136.0Z" id="bg|||HEART" fill="#ffffff" fill-opacity="1.0" stroke="#dddddd" stroke-opacity="1.0" stroke-width="6.0" /><path d="M2633.72,2226.3L2381.5,2478.28L2694.69,2791.47L2946.91,2539.49L2633.72,2226.3Z" id="bg|||SB2C" fill="#ffffff" fill-opacity="1.0" stroke="#dddddd" stroke-opacity="1.0" stroke-width="6.0" /><path d="M2404.25,4166.55L2404.25,4720.56L2637.06,4720.56L2637.06,4820.4L2736.58,4919.91L2901.03,4755.54L2837.04,4691.56L2837.03,4391.06L2637.06,4391.06L2637.06,4166.55L2404.25,4166.55Z" id="bg|||113" fill="#ffffff" fill-opacity="1.0" stroke="#dddddd" stroke-opacity="1.0" stroke-width="6.0" /><path d="M2404.25,3501.6L2404.25,4165.59L2637.06,4165.59L2637.06,4391.1L2837.07,4391.1L2837.07,3838.43L2637.06,3838.43L2637.06,3501.6L2404.25,3501.6Z" id="bg|||114" fill="#ffffff" fill-opacity="1.0" stroke="#dddddd" stroke-opacity="1.0" stroke-width="6.0" /><path d="M2404.25,2949.5L2404.25,3500.6L2637.06,3500.6L2637.06,3838.43L2837.03,3838.43L2837.02,3287.75L2637.06,3287.75L2637.06,2949.5L2404.25,2949.5Z" id="bg|||115" fill="#ffffff" fill-opacity="1.0" stroke="#dddddd" stroke-opacity="1.0" stroke-width="6.0" /><path d="M2537.06,2635.25L2404.25,2767.94L2404.25,2948.46L2637.06,2948.46L2637.06,3287.71L2837.01,3287.71L2837.01,2983.59L2896.92,2923.68L2729.69,2756.42L2693.94,2792.13L2537.06,2635.25Z" id="bg|||116" fill="#ffffff" fill-opacity="1.0" stroke="#dddddd" stroke-opacity="1.0" stroke-width="6.0" /><path d="M3171.3,1689.2L2919.0,1941.27L3232.22,2254.44L3484.5,2002.4L3171.3,1689.2Z" id="bg|||SB2A" fill="#ffffff" fill-opacity="1.0" stroke="#dddddd" stroke-opacity="1.0" stroke-width="6.0" /><path d="M2918.3,1941.95L2634.4,2225.58L2947.59,2538.77L3231.52,2255.12L2918.3,1941.95Z" id="bg|||SB2B" fill="#ffffff" fill-opacity="1.0" stroke="#dddddd" stroke-opacity="1.0" stroke-width="6.0" /><path d="M3088.04,2398.45L2729.7,2756.44L2896.23,2923.01L3254.46,2564.78L3088.04,2398.45Z" id="bg|||117" fill="#ffffff" fill-opacity="1.0" stroke="#dddddd" stroke-opacity="1.0" stroke-width="6.0" /><path d="M3456.62,2030.25L3088.05,2398.46L3254.47,2564.79L3619.27,2928.22L3914.47,2632.97L3828.46,2414.11L3729.06,2413.11L3668.51,2243.51L3456.62,2030.25Z" id="bg|||118" fill="#ffffff" fill-opacity="1.0" stroke="#dddddd" stroke-opacity="1.0" stroke-width="6.0" /><path d="M3914.45,2632.95L3619.7,2927.75L3619.7,2979.1L4051.22,2979.1L3914.45,2632.95Z" id="bg|||18" fill="#ffffff" fill-opacity="1.0" stroke="#dddddd" stroke-opacity="1.0" stroke-width="6.0" /><path d="M5430.0,2648.5L5430.0,3086.1L6138.42,3086.1L6297.58,2648.5L5430.0,2648.5Z" id="bg|||24" fill="#ffffff" fill-opacity="1.0" stroke="#dddddd" stroke-opacity="1.0" stroke-width="6.0" /><path d="M4804.5,2648.5L4804.56,3086.1L5428.99,3086.1L5428.99,2648.5L4804.5,2648.5Z" id="bg|||22" fill="#ffffff" fill-opacity="1.0" stroke="#dddddd" stroke-opacity="1.0" stroke-width="6.0" /><path d="M3920.5,2648.5L4093.5,3086.1L4804.53,3086.1L4804.47,2648.5L3920.5,2648.5Z" id="bg|||20" fill="#ffffff" fill-opacity="1.0" stroke="#dddddd" stroke-opacity="1.0" stroke-width="6.0" /><path d="M3443.8,1598.0L3262.55,1779.09L3485.18,2001.71L3455.87,2031.0L3668.24,2243.37L3728.92,2412.98L4081.5,2412.95L4081.73,1948.02L3659.26,1948.0L3659.26,1598.0L3443.8,1598.0Z" id="bg|||119" fill="#ffffff" fill-opacity="1.0" stroke="#dddddd" stroke-opacity="1.0" stroke-width="6.0" /><path d="M3660.3,1598.0L3660.3,1948.0L4081.75,1948.01L4081.55,2413.48L4598.5,2413.48L4598.5,1948.04L4370.1,1948.03L4370.1,1598.0L3660.3,1598.0Z" id="bg|||120" fill="#ffffff" fill-opacity="1.0" stroke="#dddddd" stroke-opacity="1.0" stroke-width="6.0" /><path d="M4371.05,1598.0L4371.05,1948.03L4599.46,1948.03L4599.46,2413.48L5119.66,2413.5L5119.66,1948.06L4787.26,1948.04L4787.26,1598.0L4371.05,1598.0Z" id="bg|||121" fill="#ffffff" fill-opacity="1.0" stroke="#dddddd" stroke-opacity="1.0" stroke-width="6.0" /><path d="M4788.3,1598.0L4788.3,1948.04L5120.7,1948.05L5120.7,2413.5L5615.1,2413.52L5615.1,1948.07L5436.6,1948.06L5436.6,1598.01L4788.3,1598.0Z" id="bg|||122" fill="#ffffff" fill-opacity="1.0" stroke="#dddddd" stroke-opacity="1.0" stroke-width="6.0" /><path d="M5437.55,1598.0L5437.55,1948.05L5616.06,1948.05L5616.06,2413.51L6146.05,2413.54L6146.05,1948.08L5855.16,1948.06L5855.16,1598.0L5437.55,1598.0Z" id="bg|||123" fill="#ffffff" fill-opacity="1.0" stroke="#dddddd" stroke-opacity="1.0" stroke-width="6.0" /><path d="M5856.2,1598.0L5856.2,1948.07L6146.05,1948.08L6146.05,2412.95L6389.56,2412.95L6460.08,2482.06L6563.86,2240.39L6752.91,2051.36L6649.62,1948.06L6580.4,1948.05L6580.4,1598.01L5856.2,1598.0Z" id="bg|||124" fill="#ffffff" fill-opacity="1.0" stroke="#dddddd" stroke-opacity="1.0" stroke-width="6.0" /><path d="M6581.36,1598.0L6581.36,1948.09L6649.61,1948.09L6752.9,2051.38L6563.85,2240.41L6428.9,2554.66L6513.96,2632.96L6967.6,2565.72L7117.37,2415.87L6879.76,2178.24L7132.43,1925.53L6804.72,1598.0L6581.36,1598.0Z" id="bg|||125" fill="#ffffff" fill-opacity="1.0" stroke="#dddddd" stroke-opacity="1.0" stroke-width="6.0" /><path d="M6966.62,2565.85L6964.33,2566.17L6583.55,2622.62L6746.7,2785.77L6966.62,2565.85Z" id="bg|||25DA" fill="#ffffff" fill-opacity="1.0" stroke="#dddddd" stroke-opacity="1.0" stroke-width="6.0" /><path d="M6390.04,2413.4L6282.2,2690.71L6157.1,3034.66L6327.44,3205.0L6745.98,2786.46L6582.32,2622.78L6513.95,2632.92L6428.88,2554.61L6459.64,2483.01L6390.04,2413.4Z" id="bg|||25" fill="#ffffff" fill-opacity="1.0" stroke="#dddddd" stroke-opacity="1.0" stroke-width="6.0" /><path d="M6815.52,2718.3L6328.1,3205.72L6462.19,3339.74L7145.23,3048.01L6815.52,2718.3Z" id="bg|||26" fill="#ffffff" fill-opacity="1.0" stroke="#dddddd" stroke-opacity="1.0" stroke-width="6.0" /><path d="M7133.15,1926.2L6880.45,2178.93L7117.66,2416.14L6816.2,2717.6L7146.2,3047.6L7252.46,3002.21L7616.18,2638.54L7636.96,2659.3L7751.78,2544.51L7133.15,1926.2Z" id="bg|||126" fill="#ffffff" fill-opacity="1.0" stroke="#dddddd" stroke-opacity="1.0" stroke-width="6.0" /><path d="M7752.52,2545.2L7636.99,2660.7L7616.22,2639.93L7254.96,3001.14L6918.0,3145.08L6918.0,3251.77L7625.71,3251.77L7625.82,2934.37L7925.74,2934.37L7925.82,2718.41L7752.52,2545.2Z" id="bg|||127" fill="#ffffff" fill-opacity="1.0" stroke="#dddddd" stroke-opacity="1.0" stroke-width="6.0" /><path d="M6918.0,4427.75L6918.0,4544.38L7294.97,4713.81L7473.86,4892.0L7624.91,5043.02L7643.28,5024.65L7748.32,5129.68L7925.07,4952.94L7925.18,4612.5L7715.9,4612.5L7715.29,4442.09L7715.29,4428.19L7626.34,4427.75L6918.0,4427.75Z" id="bg|||102" fill="#ffffff" fill-opacity="1.0" stroke="#dddddd" stroke-opacity="1.0" stroke-width="6.0" /><path d="M7625.52,3838.4L6972.04,3838.41L6972.04,3913.49L6460.21,3913.49L6460.15,4338.62L6917.99,4544.39L6917.99,4427.73L7305.79,4427.19L7716.28,4427.19L7716.28,4442.09L7925.23,4442.09L7925.36,4061.29L7625.43,4061.29L7625.52,3838.4Z" id="bg|||101" fill="#ffffff" fill-opacity="1.0" stroke="#dddddd" stroke-opacity="1.0" stroke-width="6.0" /><path d="M3234.48,5417.75L2921.25,5730.93L3181.91,5991.58L3495.14,5678.4L3234.48,5417.75Z" id="bg|||SB1A" fill="#ffffff" fill-opacity="1.0" stroke="#dddddd" stroke-opacity="1.0" stroke-width="6.0" /><path d="M3732.6,5266.65L3657.36,5442.59L3458.3,5641.62L3495.83,5679.14L3273.3,5901.63L3445.28,6073.65L3651.4,6073.63L3651.4,5723.81L4074.7,5723.79L4074.7,5266.65L3732.6,5266.65Z" id="bg|||110" fill="#ffffff" fill-opacity="1.0" stroke="#dddddd" stroke-opacity="1.0" stroke-width="6.0" /><path d="M4074.7,5266.65L4074.7,5723.78L3652.4,5723.81L3652.4,6073.63L4372.09,6073.55L4372.09,5723.77L4594.5,5723.76L4594.5,5266.65L4074.7,5266.65Z" id="bg|||109" fill="#ffffff" fill-opacity="1.0" stroke="#dddddd" stroke-opacity="1.0" stroke-width="6.0" /><path d="M4595.5,5266.65L4595.5,5723.75L4373.1,5723.76L4373.1,6073.55L4777.9,6073.5L4777.9,5723.74L5116.7,5723.72L5116.7,5266.65L4595.5,5266.65Z" id="bg|||108" fill="#ffffff" fill-opacity="1.0" stroke="#dddddd" stroke-opacity="1.0" stroke-width="6.0" /><path d="M5117.7,5266.65L5117.7,5723.73L4778.9,5723.75L4778.9,6073.5L5427.0,6073.42L5427.0,5723.71L5603.9,5723.71L5603.9,5266.65L5117.7,5266.65Z" id="bg|||107" fill="#ffffff" fill-opacity="1.0" stroke="#dddddd" stroke-opacity="1.0" stroke-width="6.0" /><path d="M5604.9,5266.65L5604.9,5723.71L5428.0,5723.72L5428.0,6073.42L5857.9,6073.38L5857.9,5723.69L6152.9,5723.68L6152.9,5266.65L5604.9,5266.65Z" id="bg|||106" fill="#ffffff" fill-opacity="1.0" stroke="#dddddd" stroke-opacity="1.0" stroke-width="6.0" /><path d="M6460.9,5216.3L6409.24,5266.56L6153.9,5266.56L6153.9,5723.63L5858.9,5723.65L5858.9,6073.33L6580.29,6073.24L6580.29,5723.57L6640.88,5723.57L6750.29,5614.15L6550.35,5412.0L6460.9,5216.3Z" id="bg|||105" fill="#ffffff" fill-opacity="1.0" stroke="#dddddd" stroke-opacity="1.0" stroke-width="6.0" /><path d="M7135.51,4642.15L6818.6,4959.06L7112.02,5252.45L6853.33,5511.15L7110.1,5767.9L7747.6,5130.4L7643.26,5026.05L7624.89,5044.41L7293.65,4713.23L7135.51,4642.15Z" id="bg|||103" fill="#ffffff" fill-opacity="1.0" stroke="#dddddd" stroke-opacity="1.0" stroke-width="6.0" /><path d="M6460.2,4338.65L6329.15,4469.67L6817.89,4958.35L7134.53,4641.71L6460.2,4338.65Z" id="bg|||3" fill="#ffffff" fill-opacity="1.0" stroke="#dddddd" stroke-opacity="1.0" stroke-width="6.0" /><path d="M6751.34,4892.0L6586.3,5057.04L6963.78,5104.62L6751.34,4892.0Z" id="bg|||4DA" fill="#ffffff" fill-opacity="1.0" stroke="#dddddd" stroke-opacity="1.0" stroke-width="6.0" /><path d="M6510.38,5047.45L6423.4,5134.41L6550.32,5412.04L6750.25,5614.19L6640.84,5723.62L6581.25,5723.62L6581.25,6073.25L6804.72,6073.23L7109.37,5768.58L6852.62,5511.82L7111.95,5252.46L6963.79,5104.61L6510.38,5047.45Z" id="bg|||104" fill="#ffffff" fill-opacity="1.0" stroke="#dddddd" stroke-opacity="1.0" stroke-width="6.0" /><path d="M6329.18,4469.65L6159.85,4638.97L6409.77,5266.02L6460.41,5215.37L6423.39,5134.4L6510.39,5047.44L6585.08,5056.85L6750.65,4891.28L6329.18,4469.65Z" id="bg|||4" fill="#ffffff" fill-opacity="1.0" stroke="#dddddd" stroke-opacity="1.0" stroke-width="6.0" /><path d="M5437.55,4590.55L5437.55,5026.85L6313.38,5026.85L6139.48,4590.55L5437.55,4590.55Z" id="bg|||6" fill="#ffffff" fill-opacity="1.0" stroke="#dddddd" stroke-opacity="1.0" stroke-width="6.0" /><path d="M4805.55,4590.55L4805.55,5026.85L5436.55,5026.85L5436.55,4590.55L4805.55,4590.55Z" id="bg|||8" fill="#ffffff" fill-opacity="1.0" stroke="#dddddd" stroke-opacity="1.0" stroke-width="6.0" /><path d="M4075.2,4590.55L3891.9,5026.85L4804.56,5026.85L4804.56,4590.55L4075.2,4590.55Z" id="bg|||10" fill="#ffffff" fill-opacity="1.0" stroke="#dddddd" stroke-opacity="1.0" stroke-width="6.0" /><path d="M3640.66,4702.5L3640.65,4744.4L3901.1,5004.8L4028.2,4702.5L3640.66,4702.5Z" id="bg|||12" fill="#ffffff" fill-opacity="1.0" stroke="#dddddd" stroke-opacity="1.0" stroke-width="6.0" /><path d="M3640.67,4744.45L3258.67,5113.78L3094.6,5277.84L3458.31,5641.53L3657.37,5442.49L3732.67,5266.69L3791.27,5266.54L3891.92,5026.64L3901.07,5004.85L3640.67,4744.45Z" id="bg|||111" fill="#ffffff" fill-opacity="1.0" stroke="#dddddd" stroke-opacity="1.0" stroke-width="6.0" /><path d="M2958.68,5142.0L2645.45,5455.18L2920.51,5730.23L3233.74,5417.05L2958.68,5142.0Z" id="bg|||SB1B" fill="#ffffff" fill-opacity="1.0" stroke="#dddddd" stroke-opacity="1.0" stroke-width="6.0" /><path d="M2404.25,4721.5L2404.25,4900.87L2544.01,5040.65L2700.69,4883.97L2637.06,4820.34L2637.06,4721.5L2404.25,4721.5ZM2900.65,4755.85L2736.57,4919.85L3093.87,5277.13L3257.9,5113.1L2900.65,4755.85Z" id="bg|||112" fill="#ffffff" fill-opacity="1.0" stroke="#dddddd" stroke-opacity="1.0" stroke-width="6.0" /><path d="M2701.41,4884.75L2388.2,5197.96L2644.77,5454.51L2958.0,5141.33L2701.41,4884.75Z" id="bg|||SB1C" fill="#ffffff" fill-opacity="1.0" stroke="#dddddd" stroke-opacity="1.0" stroke-width="6.0" /><path d="M7625.83,2935.4L7625.72,3251.8L6918.0,3251.8L6918.0,3145.1L6461.6,3340.05L6461.6,3763.4L6972.05,3763.4L6972.05,3838.42L7625.53,3838.41L7625.59,3618.4L7925.52,3618.4L7925.74,2935.4L7625.83,2935.4Z" id="bg|||128" fill="#ffffff" fill-opacity="1.0" stroke="#dddddd" stroke-opacity="1.0" stroke-width="6.0" /><path d="M5120.28,3635.71L4974.13,3635.71L4974.13,3528.9L4388.03,3528.9L4388.03,3635.71L4229.83,3635.71L4229.83,4028.95L4388.03,4028.95L4388.03,4147.48L4974.13,4147.48L4974.13,4028.95L5120.28,4028.95L5120.28,3635.71Z" id="STAGE" fill="#262626" fill-opacity="1.0" /><path d="M5905.5,3674.45L5905.5,4002.05L6305.14,4002.05L6305.14,3674.45L5905.5,3674.45Z" id="MIX" fill="#dfdfdf" fill-opacity="1.0" /><path d="M2868.5,3704.45L2868.5,3972.05L3090.15,3972.05L3090.15,3704.45L2868.5,3704.45Z" id="CAM" fill="#dfdfdf" fill-opacity="1.0" /><text text-align="left" id="STAGE" fill="#ffffff" fill-opacity="1.0" font-family="averta,arial,'arial bold'" font-weight="bold" font-size="226.835" x="4298.13" y="3918.41"><tspan text-anchor="start" x="4298.13">STAGE</tspan></text><text text-align="left" id="MIX" fill="#727272" fill-opacity="1.0" font-family="averta,arial,'arial bold'" font-weight="bold" font-size="142.352" x="5985.24" y="3892.79"><tspan text-anchor="start" x="5985.24">MIX</tspan></text><text text-align="left" id="CAM" fill="#727272" fill-opacity="1.0" font-family="averta,arial,'arial bold'" font-weight="bold" font-size="79.2125" x="2885.65" y="3868.61"><tspan text-anchor="start" x="2885.65">CAM</tspan></text><path d="M3443.84,1598.0L6804.77,1598.02L7925.82,2718.46L7925.07,4952.97L6804.77,6073.27L3445.29,6073.65L3273.04,5901.35L3182.34,5992.06L2387.99,5197.75L2478.76,5106.9L2544.48,5041.19L2404.3,4900.97L2404.3,2767.99L2537.45,2634.95L2381.15,2478.65L3171.68,1688.86L3262.24,1779.43L3443.84,1598.0ZM6957.7,1398.0L3311.32,1398.02L2064.3,2643.85L2064.3,5025.48L3312.7,6273.84L6957.7,6273.84L8195.17,5036.42L8195.97,2636.22L6957.7,1398.0Z" id="SUITE TRAY" fill="#ffffff" fill-opacity="1.0" stroke="#dddddd" stroke-opacity="1.0" stroke-width="6.0" /><path d="M8195.94,2727.6L8195.2,4935.8L8349.4,4935.8L8349.4,2727.6L8195.94,2727.6Z" id="TB INACTIVE" fill="#dfdfdf" fill-opacity="1.0" /><path d="M2284.88,5020.84L2172.26,5133.42L3106.19,6067.3L3181.9,5991.59L2387.56,5197.29L2424.45,5160.41L2284.88,5020.84Z" id="INACTIVE" fill="#dfdfdf" fill-opacity="1.0" stroke="#dfdfdf" stroke-opacity="1.0" stroke-width="6.0" /><path d="M3095.93,1613.14L2172.59,2535.61L2285.16,2648.16L2417.95,2515.49L2381.09,2478.64L3171.62,1688.87L3095.93,1613.14Z" id="INACTIVE" fill="#dfdfdf" fill-opacity="1.0" stroke="#dfdfdf" stroke-opacity="1.0" stroke-width="6.0" /><path d="M7945.17,2385.43L7768.94,2561.66L7925.82,2718.46L7925.78,2825.5L8195.91,2825.5L8195.97,2636.22L7945.17,2385.43Z" id="TS35" fill="#dfdfdf" fill-opacity="1.0" stroke="#dfdfdf" stroke-opacity="1.0" stroke-width="6.0" /><path d="M7742.26,2182.54L7565.98,2358.82L7768.24,2560.96L7944.47,2384.73L7742.26,2182.54Z" id="TS34" fill="#dfdfdf" fill-opacity="1.0" stroke="#dfdfdf" stroke-opacity="1.0" stroke-width="6.0" /><path d="M7540.16,1980.44L7363.83,2156.77L7565.28,2358.12L7741.56,2181.84L7540.16,1980.44Z" id="TS33" fill="#dfdfdf" fill-opacity="1.0" stroke="#dfdfdf" stroke-opacity="1.0" stroke-width="6.0" /><path d="M7339.8,1780.1L7163.42,1956.48L7363.13,2156.07L7539.46,1979.74L7339.8,1780.1Z" id="TS32" fill="#dfdfdf" fill-opacity="1.0" stroke="#dfdfdf" stroke-opacity="1.0" stroke-width="6.0" /><path d="M7144.56,1584.86L6968.15,1761.31L7162.72,1955.78L7339.1,1779.4L7144.56,1584.86Z" id="TS31" fill="#dfdfdf" fill-opacity="1.0" stroke="#dfdfdf" stroke-opacity="1.0" stroke-width="6.0" /><path d="M6963.29,5914.72L6804.77,6073.24L6764.7,6073.24L6764.7,6273.81L6957.7,6273.81L7140.02,6091.5L6963.29,5914.72Z" id="TS47" fill="#dfdfdf" fill-opacity="1.0" stroke="#dfdfdf" stroke-opacity="1.0" stroke-width="6.0" /><path d="M6763.7,6073.24L6482.4,6073.27L6482.4,6273.81L6763.7,6273.81L6763.7,6073.24Z" id="TS48" fill="#dfdfdf" fill-opacity="1.0" stroke="#dfdfdf" stroke-opacity="1.0" stroke-width="6.0" /><path d="M6481.4,6073.27L6204.3,6073.3L6204.3,6273.81L6481.4,6273.81L6481.4,6073.27Z" id="TS49" fill="#dfdfdf" fill-opacity="1.0" stroke="#dfdfdf" stroke-opacity="1.0" stroke-width="6.0" /><path d="M6203.3,6073.3L5935.9,6073.33L5935.9,6273.81L6203.3,6273.81L6203.3,6073.3Z" id="TS50" fill="#dfdfdf" fill-opacity="1.0" stroke="#dfdfdf" stroke-opacity="1.0" stroke-width="6.0" /><path d="M5934.9,6073.33L5653.1,6073.36L5653.1,6273.81L5934.9,6273.81L5934.9,6073.33Z" id="TS51" fill="#dfdfdf" fill-opacity="1.0" stroke="#dfdfdf" stroke-opacity="1.0" stroke-width="6.0" /><path d="M5652.1,6073.36L5378.9,6073.39L5378.9,6273.81L5652.1,6273.81L5652.1,6073.36Z" id="TS52" fill="#dfdfdf" fill-opacity="1.0" stroke="#dfdfdf" stroke-opacity="1.0" stroke-width="6.0" /><path d="M5377.9,6073.39L5107.2,6073.42L5107.2,6273.81L5377.9,6273.81L5377.9,6073.39Z" id="TS53" fill="#dfdfdf" fill-opacity="1.0" stroke="#dfdfdf" stroke-opacity="1.0" stroke-width="6.0" /><path d="M5106.2,6073.42L4831.3,6073.45L4831.3,6273.81L5106.2,6273.81L5106.2,6073.42Z" id="TS54" fill="#dfdfdf" fill-opacity="1.0" stroke="#dfdfdf" stroke-opacity="1.0" stroke-width="6.0" /><path d="M4830.3,6073.45L4556.5,6073.48L4556.5,6273.81L4830.3,6273.81L4830.3,6073.45Z" id="TS55" fill="#dfdfdf" fill-opacity="1.0" stroke="#dfdfdf" stroke-opacity="1.0" stroke-width="6.0" /><path d="M4555.5,6073.48L4278.6,6073.51L4278.6,6273.81L4555.5,6273.81L4555.5,6073.48Z" id="TS56" fill="#dfdfdf" fill-opacity="1.0" stroke="#dfdfdf" stroke-opacity="1.0" stroke-width="6.0" /><path d="M4277.6,6073.52L4004.9,6073.55L4004.9,6273.81L4277.6,6273.81L4277.6,6073.52Z" id="TS57" fill="#dfdfdf" fill-opacity="1.0" stroke="#dfdfdf" stroke-opacity="1.0" stroke-width="6.0" /><path d="M4003.9,6073.55L3731.1,6073.58L3731.1,6273.81L4003.9,6273.81L4003.9,6073.55Z" id="TS58" fill="#dfdfdf" fill-opacity="1.0" stroke="#dfdfdf" stroke-opacity="1.0" stroke-width="6.0" /><path d="M3730.1,6073.58L3457.4,6073.62L3457.4,6273.81L3730.1,6273.81L3730.1,6073.58Z" id="TS59" fill="#dfdfdf" fill-opacity="1.0" stroke="#dfdfdf" stroke-opacity="1.0" stroke-width="6.0" /><path d="M3273.31,5901.59L3106.89,6068.01L3312.7,6273.81L3456.4,6273.81L3456.4,6073.62L3445.29,6073.62L3273.31,5901.59Z" id="TS60" fill="#dfdfdf" fill-opacity="1.0" stroke="#dfdfdf" stroke-opacity="1.0" stroke-width="6.0" /><path d="M2227.3,4901.4L2227.3,4963.27L2424.45,5160.41L2544.1,5040.78L2404.76,4901.4L2227.3,4901.4Z" id="LB1" fill="#dfdfdf" fill-opacity="1.0" stroke="#dfdfdf" stroke-opacity="1.0" stroke-width="6.0" /><path d="M2227.3,4696.8L2227.3,4900.4L2404.3,4900.4L2404.3,4696.8L2227.3,4696.8Z" id="LB2" fill="#dfdfdf" fill-opacity="1.0" stroke="#dfdfdf" stroke-opacity="1.0" stroke-width="6.0" /><path d="M2227.3,4484.5L2227.3,4695.8L2404.3,4695.8L2404.3,4484.5L2227.3,4484.5Z" id="LB3" fill="#dfdfdf" fill-opacity="1.0" stroke="#dfdfdf" stroke-opacity="1.0" stroke-width="6.0" /><path d="M2227.3,4272.3L2227.3,4483.5L2404.3,4483.5L2404.3,4272.3L2227.3,4272.3Z" id="LB4" fill="#dfdfdf" fill-opacity="1.0" stroke="#dfdfdf" stroke-opacity="1.0" stroke-width="6.0" /><path d="M2227.3,4061.1L2227.3,4271.3L2404.3,4271.3L2404.3,4061.1L2227.3,4061.1Z" id="LB5" fill="#dfdfdf" fill-opacity="1.0" stroke="#dfdfdf" stroke-opacity="1.0" stroke-width="6.0" /><path d="M2227.3,3839.8L2227.3,4060.1L2404.3,4060.1L2404.3,3839.8L2227.3,3839.8Z" id="LB6" fill="#dfdfdf" fill-opacity="1.0" stroke="#dfdfdf" stroke-opacity="1.0" stroke-width="6.0" /><path d="M2227.3,3614.4L2227.3,3838.8L2404.3,3838.8L2404.3,3614.4L2227.3,3614.4Z" id="LB7" fill="#dfdfdf" fill-opacity="1.0" stroke="#dfdfdf" stroke-opacity="1.0" stroke-width="6.0" /><path d="M2227.3,3404.4L2227.3,3613.4L2404.3,3613.4L2404.3,3404.4L2227.3,3404.4Z" id="LB8" fill="#dfdfdf" fill-opacity="1.0" stroke="#dfdfdf" stroke-opacity="1.0" stroke-width="6.0" /><path d="M2227.3,3191.1L2227.3,3403.4L2404.3,3403.4L2404.3,3191.1L2227.3,3191.1Z" id="LB9" fill="#dfdfdf" fill-opacity="1.0" stroke="#dfdfdf" stroke-opacity="1.0" stroke-width="6.0" /><path d="M2227.3,2983.2L2227.3,3190.1L2404.3,3190.1L2404.3,2983.2L2227.3,2983.2Z" id="LB10" fill="#dfdfdf" fill-opacity="1.0" stroke="#dfdfdf" stroke-opacity="1.0" stroke-width="6.0" /><path d="M2227.3,2768.5L2227.3,2982.2L2404.3,2982.2L2404.3,2768.5L2227.3,2768.5Z" id="LB11" fill="#dfdfdf" fill-opacity="1.0" stroke="#dfdfdf" stroke-opacity="1.0" stroke-width="6.0" /><path d="M2417.95,2515.49L2227.3,2705.96L2227.3,2767.5L2404.76,2767.5L2537.42,2634.95L2417.95,2515.49Z" id="LB12" fill="#dfdfdf" fill-opacity="1.0" stroke="#dfdfdf" stroke-opacity="1.0" stroke-width="6.0" /><path d="M2064.3,4748.7L2064.3,5025.45L2171.58,5132.72L2284.18,5020.15L2227.3,4963.27L2227.3,4748.7L2064.3,4748.7Z" id="LB13" fill="#dfdfdf" fill-opacity="1.0" stroke="#dfdfdf" stroke-opacity="1.0" stroke-width="6.0" /><path d="M2064.3,4537.5L2064.3,4747.7L2227.3,4747.7L2227.3,4537.5L2064.3,4537.5Z" id="LB14" fill="#dfdfdf" fill-opacity="1.0" stroke="#dfdfdf" stroke-opacity="1.0" stroke-width="6.0" /><path d="M2064.3,4327.4L2064.3,4536.5L2227.3,4536.5L2227.3,4327.4L2064.3,4327.4Z" id="LB15" fill="#dfdfdf" fill-opacity="1.0" stroke="#dfdfdf" stroke-opacity="1.0" stroke-width="6.0" /><path d="M2064.3,4110.0L2064.3,4326.4L2227.3,4326.4L2227.3,4110.0L2064.3,4110.0Z" id="LB16" fill="#dfdfdf" fill-opacity="1.0" stroke="#dfdfdf" stroke-opacity="1.0" stroke-width="6.0" /><path d="M2064.3,3839.2L2064.3,4109.0L2227.3,4109.0L2227.3,3839.2L2064.3,3839.2Z" id="LB17" fill="#dfdfdf" fill-opacity="1.0" stroke="#dfdfdf" stroke-opacity="1.0" stroke-width="6.0" /><path d="M2064.3,3557.8L2064.3,3838.2L2227.3,3838.2L2227.3,3557.8L2064.3,3557.8Z" id="LB18" fill="#dfdfdf" fill-opacity="1.0" stroke="#dfdfdf" stroke-opacity="1.0" stroke-width="6.0" /><path d="M2064.3,3352.3L2064.3,3556.8L2227.3,3556.8L2227.3,3352.3L2064.3,3352.3Z" id="LB19" fill="#dfdfdf" fill-opacity="1.0" stroke="#dfdfdf" stroke-opacity="1.0" stroke-width="6.0" /><path d="M2064.3,3134.9L2064.3,3351.3L2227.3,3351.3L2227.3,3134.9L2064.3,3134.9Z" id="LB20" fill="#dfdfdf" fill-opacity="1.0" stroke="#dfdfdf" stroke-opacity="1.0" stroke-width="6.0" /><path d="M2064.3,2928.0L2064.3,3133.9L2227.3,3133.9L2227.3,2928.0L2064.3,2928.0Z" id="LB21" fill="#dfdfdf" fill-opacity="1.0" stroke="#dfdfdf" stroke-opacity="1.0" stroke-width="6.0" /><path d="M2171.91,2536.31L2064.3,2643.82L2064.3,2927.0L2227.3,2927.0L2227.3,2705.96L2284.46,2648.86L2171.91,2536.31Z" id="LB22" fill="#dfdfdf" fill-opacity="1.0" stroke="#dfdfdf" stroke-opacity="1.0" stroke-width="6.0" /><path d="M7162.78,5715.23L6963.99,5914.02L7140.72,6090.8L7339.55,5891.97L7162.78,5715.23Z" id="TS46" fill="#dfdfdf" fill-opacity="1.0" stroke="#dfdfdf" stroke-opacity="1.0" stroke-width="6.0" /><path d="M7362.73,5515.28L7163.48,5714.53L7340.25,5891.27L7539.5,5692.02L7362.73,5515.28Z" id="TS45" fill="#dfdfdf" fill-opacity="1.0" stroke="#dfdfdf" stroke-opacity="1.0" stroke-width="6.0" /><path d="M7565.43,5312.58L7363.43,5514.58L7540.2,5691.32L7742.18,5489.35L7565.43,5312.58Z" id="TS44" fill="#dfdfdf" fill-opacity="1.0" stroke="#dfdfdf" stroke-opacity="1.0" stroke-width="6.0" /><path d="M7765.85,5112.16L7566.13,5311.88L7742.88,5488.65L7942.62,5288.92L7765.85,5112.16Z" id="TS43" fill="#dfdfdf" fill-opacity="1.0" stroke="#dfdfdf" stroke-opacity="1.0" stroke-width="6.0" /><path d="M7924.62,4845.52L7925.07,4952.94L7766.55,5111.46L7943.32,5288.22L8195.17,5036.39L8194.97,4845.52L7924.62,4845.52Z" id="TS42" fill="#dfdfdf" fill-opacity="1.0" stroke="#dfdfdf" stroke-opacity="1.0" stroke-width="6.0" /><path d="M6804.2,1398.0L6779.0,1398.0L6779.0,1598.02L6804.76,1598.02L6967.45,1760.61L7143.86,1584.16L6957.7,1398.0L6804.2,1398.0Z" id="TS30" fill="#dfdfdf" fill-opacity="1.0" stroke="#dfdfdf" stroke-opacity="1.0" stroke-width="6.0" /><path d="M6778.0,1398.0L6481.8,1398.01L6481.8,1598.01L6778.0,1598.02L6778.0,1398.0Z" id="TS29" fill="#dfdfdf" fill-opacity="1.0" stroke="#dfdfdf" stroke-opacity="1.0" stroke-width="6.0" /><path d="M6480.8,1398.01L6206.3,1398.01L6206.3,1598.01L6480.8,1598.01L6480.8,1398.01Z" id="TS28" fill="#dfdfdf" fill-opacity="1.0" stroke="#dfdfdf" stroke-opacity="1.0" stroke-width="6.0" /><path d="M6205.3,1398.01L5930.7,1398.02L5930.7,1598.0L6205.3,1598.01L6205.3,1398.01Z" id="TS27" fill="#dfdfdf" fill-opacity="1.0" stroke="#dfdfdf" stroke-opacity="1.0" stroke-width="6.0" /><path d="M5929.7,1398.02L5656.7,1398.02L5656.7,1598.0L5929.7,1598.0L5929.7,1398.02Z" id="TS26" fill="#dfdfdf" fill-opacity="1.0" stroke="#dfdfdf" stroke-opacity="1.0" stroke-width="6.0" /><path d="M5655.7,1398.02L5377.8,1398.02L5377.8,1598.0L5655.7,1598.0L5655.7,1398.02Z" id="TS25" fill="#dfdfdf" fill-opacity="1.0" stroke="#dfdfdf" stroke-opacity="1.0" stroke-width="6.0" /><path d="M5376.8,1398.02L5107.3,1398.02L5107.3,1598.0L5376.8,1598.0L5376.8,1398.02Z" id="TS24" fill="#dfdfdf" fill-opacity="1.0" stroke="#dfdfdf" stroke-opacity="1.0" stroke-width="6.0" /><path d="M5106.3,1398.02L4833.3,1398.02L4833.3,1598.0L5106.3,1598.0L5106.3,1398.02Z" id="TS23" fill="#dfdfdf" fill-opacity="1.0" stroke="#dfdfdf" stroke-opacity="1.0" stroke-width="6.0" /><path d="M4832.3,1398.02L4556.0,1398.02L4556.0,1598.0L4832.3,1598.0L4832.3,1398.02Z" id="TS22" fill="#dfdfdf" fill-opacity="1.0" stroke="#dfdfdf" stroke-opacity="1.0" stroke-width="6.0" /><path d="M4555.0,1398.0L4281.3,1398.0L4281.3,1597.98L4555.0,1597.98L4555.0,1398.0Z" id="TS21" fill="#dfdfdf" fill-opacity="1.0" stroke="#dfdfdf" stroke-opacity="1.0" stroke-width="6.0" /><path d="M4280.3,1398.02L4007.8,1398.02L4007.8,1598.0L4280.3,1598.0L4280.3,1398.02Z" id="TS20" fill="#dfdfdf" fill-opacity="1.0" stroke="#dfdfdf" stroke-opacity="1.0" stroke-width="6.0" /><path d="M4006.8,1398.02L3731.4,1398.02L3731.4,1598.0L4006.8,1598.0L4006.8,1398.02Z" id="TS19" fill="#dfdfdf" fill-opacity="1.0" stroke="#dfdfdf" stroke-opacity="1.0" stroke-width="6.0" /><path d="M3730.4,1398.02L3444.3,1398.02L3444.3,1598.0L3730.4,1598.0L3730.4,1398.02Z" id="TS18" fill="#dfdfdf" fill-opacity="1.0" stroke="#dfdfdf" stroke-opacity="1.0" stroke-width="6.0" /><path d="M3443.3,1398.02L3311.32,1398.02L3095.98,1613.15L3262.24,1779.43L3443.3,1598.54L3443.3,1398.02Z" id="TS17" fill="#dfdfdf" fill-opacity="1.0" stroke="#dfdfdf" stroke-opacity="1.0" stroke-width="6.0" /><path d="M7924.9,4714.0L7924.97,4845.57L8195.67,4845.57L8195.62,4714.02L7924.9,4714.0Z" id="THTR14" fill="#dfdfdf" fill-opacity="1.0" stroke="#dfdfdf" stroke-opacity="1.0" stroke-width="6.0" /><path d="M7924.8,4568.65L7924.82,4713.97L8195.62,4713.97L8195.22,4568.67L7924.8,4568.65Z" id="THTR13" fill="#dfdfdf" fill-opacity="1.0" stroke="#dfdfdf" stroke-opacity="1.0" stroke-width="6.0" /><path d="M7925.04,4423.35L7924.8,4568.62L8195.22,4568.62L8195.44,4423.37L7925.04,4423.35Z" id="THTR12" fill="#dfdfdf" fill-opacity="1.0" stroke="#dfdfdf" stroke-opacity="1.0" stroke-width="6.0" /><path d="M7925.13,4278.0L7925.1,4423.32L8195.57,4423.32L8195.53,4278.02L7925.13,4278.0Z" id="THTR11" fill="#dfdfdf" fill-opacity="1.0" stroke="#dfdfdf" stroke-opacity="1.0" stroke-width="6.0" /><path d="M7925.18,4132.85L7925.1,4277.97L8195.52,4277.97L8195.48,4132.87L7925.18,4132.85Z" id="THTR10" fill="#dfdfdf" fill-opacity="1.0" stroke="#dfdfdf" stroke-opacity="1.0" stroke-width="6.0" /><path d="M7925.1,3986.48L7925.17,4132.77L8195.52,4132.77L8195.6,3986.45L7925.1,3986.48Z" id="THTR9" fill="#dfdfdf" fill-opacity="1.0" stroke="#dfdfdf" stroke-opacity="1.0" stroke-width="6.0" /><path d="M7925.1,3839.95L7925.1,3986.47L8195.62,3986.47L8195.6,3839.97L7925.1,3839.95Z" id="THTR8" fill="#dfdfdf" fill-opacity="1.0" stroke="#dfdfdf" stroke-opacity="1.0" stroke-width="6.0" /><path d="M7925.1,3692.53L7925.1,3839.87L8195.57,3839.87L8195.6,3692.5L7925.1,3692.53Z" id="THTR7" fill="#dfdfdf" fill-opacity="1.0" stroke="#dfdfdf" stroke-opacity="1.0" stroke-width="6.0" /><path d="M7925.15,3545.5L7925.17,3692.52L8195.62,3692.52L8195.71,3545.5L7925.15,3545.5Z" id="THTR6" fill="#dfdfdf" fill-opacity="1.0" stroke="#dfdfdf" stroke-opacity="1.0" stroke-width="6.0" /><path d="M7925.27,3397.78L7925.15,3544.41L8195.71,3544.41L8195.47,3397.75L7925.27,3397.78Z" id="THTR5" fill="#dfdfdf" fill-opacity="1.0" stroke="#dfdfdf" stroke-opacity="1.0" stroke-width="6.0" /><path d="M7925.21,3250.83L7925.15,3397.72L8195.37,3397.72L8195.41,3250.8L7925.21,3250.83Z" id="THTR4" fill="#dfdfdf" fill-opacity="1.0" stroke="#dfdfdf" stroke-opacity="1.0" stroke-width="6.0" /><path d="M7925.21,3107.75L7925.15,3250.77L8195.37,3250.77L8195.31,3107.77L7925.21,3107.75Z" id="THTR3" fill="#dfdfdf" fill-opacity="1.0" stroke="#dfdfdf" stroke-opacity="1.0" stroke-width="6.0" /><path d="M7925.15,2958.05L7925.27,3107.72L8195.37,3107.72L8195.65,2958.07L7925.15,2958.05Z" id="THTR2" fill="#dfdfdf" fill-opacity="1.0" stroke="#dfdfdf" stroke-opacity="1.0" stroke-width="6.0" /><path d="M7925.1,2825.5L7925.17,2957.97L8195.67,2957.97L8195.81,2825.5L7925.1,2825.5Z" id="THTR1" fill="#dfdfdf" fill-opacity="1.0" stroke="#dfdfdf" stroke-opacity="1.0" stroke-width="6.0" /><path d="M6072.9,5027.9L6072.9,5266.65L6408.99,5266.65L6313.83,5027.9L6072.9,5027.9Z" id="BX6A" fill="#dfdfdf" fill-opacity="1.0" stroke="#dfdfdf" stroke-opacity="1.0" stroke-width="6.0" /><path d="M5873.0,5027.9L5873.0,5266.65L6071.9,5266.65L6071.9,5027.9L5873.0,5027.9Z" id="BX9" fill="#dfdfdf" fill-opacity="1.0" stroke="#dfdfdf" stroke-opacity="1.0" stroke-width="6.0" /><path d="M5676.0,5027.9L5676.0,5266.65L5872.0,5266.65L5872.0,5027.9L5676.0,5027.9Z" id="BX10" fill="#dfdfdf" fill-opacity="1.0" stroke="#dfdfdf" stroke-opacity="1.0" stroke-width="6.0" /><path d="M5438.0,5027.9L5438.0,5266.65L5675.0,5266.65L5675.0,5027.9L5438.0,5027.9Z" id="BX11" fill="#dfdfdf" fill-opacity="1.0" stroke="#dfdfdf" stroke-opacity="1.0" stroke-width="6.0" /><path d="M5116.2,5027.9L5116.2,5266.65L5437.0,5266.65L5437.0,5027.9L5116.2,5027.9Z" id="BX12" fill="#dfdfdf" fill-opacity="1.0" stroke="#dfdfdf" stroke-opacity="1.0" stroke-width="6.0" /><path d="M4806.0,5027.9L4806.0,5266.65L5115.2,5266.65L5115.2,5027.9L4806.0,5027.9Z" id="BX13" fill="#dfdfdf" fill-opacity="1.0" stroke="#dfdfdf" stroke-opacity="1.0" stroke-width="6.0" /><path d="M4561.0,5027.9L4561.0,5266.65L4805.0,5266.65L4805.0,5027.9L4561.0,5027.9Z" id="BX14" fill="#dfdfdf" fill-opacity="1.0" stroke="#dfdfdf" stroke-opacity="1.0" stroke-width="6.0" /><path d="M4357.9,5027.9L4357.9,5266.65L4560.0,5266.65L4560.0,5027.9L4357.9,5027.9Z" id="BX15" fill="#dfdfdf" fill-opacity="1.0" stroke="#dfdfdf" stroke-opacity="1.0" stroke-width="6.0" /><path d="M4159.8,5027.9L4159.8,5266.65L4356.9,5266.65L4356.9,5027.9L4159.8,5027.9Z" id="BX16" fill="#dfdfdf" fill-opacity="1.0" stroke="#dfdfdf" stroke-opacity="1.0" stroke-width="6.0" /><path d="M3891.52,5027.9L3791.21,5266.65L4158.8,5266.65L4158.8,5027.9L3891.52,5027.9Z" id="BX10A" fill="#dfdfdf" fill-opacity="1.0" stroke="#dfdfdf" stroke-opacity="1.0" stroke-width="6.0" /><path d="M7716.9,4443.1L7716.9,4611.5L7925.18,4611.5L7925.24,4443.1L7716.9,4443.1Z" id="100" fill="#dfdfdf" fill-opacity="1.0" stroke="#dddddd" stroke-opacity="1.0" stroke-width="6.0" /><path d="M4804.48,2413.48L4755.1,2413.9L4562.0,2413.91L4562.0,2647.5L4804.51,2647.5L4804.48,2413.48Z" id="BX3" fill="#dfdfdf" fill-opacity="1.0" stroke="#dfdfdf" stroke-opacity="1.0" stroke-width="6.0" /><path d="M4561.0,2413.91L4363.0,2413.93L4363.0,2647.5L4561.0,2647.5L4561.0,2413.91Z" id="BX2" fill="#dfdfdf" fill-opacity="1.0" stroke="#dfdfdf" stroke-opacity="1.0" stroke-width="6.0" /><path d="M4362.0,2413.93L4160.6,2413.95L4160.6,2647.5L4362.0,2647.5L4362.0,2413.93Z" id="BX1" fill="#dfdfdf" fill-opacity="1.0" stroke="#dfdfdf" stroke-opacity="1.0" stroke-width="6.0" /><path d="M4159.6,2413.95L3828.21,2413.97L3920.58,2647.5L4159.6,2647.5L4159.6,2413.95Z" id="BX20A" fill="#dfdfdf" fill-opacity="1.0" stroke="#dfdfdf" stroke-opacity="1.0" stroke-width="6.0" /><path d="M6076.3,2414.0L6076.3,2647.5L6297.97,2647.5L6388.77,2414.0L6076.3,2414.0Z" id="BX24A" fill="#dfdfdf" fill-opacity="1.0" stroke="#dfdfdf" stroke-opacity="1.0" stroke-width="6.0" /><path d="M5871.0,2414.0L5871.0,2647.5L6075.3,2647.5L6075.3,2414.0L5871.0,2414.0Z" id="BX8" fill="#dfdfdf" fill-opacity="1.0" stroke="#dfdfdf" stroke-opacity="1.0" stroke-width="6.0" /><path d="M5677.0,2414.0L5677.0,2647.5L5870.0,2647.5L5870.0,2414.0L5677.0,2414.0Z" id="BX7" fill="#dfdfdf" fill-opacity="1.0" stroke="#dfdfdf" stroke-opacity="1.0" stroke-width="6.0" /><path d="M5430.0,2414.0L5430.0,2647.5L5676.0,2647.5L5676.0,2414.0L5430.0,2414.0Z" id="BX6" fill="#dfdfdf" fill-opacity="1.0" stroke="#dfdfdf" stroke-opacity="1.0" stroke-width="6.0" /><path d="M5121.2,2413.55L5121.2,2647.5L5429.0,2647.5L5429.0,2413.55L5121.2,2413.55Z" id="BX5" fill="#dfdfdf" fill-opacity="1.0" stroke="#dfdfdf" stroke-opacity="1.0" stroke-width="6.0" /><path d="M4804.48,2413.55L4804.51,2647.5L5120.2,2647.5L5120.2,2413.55L4804.48,2413.55Z" id="BX4" fill="#dfdfdf" fill-opacity="1.0" stroke="#dfdfdf" stroke-opacity="1.0" stroke-width="6.0" /><path d="M7625.61,3619.4L7625.47,4060.3L7925.37,4060.3L7925.51,3619.4L7625.61,3619.4Z" id="100" fill="#dfdfdf" fill-opacity="1.0" stroke="#dddddd" stroke-opacity="1.0" stroke-width="6.0" /><path d="M4597.65,1740.75L4732.3,1740.75L4732.3,1906.55L4597.65,1906.55L4597.65,1740.75Z" id="VOM" fill="#dfdfdf" fill-opacity="1.0" /><path d="M4597.65,5779.3L4732.3,5779.3L4732.3,5945.1L4597.65,5945.1L4597.65,5779.3Z" id="VOM" fill="#dfdfdf" fill-opacity="1.0" /><path d="M5494.4,1740.75L5629.05,1740.75L5629.05,1906.55L5494.4,1906.55L5494.4,1740.75Z" id="VOM" fill="#dfdfdf" fill-opacity="1.0" /><path d="M6881.2,1893.75L6976.41,1988.96L6859.17,2106.2L6763.96,2010.99L6881.2,1893.75Z" id="VOM" fill="#dfdfdf" fill-opacity="1.0" /><path d="M7644.48,5035.77L7549.27,5130.98L7432.03,5013.75L7527.24,4918.53L7644.48,5035.77Z" id="VOM" fill="#dfdfdf" fill-opacity="1.0" /><path d="M6974.62,5704.84L6879.4,5800.05L6762.16,5682.81L6857.38,5587.6L6974.62,5704.84Z" id="VOM" fill="#dfdfdf" fill-opacity="1.0" /><path d="M7540.0,2552.55L7635.21,2647.76L7517.97,2765.0L7422.76,2669.79L7540.0,2552.55Z" id="VOM" fill="#dfdfdf" fill-opacity="1.0" /><path d="M5494.4,5779.3L5629.05,5779.3L5629.05,5945.1L5494.4,5945.1L5494.4,5779.3Z" id="VOM" fill="#dfdfdf" fill-opacity="1.0" /><path d="M6313.35,5371.1L6397.95,5371.1L6397.95,5486.7L6313.35,5486.7L6313.35,5371.1Z" id="VOM" fill="#dfdfdf" fill-opacity="1.0" /><path d="M6314.75,2186.95L6399.35,2186.95L6399.35,2302.55L6314.75,2302.55L6314.75,2186.95Z" id="VOM" fill="#dfdfdf" fill-opacity="1.0" /><path d="M6965.99,2504.79L7025.81,2564.61L6840.54,2749.87L6780.72,2690.05L6965.99,2504.79Z" id="VOM" fill="#dfdfdf" fill-opacity="1.0" /><path d="M7050.43,5106.5L6990.61,5166.32L6805.34,4981.05L6865.16,4921.23L7050.43,5106.5Z" id="VOM" fill="#dfdfdf" fill-opacity="1.0" /><path d="M5379.85,5371.0L5464.45,5371.0L5464.45,5486.6L5379.85,5486.6L5379.85,5371.0Z" id="VOM" fill="#dfdfdf" fill-opacity="1.0" /><path d="M5389.25,2186.85L5473.85,2186.85L5473.85,2302.45L5389.25,2302.45L5389.25,2186.85Z" id="VOM" fill="#dfdfdf" fill-opacity="1.0" /><path d="M4754.1,5370.85L4838.7,5370.85L4838.7,5486.45L4754.1,5486.45L4754.1,5370.85Z" id="VOM" fill="#dfdfdf" fill-opacity="1.0" /><path d="M4765.45,2186.65L4850.05,2186.65L4850.05,2302.25L4765.45,2302.25L4765.45,2186.65Z" id="VOM" fill="#dfdfdf" fill-opacity="1.0" /><path d="M3828.65,5370.7L3913.25,5370.7L3913.25,5486.3L3828.65,5486.3L3828.65,5370.7Z" id="VOM" fill="#dfdfdf" fill-opacity="1.0" /><path d="M3827.2,2186.7L3911.8,2186.7L3911.8,2302.3L3827.2,2302.3L3827.2,2186.7Z" id="VOM" fill="#dfdfdf" fill-opacity="1.0" /><path d="M7640.71,5100.11L6764.56,5976.28L3489.99,5976.65L3489.99,6070.65L6803.52,6070.27L7707.18,5166.58L7640.71,5100.11Z" id="MASK" fill="#ffffff" fill-opacity="1.0" /><path d="M7828.12,4805.9L7828.08,4912.73L7724.16,5016.66L7790.63,5083.13L7922.07,4951.69L7922.12,4805.9L7828.12,4805.9Z" id="MASK" fill="#ffffff" fill-opacity="1.0" /><path d="M7789.95,2586.87L7723.49,2653.36L7828.81,2758.62L7828.69,3104.3L7922.69,3104.3L7922.82,2719.67L7789.95,2586.87Z" id="MASK" fill="#ffffff" fill-opacity="1.0" /><path d="M3598.79,1601.0L3598.79,1695.0L6764.58,1695.02L7632.69,2562.61L7699.16,2496.14L6803.52,1601.02L6581.4,1601.02L5856.2,1601.0L3598.79,1601.0Z" id="MASK" fill="#ffffff" fill-opacity="1.0" /><path d="M2407.29,2812.9L2407.29,4855.9L2501.29,4855.9L2501.29,2812.9L2407.29,2812.9Z" id="MASK" fill="#ffffff" fill-opacity="1.0" /><path d="M6957.7,1398.0L8195.97,2636.22L8195.94,2727.6L8349.4,2727.6L8349.4,4935.8L8195.2,4935.8L8195.17,5036.42L6957.7,6273.84L3312.7,6273.84L2064.3,5025.48L2064.3,2643.85L3311.32,1398.02L6957.7,1398.0ZM3297.14,138.95L2859.36,577.35L1164.3,2270.78L1164.3,5398.27L3296.83,7529.65L6974.15,7529.65L9095.04,5409.33L9096.09,2263.52L6970.85,138.95L3297.14,138.95Z" id="200 TRAY" fill="#ffffff" fill-opacity="1.0" stroke="#dddddd" stroke-opacity="1.0" stroke-width="6.0" /><path d="M8350.4,3544.9L8350.4,4119.4L9095.48,4119.4L9095.67,3544.9L8350.4,3544.9Z" id="bg|||200" fill="#ffffff" fill-opacity="1.0" stroke="#dddddd" stroke-opacity="1.0" stroke-width="6.0" /><path d="M8350.4,2727.6L8350.4,3543.9L9095.67,3543.9L9095.94,2727.6L8350.4,2727.6Z" id="bg|||231" fill="#ffffff" fill-opacity="1.0" stroke="#dddddd" stroke-opacity="1.0" stroke-width="6.0" /><path d="M8793.64,1961.15L8261.55,2493.28L8140.22,2371.94L8035.95,2476.21L8195.95,2636.19L8195.93,2726.58L9095.93,2726.58L9096.08,2263.49L8793.64,1961.15Z" id="bg|||230" fill="#ffffff" fill-opacity="1.0" stroke="#dddddd" stroke-opacity="1.0" stroke-width="6.0" /><path d="M8130.94,1298.65L7599.65,1829.97L7730.06,1960.38L7625.09,2065.36L8035.26,2475.49L8140.21,2370.55L8261.54,2491.88L8792.93,1960.46L8130.94,1298.65Z" id="bg|||229" fill="#ffffff" fill-opacity="1.0" stroke="#dddddd" stroke-opacity="1.0" stroke-width="6.0" /><path d="M7720.43,888.3L7084.2,1524.53L7624.37,2064.66L7728.64,1960.39L7598.23,1829.97L8130.19,1297.96L7720.43,888.3Z" id="bg|||228" fill="#ffffff" fill-opacity="1.0" stroke="#dddddd" stroke-opacity="1.0" stroke-width="6.0" /><path d="M6845.65,138.95L6845.65,1398.0L6957.65,1398.0L7083.5,1523.85L7719.72,887.63L6970.8,138.95L6845.65,138.95Z" id="bg|||227" fill="#ffffff" fill-opacity="1.0" stroke="#dddddd" stroke-opacity="1.0" stroke-width="6.0" /><path d="M6135.6,138.95L6135.6,1398.01L6844.7,1398.0L6844.7,138.95L6135.6,138.95Z" id="bg|||226" fill="#ffffff" fill-opacity="1.0" stroke="#dddddd" stroke-opacity="1.0" stroke-width="6.0" /><path d="M5481.5,138.95L5481.5,1398.01L6134.6,1398.01L6134.6,138.95L5481.5,138.95Z" id="bg|||225" fill="#ffffff" fill-opacity="1.0" stroke="#dddddd" stroke-opacity="1.0" stroke-width="6.0" /><path d="M4771.4,138.95L4771.4,1398.02L5480.5,1398.01L5480.5,138.95L4771.4,138.95Z" id="bg|||224" fill="#ffffff" fill-opacity="1.0" stroke="#dddddd" stroke-opacity="1.0" stroke-width="6.0" /><path d="M4124.8,138.95L4124.8,1398.02L4770.4,1398.02L4770.4,138.95L4124.8,138.95Z" id="bg|||223" fill="#ffffff" fill-opacity="1.0" stroke="#dddddd" stroke-opacity="1.0" stroke-width="6.0" /><path d="M3414.7,138.95L3414.7,1398.02L4123.8,1398.02L4123.8,138.95L3414.7,138.95Z" id="bg|||222" fill="#ffffff" fill-opacity="1.0" stroke="#dddddd" stroke-opacity="1.0" stroke-width="6.0" /><path d="M3297.13,138.95L2859.35,577.35L2554.45,881.96L3190.85,1518.36L3311.31,1398.02L3413.69,1398.02L3413.69,138.95L3297.13,138.95Z" id="bg|||221" fill="#ffffff" fill-opacity="1.0" stroke="#dddddd" stroke-opacity="1.0" stroke-width="6.0" /><path d="M2553.74,882.65L2051.5,1384.41L2687.9,2020.81L3190.14,1519.05L2553.74,882.65Z" id="bg|||220" fill="#ffffff" fill-opacity="1.0" stroke="#dddddd" stroke-opacity="1.0" stroke-width="6.0" /><path d="M2050.79,1385.1L1552.3,1883.11L2188.7,2519.51L2687.19,2021.5L2050.79,1385.1Z" id="bg|||219" fill="#ffffff" fill-opacity="1.0" stroke="#dddddd" stroke-opacity="1.0" stroke-width="6.0" /><path d="M1551.63,1883.8L1164.3,2270.75L1164.3,2724.02L2064.3,2724.02L2064.3,2643.82L2188.03,2520.2L1551.63,1883.8Z" id="bg|||218" fill="#ffffff" fill-opacity="1.0" stroke="#dddddd" stroke-opacity="1.0" stroke-width="6.0" /><path d="M1164.3,4951.9L1164.3,5398.23L1544.22,5777.94L2180.51,5141.65L2064.3,5025.44L2064.3,4951.9L1164.3,4951.9Z" id="bg|||214" fill="#ffffff" fill-opacity="1.0" stroke="#dddddd" stroke-opacity="1.0" stroke-width="6.0" /><path d="M2181.19,5142.35L1544.9,5778.64L2051.04,6284.5L2687.2,5648.34L2181.19,5142.35Z" id="bg|||213" fill="#ffffff" fill-opacity="1.0" stroke="#dddddd" stroke-opacity="1.0" stroke-width="6.0" /><path d="M2687.91,5649.05L2051.75,6285.21L2544.38,6777.58L3180.42,6141.54L2687.91,5649.05Z" id="bg|||212" fill="#ffffff" fill-opacity="1.0" stroke="#dddddd" stroke-opacity="1.0" stroke-width="6.0" /><path d="M3181.09,6142.25L2545.05,6778.29L3296.79,7529.63L3414.96,7529.63L3414.96,6273.82L3312.66,6273.82L3181.09,6142.25Z" id="bg|||211" fill="#ffffff" fill-opacity="1.0" stroke="#dddddd" stroke-opacity="1.0" stroke-width="6.0" /><path d="M3415.95,6273.8L3415.95,7529.61L4130.55,7529.61L4130.55,6273.8L3415.95,6273.8Z" id="bg|||210" fill="#ffffff" fill-opacity="1.0" stroke="#dddddd" stroke-opacity="1.0" stroke-width="6.0" /><path d="M4131.6,6273.8L4131.6,7529.61L4776.5,7529.61L4776.5,6273.8L4131.6,6273.8Z" id="bg|||209" fill="#ffffff" fill-opacity="1.0" stroke="#dddddd" stroke-opacity="1.0" stroke-width="6.0" /><path d="M4777.5,6273.8L4777.5,7529.61L5492.1,7529.61L5492.1,6273.8L4777.5,6273.8Z" id="bg|||208" fill="#ffffff" fill-opacity="1.0" stroke="#dddddd" stroke-opacity="1.0" stroke-width="6.0" /><path d="M5493.05,6273.8L5493.05,7529.61L6141.85,7529.61L6141.85,6273.8L5493.05,6273.8Z" id="bg|||207" fill="#ffffff" fill-opacity="1.0" stroke="#dddddd" stroke-opacity="1.0" stroke-width="6.0" /><path d="M6142.9,6273.8L6142.9,7529.61L6853.7,7529.61L6853.7,6273.8L6142.9,6273.8Z" id="bg|||206" fill="#ffffff" fill-opacity="1.0" stroke="#dddddd" stroke-opacity="1.0" stroke-width="6.0" /><path d="M7083.21,6148.3L6957.69,6273.81L6854.7,6273.81L6854.7,7529.62L6974.15,7529.62L7719.11,6784.85L7083.21,6148.3Z" id="bg|||205" fill="#ffffff" fill-opacity="1.0" stroke="#dddddd" stroke-opacity="1.0" stroke-width="6.0" /><path d="M7621.12,5610.4L7083.9,6147.61L7181.04,6245.36L7719.81,6784.16L8142.05,6362.04L7603.21,5823.2L7718.56,5707.85L7621.12,5610.4Z" id="bg|||204" fill="#ffffff" fill-opacity="1.0" stroke="#dddddd" stroke-opacity="1.0" stroke-width="6.0" /><path d="M8259.56,5168.2L8154.46,5273.3L8056.35,5175.19L7621.81,5609.71L7719.95,5707.84L7604.6,5823.2L8142.75,6361.33L8797.81,5706.44L8259.56,5168.2Z" id="bg|||203" fill="#ffffff" fill-opacity="1.0" stroke="#dddddd" stroke-opacity="1.0" stroke-width="6.0" /><path d="M8195.2,4936.8L8195.17,5036.41L8057.05,5174.51L8154.49,5271.92L8259.57,5166.84L8798.52,5705.76L9095.04,5409.33L9095.2,4936.8L8195.2,4936.8Z" id="bg|||202" fill="#ffffff" fill-opacity="1.0" stroke="#dddddd" stroke-opacity="1.0" stroke-width="6.0" /><path d="M8350.4,4120.4L8350.4,4935.8L9095.2,4935.8L9095.48,4120.4L8350.4,4120.4Z" id="bg|||201" fill="#ffffff" fill-opacity="1.0" stroke="#dddddd" stroke-opacity="1.0" stroke-width="6.0" /><path d="M1830.4,2724.05L1830.4,4951.94L2064.3,4951.94L2064.3,2724.05L1830.4,2724.05Z" id="200" fill="#dfdfdf" fill-opacity="1.0" stroke="#dfdfdf" stroke-opacity="1.0" stroke-width="6.0" /><path d="M1164.3,2724.05L1164.3,4951.94L1829.4,4951.94L1829.4,2724.05L1164.3,2724.05Z" id="SROGA" fill="#dfdfdf" fill-opacity="1.0" stroke="#dfdfdf" stroke-opacity="1.0" stroke-width="6.0" /><path d="M7812.94,1808.99L8287.02,2283.07L8189.57,2380.51L7715.49,1906.43L7812.94,1808.99Z" id="Shape001" fill="#dfdfdf" fill-opacity="1.0" /><path d="M7715.54,5740.04L8189.62,5265.96L8287.06,5363.4L7812.98,5837.48L7715.54,5740.04Z" id="Shape002" fill="#dfdfdf" fill-opacity="1.0" /><path d="M8998.15,5057.55L8998.05,5369.12L6933.98,7432.65L3337.0,7432.65L1494.6,5591.24L1428.12,5657.71L3298.07,7526.65L6972.91,7526.65L9092.04,5408.09L9092.16,5057.55L8998.15,5057.55Z" id="MASK" fill="#ffffff" fill-opacity="1.0" /><path d="M8998.89,2866.55L8998.23,4845.55L9092.23,4845.55L9092.89,2866.55L8998.89,2866.55Z" id="MASK" fill="#ffffff" fill-opacity="1.0" /><path d="M3298.38,141.95L2861.47,579.47L1464.3,1975.31L1530.76,2041.77L2927.91,645.98L3337.36,235.95L6930.68,235.95L8999.08,2303.7L8998.98,2617.1L9092.97,2617.1L9093.09,2264.76L6969.61,141.95L3298.38,141.95Z" id="MASK" fill="#ffffff" fill-opacity="1.0" /><path d="M4066.75,1072.7L4201.4,1072.7L4201.4,1238.5L4066.75,1238.5L4066.75,1072.7Z" id="VOM" fill="#dfdfdf" fill-opacity="1.0" /><path d="M4068.75,6434.05L4203.4,6434.05L4203.4,6599.85L4068.75,6599.85L4068.75,6434.05Z" id="VOM" fill="#dfdfdf" fill-opacity="1.0" /><path d="M3335.6,1072.7L3470.24,1072.7L3470.24,1238.5L3335.6,1238.5L3335.6,1072.7Z" id="VOM" fill="#dfdfdf" fill-opacity="1.0" /><path d="M3344.6,6434.05L3479.24,6434.05L3479.24,6599.85L3344.6,6599.85L3344.6,6434.05Z" id="VOM" fill="#dfdfdf" fill-opacity="1.0" /><path d="M3021.69,6208.79L3116.89,6303.99L2999.65,6421.23L2904.45,6326.02L3021.69,6208.79Z" id="VOM" fill="#dfdfdf" fill-opacity="1.0" /><path d="M2525.74,5712.14L2620.94,5807.34L2503.7,5924.58L2408.5,5829.37L2525.74,5712.14Z" id="VOM" fill="#dfdfdf" fill-opacity="1.0" /><path d="M2021.19,5206.89L2116.39,5302.09L1999.15,5419.33L1903.95,5324.12L2021.19,5206.89Z" id="VOM" fill="#dfdfdf" fill-opacity="1.0" /><path d="M2907.9,1335.75L3003.1,1240.55L3120.34,1357.78L3025.14,1452.99L2907.9,1335.75Z" id="VOM" fill="#dfdfdf" fill-opacity="1.0" /><path d="M4701.05,1072.7L4835.7,1072.7L4835.7,1238.5L4701.05,1238.5L4701.05,1072.7Z" id="VOM" fill="#dfdfdf" fill-opacity="1.0" /><path d="M4701.05,6434.05L4835.7,6434.05L4835.7,6599.85L4701.05,6599.85L4701.05,6434.05Z" id="VOM" fill="#dfdfdf" fill-opacity="1.0" /><path d="M5428.14,1072.7L5562.79,1072.7L5562.79,1238.5L5428.14,1238.5L5428.14,1072.7Z" id="VOM" fill="#dfdfdf" fill-opacity="1.0" /><path d="M5428.1,6434.05L5562.75,6434.05L5562.75,6599.85L5428.1,6599.85L5428.1,6434.05Z" id="VOM" fill="#dfdfdf" fill-opacity="1.0" /><path d="M6068.65,1072.7L6203.29,1072.7L6203.29,1238.5L6068.65,1238.5L6068.65,1072.7Z" id="VOM" fill="#dfdfdf" fill-opacity="1.0" /><path d="M6066.65,6434.05L6201.29,6434.05L6201.29,6599.85L6066.65,6599.85L6066.65,6434.05Z" id="VOM" fill="#dfdfdf" fill-opacity="1.0" /><path d="M6786.75,1072.7L6921.4,1072.7L6921.4,1238.5L6786.75,1238.5L6786.75,1072.7Z" id="VOM" fill="#dfdfdf" fill-opacity="1.0" /><path d="M6786.75,6434.05L6921.4,6434.05L6921.4,6599.85L6786.75,6599.85L6786.75,6434.05Z" id="VOM" fill="#dfdfdf" fill-opacity="1.0" /><path d="M8688.75,2730.8L8688.75,2865.45L8522.95,2865.45L8522.95,2730.8L8688.75,2730.8Z" id="VOM" fill="#dfdfdf" fill-opacity="1.0" /><path d="M7256.0,1235.17L7351.21,1330.38L7233.97,1447.61L7138.76,1352.4L7256.0,1235.17Z" id="VOM" fill="#dfdfdf" fill-opacity="1.0" /><path d="M2405.2,1837.7L2500.4,1742.49L2617.64,1859.73L2522.44,1954.94L2405.2,1837.7Z" id="VOM" fill="#dddddd" fill-opacity="1.0" /><path d="M1909.54,2332.59L2004.74,2237.38L2121.98,2354.62L2026.77,2449.82L1909.54,2332.59Z" id="VOM" fill="#dfdfdf" fill-opacity="1.0" /><path d="M8688.75,3470.8L8688.75,3605.45L8522.95,3605.45L8522.95,3470.8L8688.75,3470.8Z" id="VOM" fill="#dfdfdf" fill-opacity="1.0" /><path d="M8688.85,4048.4L8688.85,4183.05L8523.05,4183.05L8523.05,4048.4L8688.85,4048.4Z" id="VOM" fill="#dfdfdf" fill-opacity="1.0" /><path d="M8688.85,4796.15L8688.85,4930.8L8523.05,4930.8L8523.05,4796.15L8688.85,4796.15Z" id="VOM" fill="#dfdfdf" fill-opacity="1.0" /><path d="M7357.65,6335.84L7262.43,6431.05L7145.2,6313.81L7240.41,6218.6L7357.65,6335.84Z" id="VOM" fill="#dfdfdf" fill-opacity="1.0" /></svg>