<svg width="1024px" height="768px" viewBox="0 0 10240 7680" x="0px" y="0px" xmlns="http://www.w3.org/2000/svg"><defs></defs><path d="M1936.38,551.9L451.9,2036.37L451.9,5644.56L1936.38,7129.04L8303.41,7129.04L9787.97,5644.5L9787.97,2036.4L8303.4,551.9L1936.38,551.9Z" id="POCHE" fill="#f6f6f6" fill-opacity="1.0" stroke="#d4d4d4" stroke-opacity="1.0" stroke-width="3.0" /><path d="M6331.12,3755.44C5526.49,3755.44,4721.87,3755.44,3917.24,3755.44C3917.24,3813.08,3917.24,3870.73,3917.24,3928.37C4721.87,3928.37,5526.49,3928.37,6331.12,3928.37L6331.12,3928.37C6331.12,3870.73,6331.12,3813.08,6331.12,3755.44Z" id="THRUST" fill="#262626" fill-opacity="1.0" /><path d="M4411.1,3445.5L5826.0,3445.5L5826.0,4265.95L4411.1,4265.95L4411.1,3445.5Z" id="STAGE" fill="#262626" fill-opacity="1.0" /><text text-align="left" id="STAGE_TEXT" fill="#ffffff" fill-opacity="1.0" font-family="averta,arial,'arial bold'" font-weight="bold" font-size="225.691" x="4743.49" y="3942.18"><tspan text-anchor="start" x="4743.49">STAGE</tspan></text><path d="M1992.58,2799.35L1992.57,3683.55L2316.54,3683.53L2316.54,4010.13L1992.56,4010.2L1992.55,4812.31L2532.26,4812.33L2931.05,4778.69L3344.15,4747.37L4330.6,4739.82L4330.6,4008.44L3837.17,4008.44L3837.17,3675.37L4330.6,3675.37L4330.6,2964.39L3342.52,2964.6L2938.69,2912.2L2526.88,2799.38L1992.58,2799.35Z" id="SOULGA" fill="#ffffff" fill-opacity="1.0" stroke="#dddddd" stroke-opacity="1.0" stroke-width="8.0" /><path d="M4331.6,4345.95L4331.6,4739.82L5905.5,4727.78L5905.5,4345.95L4331.6,4345.95Z" id="FLR2" fill="#ffffff" fill-opacity="1.0" stroke="#dddddd" stroke-opacity="1.0" stroke-width="8.0" /><path d="M5905.5,2964.05L4331.6,2964.39L4331.6,3365.5L5905.5,3365.5L5905.5,2964.05Z" id="FLR1" fill="#ffffff" fill-opacity="1.0" stroke="#dddddd" stroke-opacity="1.0" stroke-width="8.0" /><path d="M7939.39,2265.72L8092.58,2428.37L7774.87,2765.15L7842.96,2878.61L7436.78,3046.04L7436.68,4632.19L7293.2,4775.53L3344.25,4772.91L3344.6,4836.43L2940.49,4836.28L2806.39,5157.08L2753.22,5157.04L2540.71,4954.66L2421.21,5074.41L2464.01,5117.06L2235.51,5344.26L1932.9,5040.78L1933.7,2649.59L2236.06,2340.21L2448.36,2551.31L2397.57,2604.99L2535.08,2742.34L2753.23,2523.9L3345.06,2523.87L3498.55,2815.17L7244.55,2833.38L7432.7,2523.83L7486.59,2523.89L7584.01,2621.1L7939.39,2265.72ZM2019.22,751.9L651.9,2119.21L651.9,5561.73L2019.22,6929.04L8220.58,6929.04L9587.97,5561.67L9587.97,2119.25L8220.58,751.9L2019.22,751.9Z" id="TRAY" fill="#dfdfdf" fill-opacity="1.0" /><path d="M2361.74,1385.6L2361.3,1450.69L2950.3,2853.0L3346.4,2853.0L3346.46,1385.6L2361.74,1385.6Z" id="104" fill="#ffffff" fill-opacity="1.0" stroke="#dddddd" stroke-opacity="1.0" stroke-width="8.0" /><path d="M3346.5,1451.9L3346.52,2904.5L4056.52,2904.5L4056.52,1451.9L3346.5,1451.9Z" id="105" fill="#ffffff" fill-opacity="1.0" stroke="#dddddd" stroke-opacity="1.0" stroke-width="8.0" /><path d="M4764.58,1451.9L4056.8,1451.92L4056.8,2904.5L4764.58,2904.5L4764.58,1451.9Z" id="106" fill="#ffffff" fill-opacity="1.0" stroke="#dddddd" stroke-opacity="1.0" stroke-width="8.0" /><path d="M4765.55,1451.9L4765.55,2904.5L5473.87,2904.5L5473.87,1451.92L4765.55,1451.9Z" id="107" fill="#ffffff" fill-opacity="1.0" stroke="#dddddd" stroke-opacity="1.0" stroke-width="8.0" /><path d="M5473.85,1451.9L5473.87,2904.5L6182.17,2904.5L6182.17,1451.9L5473.85,1451.9Z" id="108" fill="#ffffff" fill-opacity="1.0" stroke="#dddddd" stroke-opacity="1.0" stroke-width="8.0" /><path d="M6182.25,1451.9L6182.27,2904.5L6892.27,2904.5L6892.27,1451.9L6182.25,1451.9Z" id="109" fill="#ffffff" fill-opacity="1.0" stroke="#dddddd" stroke-opacity="1.0" stroke-width="8.0" /><path d="M7879.19,1451.9L7431.75,2521.87L7487.41,2521.9L7583.69,2617.96L7838.58,2359.48L7840.28,2361.37L7844.0,2357.65L7911.21,2424.86L8409.52,1930.77L7930.62,1451.9L7879.19,1451.9Z" id="111" fill="#ffffff" fill-opacity="1.0" stroke="#dddddd" stroke-opacity="1.0" stroke-width="8.0" /><path d="M6892.34,1385.5L6892.46,2903.9L7270.88,2903.9L7878.14,1452.6L7878.14,1385.5L6892.34,1385.5Z" id="110" fill="#ffffff" fill-opacity="1.0" stroke="#dddddd" stroke-opacity="1.0" stroke-width="8.0" /><path d="M8409.42,1930.7L7912.03,2425.68L7990.47,2504.12L7730.35,2764.24L7845.78,2879.54L8887.93,2452.92L8887.93,2409.21L8409.42,1930.7Z" id="113" fill="#ffffff" fill-opacity="1.0" stroke="#dddddd" stroke-opacity="1.0" stroke-width="8.0" /><path d="M8888.0,2454.01L7438.7,3047.29L7438.7,3492.3L8888.0,3492.3L8888.0,2454.01Z" id="114" fill="#ffffff" fill-opacity="1.0" stroke="#dddddd" stroke-opacity="1.0" stroke-width="8.0" /><path d="M7438.15,3492.3L7438.15,4188.45L8888.0,4188.45L8888.0,3492.3L7438.15,3492.3Z" id="115" fill="#ffffff" fill-opacity="1.0" stroke="#dddddd" stroke-opacity="1.0" stroke-width="8.0" /><path d="M7438.6,4188.45L7438.6,4633.09L8887.93,5227.58L8888.0,4188.45L7438.6,4188.45Z" id="116" fill="#ffffff" fill-opacity="1.0" stroke="#dddddd" stroke-opacity="1.0" stroke-width="8.0" /><path d="M7438.99,4633.1L7294.08,4777.38L7271.3,4777.48L7436.65,5172.11L7500.4,5172.26L7664.95,5007.96L8408.95,5750.46L8887.8,5271.61L8887.8,5227.53L7438.99,4633.1Z" id="117" fill="#ffffff" fill-opacity="1.0" stroke="#dddddd" stroke-opacity="1.0" stroke-width="8.0" /><path d="M7665.1,5008.05L7500.55,5172.21L7436.8,5172.11L7879.3,6228.96L7930.49,6228.98L8408.27,5751.21L7665.1,5008.05Z" id="119" fill="#ffffff" fill-opacity="1.0" stroke="#dddddd" stroke-opacity="1.0" stroke-width="8.0" /><path d="M6892.27,4777.35L6892.05,6298.2L7878.31,6298.2L7878.73,6230.04L7271.36,4777.35L6892.27,4777.35Z" id="120" fill="#ffffff" fill-opacity="1.0" stroke="#dddddd" stroke-opacity="1.0" stroke-width="8.0" /><path d="M6182.15,4777.3L6182.17,6228.7L6892.17,6228.7L6892.17,4777.3L6182.15,4777.3Z" id="121" fill="#ffffff" fill-opacity="1.0" stroke="#dddddd" stroke-opacity="1.0" stroke-width="8.0" /><path d="M5474.05,4777.8L5474.07,6228.67L6182.37,6228.67L6182.37,4777.8L5474.05,4777.8Z" id="122" fill="#ffffff" fill-opacity="1.0" stroke="#dddddd" stroke-opacity="1.0" stroke-width="8.0" /><path d="M4766.1,4777.8L4766.1,6229.05L5473.87,6228.69L5473.87,4777.8L4766.1,4777.8Z" id="123" fill="#ffffff" fill-opacity="1.0" stroke="#dddddd" stroke-opacity="1.0" stroke-width="8.0" /><path d="M4056.5,4777.8L4056.52,6228.69L4765.08,6229.05L4765.08,4777.8L4056.5,4777.8Z" id="124" fill="#ffffff" fill-opacity="1.0" stroke="#dddddd" stroke-opacity="1.0" stroke-width="8.0" /><path d="M3346.7,4777.3L3346.72,6228.7L4056.72,6228.7L4056.72,4777.3L3346.7,4777.3Z" id="125" fill="#ffffff" fill-opacity="1.0" stroke="#dddddd" stroke-opacity="1.0" stroke-width="8.0" /><path d="M2423.08,4829.35L1352.2,5272.04L1829.88,5749.73L2586.6,4993.05L2423.08,4829.35Z" id="129" fill="#ffffff" fill-opacity="1.0" stroke="#dddddd" stroke-opacity="1.0" stroke-width="8.0" /><path d="M1828.45,1932.65L1352.25,2408.85L2229.33,2768.95L2447.04,2551.24L1828.45,1932.65Z" id="101" fill="#ffffff" fill-opacity="1.0" stroke="#dddddd" stroke-opacity="1.0" stroke-width="8.0" /><path d="M2587.32,4993.75L1830.6,5750.43L2309.2,6229.03L2360.6,6229.01L2807.74,5159.02L2752.42,5159.03L2587.32,4993.75Z" id="127" fill="#ffffff" fill-opacity="1.0" stroke="#dddddd" stroke-opacity="1.0" stroke-width="8.0" /><path d="M2309.16,1451.9L1829.1,1931.96L2448.4,2551.25L2397.55,2602.09L2534.88,2739.42L2752.37,2521.9L2807.98,2521.86L2360.73,1451.9L2309.16,1451.9Z" id="103" fill="#ffffff" fill-opacity="1.0" stroke="#dddddd" stroke-opacity="1.0" stroke-width="8.0" /><path d="M3346.71,4838.2L2941.81,4838.31L2361.6,6227.8L2361.6,6298.15L3346.74,6298.15L3346.71,4838.2Z" id="126" fill="#ffffff" fill-opacity="1.0" stroke="#dddddd" stroke-opacity="1.0" stroke-width="8.0" /><path d="M1030.14,1740.95L651.9,2119.19L651.917,2815.92L1202.12,2815.92L1201.9,2347.01L1419.05,2129.86L1030.14,1740.95Z" id="201" fill="#ffffff" fill-opacity="1.0" stroke="#dddddd" stroke-opacity="1.0" stroke-width="8.0" /><path d="M1636.93,1134.25L1030.89,1740.29L1419.8,2129.2L2025.81,1523.19L1636.93,1134.25Z" id="202" fill="#ffffff" fill-opacity="1.0" stroke="#dddddd" stroke-opacity="1.0" stroke-width="8.0" /><path d="M2019.28,751.9L1637.63,1133.55L2026.51,1522.49L2247.1,1301.9L2639.5,1301.9L2639.5,751.9L2019.28,751.9Z" id="203" fill="#ffffff" fill-opacity="1.0" stroke="#dddddd" stroke-opacity="1.0" stroke-width="8.0" /><path d="M2640.5,751.9L2640.5,1301.9L3346.52,1302.12L3346.52,751.917L2640.5,751.9Z" id="204" fill="#ffffff" fill-opacity="1.0" stroke="#dddddd" stroke-opacity="1.0" stroke-width="8.0" /><path d="M3346.7,751.9L3346.72,1302.1L4056.72,1302.1L4056.72,751.9L3346.7,751.9Z" id="205" fill="#ffffff" fill-opacity="1.0" stroke="#dddddd" stroke-opacity="1.0" stroke-width="8.0" /><path d="M4056.8,751.917L4056.82,1302.12L4765.18,1301.9L4765.18,751.9L4056.8,751.917Z" id="206" fill="#ffffff" fill-opacity="1.0" stroke="#dddddd" stroke-opacity="1.0" stroke-width="8.0" /><path d="M4766.2,751.9L4766.2,1301.9L5473.97,1302.12L5473.97,751.917L4766.2,751.9Z" id="207" fill="#ffffff" fill-opacity="1.0" stroke="#dddddd" stroke-opacity="1.0" stroke-width="8.0" /><path d="M5474.05,751.9L5474.07,1302.1L6182.37,1302.1L6182.37,751.9L5474.05,751.9Z" id="208" fill="#ffffff" fill-opacity="1.0" stroke="#dddddd" stroke-opacity="1.0" stroke-width="8.0" /><path d="M6182.15,751.9L6182.17,1302.1L6892.17,1302.1L6892.17,751.9L6182.15,751.9Z" id="209" fill="#ffffff" fill-opacity="1.0" stroke="#dddddd" stroke-opacity="1.0" stroke-width="8.0" /><path d="M6892.35,751.9L6892.35,1302.1L7599.52,1302.1L7599.52,751.9L6892.35,751.9Z" id="210" fill="#ffffff" fill-opacity="1.0" stroke="#dddddd" stroke-opacity="1.0" stroke-width="8.0" /><path d="M7599.6,751.917L7599.62,1302.12L7992.78,1301.9L8208.13,1517.25L8597.04,1128.34L8220.59,751.9L7599.6,751.917Z" id="211" fill="#ffffff" fill-opacity="1.0" stroke="#dddddd" stroke-opacity="1.0" stroke-width="8.0" /><path d="M8597.76,1129.04L8208.85,1517.95L8821.6,2130.7L9210.51,1741.79L8597.76,1129.04Z" id="212" fill="#ffffff" fill-opacity="1.0" stroke="#dddddd" stroke-opacity="1.0" stroke-width="8.0" /><path d="M9211.21,1742.45L8822.3,2131.36L9038.0,2347.06L9037.72,2816.22L9587.97,2816.22L9588.0,2119.24L9211.21,1742.45Z" id="213" fill="#ffffff" fill-opacity="1.0" stroke="#dddddd" stroke-opacity="1.0" stroke-width="8.0" /><path d="M9038.02,2815.85L9038.0,3536.53L9588.0,3536.53L9588.17,2815.87L9038.02,2815.85Z" id="214" fill="#ffffff" fill-opacity="1.0" stroke="#dddddd" stroke-opacity="1.0" stroke-width="8.0" /><path d="M9038.0,3536.55L9038.0,4144.35L9588.0,4144.35L9588.0,3536.55L9038.0,3536.55Z" id="215" fill="#ffffff" fill-opacity="1.0" stroke="#dddddd" stroke-opacity="1.0" stroke-width="8.0" /><path d="M9038.0,4144.35L9038.0,4863.8L9588.0,4863.8L9588.0,4144.35L9038.0,4144.35Z" id="216" fill="#ffffff" fill-opacity="1.0" stroke="#dddddd" stroke-opacity="1.0" stroke-width="8.0" /><path d="M9038.13,4863.8L9037.97,5333.83L8820.9,5550.9L9209.81,5939.81L9587.97,5561.65L9588.03,4863.88L9038.13,4863.8Z" id="217" fill="#ffffff" fill-opacity="1.0" stroke="#dddddd" stroke-opacity="1.0" stroke-width="8.0" /><path d="M8820.23,5551.63L8209.38,6162.48L8598.29,6551.39L9209.14,5940.54L8820.23,5551.63Z" id="218" fill="#ffffff" fill-opacity="1.0" stroke="#dddddd" stroke-opacity="1.0" stroke-width="8.0" /><path d="M8208.66,6163.15L7992.79,6379.02L7599.6,6379.17L7599.62,6928.82L8220.61,6929.02L8597.57,6552.06L8208.66,6163.15Z" id="219" fill="#ffffff" fill-opacity="1.0" stroke="#dddddd" stroke-opacity="1.0" stroke-width="8.0" /><path d="M6892.35,6379.05L6892.35,6929.2L7599.52,6929.2L7599.52,6379.05L6892.35,6379.05Z" id="220" fill="#ffffff" fill-opacity="1.0" stroke="#dddddd" stroke-opacity="1.0" stroke-width="8.0" /><path d="M6182.15,6379.05L6182.17,6929.2L6892.17,6929.2L6892.17,6379.05L6182.15,6379.05Z" id="221" fill="#ffffff" fill-opacity="1.0" stroke="#dddddd" stroke-opacity="1.0" stroke-width="8.0" /><path d="M5474.05,6379.05L5474.07,6929.2L6182.37,6929.2L6182.37,6379.05L5474.05,6379.05Z" id="222" fill="#ffffff" fill-opacity="1.0" stroke="#dddddd" stroke-opacity="1.0" stroke-width="8.0" /><path d="M4766.1,6379.05L4766.1,6929.05L5473.87,6929.22L5473.87,6379.07L4766.1,6379.05Z" id="223" fill="#ffffff" fill-opacity="1.0" stroke="#dddddd" stroke-opacity="1.0" stroke-width="8.0" /><path d="M4056.8,6379.07L4056.82,6929.22L4765.08,6929.05L4765.08,6379.05L4056.8,6379.07Z" id="224" fill="#ffffff" fill-opacity="1.0" stroke="#dddddd" stroke-opacity="1.0" stroke-width="8.0" /><path d="M3346.7,6379.05L3346.72,6929.2L4056.72,6929.2L4056.72,6379.05L3346.7,6379.05Z" id="225" fill="#ffffff" fill-opacity="1.0" stroke="#dddddd" stroke-opacity="1.0" stroke-width="8.0" /><path d="M2640.5,6379.05L2640.5,6929.05L3346.52,6929.22L3346.52,6379.07L2640.5,6379.05Z" id="226" fill="#ffffff" fill-opacity="1.0" stroke="#dddddd" stroke-opacity="1.0" stroke-width="8.0" /><path d="M2029.21,6161.17L1640.22,6550.01L2019.27,6929.05L2639.5,6929.05L2639.5,6379.05L2247.09,6379.05L2029.21,6161.17Z" id="227" fill="#ffffff" fill-opacity="1.0" stroke="#dddddd" stroke-opacity="1.0" stroke-width="8.0" /><path d="M1419.91,5551.87L1030.92,5940.71L1639.52,6549.31L2028.51,6160.47L1419.91,5551.87Z" id="228" fill="#ffffff" fill-opacity="1.0" stroke="#dddddd" stroke-opacity="1.0" stroke-width="8.0" /><path d="M651.957,4863.75L651.9,5561.72L1030.17,5940.0L1419.16,5551.16L1201.9,5333.9L1202.01,4863.81L651.957,4863.75Z" id="229" fill="#ffffff" fill-opacity="1.0" stroke="#dddddd" stroke-opacity="1.0" stroke-width="8.0" /><path d="M651.95,4145.0L651.95,4863.8L1201.95,4863.8L1201.95,4145.0L651.95,4145.0Z" id="230" fill="#ffffff" fill-opacity="1.0" stroke="#dddddd" stroke-opacity="1.0" stroke-width="8.0" /><path d="M651.9,3537.1L652.007,4144.96L1202.01,4145.06L1201.9,3537.1L651.9,3537.1Z" id="231" fill="#ffffff" fill-opacity="1.0" stroke="#dddddd" stroke-opacity="1.0" stroke-width="8.0" /><path d="M651.917,2815.85L651.9,3536.08L1201.9,3536.08L1202.12,2815.87L651.917,2815.85Z" id="232" fill="#ffffff" fill-opacity="1.0" stroke="#dddddd" stroke-opacity="1.0" stroke-width="8.0" /><path d="M7704.01,4908.07L7790.75,5001.18L7706.67,5085.39L7467.46,5234.45L7435.92,5157.93L7704.01,4908.07Z" id="MASK" fill="#ffffff" fill-opacity="1.0" /><path d="M7868.25,2375.1L8002.41,2240.94L8098.36,2336.9L7964.2,2471.05L7868.25,2375.1Z" id="Shape001" fill="#f6f6f6" fill-opacity="1.0" /><path d="M6984.7,3675.15L7411.89,3675.15L7411.89,4031.0L6984.7,4031.0L6984.7,3675.15Z" id="Shape003" fill="#dfdfdf" fill-opacity="1.0" /><path d="M1952.05,3763.55L2236.58,3763.55L2236.58,3930.2L1952.05,3930.2L1952.05,3763.55Z" id="Shape004" fill="#dfdfdf" fill-opacity="1.0" /><text text-align="left" id="MIX" fill="#727272" fill-opacity="1.0" font-family="averta,arial,'arial bold'" font-weight="bold" font-size="144.8" x="7076.09" y="3908.55"><tspan text-anchor="start" x="7076.09">MIX</tspan></text><text text-align="left" id="CAM" fill="#727272" fill-opacity="1.0" font-family="averta,arial,'arial bold'" font-weight="bold" font-size="79.9523" x="2008.83" y="3877.5"><tspan text-anchor="start" x="2008.83">CAM</tspan></text><path d="M4461.96,4416.39C4442.74,4416.39,4427.1,4432.03,4427.1,4451.25C4427.1,4470.48,4442.74,4486.11,4461.96,4486.11C4481.18,4486.11,4496.82,4470.48,4496.82,4451.25L4496.82,4451.25C4496.82,4432.03,4481.18,4416.39,4461.96,4416.39Z" id="CIRCLE001" fill="#727272" fill-opacity="1.0" /><path d="M2421.25,5074.35L2540.82,4954.78L2626.42,5040.37L2506.85,5159.95L2421.25,5074.35Z" id="MASK001" fill="#ffffff" fill-opacity="1.0" /><path d="M4461.96,4481.97C4445.02,4481.97,4431.25,4468.19,4431.25,4451.25C4431.25,4434.32,4445.03,4420.54,4461.96,4420.54C4478.9,4420.54,4492.67,4434.32,4492.67,4451.25L4492.67,4451.25C4492.67,4468.19,4478.9,4481.97,4461.96,4481.97Z" id="CIRCLE" fill="#ffffff" fill-opacity="1.0" /><path d="M4455.68,4446.94C4452.08,4448.68,4449.84,4452.14,4449.84,4456.4C4449.84,4462.32,4454.65,4467.13,4460.58,4467.13C4465.6,4467.13,4469.84,4463.67,4471.0,4458.98C4471.0,4458.98,4472.61,4462.74,4472.61,4462.74C4470.39,4467.31,4466.03,4470.05,4460.61,4470.05C4453.05,4470.05,4446.92,4463.93,4446.92,4456.38C4446.92,4450.57,4450.54,4445.61,4455.65,4443.62L4455.65,4443.62C4455.65,4443.62,4455.67,4445.28,4455.68,4446.94Z" id="WHEEL" fill="#727272" fill-opacity="1.0" /><path d="M4481.29,4462.11L4477.83,4463.41L4472.74,4449.84L4460.78,4449.23L4460.77,4447.16L4469.4,4447.14L4469.4,4443.7L4460.77,4443.72C4460.77,4440.74,4460.77,4437.77,4460.77,4437.77C4462.46,4437.31,4463.7,4435.79,4463.7,4433.94C4463.7,4431.76,4461.93,4429.98,4459.74,4429.98C4457.54,4429.98,4455.76,4431.75,4455.76,4433.94C4455.76,4435.15,4456.3,4436.21,4457.14,4436.94C4457.14,4436.94,4457.14,4444.71,4457.14,4452.49L4457.14,4452.49L4470.25,4453.13L4475.59,4467.23L4482.26,4464.72L4481.29,4462.11Z" id="BODY" fill="#727272" fill-opacity="1.0" /><path d="M7248.68,2963.75L5906.5,2964.04L5906.5,3675.37L6411.19,3675.37L6411.19,4008.44L5906.5,4008.44L5906.5,4727.76L7269.14,4717.33L7378.77,4608.19L7378.14,4110.99L6904.69,4110.97L6904.69,3595.13L7377.5,3595.14L7376.84,3073.44L7248.68,2963.75Z" id="HRTGA" fill="#ffffff" fill-opacity="1.0" stroke="#dddddd" stroke-opacity="1.0" stroke-width="8.0" /></svg>