<svg width="1024px" height="768px" viewBox="0 0 10240 7680" x="0px" y="0px" xmlns="http://www.w3.org/2000/svg"><defs></defs><path d="M7678.37,7671.75L7678.37,7447.2L9161.7,7447.2L9161.7,6069.92L9794.95,6069.92L9794.95,1606.57L9161.7,1606.57L9161.7,229.301L7678.37,229.301L7678.37,4.75098L2558.38,4.75L2558.38,229.3L1075.05,229.3L1075.05,1606.57L441.701,1606.57L441.701,6069.92L1075.05,6069.92L1075.05,7447.2L2558.38,7447.2L2558.38,7671.75L7678.37,7671.75Z" id="POCHE" fill="#f6f6f6" fill-opacity="1.0" stroke="#d4d4d4" stroke-opacity="1.0" stroke-width="3.0" /><path d="M6599.23,2083.6C6641.39,1986.98,6683.55,1890.35,6683.55,1890.35C6633.79,1868.33,6583.03,1849.49,6531.6,1834.16C6497.32,1823.94,6462.74,1815.28,6427.96,1808.27C6407.35,1804.11,6386.67,1800.54,6365.93,1797.57C6316.69,1790.51,6267.17,1786.85,6217.63,1786.85C6217.63,1786.85,6120.15,1786.85,6022.68,1786.85L6022.68,1786.85L6022.68,1970.06C6061.46,1970.06,6100.24,1970.06,6100.24,1970.06L6100.24,1970.06C6269.42,1970.06,6440.22,2009.13,6599.23,2083.6Z" id="MEDIA" fill="#dfdfdf" fill-opacity="1.0" stroke="#dddddd" stroke-opacity="1.0" stroke-width="6.0" /><path d="M5418.45,1977.95L4814.35,1977.95L4814.35,1786.8L5418.45,1786.8L5418.45,1977.95Z" id="CAMERA PLATFORM" fill="#dfdfdf" fill-opacity="1.0" stroke="#dddddd" stroke-opacity="1.0" stroke-width="6.0" /><path d="M5418.45,5886.7L4814.35,5886.7L4814.35,5695.55L5418.45,5695.55L5418.45,5886.7Z" id="CAMERA PLATFORM" fill="#dfdfdf" fill-opacity="1.0" stroke="#dddddd" stroke-opacity="1.0" stroke-width="6.0" /><path d="M4059.36,3763.21L4700.23,3763.21L4700.23,3914.23L4059.36,3914.23L4059.36,3763.21Z" id="Shape005" fill="#262626" fill-opacity="1.0" /><path d="M5494.45,3763.21L6191.22,3763.21L6191.22,3914.23L5494.45,3914.23L5494.45,3763.21Z" id="Shape003" fill="#262626" fill-opacity="1.0" /><path d="M4643.38,3622.58L4900.84,3622.58L4900.84,4050.75L4643.38,4050.75L4643.38,3622.58Z" id="Shape004" fill="#262626" fill-opacity="1.0" /><path d="M5307.92,3622.58L5607.19,3622.58L5607.19,4050.75L5307.92,4050.75L5307.92,3622.58Z" id="Shape002" fill="#262626" fill-opacity="1.0" /><path d="M4838.77,3546.76L5411.87,3546.76L5411.87,4132.71L4838.77,4132.71L4838.77,3546.76Z" id="Shape001" fill="#262626" fill-opacity="1.0" /><path d="M6760.02,3670.01L7047.5,3669.95L7047.5,4000.5L6760.22,4000.56L6760.02,3670.01Z" id="MIX001" fill="#dfdfdf" fill-opacity="1.0" /><path d="M3209.75,3670.01L3497.24,3669.95L3497.24,4000.5L3209.95,4000.56L3209.75,3670.01Z" id="MIX" fill="#dfdfdf" fill-opacity="1.0" /><text text-align="left" id="STAGE" fill="#ffffff" fill-opacity="1.0" font-family="averta,arial,'arial bold'" font-weight="bold" font-size="181.0" x="4825.26" y="3906.85"><tspan text-anchor="start" x="4825.26">STAGE</tspan></text><text text-align="left" id="MIX" fill="#727272" fill-opacity="1.0" font-family="averta,arial,'arial bold'" font-weight="bold" font-size="90.5" x="3277.08" y="3869.93"><tspan text-anchor="start" x="3277.08">MIX</tspan></text><path d="M4491.7,3156.95L3272.7,3156.99L3272.7,3620.0L3547.23,3619.94L3547.23,4050.48L3272.7,4050.54L3272.7,4520.69L4491.7,4520.75L4491.7,3990.81L3983.0,3990.81L3983.0,3685.42L4491.7,3685.42L4491.7,3156.95Z" id="HEART" fill="#ffffff" fill-opacity="1.0" stroke="#dddddd" stroke-opacity="1.0" stroke-width="6.0" /><path d="M4491.7,3156.95L5760.35,3156.95L5760.35,3419.65L4491.7,3419.65L4491.7,3156.95Z" id="F7" fill="#ffffff" fill-opacity="1.0" stroke="#dddddd" stroke-opacity="1.0" stroke-width="6.0" /><path d="M4491.7,4258.1L5760.35,4258.1L5760.35,4520.8L4491.7,4520.8L4491.7,4258.1Z" id="F18" fill="#ffffff" fill-opacity="1.0" stroke="#dddddd" stroke-opacity="1.0" stroke-width="6.0" /><path d="M5760.25,3156.85L7016.25,3156.85L7016.25,3620.08L6704.79,3620.02L6704.79,4050.47L7016.25,4050.53L7016.25,4520.85L5760.25,4520.85L5760.25,3990.81L6268.95,3990.81L6268.95,3685.42L5760.25,3685.42L5760.25,3156.85Z" id="SOUL" fill="#ffffff" fill-opacity="1.0" stroke="#dddddd" stroke-opacity="1.0" stroke-width="6.0" /><path d="M2899.84,2447.2C2854.08,2516.18,2814.3,2588.42,2781.59,2662.85C2759.8,2712.46,2741.15,2763.05,2725.97,2814.28C2716.98,2844.64,2709.21,2875.22,2702.72,2905.97C2687.31,2978.98,2679.15,3052.9,2679.15,3126.82C2679.15,3126.82,2679.1,3205.23,2679.05,3283.65L2679.05,3283.65L3179.35,3287.84C3179.23,3267.21,3179.1,3246.57,3179.1,3246.57C3179.1,3184.83,3185.91,3123.08,3198.79,3062.1C3204.2,3036.41,3210.7,3010.87,3218.21,2985.51C3230.89,2942.72,3246.46,2900.46,3264.67,2859.02C3285.42,2811.79,3309.58,2765.62,3336.76,2720.9L3336.76,2720.9C3336.76,2720.9,3019.38,2522.2,2899.84,2447.2Z" id="3" fill="#ffffff" fill-opacity="1.0" stroke="#dddddd" stroke-opacity="1.0" stroke-width="6.0" /><path d="M2679.2,3283.65L2679.2,3836.2L3179.17,3836.2L3179.35,3287.61L2679.2,3283.65Z" id="2" fill="#ffffff" fill-opacity="1.0" stroke="#dddddd" stroke-opacity="1.0" stroke-width="6.0" /><path d="M2679.25,4389.0L2679.25,4389.0C2679.25,4467.79,2679.25,4546.59,2679.25,4546.59C2679.25,4625.34,2688.51,4704.1,2705.93,4781.76C2717.55,4833.54,2732.8,4884.83,2751.35,4935.32C2762.35,4965.24,2774.5,4994.87,2787.76,5024.16C2819.23,5093.71,2856.88,5161.29,2899.8,5225.99C2899.8,5225.99,3335.3,4955.61,3335.3,4955.61C3310.82,4915.1,3288.95,4873.69,3269.82,4831.4C3258.74,4806.94,3248.6,4782.19,3239.42,4757.2C3223.91,4715.03,3211.17,4672.18,3201.47,4628.92C3186.92,4564.05,3179.19,4498.27,3179.19,4432.49C3179.19,4432.49,3179.19,4410.75,3179.19,4389.01L3179.19,4389.01L2679.25,4389.0Z" id="22" fill="#ffffff" fill-opacity="1.0" stroke="#dddddd" stroke-opacity="1.0" stroke-width="6.0" /><path d="M3550.78,5782.32C3675.57,5496.04,3800.36,5209.77,3925.15,4923.5L3925.15,4923.5C3912.23,4916.56,3899.3,4909.63,3887.52,4902.21C3887.52,4902.21,3897.18,4879.96,3897.18,4879.96C3832.62,4839.31,3765.22,4776.69,3721.58,4713.75C3721.58,4713.75,2899.75,5226.13,2899.75,5226.13L2899.75,5226.13C3059.28,5466.59,3291.66,5667.36,3550.78,5782.32Z" id="21" fill="#ffffff" fill-opacity="1.0" stroke="#dddddd" stroke-opacity="1.0" stroke-width="6.0" /><path d="M4210.3,5886.77L4210.3,4583.89L4134.48,4583.89L4120.67,4581.39L4111.73,4577.53L4106.58,4574.73L4094.85,4567.54L4083.81,4560.09L4036.21,4560.09C3961.88,4731.17,3887.54,4902.25,3887.54,4902.25C3899.32,4909.67,3912.25,4916.6,3925.18,4923.54L3925.18,4923.54C3737.99,5352.95,3550.8,5782.36,3550.8,5782.36C3600.85,5804.56,3651.9,5823.57,3703.61,5839.03C3738.09,5849.35,3772.86,5858.09,3807.83,5865.16C3828.55,5869.35,3849.34,5872.96,3870.19,5875.95C3919.68,5883.07,3969.45,5886.77,4019.22,5886.77L4019.22,5886.77C4019.22,5886.77,4114.76,5886.77,4210.3,5886.77Z" id="20" fill="#ffffff" fill-opacity="1.0" stroke="#dddddd" stroke-opacity="1.0" stroke-width="6.0" /><path d="M4210.2,4583.9L4210.2,5886.7L4814.15,5886.7L4814.15,4583.9L4210.2,4583.9Z" id="19" fill="#ffffff" fill-opacity="1.0" stroke="#dddddd" stroke-opacity="1.0" stroke-width="6.0" /><path d="M4814.2,4583.9L4814.33,5695.75L5418.35,5695.7L5418.38,4583.9L4814.2,4583.9Z" id="18" fill="#ffffff" fill-opacity="1.0" stroke="#dddddd" stroke-opacity="1.0" stroke-width="6.0" /><path d="M5418.35,4583.9L5418.35,5886.7L6022.55,5886.7L6022.55,4583.9L5418.35,4583.9Z" id="17" fill="#ffffff" fill-opacity="1.0" stroke="#dddddd" stroke-opacity="1.0" stroke-width="6.0" /><path d="M6217.6,5886.67C6270.42,5886.67,6323.21,5882.51,6375.67,5874.51C6410.64,5869.18,6445.45,5862.14,6480.02,5853.5C6500.5,5848.37,6520.9,5842.69,6541.19,5836.45C6589.38,5821.66,6636.95,5803.79,6683.66,5783.12C6683.66,5783.12,6352.41,5024.12,6352.41,5024.12C6364.85,5017.6,6380.86,5011.5,6392.86,5003.92C6392.86,5003.92,6295.28,4781.79,6197.7,4559.65L6197.7,4559.65L6150.27,4559.93L6135.27,4569.77L6124.16,4576.14L6116.48,4579.8L6111.69,4581.54L6100.36,4583.38L6022.65,4583.38L6022.65,5886.67C6087.63,5886.67,6152.62,5886.67,6217.6,5886.67Z" id="16" fill="#ffffff" fill-opacity="1.0" stroke="#dddddd" stroke-opacity="1.0" stroke-width="6.0" /><path d="M6502.16,4721.7C6458.9,4784.23,6402.16,4838.9,6338.2,4879.43C6338.2,4879.43,6392.9,5003.95,6392.9,5003.95C6380.9,5011.53,6364.89,5017.63,6352.45,5024.15C6352.45,5024.15,6683.63,5783.18,6683.63,5783.18C6943.02,5668.45,7175.31,5467.41,7334.65,5226.46L7334.65,5226.46C7334.65,5226.46,6918.41,4974.08,6502.16,4721.7Z" id="15" fill="#ffffff" fill-opacity="1.0" stroke="#dddddd" stroke-opacity="1.0" stroke-width="6.0" /><path d="M7107.62,4378.85L7107.62,4378.85C7107.62,4464.39,7107.62,4549.93,7107.62,4549.93C7107.62,4691.61,7055.71,4831.48,6977.5,4956.62C6969.49,4969.44,6961.18,4982.11,6952.6,4994.62C6952.6,4994.62,7334.72,5226.31,7334.72,5226.31C7380.33,5157.33,7419.96,5085.09,7452.53,5010.67C7474.24,4961.05,7492.82,4910.47,7507.93,4859.24C7516.89,4828.89,7524.63,4798.3,7531.09,4767.56C7546.43,4694.54,7554.55,4620.62,7554.55,4546.7C7554.55,4546.7,7554.55,4468.03,7554.55,4389.36L7554.55,4389.36L7107.62,4378.85Z" id="14" fill="#ffffff" fill-opacity="1.0" stroke="#dddddd" stroke-opacity="1.0" stroke-width="6.0" /><path d="M7107.6,3836.2L7107.6,4378.97L7554.53,4389.48L7554.53,3836.2L7107.6,3836.2Z" id="13" fill="#ffffff" fill-opacity="1.0" stroke="#dddddd" stroke-opacity="1.0" stroke-width="6.0" /><path d="M7554.53,3283.5L7107.6,3293.97L7107.6,3836.09L7554.53,3836.09L7554.53,3283.5Z" id="12" fill="#ffffff" fill-opacity="1.0" stroke="#dddddd" stroke-opacity="1.0" stroke-width="6.0" /><path d="M7334.54,2446.95C7141.95,2563.75,6949.35,2680.54,6949.35,2680.54C6964.84,2702.86,6979.45,2725.7,6993.07,2748.99C7062.34,2867.42,7107.62,2997.95,7107.62,3129.94C7107.62,3129.94,7107.62,3212.02,7107.62,3294.1L7107.62,3294.1L7554.55,3283.63C7554.55,3205.23,7554.55,3126.84,7554.55,3126.84C7554.55,3048.02,7545.32,2969.21,7527.94,2891.48C7516.36,2839.67,7501.15,2788.34,7482.65,2737.81C7471.68,2707.87,7459.55,2678.22,7446.33,2648.91L7446.33,2648.91C7414.93,2579.31,7377.37,2511.69,7334.54,2446.95Z" id="11" fill="#ffffff" fill-opacity="1.0" stroke="#dddddd" stroke-opacity="1.0" stroke-width="6.0" /><path d="M6502.1,2951.72C6918.31,2699.31,7334.53,2446.91,7334.53,2446.91C7175.16,2206.03,6942.83,2005.02,6683.51,1890.3C6683.51,1890.3,6495.6,2320.96,6307.7,2751.62L6307.7,2751.62C6308.52,2752.06,6309.34,2752.49,6309.34,2752.49C6321.43,2758.85,6333.0,2765.73,6344.69,2773.07C6344.69,2773.07,6336.24,2792.85,6336.24,2792.85L6336.24,2792.85C6400.97,2833.48,6458.4,2888.6,6502.1,2951.72Z" id="10" fill="#ffffff" fill-opacity="1.0" stroke="#dddddd" stroke-opacity="1.0" stroke-width="6.0" /><path d="M6022.5,1970.05L6022.5,3090.05L6100.24,3090.05L6113.94,3092.54L6139.22,3106.16C6146.79,3111.17,6154.35,3116.19,6156.6,3117.79C6156.6,3117.79,6176.99,3117.79,6197.38,3117.79L6197.38,3117.79C6271.02,2945.44,6344.66,2773.09,6344.66,2773.09C6332.97,2765.75,6321.4,2758.87,6309.31,2752.51C6309.31,2752.51,6308.49,2752.07,6307.67,2751.64L6307.67,2751.64C6453.36,2417.61,6599.05,2083.59,6599.05,2083.59C6440.04,2009.12,6269.24,1970.05,6100.06,1970.05L6100.06,1970.05C6100.06,1970.05,6061.28,1970.05,6022.5,1970.05Z" id="9" fill="#ffffff" fill-opacity="1.0" stroke="#dddddd" stroke-opacity="1.0" stroke-width="6.0" /><path d="M5418.35,1786.7L5418.37,3089.6L6022.48,3089.6L6022.55,1786.71L5418.35,1786.7Z" id="8" fill="#ffffff" fill-opacity="1.0" stroke="#dddddd" stroke-opacity="1.0" stroke-width="6.0" /><path d="M4814.05,1977.7L4814.16,3089.6L5418.2,3089.6L5418.42,1977.76L4814.05,1977.7Z" id="7" fill="#ffffff" fill-opacity="1.0" stroke="#dddddd" stroke-opacity="1.0" stroke-width="6.0" /><path d="M4210.4,1786.75L4210.42,3089.6L4814.37,3089.6L4814.35,1786.77L4210.4,1786.75Z" id="6" fill="#ffffff" fill-opacity="1.0" stroke="#dddddd" stroke-opacity="1.0" stroke-width="6.0" /><path d="M4078.79,3117.75L4084.32,3113.36L4098.98,3103.75L4110.26,3097.3L4118.05,3093.6L4122.9,3091.84L4134.38,3089.98L4210.18,3089.98L4210.18,1786.75C4096.97,1786.98,3983.75,1787.22,3966.08,1788.14C3954.31,1788.75,3916.83,1791.85,3909.87,1792.59C3893.33,1794.34,3876.82,1796.49,3860.33,1799.01C3825.2,1804.39,3790.21,1811.48,3755.47,1820.19C3734.89,1825.36,3714.39,1831.09,3693.99,1837.37C3645.56,1852.28,3590.8,1876.99,3543.85,1897.82C3543.85,1897.82,3734.58,2323.88,3925.3,2749.94L3925.3,2749.94L3886.02,2772.57L4037.92,3117.75L4078.79,3117.75Z" id="5" fill="#ffffff" fill-opacity="1.0" stroke="#dddddd" stroke-opacity="1.0" stroke-width="6.0" /><path d="M3544.97,1897.6C3285.89,2012.51,3063.54,2207.79,2904.0,2448.18C2904.0,2448.18,3753.93,2980.38,3753.93,2980.38C3795.56,2911.34,3859.27,2856.61,3889.53,2832.84C3894.64,2828.37,3900.22,2824.19,3906.73,2819.98C3906.73,2819.98,3896.32,2796.25,3885.91,2772.52L3885.91,2772.52L3925.2,2749.88C3797.15,2465.91,3669.1,2181.94,3544.97,1897.6Z" id="4" fill="#ffffff" fill-opacity="1.0" stroke="#dddddd" stroke-opacity="1.0" stroke-width="6.0" /><path d="M2679.2,3836.2L2679.2,4389.18L3179.19,4389.19L3179.17,3836.2L2679.2,3836.2Z" id="1" fill="#ffffff" fill-opacity="1.0" stroke="#dddddd" stroke-opacity="1.0" stroke-width="6.0" /><path d="M4861.2,2347.95L4767.3,2347.95L4767.3,2175.35L4861.2,2175.35L4861.2,2347.95Z" id="VOM" fill="#dfdfdf" fill-opacity="1.0" /><path d="M5685.8,2853.5L5752.55,2853.5L5752.55,3006.9L5685.8,3006.9L5685.8,2853.5Z" id="VOM" fill="#dfdfdf" fill-opacity="1.0" /><path d="M5085.0,2853.5L5151.75,2853.5L5151.75,3006.9L5085.0,3006.9L5085.0,2853.5Z" id="VOM" fill="#dfdfdf" fill-opacity="1.0" /><path d="M4480.4,2853.5L4547.15,2853.5L4547.15,3006.9L4480.4,3006.9L4480.4,2853.5Z" id="VOM" fill="#dfdfdf" fill-opacity="1.0" /><path d="M6069.5,2347.95L5975.6,2347.95L5975.6,2175.35L6069.5,2175.35L6069.5,2347.95Z" id="VOM" fill="#dfdfdf" fill-opacity="1.0" /><path d="M4257.25,2347.95L4163.35,2347.95L4163.35,2175.35L4257.25,2175.35L4257.25,2347.95Z" id="VOM" fill="#dfdfdf" fill-opacity="1.0" /><path d="M5465.4,2347.95L5371.5,2347.95L5371.5,2175.35L5465.4,2175.35L5465.4,2347.95Z" id="VOM" fill="#dfdfdf" fill-opacity="1.0" /><path d="M4861.2,5501.85L4767.3,5501.85L4767.3,5329.25L4861.2,5329.25L4861.2,5501.85Z" id="VOM" fill="#dfdfdf" fill-opacity="1.0" /><path d="M5465.3,5501.85L5371.4,5501.85L5371.4,5329.25L5465.3,5329.25L5465.3,5501.85Z" id="VOM" fill="#dfdfdf" fill-opacity="1.0" /><path d="M4257.15,5501.85L4163.25,5501.85L4163.25,5329.25L4257.15,5329.25L4257.15,5501.85Z" id="VOM" fill="#dfdfdf" fill-opacity="1.0" /><path d="M6069.5,5501.85L5975.6,5501.85L5975.6,5329.25L6069.5,5329.25L6069.5,5501.85Z" id="VOM" fill="#dfdfdf" fill-opacity="1.0" /><path d="M5685.4,4670.0L5752.15,4670.0L5752.15,4823.4L5685.4,4823.4L5685.4,4670.0Z" id="VOM" fill="#dfdfdf" fill-opacity="1.0" /><path d="M4480.0,4670.0L4546.75,4670.0L4546.75,4823.4L4480.0,4823.4L4480.0,4670.0Z" id="VOM" fill="#dfdfdf" fill-opacity="1.0" /><path d="M5084.6,4670.0L5151.35,4670.0L5151.35,4823.4L5084.6,4823.4L5084.6,4670.0Z" id="VOM" fill="#dfdfdf" fill-opacity="1.0" /><path d="M6322.95,4886.79L6365.91,4867.45L6424.9,5010.94L6313.4,5058.39L6286.55,4924.24L6322.95,4886.79Z" id="MASK" fill="#ffffff" fill-opacity="1.0" /><path d="M6312.8,2624.2L6387.95,2661.25L6359.7,2797.55L6301.42,2780.77L6231.7,2722.75L6312.8,2624.2Z" id="MASK" fill="#ffffff" fill-opacity="1.0" /><path d="M3992.4,2791.9L3864.4,2831.75L3819.25,2660.75L3929.95,2608.9L3992.4,2791.9Z" id="MASK" fill="#ffffff" fill-opacity="1.0" /><path d="M3944.45,5071.15L3816.5,5013.95L3829.05,4882.15L3981.9,4882.15L3944.45,5071.15Z" id="MASK" fill="#ffffff" fill-opacity="1.0" /><text text-align="left" id="PLATFORM" fill="#727272" fill-opacity="1.0" font-family="averta,arial,'arial bold'" font-weight="bold" font-size="54.3" x="4970.4" y="5846.5"><tspan text-anchor="start" x="4970.4">PLATFORM</tspan></text><text text-align="left" id="CAMERA" fill="#727272" fill-opacity="1.0" font-family="averta,arial,'arial bold'" font-weight="bold" font-size="54.3" x="4999.15" y="5776.5"><tspan text-anchor="start" x="4999.15">CAMERA</tspan></text><text text-align="left" id="PLATFORM" fill="#727272" fill-opacity="1.0" font-family="averta,arial,'arial bold'" font-weight="bold" font-size="54.3" x="4970.4" y="1941.5"><tspan text-anchor="start" x="4970.4">PLATFORM</tspan></text><text text-align="left" id="CAMERA" fill="#727272" fill-opacity="1.0" font-family="averta,arial,'arial bold'" font-weight="bold" font-size="54.3" x="4999.24" y="1871.5"><tspan text-anchor="start" x="4999.24">CAMERA</tspan></text><text text-align="left" id="MEDIA" fill="#727272" fill-opacity="1.0" font-family="averta,arial,'arial bold'" font-weight="bold" font-size="54.3" x="6269.12" y="1921.35"><tspan text-anchor="start" x="6269.12">MEDIA</tspan></text><path d="M4019.22,5886.67C3349.22,5886.67,2679.22,5216.67,2679.22,4546.67C2679.22,4546.67,2679.22,3126.67,2679.22,3126.67C2679.22,2456.67,3349.22,1786.67,4019.22,1786.67C4019.22,1786.67,6217.6,1786.72,6217.6,1786.72C6887.6,1786.72,7554.55,2456.72,7554.55,3126.72C7554.55,3126.72,7554.55,4546.72,7554.55,4546.72C7554.55,5216.72,6887.6,5886.67,6217.6,5886.67L6217.6,5886.67C6217.6,5886.67,5118.41,5886.67,4019.22,5886.67ZM3904.97,6147.15C5118.36,6147.15,6331.75,6147.15,6331.75,6147.15C7096.75,6147.15,7858.8,5382.2,7858.8,4617.2C7858.8,4617.2,7858.8,3056.3,7858.8,3056.3C7858.8,2291.3,7096.75,1526.3,6331.75,1526.3C6331.75,1526.3,3904.97,1526.2,3904.97,1526.2C3139.97,1526.2,2374.97,2291.2,2374.97,3056.2C2374.97,3056.2,2374.97,4617.15,2374.97,4617.15L2374.97,4617.15C2374.97,5382.15,3139.97,6147.15,3904.97,6147.15Z" id="SUITES TRAY" fill="#dfdfdf" fill-opacity="1.0" stroke="#dfdfdf" stroke-opacity="1.0" stroke-width="5.0" /><text text-align="left" id="SUITES" fill="#727272" fill-opacity="1.0" font-family="averta,arial,'arial bold'" font-weight="bold" font-size="108.6" transform="rotate(90.0,7766.88,3648.67)" x="7766.88" y="3745.57"><tspan text-anchor="start" x="7766.88">SUITES</tspan></text><text text-align="left" id="SUITES" fill="#727272" fill-opacity="1.0" font-family="averta,arial,'arial bold'" font-weight="bold" font-size="108.6" transform="rotate(-90.0,2462.58,4025.23)" x="2462.58" y="4122.13"><tspan text-anchor="start" x="2462.58">SUITES</tspan></text><text text-align="left" id="SUITES" fill="#727272" fill-opacity="1.0" font-family="averta,arial,'arial bold'" font-weight="bold" font-size="108.6" x="4929.46" y="1698.0"><tspan text-anchor="start" x="4929.46">SUITES</tspan></text><text text-align="left" id="SUITES" fill="#727272" fill-opacity="1.0" font-family="averta,arial,'arial bold'" font-weight="bold" font-size="108.6" x="4915.41" y="6060.95"><tspan text-anchor="start" x="4915.41">SUITES</tspan></text><path d="M3904.97,6147.15C3139.97,6147.15,2374.97,5382.15,2374.97,4617.15C2374.97,4617.15,2374.97,3056.2,2374.97,3056.2C2374.97,2291.2,3139.97,1526.2,3904.97,1526.2C3904.97,1526.2,6331.75,1526.3,6331.75,1526.3C7096.75,1526.3,7858.8,2291.3,7858.8,3056.3C7858.8,3056.3,7858.8,4617.2,7858.8,4617.2C7858.8,5382.2,7096.75,6147.15,6331.75,6147.15L6331.75,6147.15C6331.75,6147.15,5118.36,6147.15,3904.97,6147.15ZM3904.97,7417.15C5118.36,7417.15,6331.75,7417.15,6331.75,7417.15C6790.41,7417.15,7252.62,7284.92,7667.5,7041.82C7824.28,6949.95,7974.02,6842.57,8113.41,6722.2C8346.2,6521.18,8549.76,6283.88,8710.78,6025.47C8980.77,5592.16,9128.8,5102.18,9128.8,4617.2C9128.8,4617.2,9128.8,3056.3,9128.8,3056.3C9128.8,2143.32,8567.81,1193.92,7741.69,676.591C7308.25,405.17,6817.77,256.301,6331.75,256.301C6331.75,256.301,3905.02,256.2,3905.02,256.2C3446.83,256.2,2984.58,388.201,2569.39,631.041C2412.56,722.781,2262.71,830.012,2123.19,950.211C1890.03,1151.09,1686.07,1388.22,1524.68,1646.44C1253.57,2080.21,1104.97,2570.76,1104.97,3056.2C1104.97,3056.2,1104.97,4617.15,1104.97,4617.15C1104.97,5075.29,1236.97,5537.55,1479.81,5952.73C1571.55,6109.57,1678.79,6259.42,1798.98,6398.93C1999.86,6632.09,2236.99,6836.06,2495.21,6997.44L2495.21,6997.44C2928.98,7268.55,3419.53,7417.15,3904.97,7417.15Z" id="UPPER TRAY" fill="#ffffff" fill-opacity="1.0" /><path d="M1105.05,3647.3L1104.9,4025.25L2208.04,4025.21L2208.04,3647.3L1105.05,3647.3Z" id="102" fill="#ffffff" fill-opacity="1.0" stroke="#dddddd" stroke-opacity="1.0" stroke-width="6.0" /><path d="M2211.08,2969.3C2209.1,2998.96,2208.04,3029.6,2208.04,3059.3C2208.04,3059.3,2208.04,3092.8,2208.04,3126.31L2208.04,3126.31L1105.04,3126.39L1104.9,3647.24L2208.04,3647.15L2208.03,3836.88L2374.88,3836.88C2375.34,3422.58,2375.8,3008.28,2377.27,2983.36L2377.27,2983.36C2377.27,2983.36,2294.18,2976.33,2211.08,2969.3Z" id="103" fill="#ffffff" fill-opacity="1.0" stroke="#dddddd" stroke-opacity="1.0" stroke-width="6.0" /><path d="M1144.4,2619.45C1118.34,2764.4,1104.95,2910.56,1104.95,3056.26C1104.95,3056.26,1104.95,3091.36,1104.95,3126.46L1104.95,3126.46L2208.0,3126.46C2208.0,3092.94,2208.0,3059.41,2208.0,3059.41C2208.0,2979.79,2215.23,2900.12,2229.09,2821.1L2229.09,2821.1C2229.09,2821.1,1686.75,2720.27,1144.4,2619.45Z" id="104" fill="#ffffff" fill-opacity="1.0" stroke="#dddddd" stroke-opacity="1.0" stroke-width="6.0" /><path d="M1653.83,1786.0C1597.42,1883.04,1547.89,1983.07,1505.59,2085.18C1505.59,2085.18,1493.54,2114.28,1481.49,2143.39L1481.49,2143.39C1393.65,2107.28,1305.8,2071.17,1305.8,2071.17C1233.06,2247.83,1178.18,2432.48,1144.35,2619.39C1144.35,2619.39,1686.6,2720.76,2228.94,2821.64C2220.52,2869.88,2214.48,2918.86,2211.0,2969.31C2211.0,2969.31,2377.15,2982.33,2377.15,2982.33C2379.92,2938.8,2385.11,2895.22,2392.61,2851.44C2403.49,2789.05,2418.68,2728.11,2438.04,2668.02C2451.0,2627.74,2465.83,2587.85,2482.41,2548.45C2492.21,2525.11,2502.65,2501.95,2513.67,2478.99C2539.71,2424.75,2569.01,2371.64,2601.27,2320.04C2624.08,2283.56,2647.81,2248.57,2674.56,2212.01C2674.56,2212.01,2536.42,2119.08,2536.42,2119.08C2510.12,2155.23,2487.26,2188.73,2460.08,2232.2L2460.08,2232.2C2214.54,2096.33,1677.04,1798.86,1653.83,1786.0Z" id="105" fill="#ffffff" fill-opacity="1.0" stroke="#dddddd" stroke-opacity="1.0" stroke-width="6.0" /><path d="M1920.63,1408.3C1895.55,1438.0,1871.61,1467.6,1848.33,1497.67C1793.18,1568.89,1741.76,1642.64,1694.53,1718.46C1687.4,1729.89,1660.8,1774.08,1654.35,1785.15C1654.35,1785.15,2460.13,2232.06,2460.13,2232.06C2510.8,2150.84,2568.08,2072.93,2631.56,1998.68L2631.56,1998.68C2631.56,1998.68,2276.09,1703.49,1920.63,1408.3Z" id="106" fill="#ffffff" fill-opacity="1.0" stroke="#dddddd" stroke-opacity="1.0" stroke-width="6.0" /><path d="M2635.73,809.9L2635.73,809.9C2611.82,823.946,2587.9,837.991,2587.9,837.991C2459.39,915.342,2336.52,1004.58,2221.62,1103.8C2157.32,1159.32,2095.57,1217.99,2036.66,1279.36C2011.88,1305.2,1987.57,1331.56,1963.81,1358.36C1950.86,1372.95,1938.14,1387.63,1921.25,1407.51C1921.25,1407.51,2275.97,1703.49,2631.01,1999.08C2599.01,2036.51,2567.08,2077.13,2536.94,2118.32C2536.94,2118.32,2675.25,2211.26,2675.25,2211.26C2701.68,2175.43,2731.09,2138.16,2760.84,2103.55C2800.79,2057.11,2843.18,2012.66,2887.68,1970.45C2917.69,1942.02,2948.62,1914.6,2980.42,1888.34C2999.27,1872.77,3018.41,1857.59,3037.83,1842.83C3083.96,1807.79,3131.67,1775.12,3181.48,1744.58C3219.48,1721.29,3260.54,1698.62,3303.05,1677.17C3303.05,1677.17,3228.52,1528.15,3228.52,1528.15C3194.08,1545.27,3158.32,1564.37,3125.28,1583.75C3125.28,1583.75,3111.0,1592.29,3096.72,1600.82L3096.72,1600.82L2635.73,809.9Z" id="107" fill="#ffffff" fill-opacity="1.0" stroke="#dddddd" stroke-opacity="1.0" stroke-width="6.0" /><path d="M3063.43,614.5L3063.43,614.5C3023.43,629.758,2983.43,645.015,2983.43,645.015C2864.62,690.33,2749.13,745.091,2636.6,809.429C2636.6,809.429,2866.73,1205.18,3096.86,1600.93L3096.86,1600.93C3111.14,1592.4,3125.41,1583.87,3125.41,1583.87C3202.96,1538.43,3283.26,1499.08,3368.19,1466.15L3368.19,1466.15C3368.19,1466.15,3215.81,1040.33,3063.43,614.5Z" id="108" fill="#ffffff" fill-opacity="1.0" stroke="#dddddd" stroke-opacity="1.0" stroke-width="6.0" /><path d="M3905.02,256.3C3802.98,256.3,3700.77,262.827,3598.91,275.682C3531.0,284.249,3463.27,295.624,3395.85,309.739C3355.92,318.096,3316.07,327.422,3276.39,337.688C3183.06,361.84,3090.57,391.227,2996.65,426.669C2996.65,426.669,3181.99,946.625,3367.78,1466.4C3322.14,1484.46,3276.04,1504.8,3230.31,1527.38C3230.31,1527.38,3303.13,1677.23,3303.13,1677.23C3343.06,1657.22,3383.63,1638.94,3425.12,1622.36C3476.15,1602.07,3528.0,1584.72,3580.38,1570.58C3615.94,1560.98,3651.77,1552.85,3687.74,1546.29C3709.08,1542.39,3730.45,1539.05,3751.87,1536.28C3768.83,1534.09,3785.83,1532.23,3802.82,1530.75C3814.15,1529.76,3986.02,1528.0,4157.89,1526.23L4157.89,1526.23L4157.89,1359.37L3968.0,1359.47L3968.0,256.3C3947.0,256.3,3926.01,256.3,3905.02,256.3Z" id="109" fill="#ffffff" fill-opacity="1.0" stroke="#dddddd" stroke-opacity="1.0" stroke-width="6.0" /><path d="M3968.0,447.7L3968.0,1359.45L4347.15,1359.45L4347.15,447.819L3968.0,447.7Z" id="110" fill="#ffffff" fill-opacity="1.0" stroke="#dddddd" stroke-opacity="1.0" stroke-width="6.0" /><path d="M4346.89,448.2L4347.07,1359.14L4158.0,1359.08L4158.03,1525.73L5117.17,1525.44L5117.17,1358.99L4926.63,1359.14L4926.59,448.2L4346.89,448.2Z" id="111" fill="#ffffff" fill-opacity="1.0" stroke="#dddddd" stroke-opacity="1.0" stroke-width="6.0" /><path d="M5306.5,447.45L4926.7,447.45L4926.7,1359.41L5306.5,1359.41L5306.5,447.45Z" id="112" fill="#ffffff" fill-opacity="1.0" stroke="#dddddd" stroke-opacity="1.0" stroke-width="6.0" /><path d="M5306.29,448.2L5306.33,1359.09L5117.15,1359.0L5117.15,1525.9L6074.74,1525.76L6074.74,1359.11L5885.9,1359.09L5885.99,448.2L5306.29,448.2Z" id="113" fill="#ffffff" fill-opacity="1.0" stroke="#dddddd" stroke-opacity="1.0" stroke-width="6.0" /><path d="M6264.98,447.45L5886.13,447.493L5886.05,1359.45L6264.98,1359.45L6264.98,447.45Z" id="114" fill="#ffffff" fill-opacity="1.0" stroke="#dddddd" stroke-opacity="1.0" stroke-width="6.0" /><path d="M6265.0,256.35L6265.0,1359.46L6074.7,1359.46L6074.7,1526.14C6203.24,1526.23,6331.77,1526.32,6331.77,1526.32C6385.88,1526.32,6440.01,1530.11,6493.86,1537.51C6529.75,1542.44,6565.53,1548.95,6601.12,1556.96C6622.17,1561.72,6643.17,1566.99,6664.09,1572.78C6712.47,1586.17,6760.39,1602.3,6810.35,1622.08C6810.35,1622.08,6823.19,1627.25,6823.19,1627.25C6860.16,1642.34,6896.73,1658.98,6934.92,1678.26C6934.92,1678.26,7005.44,1526.17,7005.44,1526.17C6960.37,1503.75,6914.1,1483.19,6867.48,1464.84C7052.1,945.308,7236.72,425.771,7236.72,425.771C7140.13,389.466,7038.38,357.303,6939.44,332.55C6872.65,315.816,6805.46,301.772,6738.02,290.486C6698.04,283.789,6657.99,278.071,6617.88,273.323C6522.63,262.058,6427.09,256.35,6331.75,256.35L6331.75,256.35C6331.75,256.35,6298.38,256.35,6265.0,256.35Z" id="115" fill="#ffffff" fill-opacity="1.0" stroke="#dddddd" stroke-opacity="1.0" stroke-width="6.0" /><path d="M7236.66,425.7C7113.69,771.777,6990.85,1117.91,6868.0,1464.04L6868.0,1464.04C6873.2,1466.63,6878.4,1469.22,6878.4,1469.22C6963.43,1503.23,7046.47,1544.57,7126.52,1592.37C7126.52,1592.37,7132.18,1595.18,7137.84,1597.98L7137.84,1597.98C7414.71,1121.99,7691.58,646.0,7691.58,646.0L7691.58,646.0C7545.28,558.44,7392.88,484.67,7236.66,425.7Z" id="116" fill="#ffffff" fill-opacity="1.0" stroke="#dddddd" stroke-opacity="1.0" stroke-width="6.0" /><path d="M7140.8,6078.95C7131.27,6084.76,7121.7,6090.47,7112.08,6096.1C7033.74,6141.92,6952.62,6181.55,6869.65,6214.2C6869.65,6214.2,7237.0,7247.84,7237.0,7247.84C7384.54,7192.12,7528.68,7123.18,7667.52,7041.83C7675.68,7037.05,7683.83,7032.22,7691.95,7027.35L7691.95,7027.35C7691.95,7027.35,7416.38,6553.15,7140.8,6078.95Z" id="128" fill="#ffffff" fill-opacity="1.0" stroke="#dddddd" stroke-opacity="1.0" stroke-width="6.0" /><path d="M6934.31,5995.6C6894.31,6015.74,6853.6,6034.13,6812.42,6050.52C6759.78,6071.47,6707.3,6089.02,6654.3,6103.27C6618.91,6112.78,6583.32,6120.82,6547.55,6127.32C6526.35,6131.17,6505.09,6134.5,6483.8,6137.23C6433.23,6143.75,6382.41,6147.17,6331.61,6147.17C6331.61,6147.17,6203.33,6147.1,6075.05,6147.04L6075.05,6147.04L6075.05,6320.35L6264.87,6320.37L6264.88,7417.17C6396.44,7413.16,6528.0,7409.16,6541.38,7407.99C6573.19,7405.23,6604.99,7401.85,6636.73,7397.85C6704.41,7389.34,6771.92,7378.03,6839.1,7364.01C6878.91,7355.7,6918.6,7346.43,6958.16,7336.23C7050.81,7312.3,7142.65,7283.21,7236.83,7247.83C7236.83,7247.83,7053.61,6730.84,6869.93,6214.02C6916.29,6195.75,6964.33,6174.14,7010.22,6151.22L7010.22,6151.22C7010.22,6151.22,6972.26,6073.41,6934.31,5995.6Z" id="129" fill="#ffffff" fill-opacity="1.0" stroke="#dddddd" stroke-opacity="1.0" stroke-width="6.0" /><path d="M5885.91,6320.4L5885.9,7224.25L6264.86,7224.26L6264.86,6320.42L5885.91,6320.4Z" id="130" fill="#ffffff" fill-opacity="1.0" stroke="#dddddd" stroke-opacity="1.0" stroke-width="6.0" /><path d="M5117.2,6147.07L5117.2,6320.34L5306.49,6320.35L5306.55,7224.4L5885.85,7224.45L5886.03,6320.39L6075.08,6320.43L6075.18,6147.0L5117.2,6147.07Z" id="131" fill="#ffffff" fill-opacity="1.0" stroke="#dddddd" stroke-opacity="1.0" stroke-width="6.0" /><path d="M4926.55,6320.35L4926.55,7224.25L5306.35,7224.25L5306.35,6320.37L4926.55,6320.35Z" id="132" fill="#ffffff" fill-opacity="1.0" stroke="#dddddd" stroke-opacity="1.0" stroke-width="6.0" /><path d="M4158.35,6147.15L4158.35,6320.28L4347.11,6320.29L4347.1,7224.4L4926.6,7224.3L4926.66,6320.32L5117.23,6320.35L5117.18,6147.15L4158.35,6147.15Z" id="133" fill="#ffffff" fill-opacity="1.0" stroke="#dddddd" stroke-opacity="1.0" stroke-width="6.0" /><path d="M3967.9,6320.3L3967.9,7224.35L4347.04,7224.34L4347.05,6320.32L3967.9,6320.3Z" id="134" fill="#ffffff" fill-opacity="1.0" stroke="#dddddd" stroke-opacity="1.0" stroke-width="6.0" /><path d="M3299.03,5994.3C3263.32,6072.84,3227.6,6151.38,3227.6,6151.38C3271.58,6173.42,3317.53,6194.11,3363.67,6212.47C3179.98,6729.55,2996.3,7246.63,2996.3,7246.63C3093.6,7283.36,3195.12,7315.33,3294.8,7340.38C3361.88,7357.22,3429.35,7371.36,3497.09,7382.74C3537.22,7389.48,3577.42,7395.25,3617.69,7400.03C3713.32,7411.38,3809.22,7417.17,3904.94,7417.17C3904.94,7417.17,3936.45,7417.17,3967.97,7417.17L3967.97,7417.17L3967.97,6320.3L4158.35,6320.33L4158.45,6147.28C4010.49,6146.86,3862.53,6146.44,3850.43,6145.88C3814.11,6144.17,3777.84,6140.78,3741.69,6135.78C3633.58,6120.88,3526.57,6091.6,3420.92,6049.4L3420.92,6049.4C3380.33,6033.17,3340.26,6015.05,3299.03,5994.3Z" id="135" fill="#ffffff" fill-opacity="1.0" stroke="#dddddd" stroke-opacity="1.0" stroke-width="6.0" /><path d="M3093.77,6076.95C2953.1,6319.49,2637.0,6869.16,2637.0,6869.16C2747.54,6932.14,2861.19,6985.97,2977.33,7030.4C2977.33,7030.4,3019.2,7046.42,3061.07,7062.45L3061.07,7062.45C3212.1,6637.37,3363.12,6212.3,3363.12,6212.3L3363.12,6212.3C3270.85,6175.63,3180.93,6130.33,3093.77,6076.95Z" id="136" fill="#ffffff" fill-opacity="1.0" stroke="#dddddd" stroke-opacity="1.0" stroke-width="6.0" /><path d="M2675.65,5463.0C2607.07,5512.54,2538.5,5562.08,2538.5,5562.08C2566.43,5600.43,2596.16,5638.26,2628.15,5676.09C2413.83,5854.75,1920.45,6264.52,1920.45,6264.52C1975.65,6330.63,2037.64,6398.56,2098.95,6459.33C2124.95,6485.1,2151.51,6510.32,2178.56,6535.01C2224.18,6576.63,2271.26,6616.69,2319.68,6654.99C2392.2,6712.37,2467.79,6765.84,2546.07,6814.87C2558.02,6822.36,2616.87,6857.7,2635.27,6868.21C2635.27,6868.21,2953.31,6319.65,3094.32,6077.3C3136.58,6103.17,3181.92,6128.33,3227.56,6151.38C3227.56,6151.38,3298.18,5993.94,3298.18,5993.94C3258.76,5973.95,3218.23,5951.29,3179.4,5927.48C3127.47,5895.62,3077.0,5860.76,3028.36,5823.27C2995.71,5798.15,2963.88,5771.81,2932.96,5744.43C2914.63,5728.2,2896.62,5711.58,2878.95,5694.58C2837.15,5654.42,2797.24,5612.24,2759.07,5567.8L2759.07,5567.8C2730.53,5534.57,2703.25,5500.35,2675.65,5463.0Z" id="137" fill="#ffffff" fill-opacity="1.0" stroke="#dddddd" stroke-opacity="1.0" stroke-width="6.0" /><path d="M2454.46,5436.6C2188.53,5586.65,1922.59,5736.69,1656.65,5886.74L1656.65,5886.74C1665.37,5901.56,1674.08,5916.37,1674.08,5916.37C1742.92,6031.85,1820.83,6142.84,1906.69,6247.77C1906.69,6247.77,1913.59,6256.14,1920.49,6264.5L1920.49,6264.5C2274.2,5970.12,2627.91,5675.73,2627.91,5675.73L2627.91,5675.73C2564.12,5600.48,2506.12,5520.65,2454.46,5436.6Z" id="138" fill="#ffffff" fill-opacity="1.0" stroke="#dddddd" stroke-opacity="1.0" stroke-width="6.0" /><path d="M2376.85,4686.3C2293.76,4695.09,2210.67,4703.88,2210.67,4703.88C2213.77,4752.1,2219.61,4801.71,2228.1,4851.52C1686.45,4954.01,1144.8,5056.5,1144.8,5056.5C1178.01,5240.45,1232.0,5423.41,1305.8,5602.72C1305.8,5602.72,1394.56,5565.93,1483.32,5529.14L1483.32,5529.14C1494.27,5555.39,1505.21,5581.64,1505.21,5581.64C1532.43,5646.88,1562.09,5710.41,1594.35,5772.92C1613.76,5810.54,1634.15,5847.8,1656.18,5885.87C1656.18,5885.87,2055.61,5661.68,2454.79,5437.08C2479.88,5477.92,2508.51,5520.71,2537.9,5561.32C2537.9,5561.32,2675.21,5462.15,2675.21,5462.15C2649.65,5427.31,2624.19,5390.06,2601.43,5353.65C2566.56,5297.72,2535.56,5241.0,2508.32,5183.05C2490.06,5144.23,2473.47,5104.79,2458.7,5064.94C2449.95,5041.31,2441.82,5017.53,2434.36,4993.63C2416.63,4936.86,2402.62,4879.33,2392.5,4820.43L2392.5,4820.43C2384.91,4776.9,2379.75,4733.13,2376.85,4686.3Z" id="139" fill="#ffffff" fill-opacity="1.0" stroke="#dddddd" stroke-opacity="1.0" stroke-width="6.0" /><path d="M1104.95,4546.05L1104.95,4546.05C1104.95,4581.65,1104.95,4617.25,1104.95,4617.25C1104.95,4762.49,1118.64,4910.16,1144.68,5055.58C1144.68,5055.58,2228.09,4851.18,2228.09,4851.18C2214.92,4774.59,2208.04,4697.42,2208.04,4620.35C2208.04,4620.35,2208.04,4583.21,2208.04,4546.07L2208.04,4546.07L1104.95,4546.05Z" id="140" fill="#ffffff" fill-opacity="1.0" stroke="#dddddd" stroke-opacity="1.0" stroke-width="6.0" /><path d="M7691.48,645.85C7507.08,963.308,7322.24,1280.5,7137.83,1597.96C7096.15,1572.78,7050.14,1548.58,7005.36,1526.21C7005.36,1526.21,6934.8,1678.36,6934.8,1678.36C6971.79,1697.15,7014.59,1720.96,7055.03,1745.24C7106.74,1776.99,7157.0,1811.71,7205.5,1849.04C7238.15,1874.2,7270.01,1900.56,7300.97,1927.99C7319.31,1944.26,7337.34,1960.93,7355.02,1977.91C7396.34,2017.63,7435.8,2059.33,7475.65,2105.69C7504.93,2139.88,7532.89,2175.12,7560.05,2212.17C7560.05,2212.17,7698.16,2113.24,7698.16,2113.24C7668.93,2073.52,7637.78,2034.44,7605.51,1996.91C8026.49,1646.14,8447.47,1295.37,8447.47,1295.37C8381.16,1216.28,8308.26,1137.13,8234.17,1064.91C8184.16,1016.14,8132.48,969.079,8079.22,923.884C8047.65,897.102,8015.54,871.001,7982.89,845.54C7905.36,785.171,7824.86,728.641,7741.62,676.528L7741.62,676.528C7726.0,666.742,7710.35,657.149,7691.48,645.85Z" id="117" fill="#ffffff" fill-opacity="1.0" stroke="#dddddd" stroke-opacity="1.0" stroke-width="6.0" /><path d="M7559.66,5462.05C7533.25,5498.06,7505.36,5533.23,7475.26,5566.97C7424.19,5626.45,7369.9,5682.06,7312.36,5733.94C7274.01,5768.52,7234.23,5801.43,7193.22,5832.46C7168.91,5850.85,7144.17,5868.59,7119.04,5885.63C7059.63,5925.92,6998.03,5962.31,6933.9,5994.69C6933.9,5994.69,7010.28,6151.23,7010.28,6151.23C7044.37,6134.12,7078.79,6115.33,7111.95,6095.96C7111.95,6095.96,7126.37,6087.45,7140.8,6078.94L7140.8,6078.94C7416.39,6553.19,7691.98,7027.43,7691.98,7027.43C7838.26,6939.48,7982.63,6835.15,8113.39,6722.23C8233.28,6618.68,8347.54,6502.98,8452.03,6379.98C8452.03,6379.98,8030.72,6029.2,7609.08,5678.8C7641.02,5641.45,7671.84,5602.6,7701.35,5562.33L7701.35,5562.33C7701.35,5562.33,7630.5,5512.19,7559.66,5462.05Z" id="127" fill="#ffffff" fill-opacity="1.0" stroke="#dddddd" stroke-opacity="1.0" stroke-width="6.0" /><path d="M8447.48,1295.35C8026.64,1646.29,7605.8,1997.24,7605.8,1997.24C7670.37,2072.33,7729.12,2152.07,7780.92,2235.25C7780.92,2235.25,8732.46,1696.92,8732.46,1696.92L8732.46,1696.92C8648.95,1556.8,8553.69,1422.43,8447.48,1295.35Z" id="118" fill="#ffffff" fill-opacity="1.0" stroke="#dddddd" stroke-opacity="1.0" stroke-width="6.0" /><path d="M8732.9,1697.7C8415.54,1876.85,8097.92,2055.6,7780.56,2234.75C7755.51,2194.57,7727.51,2153.15,7698.21,2113.16C7698.21,2113.16,7560.6,2212.97,7560.6,2212.97C7585.38,2246.95,7610.12,2283.42,7632.93,2319.93C7667.33,2375.05,7698.27,2431.78,7725.47,2489.75C7743.7,2528.61,7760.26,2568.06,7775.01,2607.91C7783.73,2631.57,7791.87,2655.34,7799.32,2679.25C7816.72,2735.09,7831.01,2793.64,7841.02,2851.6C7848.6,2896.32,7853.74,2939.88,7856.52,2984.4C7856.52,2984.4,8028.63,2967.57,8028.63,2967.57C8025.29,2918.98,8019.22,2869.98,8010.78,2821.7C8549.19,2721.27,9087.59,2620.84,9087.59,2620.84C9051.83,2431.04,8992.97,2238.91,8914.65,2054.84L8914.65,2054.84C8862.95,1933.6,8802.61,1814.96,8732.9,1697.7Z" id="119" fill="#ffffff" fill-opacity="1.0" stroke="#dddddd" stroke-opacity="1.0" stroke-width="6.0" /><path d="M9087.73,2621.8C8549.21,2721.52,8010.7,2821.23,8010.7,2821.23C8024.59,2900.23,8031.84,2979.88,8031.84,3059.49C8031.84,3059.49,8031.84,3091.99,8031.84,3124.49L8031.84,3124.49L9128.77,3124.49C9128.77,3090.44,9128.77,3056.38,9128.77,3056.38L9128.77,3056.38C9128.77,2912.13,9114.75,2766.97,9087.73,2621.8Z" id="120" fill="#ffffff" fill-opacity="1.0" stroke="#dddddd" stroke-opacity="1.0" stroke-width="6.0" /><path d="M8028.72,2967.5C7942.66,2975.9,7856.6,2984.3,7856.6,2984.3C7858.0,3007.64,7858.34,3422.26,7858.68,3836.88L7858.68,3836.88L8031.93,3836.88L8031.76,3649.27L9128.74,3649.23L9128.71,3124.41L8031.81,3124.39C8031.81,3091.92,8031.81,3059.44,8031.81,3059.44L8031.81,3059.44C8031.81,3029.79,8030.76,2998.11,8028.72,2967.5Z" id="121" fill="#ffffff" fill-opacity="1.0" stroke="#dddddd" stroke-opacity="1.0" stroke-width="6.0" /><path d="M8031.85,3649.3L8031.85,4023.2L9128.83,4023.2L9128.83,3649.3L8031.85,3649.3Z" id="122" fill="#ffffff" fill-opacity="1.0" stroke="#dddddd" stroke-opacity="1.0" stroke-width="6.0" /><path d="M7858.74,3836.8L7858.74,3836.8C7858.39,4250.39,7858.04,4663.99,7856.5,4689.27C7856.5,4689.27,8029.18,4706.23,8029.18,4706.23C8030.95,4678.38,8031.86,4648.31,8031.86,4620.45C8031.86,4620.45,8031.86,4584.28,8031.86,4548.11L8031.86,4548.11L9128.79,4548.07L9128.94,4023.05L8031.86,4023.24L8031.86,3836.8L7858.74,3836.8Z" id="123" fill="#ffffff" fill-opacity="1.0" stroke="#dddddd" stroke-opacity="1.0" stroke-width="6.0" /><path d="M8031.84,4548.0L8031.84,4548.0C8031.84,4584.23,8031.84,4620.45,8031.84,4620.45C8031.84,4698.1,8024.94,4775.81,8011.7,4852.9C8011.7,4852.9,9089.78,5051.58,9089.78,5051.58C9115.52,4907.44,9128.74,4762.09,9128.74,4617.19C9128.74,4617.19,9128.74,4582.59,9128.74,4548.0L9128.74,4548.0L8031.84,4548.0Z" id="124" fill="#ffffff" fill-opacity="1.0" stroke="#dddddd" stroke-opacity="1.0" stroke-width="6.0" /><path d="M7856.54,4689.2C7853.83,4732.27,7848.63,4776.57,7841.2,4820.39C7830.47,4882.53,7815.14,4945.1,7795.96,5004.97C7783.05,5045.26,7768.28,5085.18,7751.77,5124.58C7741.99,5147.92,7731.59,5171.1,7720.61,5194.06C7694.82,5248.02,7665.78,5300.85,7633.29,5353.06C7610.41,5389.81,7585.95,5426.01,7559.6,5462.08C7559.6,5462.08,7701.33,5562.28,7701.33,5562.28C7727.86,5525.9,7755.09,5485.72,7783.92,5439.63C8261.68,5709.18,8739.43,5978.73,8739.43,5978.73C8807.96,5863.74,8869.44,5742.25,8921.29,5619.02C8998.04,5436.19,9054.72,5245.26,9089.73,5051.43C9089.73,5051.43,8550.8,4951.64,8011.78,4852.34C8019.96,4804.56,8025.91,4755.11,8029.14,4706.07L8029.14,4706.07C8029.14,4706.07,7942.84,4697.64,7856.54,4689.2Z" id="125" fill="#ffffff" fill-opacity="1.0" stroke="#dddddd" stroke-opacity="1.0" stroke-width="6.0" /><path d="M7784.16,5439.45C7782.57,5442.03,7780.96,5444.61,7779.35,5447.19C7728.72,5528.19,7671.5,5605.9,7608.75,5679.23C7608.75,5679.23,8452.04,6380.05,8452.04,6380.05C8547.03,6267.81,8633.74,6149.09,8710.72,6025.54C8720.26,6010.25,8729.63,5994.89,8739.35,5978.64L8739.35,5978.64C8739.35,5978.64,8261.75,5709.04,7784.16,5439.45Z" id="126" fill="#ffffff" fill-opacity="1.0" stroke="#dddddd" stroke-opacity="1.0" stroke-width="6.0" /><path d="M2208.04,3836.8L2208.04,4025.26L1104.89,4025.34L1104.85,4546.13L2208.04,4546.06C2208.04,4583.2,2208.04,4620.34,2208.04,4620.34C2208.04,4646.9,2209.03,4675.4,2210.68,4702.93C2210.68,4702.93,2376.93,4686.43,2376.93,4686.43C2375.64,4664.08,2375.24,4250.44,2374.84,3836.8L2374.84,3836.8L2208.04,3836.8Z" id="101" fill="#ffffff" fill-opacity="1.0" stroke="#dddddd" stroke-opacity="1.0" stroke-width="6.0" /><path d="M4347.1,447.546L4347.1,256.321L3967.99,256.261L3967.99,447.55L4347.1,447.546Z" id="CGS1" fill="#dfdfdf" fill-opacity="1.0" stroke="#dfdfdf" stroke-opacity="1.0" stroke-width="6.0" /><path d="M4733.7,447.6L4733.7,256.329L4347.2,256.371L4347.2,447.596L4733.7,447.6Z" id="CGS2" fill="#dfdfdf" fill-opacity="1.0" stroke="#dfdfdf" stroke-opacity="1.0" stroke-width="6.0" /><path d="M5116.55,447.5L5116.55,256.229L4733.69,256.211L4733.69,447.5L5116.55,447.5Z" id="CGS3" fill="#dfdfdf" fill-opacity="1.0" stroke="#dfdfdf" stroke-opacity="1.0" stroke-width="6.0" /><path d="M5499.4,447.6L5499.4,256.329L5116.54,256.311L5116.54,447.6L5499.4,447.6Z" id="CGS4" fill="#dfdfdf" fill-opacity="1.0" stroke="#dfdfdf" stroke-opacity="1.0" stroke-width="6.0" /><path d="M5886.15,447.546L5886.15,256.321L5499.39,256.261L5499.39,447.55L5886.15,447.546Z" id="CGS5" fill="#dfdfdf" fill-opacity="1.0" stroke="#dfdfdf" stroke-opacity="1.0" stroke-width="6.0" /><path d="M6265.0,447.55L6265.0,256.279L5886.15,256.321L5886.15,447.546L6265.0,447.55Z" id="CGS6" fill="#dfdfdf" fill-opacity="1.0" stroke="#dfdfdf" stroke-opacity="1.0" stroke-width="6.0" /><path d="M5885.94,7224.3L5885.94,7417.24L6264.9,7417.25L6264.9,7224.3L5885.94,7224.3Z" id="CGS7" fill="#dfdfdf" fill-opacity="1.0" stroke="#dfdfdf" stroke-opacity="1.0" stroke-width="6.0" /><path d="M5499.27,7224.3L5499.27,7417.25L5885.9,7417.24L5885.89,7224.3L5499.27,7224.3Z" id="CGS8" fill="#dfdfdf" fill-opacity="1.0" stroke="#dfdfdf" stroke-opacity="1.0" stroke-width="6.0" /><path d="M5116.41,7224.3L5116.41,7417.25L5499.25,7417.25L5499.25,7224.3L5116.41,7224.3Z" id="CGS9" fill="#dfdfdf" fill-opacity="1.0" stroke="#dfdfdf" stroke-opacity="1.0" stroke-width="6.0" /><path d="M4733.56,7224.3L4733.56,7417.25L5116.4,7417.25L5116.4,7224.3L4733.56,7224.3Z" id="CGS10" fill="#dfdfdf" fill-opacity="1.0" stroke="#dfdfdf" stroke-opacity="1.0" stroke-width="6.0" /><path d="M4346.99,7224.3L4346.99,7417.24L4733.55,7417.25L4733.55,7224.3L4346.99,7224.3Z" id="CGS11" fill="#dfdfdf" fill-opacity="1.0" stroke="#dfdfdf" stroke-opacity="1.0" stroke-width="6.0" /><path d="M3967.87,7224.3L3967.87,7417.25L4347.0,7417.24L4347.0,7224.3L3967.87,7224.3Z" id="CGS12" fill="#dfdfdf" fill-opacity="1.0" stroke="#dfdfdf" stroke-opacity="1.0" stroke-width="6.0" /><path d="M1483.32,5529.09L1305.9,5602.66C1309.69,5611.77,1313.48,5620.87,1313.48,5620.87C1361.23,5734.09,1416.79,5845.04,1479.83,5952.81C1479.83,5952.81,1494.32,5977.37,1494.32,5977.37C1579.02,6118.88,1675.66,6253.7,1783.54,6380.98C1783.54,6380.98,1798.98,6399.03,1798.98,6399.03C1865.94,6476.74,1936.91,6551.22,2011.38,6621.96C2061.0,6669.12,2112.19,6714.61,2164.74,6758.29C2195.88,6784.18,2227.51,6809.43,2259.58,6834.03C2335.74,6892.42,2414.45,6947.06,2495.21,6997.53C2510.69,7007.2,2526.23,7016.73,2542.71,7026.6C2688.35,7113.8,2840.01,7187.35,2996.39,7246.64C2996.39,7246.64,3028.75,7154.55,3061.1,7062.46L3061.1,7062.46C3019.24,7046.45,2977.38,7030.43,2977.38,7030.43C2841.91,6978.6,2709.82,6913.98,2582.09,6836.97C2570.06,6829.73,2558.09,6822.37,2546.14,6814.89C2467.86,6765.85,2392.28,6712.38,2319.75,6654.99C2271.32,6616.69,2224.25,6576.63,2178.63,6535.02C2151.58,6510.33,2125.03,6485.1,2099.02,6459.33C2037.48,6398.35,1978.87,6334.47,1923.49,6268.09C1923.49,6268.09,1906.75,6247.81,1906.75,6247.81C1820.88,6142.87,1742.97,6031.88,1674.13,5916.4C1645.69,5868.71,1619.25,5821.11,1594.37,5772.93C1562.12,5710.42,1532.46,5646.88,1505.24,5581.65L1505.24,5581.65C1505.24,5581.65,1494.28,5555.37,1483.32,5529.09Z" id="136SRO" fill="#dfdfdf" fill-opacity="1.0" stroke="#dfdfdf" stroke-opacity="1.0" stroke-width="6.0" /><path d="M2996.67,426.7C2850.31,482.11,2707.26,550.52,2569.4,631.16C2569.4,631.16,2543.13,646.68,2543.13,646.68C2395.29,735.31,2254.68,837.05,2123.21,950.29C2001.6,1055.07,1887.91,1169.74,1783.42,1292.85C1688.45,1404.83,1601.72,1523.26,1524.7,1646.52C1514.7,1662.49,1504.89,1678.55,1494.72,1695.54C1425.58,1811.17,1365.03,1930.62,1310.98,2058.83C1310.98,2058.83,1308.61,2064.52,1306.25,2070.22L1306.25,2070.22L1482.08,2142.12C1493.86,2113.67,1505.64,2085.22,1505.64,2085.22C1552.65,1971.7,1608.61,1860.78,1673.02,1753.67C1680.42,1741.37,1687.44,1729.91,1694.56,1718.48C1741.8,1642.66,1793.22,1568.91,1848.37,1497.69C1873.02,1465.85,1898.41,1434.53,1925.11,1403.06C1937.86,1388.06,1950.75,1373.19,1963.86,1358.41C1987.62,1331.61,2011.93,1305.25,2036.71,1279.41C2095.62,1218.04,2157.38,1159.37,2221.67,1103.85C2336.57,1004.63,2459.44,915.39,2587.95,838.04C2587.95,838.04,2614.56,822.24,2614.56,822.24C2733.32,752.68,2856.5,693.47,2983.46,645.04C2983.46,645.04,3023.46,629.78,3063.47,614.52L3063.47,614.52C3041.2,551.913,3018.94,489.307,2996.67,426.7Z" id="108SRO" fill="#dfdfdf" fill-opacity="1.0" stroke="#dfdfdf" stroke-opacity="1.0" stroke-width="6.0" /><text text-align="left" id="SUITES" fill="#727272" fill-opacity="1.0" font-family="averta,arial,'arial bold'" font-weight="bold" font-size="108.6" x="4927.46" y="7362.9"><tspan text-anchor="start" x="4927.46">SUITES</tspan></text><text text-align="left" id="SUITES" fill="#727272" fill-opacity="1.0" font-family="averta,arial,'arial bold'" font-weight="bold" font-size="108.6" x="4927.61" y="389.5"><tspan text-anchor="start" x="4927.61">SUITES</tspan></text><path d="M5246.5,6549.75L4987.5,6549.75L4987.5,6355.75L5246.5,6355.75L5246.5,6549.75Z" id="VOM" fill="#dfdfdf" fill-opacity="1.0" /><path d="M5246.6,1317.65L4987.6,1317.65L4987.6,1123.65L5246.6,1123.65L5246.6,1317.65Z" id="VOM" fill="#dfdfdf" fill-opacity="1.0" /><path d="M6206.75,6549.75L5947.75,6549.75L5947.75,6355.75L6206.75,6355.75L6206.75,6549.75Z" id="VOM" fill="#dfdfdf" fill-opacity="1.0" /><path d="M6206.85,1317.65L5947.85,1317.65L5947.85,1123.65L6206.85,1123.65L6206.85,1317.65Z" id="VOM" fill="#dfdfdf" fill-opacity="1.0" /><path d="M4285.3,6549.75L4026.3,6549.75L4026.3,6355.75L4285.3,6355.75L4285.3,6549.75Z" id="VOM" fill="#dfdfdf" fill-opacity="1.0" /><path d="M1972.9,3965.8L1972.9,3706.8L2166.9,3706.8L2166.9,3965.8L1972.9,3965.8Z" id="VOM" fill="#dfdfdf" fill-opacity="1.0" /><path d="M8066.9,3965.75L8066.9,3706.75L8260.9,3706.75L8260.9,3965.75L8066.9,3965.75Z" id="VOM" fill="#dfdfdf" fill-opacity="1.0" /><path d="M3127.69,1532.85C3182.04,1502.09,3237.64,1474.25,3294.2,1449.56C3294.2,1449.56,3228.82,1265.42,3228.82,1265.42C3160.96,1294.46,3094.31,1327.58,3029.27,1364.49L3029.27,1364.49C3029.27,1364.49,3078.48,1448.67,3127.69,1532.85Z" id="VOM" fill="#dfdfdf" fill-opacity="1.0" /><path d="M2449.86,2167.3C2484.01,2115.62,2520.8,2065.37,2559.95,2016.82C2559.95,2016.82,2409.99,1892.16,2409.99,1892.16C2363.35,1949.85,2319.74,2009.73,2279.54,2071.42L2279.54,2071.42C2279.54,2071.42,2364.7,2119.36,2449.86,2167.3Z" id="VOM" fill="#dfdfdf" fill-opacity="1.0" /><path d="M2164.79,3065.95L2164.79,3065.95C2164.79,3061.02,2164.79,3056.1,2164.79,3056.1C2164.79,2994.23,2169.05,2932.32,2177.3,2870.69C2177.3,2870.69,1985.36,2835.35,1985.36,2835.35C1975.08,2908.72,1969.79,2982.45,1969.79,3056.1C1969.79,3056.1,1969.79,3061.02,1969.79,3065.95L1969.79,3065.95L2164.79,3065.95Z" id="VOM" fill="#dfdfdf" fill-opacity="1.0" /><path d="M8248.17,4838.85C8258.49,4765.22,8263.8,4691.23,8263.8,4617.32C8263.8,4617.32,8263.8,4611.27,8263.8,4605.22L8263.8,4605.22L8068.8,4605.22C8068.8,4611.27,8068.8,4617.32,8068.8,4617.32C8068.8,4679.35,8064.54,4741.42,8056.27,4803.21L8056.27,4803.21C8056.27,4803.21,8152.22,4821.03,8248.17,4838.85Z" id="VOM" fill="#dfdfdf" fill-opacity="1.0" /><path d="M7823.81,5782.6C7869.68,5725.83,7912.61,5666.91,7952.25,5606.23C7952.25,5606.23,7782.15,5509.99,7782.15,5509.99C7748.54,5560.73,7712.4,5610.07,7673.99,5657.77L7673.99,5657.77C7673.99,5657.77,7748.9,5720.18,7823.81,5782.6Z" id="VOM" fill="#dfdfdf" fill-opacity="1.0" /><path d="M7002.84,6410.1C7071.54,6380.89,7139.0,6347.49,7204.8,6310.19C7204.8,6310.19,7106.76,6141.61,7106.76,6141.61C7051.45,6172.89,6994.84,6201.13,6937.23,6226.09L6937.23,6226.09C6937.23,6226.09,6970.03,6318.1,7002.84,6410.1Z" id="VOM" fill="#dfdfdf" fill-opacity="1.0" /><path d="M3231.57,6409.3C3264.21,6317.23,3296.85,6225.16,3296.85,6225.16C3239.34,6200.17,3182.81,6171.92,3127.57,6140.67C3127.57,6140.67,3029.43,6309.19,3029.43,6309.19L3029.43,6309.19C3095.29,6346.55,3162.81,6380.02,3231.57,6409.3Z" id="VOM" fill="#dfdfdf" fill-opacity="1.0" /><path d="M2235.74,5917.15C2397.7,5786.7,2559.65,5656.25,2559.65,5656.25C2521.15,5608.47,2484.94,5559.03,2451.26,5508.21C2451.26,5508.21,2085.64,5716.64,2085.64,5716.64L2085.64,5716.64C2136.89,5797.14,2188.09,5864.79,2235.74,5917.15Z" id="VOM" fill="#dfdfdf" fill-opacity="1.0" /><path d="M1985.38,4836.8C2081.39,4819.37,2177.4,4801.95,2177.4,4801.95C2169.22,4740.56,2165.0,4678.89,2165.0,4617.26C2165.0,4617.26,2165.0,4611.18,2165.0,4605.11L2165.0,4605.11L1970.0,4605.11C1970.0,4611.18,1970.0,4617.26,1970.0,4617.26L1970.0,4617.26C1970.0,4690.51,1975.23,4763.83,1985.38,4836.8Z" id="VOM" fill="#dfdfdf" fill-opacity="1.0" /><path d="M7107.6,1532.5C7156.57,1448.19,7205.55,1363.88,7205.55,1363.88C7139.94,1326.67,7072.68,1293.33,7004.18,1264.14C7004.18,1264.14,6938.85,1448.26,6938.85,1448.26L6938.85,1448.26C6996.19,1473.18,7052.54,1501.34,7107.6,1532.5Z" id="VOM" fill="#dfdfdf" fill-opacity="1.0" /><path d="M7782.37,2166.15C7867.01,2118.41,7951.65,2070.68,7951.65,2070.68C7912.03,2009.68,7869.17,1950.43,7823.38,1893.32C7823.38,1893.32,7674.01,2017.4,7674.01,2017.4L7674.01,2017.4C7712.5,2065.41,7748.7,2115.09,7782.37,2166.15Z" id="VOM" fill="#dfdfdf" fill-opacity="1.0" /><path d="M8263.8,3068.2L8263.8,3068.2C8263.8,3062.33,8263.8,3056.45,8263.8,3056.45C8263.8,2983.04,8258.39,2909.48,8247.93,2836.22C8247.93,2836.22,8056.26,2871.96,8056.26,2871.96C8064.53,2933.31,8068.8,2994.91,8068.8,3056.45C8068.8,3056.45,8068.8,3062.33,8068.8,3068.2L8068.8,3068.2L8263.8,3068.2Z" id="VOM" fill="#dfdfdf" fill-opacity="1.0" /><path d="M4285.4,1317.75L4026.4,1317.75L4026.4,1123.75L4285.4,1123.75L4285.4,1317.75Z" id="VOM" fill="#dfdfdf" fill-opacity="1.0" /><path d="M4303.8,7115.8L5947.8,7115.8L5947.8,7220.8L4303.8,7220.8L4303.8,7115.8Z" id="MASK" fill="#ffffff" fill-opacity="1.0" /><path d="M5709.32,3570.0L4820.0,3570.03L4820.0,4099.28L5709.32,4099.35L5709.32,3570.0Z" id="F2" fill="none" /></svg>