<svg version="1.1" viewBox="0 0 10240 7680" x="0px" y="0px" width="1024px" height="768px" xmlns="http://www.w3.org/2000/svg">
  <defs>
  </defs>
  <g id="BACKGROUND">
    <path d="M2433.25,11.35L472.15,1972.45L254.3,1972.45L254.3,6177.85L254.3,6561.55L2649.7947,6561.55L3496.972,7648.8758L6753.176,7648.8758L7594.5067,6561.55L9990.5,6561.55L9990.5,5771.75L9990.4498,5771.75L9990.4498,1972.45L9772.8794,1972.45L8369.4325,569.3819L7811.452,11.38L7811.28,11.38L7811.25,11.35Z" id="POCHE" fill="#f6f6f6" stroke="#d4d4d4" stroke-width="10"/>
    <g id="100 LEVEL">
      <path d="M6597.908483555781,4490.77688668466L3629.56155665767,4490.5L2873.5,5240.535700459508L3065.5365,5432.572200459508L3740.21155665767,4776.61155665767L6487.936721262987,4776.536721262986L7141.9936,5390.349900459509L7327.186721262987,5204.686721262987L7327.186721262987,5204.686721262987L7327.186721262987,5204.686721262987z" id="100 INACTIVE" fill="#dfdfdf" stroke-width="10"/>
      <path d="M6597.908483555781,4490.77688668466L3629.56155665767,4490.5L2873.5,5240.535700459508L3065.5365,5432.572200459508L3740.21155665767,4776.61155665767L6487.936721262987,4776.536721262986L7141.9936,5390.349900459509L7327.186721262987,5204.686721262987L7327.186721262987,5204.686721262987L7327.186721262987,5204.686721262987z" id="100 INACTIVE" fill="#dfdfdf" stroke-width="10"/>
      <path d="M3720.06,4731.4L3720.0200000000004,4796.56L3647.6,4866.55L3062.1,5431.26L4113.87,6496.76L4253.92,6361.53L5975.2,6350.57L6096.44,6478.0199999999995L7143.5599999999995,5393.910000000001L6533.549999999999,4819.29L6507.7699999999995,4796.22L6507.79,4731.4z" id="PIT" fill="#ffffff" stroke="#dddddd" stroke-width="13"/>
    </g>
    <g id="200 LEVEL">
      <path d="M4717.25,3639.1000000000004L5514.650000000001,3639.1000000000004L5514.5,4489.65L4717.25,4489.65L4717.25,3639.1000000000004z" id="MIX" fill="#dfdfdf" stroke="#dddddd" stroke-width="13"/>
      <path d="M2807.1616,2502.15L1461.85,3825.3707L2873.505,5237.0257L3629.7116,4490.5616L4717.25,4490.6924L4717.25,3639.1L5514.65,3639.1L5514.5211,4490.7884L6597.8732,4490.9188L7327.1867,5204.5367L8739.3032,3789.446L7417.0699,2502.4269L2807.1616,2502.15Z" id="200 LEVEL" fill="#ffffff" stroke-width="10"/>
      <path d="M4230.127,2502.427L2807.107,2502.15L3629.5620000000004,4490.561L4229.835,4490.736L4230.127,2502.427z" id="202" fill="#ffffff" stroke="#dddddd" stroke-width="13"/>
      <path d="M6006.4,2502.7000000000003L4230.15,2502.708L4230.158,4491.01L4717.236,4490.985L4717.236,3639.086L5515.732,3639.086L5515.531999999999,4490.985L6006.408,4491.01L6006.4,2502.7000000000003z" id="203" fill="#ffffff" stroke="#dddddd" stroke-width="13"/>
      <path d="M7416.900000000001,2502.45L6006.5,2502.458L6006.508,4490.758L6597.608,4490.758L7416.900000000001,2502.45z" id="204" fill="#ffffff" stroke="#dddddd" stroke-width="13"/>
      <path d="M7416.6849999999995,2502.241L6597.753000000001,4490.753000000001L7327.287,5204.736000000001L8739.187,3789.4349999999995L7416.6849999999995,2502.241z" id="205" fill="#ffffff" stroke="#dddddd" stroke-width="13"/>
      <path d="M2807.1620000000003,2502.15L1461.85,3825.362L2873.505,5237.017L3629.712,4490.561L2807.1620000000003,2502.15z" id="201" fill="#ffffff" stroke="#dddddd" stroke-width="13"/>
    </g>
    <g id="300 LEVEL">
      <path d="M7416.8084,1207.9079757902912L2806.810506052427,1207.9L1248.6798,2735.6793757902906L1248.6798,2735.643075790291L1248.55,2735.8128757902905L1249.2932,3210.0560757902913L1248.9432,4030.1560757902903L2807.0115566576696,2502.21155665767L7417.0717,2502.4346757902904L8986.5932,4030.1560757902903L8986.5432,3153.256075790291L8986.2367,2735.588775790291z" id="300 LEVEL" fill="#ffffff" stroke-width="10"/>
      <path d="M1880.013,2441.8871L1361.3268,2960.5733L1850.487,3440.387L2369.136,2930.937L1880.013,2441.8871Z" id="302" fill="#ffffff" stroke="#dddddd" stroke-width="13"/>
      <path d="M2512.9858,1808.9142L1880.0485,2441.8516L2368.986,2930.863L2807.161,2502.211L2512.9858,1808.9142Z" id="303" fill="#ffffff" stroke="#dddddd" stroke-width="13"/>
      <path d="M1718.4262,2280.1762L1248.55,2735.8385L1248.729,2850.1125L1361.3267,2960.5588L1880.0129,2441.8726L1880.0252,2441.8284L1880.0484,2441.8516L1880.075,2441.825L1718.4262,2280.1762Z" id="BT302" fill="#ffffff" stroke="#dddddd" stroke-width="13"/>
      <path d="M2420.437,1590.8L1927.6975,2077.2355L1718.4263,2280.1762L1880.075,2441.825L2512.9858,1808.9142L2420.437,1590.8Z" id="BT303" fill="#ffffff" stroke="#dddddd" stroke-width="13"/>
      <path d="M2527.6,1859.7L2807.111,2501.712L4230.158,2502.409L4230.110000000001,2317.739L3154.2000000000003,2317.739L3154.205,1859.7L2527.6,1859.7z" id="304" fill="#ffffff" stroke="#dddddd" stroke-width="13"/>
      <path d="M4230.15,2317.666L4230.159,2502.458L6006.408,2502.458L6006.353,2317.766L5094.85,2317.666L4230.15,2317.666z" id="305" fill="#ffffff" stroke="#dddddd" stroke-width="13"/>
      <path d="M7076.822,1859.7L7076.799999999999,2317.808L6006.450999999999,2317.808L6006.459,2502.408L7416.8589999999995,2502.408L7677.882,1859.7L7076.822,1859.7z" id="306" fill="#ffffff" stroke="#dddddd" stroke-width="13"/>
      <path d="M7710.5502,1779.0002L7417.05,2502.459L7854.944,2928.763L8357.6289,2426.0789L7710.5502,1779.0002Z" id="307" fill="#ffffff" stroke="#dddddd" stroke-width="13"/>
      <path d="M8357.6509,2426.1009L7855,2928.751L8389.417,3448.935L8884.9506,2953.4006L8357.6509,2426.1009Z" id="308" fill="#ffffff" stroke="#dddddd" stroke-width="13"/>
      <path d="M8511.0207,2273.0293L8357.8001,2426.25L8884.9506,2953.4005L8986.297,2852.054L8986.212,2735.615L8986.0533,2735.4605L8986.2645,2735.5645L8511.0207,2273.0293Z" id="BT308" fill="#ffffff" stroke="#dddddd" stroke-width="13"/>
      <path d="M7793.4528,1574.65L7710.55,1779.0001L8357.6287,2426.0788L8357.6583,2426.0934L8357.6509,2426.1008L8357.8001,2426.2499L8511.0207,2273.0293L7793.4528,1574.65Z" id="BT307" fill="#ffffff" stroke="#dddddd" stroke-width="13"/>
      <path d="M8986.281,2852.0499999999997L8389.400000000001,3448.93L8986.552,4030.1780000000003L8986.502,3153.2780000000002L8986.281,2852.0499999999997z" id="309" fill="#ffffff" stroke="#dddddd" stroke-width="13"/>
      <path d="M1248.7,2850.1L1249.2640000000001,3210.077L1248.914,4030.1780000000003L1850.436,3440.3859999999995L1248.7,2850.1z" id="301" fill="#ffffff" stroke="#dddddd" stroke-width="13"/>
      <path d="M7416.49831976682,1207.95L7066.49831976682,1207.9584835557807L2976.310506052427,1207.9605060524273L2976.310506052427,1207.9605060524273L2806.810506052427,1207.9605060524273L2420.45,1590.9367212629868L2527.4685362110404,1859.560849849077L3164.047436211039,1859.560849849077L3163.4003422634664,1439.8297559015043L7066.69743621104,1439.860849849077L7066.69743621104,1859.560849849077L7677.73763621104,1859.560849849077L7793.38033621104,1574.5226498490777z" id="300 INACTIVE" fill="#dfdfdf" stroke="#dddddd" stroke-width="13"/>
      <path d="M7066.842000000001,1439.8500000000001L6006.459999999999,1439.86L6006.45,2307.808L7066.799999999999,2307.808L7066.842000000001,1439.8500000000001z" id="S4" fill="#ffffff" stroke="#dfdfdf" stroke-width="26"/>
      <path d="M6006.210999999999,1439.9L5124.86,1439.91L5124.85,2307.766L6006.4,2307.766L6006.210999999999,1439.9z" id="S3" fill="#ffffff" stroke="#dfdfdf" stroke-width="26"/>
      <path d="M5124.8099999999995,1440L4230.16,1440.01L4230.15,2307.666L5124.75,2307.666L5124.8099999999995,1440z" id="S2" fill="#ffffff" stroke="#dfdfdf" stroke-width="26"/>
      <path d="M4230.0599999999995,1439.95L3164.21,1439.96L3164.2000000000003,2307.739L4230.1,2307.739L4230.0599999999995,1439.95z" id="S1" fill="#ffffff" stroke="#dfdfdf" stroke-width="26"/>
    </g>
    <g id="400 LEVEL">
      <path d="M2807.0105060524274,1207.7605060524272L1248.6798342541438,2735.6798342541433L1249.0298342541437,1915.529834254143L1045.7,1682.065723818237L2516.4214701754245,211.35L7728.6346311709085,211.37983425414367L9146.179382790084,1628.979382790083L8986.279834254145,1858.7298342541435L8986.329834254144,2735.6798342541433L7416.808390486042,1207.908390486042z" id="400 LEVEL" fill="#ffffff" stroke-width="10"/>
      <path d="M1482.9111,1483.539L1156.801,1809.649L1249.03,1915.547L1248.68,2735.696L2001.337,2005.937L1482.9111,1483.539Z" id="401" fill="#ffffff" stroke="#dddddd" stroke-width="13"/>
      <path d="M2529.3501,437.1001L1482.9089,1483.5412L2001.337,2005.886L2806.71,1207.761L3062.261,1207.761L3062.6516,437.1001Z" id="402" fill="#ffffff" stroke="#dddddd" stroke-width="13"/>
      <path d="M3062.8023,437.1001L3062.81,1207.761L4488.36,1207.761L4488.5456,437.1001Z" id="403" fill="#ffffff" stroke="#dddddd" stroke-width="13"/>
      <path d="M4488.6,211.35L4488.6023,437.1L5761.0792,437.1L5761.1,211.357L4488.6,211.35Z" id="404" fill="#dfdfdf" stroke="#dfdfdf" stroke-width="13"/>
      <path d="M1361.5415,1366.2415L1045.7,1682.082L1045.8167,1682.216L1045.8,1682.2327L1045.8224,1682.2225L1156.801,1809.649L1480.875,1485.575L1361.5415,1366.2415Z" id="BT401" fill="#ffffff" stroke="#dddddd" stroke-width="13"/>
      <path d="M2527.6673,211.2L2527.6684,211.3501L2516.3553,211.35L1364.1221,1363.8397L1364.033,1363.75L1361.5415,1366.2415L1480.875,1485.575L1482.9111,1483.5389L1482.8948,1483.5225L2529.3173,437.1L2529.35,437.0601L2529.35,437.0996L2529.3588,437.0907L3062.6438,437.0907L3062.65,437.0897L3062.65,211.3177L2529.35,211.2L2529.35,211.2016L2527.6673,211.2Z" id="BT402" fill="#ffffff" stroke="#dddddd" stroke-width="13"/>
      <path d="M3062.6501,211.3177L3062.6501,437.0897L3062.8022,437.0657L3062.8022,437.1L4488.5455,437.1L4488.5998,211.6457L4488.6826,211.6327L4488.5998,211.6326L4488.5999,211.358L3212.444,211.3508L3062.65,211.3177Z" id="BT403" fill="#ffffff" stroke="#dddddd" stroke-width="13"/>
      <path d="M4488.6023,437.1001L4488.61,1207.76L5761.008,1207.859L5761.0792,437.1001Z" id="404" fill="#ffffff" stroke="#dddddd" stroke-width="13"/>
      <path d="M5761.1018,437.1001L5761.108,1207.858L7171.558,1207.858L7171.6292,437.1001Z" id="405" fill="#ffffff" stroke="#dddddd" stroke-width="13"/>
      <path d="M7171.6518,437.1001L7171.658,1207.858L7416.859,1207.858L8232.626,2001.998L8757.4116,1477.2116L7717.3001,437.1001Z" id="406" fill="#ffffff" stroke="#dddddd" stroke-width="13"/>
      <path d="M8757.4271,1477.2271L8232.6,2002.055L8986.304,2735.71L8986.254,1858.76L9048.9193,1768.7193L8757.4271,1477.2271Z" id="407" fill="#ffffff" stroke="#dddddd" stroke-width="13"/>
      <path d="M8875.9998,1358.8003L8757.4865,1477.3136L9048.8678,1768.6949L9146.1015,1628.9846L8875.9998,1358.8003Z" id="BT407" fill="#ffffff" stroke="#dddddd" stroke-width="13"/>
      <path d="M7728.5576,211.15L7728.5475,211.353L7717.4501,211.3529L7717.4501,211.3938L7717.4256,211.3285L7171.5,211.3205L7171.5001,437.1L7171.6292,437.1L7171.6292,437.0756L7717.2832,437.0756L7717.4256,437.218L7717.4501,437.2105L7717.4501,437.2425L8757.2257,1477.0182L8757.3756,1477.2027L8757.4865,1477.3136L8875.9997,1358.8003L8875.9073,1358.7078L8875.9298,1358.6853L8600.297,1083.0133L7728.75,211.2L7729.3676,211.9601L7728.5576,211.15Z" id="BT406" fill="#ffffff" stroke="#dddddd" stroke-width="13"/>
      <path d="M5761.15,211.3L5761.4624,211.35L5761.1,211.35L5761.1018,437.1L7171.5,437.1L7171.5,211.3205L5761.15,211.3Z" id="BT405" fill="#ffffff" stroke="#dddddd" stroke-width="13"/>
      <line x1="1240.65" x2="1368.4261735931036" y1="1650.6043295079328" y2="1522.9" fill="none" stroke="#dfdfdf" stroke-width="26"/>
      <line x1="1544.5" x2="2062.8247338722344" y1="1339.476018245338" y2="821.2" fill="none" stroke="#dfdfdf" stroke-width="26"/>
      <line x1="2609.2" x2="2950.0015434488005" y1="362.25" y2="362.2743578134483" fill="none" stroke="#dfdfdf" stroke-width="26"/>
      <line x1="3324.95" x2="4373.350000282962" y1="362.25" y2="362.2743578134483" fill="none" stroke="#dfdfdf" stroke-width="26"/>
      <line x1="5860.05" x2="6911.650500174026" y1="362.25" y2="362.2743578134483" fill="none" stroke="#dfdfdf" stroke-width="26"/>
      <line x1="7292.8" x2="7647.401631532618" y1="361.15" y2="361.1743578134483" fill="none" stroke="#dfdfdf" stroke-width="26"/>
      <line x1="8148.55" x2="8682.716065208135" y1="802.6" y2="1336.7660652081336" fill="none" stroke="#dfdfdf" stroke-width="26"/>
      <line x1="8821.65" x2="8976.897162279103" y1="1477.15" y2="1632.3971622791032" fill="none" stroke="#dfdfdf" stroke-width="26"/>
    </g>
    <path d="M3853,6877L6369.804483085993,6877L6369.804483085993,7501.674397217451L3853,7501.674397217451z" id="STAGE" fill="#262626" stroke-width="10"/>
    <text font-family="averta,arial,'arial bold'" text-align="left" font-size="482.99913867355696" x="4298.95" y="7347.2" width="1682.3" height="558.6" fill="#ffffff" stroke-width="10">
      <tspan text-anchor="start" x="4298.95">STAGE</tspan>
    </text>
    <text font-family="averta,arial,'arial bold'" text-align="left" font-size="301.84641489690136" x="4842" y="4151.2" width="548.45" height="349.1" fill="#727272" stroke-width="10">
      <tspan text-anchor="start" x="4842">MIX</tspan>
    </text>
    <path d="M825.95,3371.85L1202.2,3371.85L1202.2,6361.570901038667L825.95,6361.570901038667z" id="300RGT" fill="#ffffff" stroke="#dddddd" stroke-width="13"/>
    <path d="M454.3,2172.45L830.55,2172.45L830.55,5159.4674095824885L454.3,5159.4674095824885z" id="400RGT" fill="#ffffff" stroke="#dddddd" stroke-width="13"/>
    <path d="M9037.35,3371.85L9413.6,3371.85L9413.6,6361.420901043632L9037.35,6361.420901043632z" id="300LFT" fill="#ffffff" stroke="#dddddd" stroke-width="13"/>
    <path d="M9414.15,2172.45L9790.4,2172.45L9790.4,5171.349792797561L9414.15,5171.349792797561z" id="400LFT" fill="#ffffff" stroke="#dddddd" stroke-width="13"/>
    <g id="TABLES">
      <path d="M1519.85,4881.05L2403.5499964800492,4881.05L2403.5499964800492,6014.049999999999L1519.85,6014.049999999999z" id="TABLE TRAY" fill="#ffffff" stroke="#dddddd" stroke-width="13"/>
      <path d="M7769.85,4881.05L8653.54999648005,4881.05L8653.54999648005,6014.049999999999L7769.85,6014.049999999999z" id="TABLE TRAY" fill="#ffffff" stroke="#dddddd" stroke-width="13"/>
      <path d="M683.9500000000007,4137.000000000001C723.1346207499955,4137.000000000001 754.8999999999978,4168.7657340000005 754.8999999999978,4207.950354750001C754.8999999999978,4247.134975500001 723.1346207499955,4278.9 683.9500000000007,4278.9C644.7653792500005,4278.9 613,4247.134975500001 613,4207.950354750001C613,4168.7657340000005 644.7653792500005,4137.000000000001 683.9500000000007,4137.000000000001z" id="TABLE" fill="#dfdfdf" stroke-width="13"/>
      <path d="M683.9500000000007,3773.2000000000007C723.1346207499955,3773.2000000000007 754.8999999999978,3804.965734 754.8999999999978,3844.150354749999C754.8999999999978,3883.3349755000017 723.1346207499955,3915.1 683.9500000000007,3915.1C644.7653792500005,3915.1 613,3883.3349755000017 613,3844.150354749999C613,3804.965734 644.7653792500005,3773.2000000000007 683.9500000000007,3773.2000000000007z" id="TABLE" fill="#dfdfdf" stroke-width="13"/>
      <path d="M683.9500000000007,3409.4000000000005C723.1346207499955,3409.4000000000005 754.8999999999978,3441.1657340000006 754.8999999999978,3480.3503547500004C754.8999999999978,3519.5349754999997 723.1346207499955,3551.299999999999 683.9500000000007,3551.299999999999C644.7653792500005,3551.299999999999 613,3519.5349754999997 613,3480.3503547500004C613,3441.1657340000006 644.7653792500005,3409.4000000000005 683.9500000000007,3409.4000000000005z" id="TABLE" fill="#dfdfdf" stroke-width="13"/>
      <path d="M683.9500000000007,3045.6000000000004C723.1346207499955,3045.6000000000004 754.8999999999978,3077.3657339999995 754.8999999999978,3116.5503547500007C754.8999999999978,3155.7349754999996 723.1346207499955,3187.5 683.9500000000007,3187.5C644.7653792500005,3187.5 613,3155.7349754999996 613,3116.5503547500007C613,3077.3657339999995 644.7653792500005,3045.6000000000004 683.9500000000007,3045.6000000000004z" id="TABLE" fill="#dfdfdf" stroke-width="13"/>
      <path d="M683.9500000000007,2681.8C723.1346207499955,2681.8 754.8999999999978,2713.565733999999 754.8999999999978,2752.750354749999C754.8999999999978,2791.9349754999994 723.1346207499955,2823.7 683.9500000000007,2823.7C644.7653792500005,2823.7 613,2791.9349754999994 613,2752.750354749999C613,2713.565733999999 644.7653792500005,2681.8 683.9500000000007,2681.8z" id="TABLE" fill="#dfdfdf" stroke-width="13"/>
      <path d="M683.9500000000007,2318C723.1346207499955,2318 754.8999999999978,2349.7657339999996 754.8999999999978,2388.95035475C754.8999999999978,2428.1349755 723.1346207499955,2459.8999999999983 683.9500000000007,2459.8999999999983C644.7653792500005,2459.8999999999983 613,2428.1349755 613,2388.95035475C613,2349.7657339999996 644.7653792500005,2318 683.9500000000007,2318z" id="TABLE" fill="#dfdfdf" stroke-width="13"/>
      <path d="M1054.9500000000007,3518C1094.1346207499955,3518 1125.8999999999978,3549.765734 1125.8999999999978,3588.95035475C1125.8999999999978,3628.1349755 1094.1346207499955,3659.8999999999983 1054.9500000000007,3659.8999999999983C1015.7653792500004,3659.8999999999983 984,3628.1349755 984,3588.95035475C984,3549.765734 1015.7653792500004,3518 1054.9500000000007,3518z" id="TABLE" fill="#dfdfdf" stroke-width="13"/>
      <path d="M1054.9500000000007,3881.8C1094.1346207499955,3881.8 1125.8999999999978,3913.5657339999993 1125.8999999999978,3952.7503547499996C1125.8999999999978,3991.9349755000003 1094.1346207499955,4023.7000000000003 1054.9500000000007,4023.7000000000003C1015.7653792500004,4023.7000000000003 984,3991.9349755000003 984,3952.7503547499996C984,3913.5657339999993 1015.7653792500004,3881.8 1054.9500000000007,3881.8z" id="TABLE" fill="#dfdfdf" stroke-width="13"/>
      <path d="M1054.9500000000007,4245.6C1094.1346207499955,4245.6 1125.8999999999978,4277.365734 1125.8999999999978,4316.55035475C1125.8999999999978,4355.7349755 1094.1346207499955,4387.5 1054.9500000000007,4387.5C1015.7653792500004,4387.5 984,4355.7349755 984,4316.55035475C984,4277.365734 1015.7653792500004,4245.6 1054.9500000000007,4245.6z" id="TABLE" fill="#dfdfdf" stroke-width="13"/>
      <path d="M1054.9500000000007,4609.400000000001C1094.1346207499955,4609.400000000001 1125.8999999999978,4641.165734 1125.8999999999978,4680.35035475C1125.8999999999978,4719.5349755 1094.1346207499955,4751.299999999999 1054.9500000000007,4751.299999999999C1015.7653792500004,4751.299999999999 984,4719.5349755 984,4680.35035475C984,4641.165734 1015.7653792500004,4609.400000000001 1054.9500000000007,4609.400000000001z" id="TABLE" fill="#dfdfdf" stroke-width="13"/>
      <path d="M1054.9500000000007,4973.200000000001C1094.1346207499955,4973.200000000001 1125.8999999999978,5004.965734 1125.8999999999978,5044.15035475C1125.8999999999978,5083.334975500002 1094.1346207499955,5115.1 1054.9500000000007,5115.1C1015.7653792500004,5115.1 984,5083.334975500002 984,5044.15035475C984,5004.965734 1015.7653792500004,4973.200000000001 1054.9500000000007,4973.200000000001z" id="TABLE" fill="#dfdfdf" stroke-width="13"/>
      <path d="M1054.9500000000007,5337.000000000001C1094.1346207499955,5337.000000000001 1125.8999999999978,5368.7657340000005 1125.8999999999978,5407.950354750001C1125.8999999999978,5447.134975500001 1094.1346207499955,5478.9 1054.9500000000007,5478.9C1015.7653792500004,5478.9 984,5447.134975500001 984,5407.950354750001C984,5368.7657340000005 1015.7653792500004,5337.000000000001 1054.9500000000007,5337.000000000001z" id="TABLE" fill="#dfdfdf" stroke-width="13"/>
      <path d="M9206.95,3517C9246.134620749996,3517 9277.899999999998,3548.765734 9277.899999999998,3587.95035475C9277.899999999998,3627.1349755 9246.134620749996,3658.899999999999 9206.95,3658.899999999999C9167.76537925,3658.899999999999 9136,3627.1349755 9136,3587.95035475C9136,3548.765734 9167.76537925,3517 9206.95,3517z" id="TABLE" fill="#dfdfdf" stroke-width="13"/>
      <path d="M9206.95,3880.95C9246.134620749996,3880.95 9277.899999999998,3912.715733999999 9277.899999999998,3951.900354749999C9277.899999999998,3991.0849755 9246.134620749996,4022.85 9206.95,4022.85C9167.76537925,4022.85 9136,3991.0849755 9136,3951.900354749999C9136,3912.715733999999 9167.76537925,3880.95 9206.95,3880.95z" id="TABLE" fill="#dfdfdf" stroke-width="13"/>
      <path d="M9206.95,4244.9C9246.134620749996,4244.9 9277.899999999998,4276.665733999999 9277.899999999998,4315.8503547499995C9277.899999999998,4355.034975499999 9246.134620749996,4386.799999999999 9206.95,4386.799999999999C9167.76537925,4386.799999999999 9136,4355.034975499999 9136,4315.8503547499995C9136,4276.665733999999 9167.76537925,4244.9 9206.95,4244.9z" id="TABLE" fill="#dfdfdf" stroke-width="13"/>
      <path d="M9206.95,4608.849999999999C9246.134620749996,4608.849999999999 9277.899999999998,4640.615733999999 9277.899999999998,4679.800354749999C9277.899999999998,4718.984975499999 9246.134620749996,4750.749999999998 9206.95,4750.749999999998C9167.76537925,4750.749999999998 9136,4718.984975499999 9136,4679.800354749999C9136,4640.615733999999 9167.76537925,4608.849999999999 9206.95,4608.849999999999z" id="TABLE" fill="#dfdfdf" stroke-width="13"/>
      <path d="M9206.95,4972.799999999999C9246.134620749996,4972.799999999999 9277.899999999998,5004.565733999999 9277.899999999998,5043.750354749998C9277.899999999998,5082.9349755 9246.134620749996,5114.699999999999 9206.95,5114.699999999999C9167.76537925,5114.699999999999 9136,5082.9349755 9136,5043.750354749998C9136,5004.565733999999 9167.76537925,4972.799999999999 9206.95,4972.799999999999z" id="TABLE" fill="#dfdfdf" stroke-width="13"/>
      <path d="M9206.95,5336.749999999999C9246.134620749996,5336.749999999999 9277.899999999998,5368.515733999999 9277.899999999998,5407.700354749999C9277.899999999998,5446.884975499999 9246.134620749996,5478.649999999998 9206.95,5478.649999999998C9167.76537925,5478.649999999998 9136,5446.884975499999 9136,5407.700354749999C9136,5368.515733999999 9167.76537925,5336.749999999999 9206.95,5336.749999999999z" id="TABLE" fill="#dfdfdf" stroke-width="13"/>
      <path d="M9575.95,4138.1C9615.134620749996,4138.1 9646.899999999998,4169.865734 9646.899999999998,4209.05035475C9646.899999999998,4248.2349755000005 9615.134620749996,4279.999999999999 9575.95,4279.999999999999C9536.76537925,4279.999999999999 9505,4248.2349755000005 9505,4209.05035475C9505,4169.865734 9536.76537925,4138.1 9575.95,4138.1z" id="TABLE" fill="#dfdfdf" stroke-width="13"/>
      <path d="M9575.95,3773.85C9615.134620749996,3773.85 9646.899999999998,3805.615734 9646.899999999998,3844.800354749999C9646.899999999998,3883.9849755 9615.134620749996,3915.7499999999995 9575.95,3915.7499999999995C9536.76537925,3915.7499999999995 9505,3883.9849755 9505,3844.800354749999C9505,3805.615734 9536.76537925,3773.85 9575.95,3773.85z" id="TABLE" fill="#dfdfdf" stroke-width="13"/>
      <path d="M9575.95,3409.65C9615.134620749996,3409.65 9646.899999999998,3441.4157339999997 9646.899999999998,3480.60035475C9646.899999999998,3519.7849755 9615.134620749996,3551.5499999999984 9575.95,3551.5499999999984C9536.76537925,3551.5499999999984 9505,3519.7849755 9505,3480.60035475C9505,3441.4157339999997 9536.76537925,3409.65 9575.95,3409.65z" id="TABLE" fill="#dfdfdf" stroke-width="13"/>
      <path d="M9575.95,3045.4C9615.134620749996,3045.4 9646.899999999998,3077.165734 9646.899999999998,3116.3503547500004C9646.899999999998,3155.5349754999997 9615.134620749996,3187.2999999999997 9575.95,3187.2999999999997C9536.76537925,3187.2999999999997 9505,3155.5349754999997 9505,3116.3503547500004C9505,3077.165734 9536.76537925,3045.4 9575.95,3045.4z" id="TABLE" fill="#dfdfdf" stroke-width="13"/>
      <path d="M9575.95,2681.2C9615.134620749996,2681.2 9646.899999999998,2712.965734 9646.899999999998,2752.15035475C9646.899999999998,2791.3349754999995 9615.134620749996,2823.0999999999995 9575.95,2823.0999999999995C9536.76537925,2823.0999999999995 9505,2791.3349754999995 9505,2752.15035475C9505,2712.965734 9536.76537925,2681.2 9575.95,2681.2z" id="TABLE" fill="#dfdfdf" stroke-width="13"/>
      <path d="M9575.95,2317C9615.134620749996,2317 9646.899999999998,2348.765734 9646.899999999998,2387.95035475C9646.899999999998,2427.1349754999997 9615.134620749996,2458.8999999999996 9575.95,2458.8999999999996C9536.76537925,2458.8999999999996 9505,2427.1349754999997 9505,2387.95035475C9505,2348.765734 9536.76537925,2317 9575.95,2317z" id="TABLE" fill="#dfdfdf" stroke-width="13"/>
      <path d="M1733.4050000000002,4908.8C1835.2767296749996,4908.8 1917.8599999999997,4991.3841926000005 1917.8599999999997,5093.255922275001C1917.8599999999997,5195.12765195 1835.2767296749996,5277.71 1733.4050000000002,5277.71C1631.533270325,5277.71 1548.95,5195.12765195 1548.95,5093.255922275001C1548.95,4991.3841926000005 1631.533270325,4908.8 1733.4050000000002,4908.8z" id="TABLED" fill="#ffffff" stroke-width="10"/>
      <path d="M1733.4,5008.8C1748.913,5008.8 1763.461,5012.952 1775.951,5020.268C1784.334,5025.179 1791.7949999999998,5031.492 1798.0230000000001,5038.877C1801.703,5043.241 1804.953,5047.982 1807.7,5053.035C1814.1999999999998,5064.987 1817.85,5078.695 1817.85,5093.25C1817.85,5108.764 1813.697,5123.314 1806.38,5135.8060000000005C1801.4689999999998,5144.19 1795.156,5151.653 1787.77,5157.880999999999C1783.406,5161.562 1778.665,5164.812 1773.612,5167.5599999999995C1761.6599999999999,5174.058999999999 1747.954,5177.709999999999 1733.4,5177.709999999999C1717.8880000000001,5177.709999999999 1703.3410000000001,5173.557 1690.8519999999999,5166.241C1665.807,5151.5689999999995 1648.95,5124.3859999999995 1648.95,5093.25C1648.95,5077.737 1653.102,5063.189 1660.418,5050.6990000000005C1665.3290000000002,5042.316 1671.6419999999998,5034.855 1679.027,5028.627C1683.391,5024.947 1688.132,5021.697 1693.185,5018.95C1705.137,5012.45 1718.845,5008.8 1733.4,5008.8z" id="TABLED" fill="#dfdfdf" stroke-width="10"/>
      <path d="M2183.405,4908.8C2285.276729674999,4908.8 2367.86,4991.3841926000005 2367.86,5093.255922275001C2367.86,5195.12765195 2285.276729674999,5277.71 2183.405,5277.71C2081.5332703249996,5277.71 1998.95,5195.12765195 1998.95,5093.255922275001C1998.95,4991.3841926000005 2081.5332703249996,4908.8 2183.405,4908.8z" id="TABLEE" fill="#ffffff" stroke-width="10"/>
      <path d="M2183.4,5008.8C2198.914,5008.8 2213.464,5012.9529999999995 2225.956,5020.2699999999995C2234.34,5025.1810000000005 2241.803,5031.494000000001 2248.031,5038.88C2251.712,5043.244000000001 2254.962,5047.985 2257.71,5053.0380000000005C2264.209,5064.99 2267.86,5078.696 2267.86,5093.25C2267.86,5108.763 2263.707,5123.312 2256.3900000000003,5135.802C2251.478,5144.187 2245.164,5151.65 2237.777,5157.879000000001C2233.412,5161.561000000001 2228.67,5164.811 2223.616,5167.559C2211.663,5174.058999999999 2197.955,5177.709999999999 2183.4,5177.709999999999C2167.888,5177.709999999999 2153.341,5173.557 2140.852,5166.241C2115.8070000000002,5151.5689999999995 2098.9500000000003,5124.3859999999995 2098.9500000000003,5093.25C2098.9500000000003,5077.737 2103.102,5063.189 2110.418,5050.6990000000005C2115.329,5042.316 2121.642,5034.855 2129.027,5028.627C2133.391,5024.947 2138.132,5021.697 2143.185,5018.95C2155.137,5012.45 2168.8450000000003,5008.8 2183.4,5008.8z" id="TABLEE" fill="#dfdfdf" stroke-width="10"/>
      <path d="M2183.405,5608.8C2285.276729674999,5608.8 2367.86,5691.3841926000005 2367.86,5793.255922275001C2367.86,5895.12765195 2285.276729674999,5977.71 2183.405,5977.71C2081.5332703249996,5977.71 1998.95,5895.12765195 1998.95,5793.255922275001C1998.95,5691.3841926000005 2081.5332703249996,5608.8 2183.405,5608.8z" id="TABLEB" fill="#ffffff" stroke-width="10"/>
      <path d="M2183.4,5708.8C2198.914,5708.8 2213.464,5712.9529999999995 2225.956,5720.27C2234.34,5725.1810000000005 2241.803,5731.494000000001 2248.031,5738.88C2251.712,5743.244 2254.962,5747.985 2257.71,5753.0380000000005C2264.209,5764.99 2267.86,5778.696 2267.86,5793.25C2267.86,5808.763 2263.707,5823.312 2256.3900000000003,5835.802C2251.478,5844.187 2245.164,5851.65 2237.777,5857.879000000001C2233.412,5861.561000000001 2228.67,5864.811 2223.616,5867.559C2211.663,5874.058999999999 2197.955,5877.709999999999 2183.4,5877.709999999999C2167.888,5877.709999999999 2153.341,5873.557 2140.852,5866.241C2115.8070000000002,5851.5689999999995 2098.9500000000003,5824.3859999999995 2098.9500000000003,5793.25C2098.9500000000003,5777.736999999999 2103.102,5763.189 2110.418,5750.699C2115.329,5742.316 2121.642,5734.855 2129.027,5728.627C2133.391,5724.947 2138.132,5721.697 2143.185,5718.95C2155.137,5712.45 2168.8450000000003,5708.8 2183.4,5708.8z" id="TABLEB" fill="#dfdfdf" stroke-width="10"/>
      <path d="M1963.4050000000002,5258.8C2065.276729674999,5258.8 2147.86,5341.3841926000005 2147.86,5443.255922275001C2147.86,5545.12765195 2065.276729674999,5627.71 1963.4050000000002,5627.71C1861.533270325,5627.71 1778.95,5545.12765195 1778.95,5443.255922275001C1778.95,5341.3841926000005 1861.533270325,5258.8 1963.4050000000002,5258.8z" id="TABLEC" fill="#ffffff" stroke-width="10"/>
      <path d="M1963.4,5358.8C1978.914,5358.8 1993.464,5362.9529999999995 2005.956,5370.27C2014.34,5375.1810000000005 2021.8029999999999,5381.494000000001 2028.031,5388.88C2031.712,5393.244 2034.962,5397.985 2037.7099999999998,5403.0380000000005C2044.2089999999998,5414.99 2047.8600000000001,5428.696 2047.8600000000001,5443.25C2047.8600000000001,5458.763 2043.7069999999999,5473.312 2036.39,5485.802C2031.4779999999998,5494.187 2025.164,5501.65 2017.777,5507.879000000001C2013.4119999999998,5511.561000000001 2008.6699999999998,5514.811 2003.616,5517.559C1991.663,5524.058999999999 1977.955,5527.709999999999 1963.4,5527.709999999999C1947.8880000000001,5527.709999999999 1933.3410000000001,5523.557 1920.8519999999999,5516.241C1895.807,5501.5689999999995 1878.95,5474.3859999999995 1878.95,5443.25C1878.95,5427.736999999999 1883.102,5413.189 1890.418,5400.699C1895.3290000000002,5392.316 1901.6419999999998,5384.855 1909.027,5378.627C1913.391,5374.947 1918.132,5371.697 1923.185,5368.95C1935.137,5362.45 1948.845,5358.8 1963.4,5358.8z" id="TABLEC" fill="#dfdfdf" stroke-width="10"/>
      <path d="M1733.4050000000002,5608.8C1835.2767296749996,5608.8 1917.8599999999997,5691.3841926000005 1917.8599999999997,5793.255922275001C1917.8599999999997,5895.12765195 1835.2767296749996,5977.71 1733.4050000000002,5977.71C1631.533270325,5977.71 1548.95,5895.12765195 1548.95,5793.255922275001C1548.95,5691.3841926000005 1631.533270325,5608.8 1733.4050000000002,5608.8z" id="TABLEA" fill="#ffffff" stroke-width="10"/>
      <path d="M1733.4,5708.8C1748.913,5708.8 1763.461,5712.952 1775.951,5720.268C1784.334,5725.179 1791.7949999999998,5731.491999999999 1798.0230000000001,5738.877C1801.703,5743.241 1804.953,5747.982 1807.7,5753.035C1814.1999999999998,5764.987 1817.85,5778.695 1817.85,5793.25C1817.85,5808.764 1813.697,5823.314 1806.38,5835.8060000000005C1801.4689999999998,5844.19 1795.156,5851.653 1787.77,5857.880999999999C1783.406,5861.562 1778.665,5864.812 1773.612,5867.5599999999995C1761.6599999999999,5874.058999999999 1747.954,5877.709999999999 1733.4,5877.709999999999C1717.8880000000001,5877.709999999999 1703.3410000000001,5873.557 1690.8519999999999,5866.241C1665.807,5851.5689999999995 1648.95,5824.3859999999995 1648.95,5793.25C1648.95,5777.736999999999 1653.102,5763.189 1660.418,5750.699C1665.3290000000002,5742.316 1671.6419999999998,5734.855 1679.027,5728.627C1683.391,5724.947 1688.132,5721.697 1693.185,5718.95C1705.137,5712.45 1718.845,5708.8 1733.4,5708.8z" id="TABLEA" fill="#dfdfdf" stroke-width="10"/>
      <path d="M7983.405000000001,4908.8C8085.276729674999,4908.8 8167.860000000001,4991.3841926000005 8167.860000000001,5093.255922275001C8167.860000000001,5195.12765195 8085.276729674999,5277.71 7983.405000000001,5277.71C7881.533270325001,5277.71 7798.95,5195.12765195 7798.95,5093.255922275001C7798.95,4991.3841926000005 7881.533270325001,4908.8 7983.405000000001,4908.8z" id="TABLEJ" fill="#ffffff" stroke-width="10"/>
      <path d="M7983.400000000001,5008.8C7998.914,5008.8 8013.464,5012.9529999999995 8025.956,5020.2699999999995C8034.34,5025.1810000000005 8041.803,5031.494000000001 8048.031,5038.88C8051.7119999999995,5043.244000000001 8054.962,5047.985 8057.709999999999,5053.0380000000005C8064.209,5064.99 8067.86,5078.696 8067.86,5093.25C8067.86,5108.763 8063.707,5123.312 8056.39,5135.802C8051.477999999999,5144.187 8045.164,5151.65 8037.777,5157.879000000001C8033.411999999999,5161.561000000001 8028.67,5164.811 8023.616,5167.559C8011.663,5174.058999999999 7997.955,5177.709999999999 7983.400000000001,5177.709999999999C7967.888000000001,5177.709999999999 7953.341,5173.557 7940.852,5166.241C7915.807,5151.5689999999995 7898.95,5124.3859999999995 7898.95,5093.25C7898.95,5077.737 7903.102,5063.189 7910.418,5050.6990000000005C7915.329000000001,5042.316 7921.642000000001,5034.855 7929.027,5028.627C7933.3910000000005,5024.947 7938.1320000000005,5021.697 7943.1849999999995,5018.95C7955.137,5012.45 7968.845,5008.8 7983.400000000001,5008.8z" id="TABLEJ" fill="#dfdfdf" stroke-width="10"/>
      <path d="M8433.405000000002,4908.8C8535.276729674999,4908.8 8617.860000000002,4991.3841926000005 8617.860000000002,5093.255922275001C8617.860000000002,5195.12765195 8535.276729674999,5277.71 8433.405000000002,5277.71C8331.533270325002,5277.71 8248.95,5195.12765195 8248.95,5093.255922275001C8248.95,4991.3841926000005 8331.533270325002,4908.8 8433.405000000002,4908.8z" id="TABLEK" fill="#ffffff" stroke-width="10"/>
      <path d="M8433.4,5008.8C8448.914,5008.8 8463.464,5012.9529999999995 8475.956,5020.2699999999995C8484.34,5025.1810000000005 8491.803,5031.494000000001 8498.030999999999,5038.88C8501.712,5043.244000000001 8504.962,5047.985 8507.71,5053.0380000000005C8514.208999999999,5064.99 8517.859999999999,5078.696 8517.859999999999,5093.25C8517.859999999999,5108.763 8513.707,5123.312 8506.39,5135.802C8501.478,5144.187 8495.164,5151.65 8487.777,5157.879000000001C8483.412,5161.561000000001 8478.67,5164.811 8473.616,5167.559C8461.663,5174.058999999999 8447.955,5177.709999999999 8433.4,5177.709999999999C8417.888,5177.709999999999 8403.341,5173.557 8390.851999999999,5166.241C8365.807,5151.5689999999995 8348.95,5124.3859999999995 8348.95,5093.25C8348.95,5077.737 8353.102,5063.189 8360.418,5050.6990000000005C8365.329,5042.316 8371.642,5034.855 8379.027,5028.627C8383.391,5024.947 8388.132000000001,5021.697 8393.185,5018.95C8405.136999999999,5012.45 8418.845,5008.8 8433.4,5008.8z" id="TABLEK" fill="#dfdfdf" stroke-width="10"/>
      <path d="M8213.405000000002,5258.8C8315.276729674999,5258.8 8397.86,5341.3841926000005 8397.86,5443.255922275001C8397.86,5545.12765195 8315.276729674999,5627.71 8213.405000000002,5627.71C8111.533270325002,5627.71 8028.95,5545.12765195 8028.95,5443.255922275001C8028.95,5341.3841926000005 8111.533270325002,5258.8 8213.405000000002,5258.8z" id="TABLEH" fill="#ffffff" stroke-width="10"/>
      <path d="M8213.4,5358.8C8228.914,5358.8 8243.464,5362.9529999999995 8255.956,5370.27C8264.34,5375.1810000000005 8271.803,5381.494000000001 8278.030999999999,5388.88C8281.712,5393.244 8284.962,5397.985 8287.71,5403.0380000000005C8294.208999999999,5414.99 8297.859999999999,5428.696 8297.859999999999,5443.25C8297.859999999999,5458.763 8293.707,5473.312 8286.39,5485.802C8281.478,5494.187 8275.164,5501.65 8267.777,5507.879000000001C8263.412,5511.561000000001 8258.67,5514.811 8253.616,5517.559C8241.663,5524.058999999999 8227.955,5527.709999999999 8213.4,5527.709999999999C8197.888,5527.709999999999 8183.341,5523.557 8170.852,5516.241C8145.807,5501.5689999999995 8128.95,5474.3859999999995 8128.95,5443.25C8128.95,5427.736999999999 8133.102,5413.189 8140.418,5400.699C8145.329000000001,5392.316 8151.642000000001,5384.855 8159.027,5378.627C8163.3910000000005,5374.947 8168.1320000000005,5371.697 8173.1849999999995,5368.95C8185.137,5362.45 8198.845,5358.8 8213.4,5358.8z" id="TABLEH" fill="#dfdfdf" stroke-width="10"/>
      <path d="M7983.405000000001,5608.8C8085.276729674999,5608.8 8167.860000000001,5691.3841926000005 8167.860000000001,5793.255922275001C8167.860000000001,5895.12765195 8085.276729674999,5977.71 7983.405000000001,5977.71C7881.533270325001,5977.71 7798.95,5895.12765195 7798.95,5793.255922275001C7798.95,5691.3841926000005 7881.533270325001,5608.8 7983.405000000001,5608.8z" id="TABLEF" fill="#ffffff" stroke-width="10"/>
      <path d="M7983.400000000001,5708.8C7998.914,5708.8 8013.464,5712.9529999999995 8025.956,5720.27C8034.34,5725.1810000000005 8041.803,5731.494000000001 8048.031,5738.88C8051.7119999999995,5743.244 8054.962,5747.985 8057.709999999999,5753.0380000000005C8064.209,5764.99 8067.86,5778.696 8067.86,5793.25C8067.86,5808.763 8063.707,5823.312 8056.39,5835.802C8051.477999999999,5844.187 8045.164,5851.65 8037.777,5857.879000000001C8033.411999999999,5861.561000000001 8028.67,5864.811 8023.616,5867.559C8011.663,5874.058999999999 7997.955,5877.709999999999 7983.400000000001,5877.709999999999C7967.888000000001,5877.709999999999 7953.341,5873.557 7940.852,5866.241C7915.807,5851.5689999999995 7898.95,5824.3859999999995 7898.95,5793.25C7898.95,5777.736999999999 7903.102,5763.189 7910.418,5750.699C7915.329000000001,5742.316 7921.642000000001,5734.855 7929.027,5728.627C7933.3910000000005,5724.947 7938.1320000000005,5721.697 7943.1849999999995,5718.95C7955.137,5712.45 7968.845,5708.8 7983.400000000001,5708.8z" id="TABLEF" fill="#dfdfdf" stroke-width="10"/>
      <path d="M8433.405000000002,5608.8C8535.276729674999,5608.8 8617.860000000002,5691.3841926000005 8617.860000000002,5793.255922275001C8617.860000000002,5895.12765195 8535.276729674999,5977.71 8433.405000000002,5977.71C8331.533270325002,5977.71 8248.95,5895.12765195 8248.95,5793.255922275001C8248.95,5691.3841926000005 8331.533270325002,5608.8 8433.405000000002,5608.8z" id="TABLEG" fill="#ffffff" stroke-width="10"/>
      <path d="M8433.4,5708.8C8448.914,5708.8 8463.464,5712.9529999999995 8475.956,5720.27C8484.34,5725.1810000000005 8491.803,5731.494000000001 8498.030999999999,5738.88C8501.712,5743.244 8504.962,5747.985 8507.71,5753.0380000000005C8514.208999999999,5764.99 8517.859999999999,5778.696 8517.859999999999,5793.25C8517.859999999999,5808.763 8513.707,5823.312 8506.39,5835.802C8501.478,5844.187 8495.164,5851.65 8487.777,5857.879000000001C8483.412,5861.561000000001 8478.67,5864.811 8473.616,5867.559C8461.663,5874.058999999999 8447.955,5877.709999999999 8433.4,5877.709999999999C8417.888,5877.709999999999 8403.341,5873.557 8390.851999999999,5866.241C8365.807,5851.5689999999995 8348.95,5824.3859999999995 8348.95,5793.25C8348.95,5777.736999999999 8353.102,5763.189 8360.418,5750.699C8365.329,5742.316 8371.642,5734.855 8379.027,5728.627C8383.391,5724.947 8388.132000000001,5721.697 8393.185,5718.95C8405.136999999999,5712.45 8418.845,5708.8 8433.4,5708.8z" id="TABLEG" fill="#dfdfdf" stroke-width="10"/>
      <path d="M9575.95,4866.55C9615.134620749996,4866.55 9646.899999999998,4898.315734 9646.899999999998,4937.50035475C9646.899999999998,4976.6849755 9615.134620749996,5008.449999999999 9575.95,5008.449999999999C9536.76537925,5008.449999999999 9505,4976.6849755 9505,4937.50035475C9505,4898.315734 9536.76537925,4866.55 9575.95,4866.55z" id="TABLE" fill="#dfdfdf" stroke-width="13"/>
      <path d="M1054.9500000000007,6064.6C1094.1346207499955,6064.6 1125.8999999999978,6096.365734 1125.8999999999978,6135.55035475C1125.8999999999978,6174.7349755000005 1094.1346207499955,6206.499999999999 1054.9500000000007,6206.499999999999C1015.7653792500004,6206.499999999999 984,6174.7349755000005 984,6135.55035475C984,6096.365734 1015.7653792500004,6064.6 1054.9500000000007,6064.6z" id="TABLE" fill="#dfdfdf" stroke-width="13"/>
      <path d="M1054.9500000000007,5700.800000000001C1094.1346207499955,5700.800000000001 1125.8999999999978,5732.565734000001 1125.8999999999978,5771.75035475C1125.8999999999978,5810.934975500002 1094.1346207499955,5842.700000000001 1054.9500000000007,5842.700000000001C1015.7653792500004,5842.700000000001 984,5810.934975500002 984,5771.75035475C984,5732.565734000001 1015.7653792500004,5700.800000000001 1054.9500000000007,5700.800000000001z" id="TABLE" fill="#dfdfdf" stroke-width="13"/>
      <path d="M683.9500000000007,4864.6C723.1346207499955,4864.6 754.8999999999978,4896.365734 754.8999999999978,4935.55035475C754.8999999999978,4974.7349755000005 723.1346207499955,5006.499999999999 683.9500000000007,5006.499999999999C644.7653792500005,5006.499999999999 613,4974.7349755000005 613,4935.55035475C613,4896.365734 644.7653792500005,4864.6 683.9500000000007,4864.6z" id="TABLE" fill="#dfdfdf" stroke-width="13"/>
      <path d="M683.9500000000007,4500.800000000001C723.1346207499955,4500.800000000001 754.8999999999978,4532.565734000001 754.8999999999978,4571.750354749999C754.8999999999978,4610.934975500002 723.1346207499955,4642.7 683.9500000000007,4642.7C644.7653792500005,4642.7 613,4610.934975500002 613,4571.750354749999C613,4532.565734000001 644.7653792500005,4500.800000000001 683.9500000000007,4500.800000000001z" id="TABLE" fill="#dfdfdf" stroke-width="13"/>
      <path d="M9206.95,6064.65C9246.134620749996,6064.65 9277.899999999998,6096.415733999999 9277.899999999998,6135.6003547499995C9277.899999999998,6174.7849755 9246.134620749996,6206.549999999998 9206.95,6206.549999999998C9167.76537925,6206.549999999998 9136,6174.7849755 9136,6135.6003547499995C9136,6096.415733999999 9167.76537925,6064.65 9206.95,6064.65z" id="TABLE" fill="#dfdfdf" stroke-width="13"/>
      <path d="M9206.95,5700.699999999999C9246.134620749996,5700.699999999999 9277.899999999998,5732.4657339999985 9277.899999999998,5771.650354749998C9277.899999999998,5810.8349755 9246.134620749996,5842.5999999999985 9206.95,5842.5999999999985C9167.76537925,5842.5999999999985 9136,5810.8349755 9136,5771.650354749998C9136,5732.4657339999985 9167.76537925,5700.699999999999 9206.95,5700.699999999999z" id="TABLE" fill="#dfdfdf" stroke-width="13"/>
    </g>
    <path d="M9575.95,4502.3C9615.134620749996,4502.3 9646.899999999998,4534.065734 9646.899999999998,4573.250354749999C9646.899999999998,4612.4349755 9615.134620749996,4644.2 9575.95,4644.2C9536.76537925,4644.2 9505,4612.4349755 9505,4573.250354749999C9505,4534.065734 9536.76537925,4502.3 9575.95,4502.3z" id="TABLE" fill="#dfdfdf" stroke-width="13"/>
    <line x1="1364.05" x2="1785.0770183785326" y1="2850.0070724699876" y2="2429" id="RAIL" fill="none" stroke="#dfdfdf" stroke-width="26"/>
    <line x1="2177.25" x2="2272.271876685538" y1="2049.001930776992" y2="1954" id="RAIL" fill="none" stroke="#dfdfdf" stroke-width="26"/>
    <line x1="8186.45" x2="8272.977912343631" y1="2172.45" y2="2258.9779123436315" id="RAIL" fill="none" stroke="#dfdfdf" stroke-width="26"/>
    <line x1="8453.75" x2="8862.262418840353" y1="2428.7" y2="2837.2124188403536" id="RAIL" fill="none" stroke="#dfdfdf" stroke-width="26"/>
  </g>
</svg>