<svg width="1024px" height="768px" viewBox="0 0 10240 7680" x="0px" y="0px" xmlns="http://www.w3.org/2000/svg"><defs></defs><path d="M2869.37,55.366C2766.82,81.242,2666.07,111.627,2567.33,146.286C2495.82,171.388,2425.36,198.731,2356.05,228.226C2314.97,245.706,2274.29,263.941,2234.03,282.913C2138.41,327.974,2045.15,377.195,1954.46,430.325C1839.36,497.762,1728.44,571.574,1622.21,651.286C1551.38,704.428,1482.64,760.192,1416.12,818.436C1376.7,852.952,1338.07,888.338,1300.25,924.566C1210.42,1010.61,1125.18,1101.4,1044.93,1196.54C892.584,1377.17,758.221,1573.46,644.463,1782.57C510.439,2028.96,404.721,2293.09,332.062,2570.61C332.062,2570.61,328.717,2583.38,325.372,2596.16L325.372,2596.16C265.502,2588.39,205.632,2580.63,205.632,2580.63C135.51,2861.7,98.115,3155.73,98.0,3459.11C98.0,3459.11,98.01,4020.09,98.01,4020.09C98.01,4243.21,118.238,4461.6,156.893,4673.56C182.661,4814.85,216.617,4953.29,258.227,5088.37C282.885,5168.42,310.23,5247.29,340.152,5324.88C411.221,5509.17,496.823,5686.22,595.467,5854.65C665.207,5973.73,741.546,6088.47,823.991,6198.38C878.955,6271.65,936.632,6342.77,996.877,6411.59C1032.58,6452.37,1069.18,6492.34,1106.65,6531.47C1195.65,6624.4,1289.56,6712.6,1387.98,6795.62C1574.82,6953.22,1777.85,7092.21,1994.17,7209.89C2158.21,7299.13,2329.87,7376.24,2507.93,7439.9C2626.64,7482.34,2748.19,7518.81,2872.23,7548.9C2945.73,7566.74,3020.11,7582.34,3095.29,7595.63C3273.84,7627.18,3456.91,7645.67,3643.49,7650.0C3643.49,7650.0,6596.67,7649.99,6596.67,7649.99C6808.47,7645.1,7016.42,7621.86,7218.33,7581.86C7352.94,7555.19,7484.87,7521.08,7613.68,7480.0C7690.01,7455.65,7765.25,7428.85,7839.3,7399.7C8015.19,7330.46,8184.38,7247.96,8345.67,7153.49C8464.78,7083.74,8579.55,7007.38,8689.47,6924.92C8762.76,6869.95,8833.89,6812.26,8902.72,6752.0C8943.5,6716.29,8983.48,6679.68,9022.61,6642.2C9115.56,6553.18,9203.76,6459.25,9286.79,6360.81C9444.43,6173.9,9583.44,5970.79,9701.13,5754.41C9794.57,5582.58,9874.71,5402.41,9940.02,5215.28C9983.57,5090.53,10020.5,4962.69,10050.4,4832.17C10068.2,4754.82,10083.4,4676.54,10096.1,4597.39C10126.3,4409.41,10142.0,4216.6,10142.0,4020.1C10142.0,4020.1,10142.0,3458.47,10142.0,3458.47C10141.9,3155.71,10104.5,2861.68,10034.4,2580.61C10034.4,2580.61,9974.54,2588.37,9914.67,2596.14L9914.67,2596.14C9911.32,2583.36,9907.98,2570.59,9907.98,2570.59C9880.53,2465.73,9848.37,2362.78,9811.73,2261.99C9787.31,2194.79,9760.9,2128.54,9732.58,2063.32C9715.79,2024.67,9698.34,1986.38,9680.23,1948.46C9637.22,1858.41,9590.51,1770.46,9540.31,1684.83C9472.83,1569.72,9398.97,1458.79,9319.21,1352.55C9266.04,1281.72,9210.24,1212.97,9151.96,1146.45C9117.43,1107.03,9082.02,1068.4,9045.77,1030.57C8959.68,940.743,8868.84,855.502,8773.64,775.258C8592.93,622.929,8396.56,488.607,8187.35,374.898C7932.47,236.358,7658.59,128.11,7370.56,55.408C7370.56,55.408,7351.11,112.336,7331.66,169.263L7331.66,169.263C7318.38,166.065,7305.09,162.867,7305.09,162.867C7050.41,101.569,6784.54,69.0,6511.04,69.0C6511.04,69.0,3727.58,69.0,3727.58,69.0C3454.54,69.109,3189.11,101.648,2934.84,162.837C2934.84,162.837,2921.55,166.035,2908.27,169.232L2908.27,169.232C2895.3,131.277,2882.33,93.3213,2869.37,55.366Z" id="POCHE" fill="#f6f6f6" fill-opacity="1.0" stroke="#d4d4d4" stroke-opacity="1.0" stroke-width="3.0" /><path d="M6669.53,3585.95L6669.5,3888.23L7030.34,3888.15L7030.36,3585.99L6669.53,3585.95Z" id="MIX BASE" fill="#dfdfdf" fill-opacity="1.0" /><text text-align="left" id="MIX" fill="#727272" fill-opacity="1.0" font-family="averta,arial,'arial bold'" font-weight="bold" font-size="108.6" x="6758.27" y="3775.55"><tspan text-anchor="start" x="6758.27">MIX</tspan></text><path d="M2858.49,3034.7L2858.49,3034.7C2850.43,3035.91,2842.36,3037.12,2834.29,3038.34C2818.33,3041.22,2802.72,3045.02,2787.44,3049.7C2778.52,3052.77,2769.61,3055.85,2760.67,3058.93C2739.88,3066.92,2719.9,3076.57,2700.86,3087.7C2687.31,3095.64,2674.26,3104.33,2661.73,3113.74C2653.64,3120.3,2645.55,3126.87,2637.46,3133.44L2637.46,3133.44C2632.92,3137.61,2628.37,3141.78,2623.81,3145.96C2613.25,3156.08,2603.21,3166.76,2593.76,3177.97C2575.9,3199.17,2560.11,3222.23,2546.76,3246.77C2536.19,3266.18,2527.18,3286.53,2519.83,3307.68C2514.95,3321.76,2510.8,3336.19,2507.44,3350.95C2505.73,3359.8,2504.02,3368.65,2502.31,3377.52C2500.2,3390.75,2498.74,3404.21,2497.93,3417.89C2497.69,3426.15,2497.48,3747.19,2497.28,4068.22L2497.28,4068.22C2500.18,4085.24,2503.08,4102.26,2503.79,4106.48C2506.68,4122.45,2510.49,4138.07,2515.16,4153.35C2518.24,4162.26,2521.32,4171.18,2524.4,4180.11C2532.38,4200.9,2542.04,4220.88,2553.17,4239.92C2561.11,4253.47,2569.8,4266.53,2579.21,4279.04C2585.77,4287.13,2592.33,4295.23,2598.9,4303.32L2598.9,4303.32C2603.07,4307.86,2607.24,4312.41,2611.42,4316.97C2621.55,4327.54,2632.23,4337.57,2643.44,4347.02C2664.64,4364.88,2687.69,4380.67,2712.24,4394.02C2731.64,4404.59,2752.0,4413.6,2773.14,4420.94C2787.23,4425.83,2801.66,4429.98,2816.42,4433.34C2825.27,4435.05,2834.12,4436.76,2842.97,4438.46L2842.97,4438.46L2863.02,4441.15L4413.12,4443.8L4413.12,3873.82L3909.17,3873.74L3909.17,3601.93L4413.12,3601.85L4413.12,3031.8L2858.49,3034.7Z" id="SOUL" fill="#ffffff" fill-opacity="1.0" stroke="#dddddd" stroke-opacity="1.0" stroke-width="6.0" /><path d="M4414.2,4180.5L4414.2,4444.35L5825.35,4444.2L5825.35,4180.5L4414.2,4180.5Z" id="B" fill="#ffffff" fill-opacity="1.0" stroke="#dddddd" stroke-opacity="1.0" stroke-width="6.0" /><path d="M4414.35,3031.25L4414.2,3298.04L5825.35,3298.04L5825.25,3031.25L4414.35,3031.25Z" id="A" fill="#ffffff" fill-opacity="1.0" stroke="#dddddd" stroke-opacity="1.0" stroke-width="6.0" /><path d="M6619.45,3031.75C6617.28,3031.77,6221.84,3031.78,5826.4,3031.8L5826.4,3031.8L5826.4,3601.77L6326.11,3601.85L6326.11,3873.82L5826.4,3873.91L5826.4,4443.3L6664.54,4441.15L6684.59,4438.46C6697.87,4435.91,6711.14,4433.35,6711.14,4433.35C6725.88,4429.98,6740.33,4425.83,6754.41,4420.94C6775.56,4413.6,6795.92,4404.59,6815.31,4394.02C6839.86,4380.67,6862.91,4364.88,6884.12,4347.02C6895.33,4337.57,6906.01,4327.53,6916.12,4316.98C6916.12,4316.98,6922.38,4310.15,6928.65,4303.32L6928.65,4303.32C6938.5,4291.18,6948.34,4279.05,6948.34,4279.05C6957.75,4266.54,6966.44,4253.47,6974.38,4239.91C6985.53,4220.88,6995.18,4200.89,7003.17,4180.11C7003.17,4180.11,7012.38,4153.35,7012.38,4153.35C7017.06,4138.08,7020.87,4122.44,7023.76,4106.48C7023.76,4106.48,7027.02,4087.35,7030.29,4068.22L7030.29,4068.22L7030.37,3938.78L6619.5,3938.86L6619.52,3536.58L7030.37,3536.61C7030.0,3477.25,7029.62,3417.9,7029.62,3417.9C7028.81,3404.22,7027.35,3390.74,7025.24,3377.52C7025.24,3377.52,7020.12,3350.94,7020.12,3350.94C7016.76,3336.21,7012.61,3321.76,7007.71,3307.68C7000.37,3286.53,6991.36,3266.18,6980.8,3246.77C6967.45,3222.23,6951.66,3199.17,6933.79,3177.97C6924.34,3166.76,6914.3,3156.08,6903.76,3145.97C6903.76,3145.97,6896.92,3139.71,6890.09,3133.44L6890.09,3133.44C6877.96,3123.59,6865.83,3113.74,6865.83,3113.74C6853.31,3104.34,6840.24,3095.64,6826.69,3087.7C6807.66,3076.57,6787.66,3066.91,6766.89,3058.94C6766.89,3058.94,6740.12,3049.71,6740.12,3049.71C6724.85,3045.03,6709.21,3041.22,6693.24,3038.33L6693.24,3038.33C6669.31,3033.99,6644.63,3031.75,6619.45,3031.75Z" id="HEART" fill="#ffffff" fill-opacity="1.0" stroke="#dddddd" stroke-opacity="1.0" stroke-width="6.0" /><path d="M2246.6,2145.7C2235.71,2157.97,2224.98,2170.38,2214.4,2182.93C2128.42,2284.87,2052.59,2395.64,1988.39,2513.65C1904.69,2667.52,1840.59,2833.67,1799.7,3008.74C1799.7,3008.74,2260.89,3090.06,2260.89,3090.06C2262.55,3084.01,2264.25,3077.98,2265.98,3071.96C2275.84,3034.74,2287.07,2998.12,2299.61,2962.11C2326.79,2884.06,2360.18,2808.86,2399.18,2737.17C2411.81,2713.94,2425.04,2691.08,2438.83,2668.61C2438.83,2668.61,2440.5,2669.45,2440.5,2669.45C2486.73,2592.05,2538.91,2518.62,2596.4,2449.78L2596.4,2449.78C2596.4,2449.78,2421.5,2297.74,2246.6,2145.7Z" id="120" fill="#ffffff" fill-opacity="1.0" stroke="#dddddd" stroke-opacity="1.0" stroke-width="6.0" /><path d="M1799.79,3008.75C1766.0,3153.4,1748.06,3304.29,1748.0,3459.23C1748.0,3552.64,1748.0,3646.05,1748.01,3739.46L1748.01,3739.46L2215.61,3739.46C2215.6,3599.58,2215.6,3459.7,2215.6,3459.7C2215.63,3377.84,2222.17,3298.03,2234.62,3220.22C2239.89,3187.29,2246.23,3154.59,2253.61,3122.28C2256.07,3111.52,2258.65,3100.8,2261.33,3090.13L2261.33,3090.13C2261.33,3090.13,2030.56,3049.44,1799.79,3008.75Z" id="119" fill="#ffffff" fill-opacity="1.0" stroke="#dddddd" stroke-opacity="1.0" stroke-width="6.0" /><path d="M2215.61,3738.8L1748.0,3739.47C1748.0,3879.76,1748.01,4020.06,1748.01,4020.06C1748.01,4175.26,1765.93,4326.26,1799.76,4471.15C1799.76,4471.15,2261.33,4389.77,2261.33,4389.77C2253.15,4357.27,2246.03,4324.37,2239.98,4291.1C2224.01,4203.17,2215.61,4112.59,2215.61,4020.06L2215.61,4020.06C2215.61,4020.06,2215.61,3879.43,2215.61,3738.8Z" id="118" fill="#ffffff" fill-opacity="1.0" stroke="#dddddd" stroke-opacity="1.0" stroke-width="6.0" /><path d="M2261.28,4389.75C2030.49,4430.45,1799.7,4471.14,1799.7,4471.14C1845.45,4667.09,1920.29,4851.86,2019.19,5020.73C2084.76,5132.7,2161.02,5237.64,2246.6,5334.15C2246.6,5334.15,2588.06,5036.78,2588.06,5036.78C2494.63,4921.01,2416.01,4792.79,2355.07,4655.0C2341.18,4624.97,2328.25,4594.42,2316.3,4563.37C2303.83,4530.95,2292.44,4497.99,2282.16,4464.54L2282.16,4464.54C2274.58,4439.85,2267.61,4414.92,2261.28,4389.75Z" id="117" fill="#ffffff" fill-opacity="1.0" stroke="#dddddd" stroke-opacity="1.0" stroke-width="6.0" /><path d="M2983.44,4695.0C2615.04,5014.52,2246.65,5334.04,2246.65,5334.04C2310.12,5405.61,2378.71,5472.55,2451.86,5534.25C2553.81,5620.26,2664.61,5696.11,2782.65,5760.33C2843.18,5793.26,2905.61,5823.15,2969.74,5849.8C2969.74,5849.8,3379.47,4971.11,3379.47,4971.11C3326.99,4951.52,3276.67,4927.52,3228.94,4899.56C3138.95,4846.85,3058.21,4780.06,2989.73,4702.23L2989.73,4702.23C2987.62,4699.83,2985.52,4697.42,2983.44,4695.0Z" id="116" fill="#ffffff" fill-opacity="1.0" stroke="#dddddd" stroke-opacity="1.0" stroke-width="6.0" /><path d="M3379.84,4971.24C3174.98,5410.58,2969.75,5849.78,2969.75,5849.78C3203.37,5946.84,3459.5,6000.73,3728.51,6000.83C3728.51,6000.83,3746.77,6000.83,3765.04,6000.83L3765.04,6000.83L3764.95,5031.76C3742.0,5031.94,3719.04,5032.13,3719.04,5032.13C3663.14,5032.13,3608.33,5027.4,3555.0,5018.33C3532.55,5014.51,3510.36,5009.92,3488.46,5004.59L3488.46,5004.59C3451.5,4995.59,3415.01,4984.33,3379.84,4971.24Z" id="115" fill="#ffffff" fill-opacity="1.0" stroke="#dddddd" stroke-opacity="1.0" stroke-width="6.0" /><path d="M4413.85,4560.95C4102.05,4560.95,3854.64,4560.95,3765.0,4560.95C3765.0,4560.95,3765.0,5280.95,3765.0,6000.95L3765.0,6000.95L4413.85,6000.95C4413.85,5520.95,4413.85,5040.95,4413.85,4560.95Z" id="114" fill="#ffffff" fill-opacity="1.0" stroke="#dddddd" stroke-opacity="1.0" stroke-width="6.0" /><path d="M5119.45,4560.95C4874.05,4560.95,4628.67,4560.95,4413.85,4560.95C4413.85,4560.95,4413.85,5280.95,4413.85,6000.95L4413.85,6000.95L5119.45,6000.95C5119.45,5520.95,5119.45,5040.95,5119.45,4560.95Z" id="113" fill="#ffffff" fill-opacity="1.0" stroke="#dddddd" stroke-opacity="1.0" stroke-width="6.0" /><path d="M5826.0,4560.95C5610.92,4560.95,5365.2,4560.95,5119.5,4560.95C5119.5,4560.95,5119.5,5280.95,5119.5,6000.95L5119.5,6000.95L5826.0,6000.95C5826.0,5520.95,5826.0,5040.95,5826.0,4560.95Z" id="112" fill="#ffffff" fill-opacity="1.0" stroke="#dddddd" stroke-opacity="1.0" stroke-width="6.0" /><path d="M6475.0,4560.95C6385.59,4560.95,6138.05,4560.95,5826.0,4560.95C5826.0,4560.95,5826.0,5280.95,5826.0,6000.95L5826.0,6000.95L6475.0,6000.95C6475.0,5520.95,6475.0,5040.95,6475.0,4560.95Z" id="111" fill="#ffffff" fill-opacity="1.0" stroke="#dddddd" stroke-opacity="1.0" stroke-width="6.0" /><path d="M6693.73,4613.65C6635.97,4631.41,6574.62,4640.97,6511.03,4640.97C6511.03,4640.97,6493.01,4640.97,6475.0,4640.97L6475.0,4640.97L6475.0,6000.97C6493.01,6000.97,6511.03,6000.97,6511.03,6000.97C6780.04,6000.97,7036.42,5947.12,7270.24,5849.97L7270.24,5849.97C7270.24,5849.97,6981.99,5231.81,6693.73,4613.65Z" id="110" fill="#ffffff" fill-opacity="1.0" stroke="#dddddd" stroke-opacity="1.0" stroke-width="6.0" /><path d="M6925.71,4482.2C6894.63,4510.1,6860.72,4534.91,6824.46,4556.15C6783.62,4580.07,6739.8,4599.46,6693.7,4613.64C6693.7,4613.64,7270.2,5849.95,7270.2,5849.95C7353.76,5815.23,7434.43,5774.98,7511.77,5729.69C7692.58,5623.79,7855.1,5490.02,7993.3,5334.18C7993.3,5334.18,7276.26,4710.87,7276.26,4710.87C7253.76,4735.79,7230.05,4759.6,7205.23,4782.21L7205.23,4782.21C7205.23,4782.21,7065.47,4632.2,6925.71,4482.2Z" id="109" fill="#ffffff" fill-opacity="1.0" stroke="#dddddd" stroke-opacity="1.0" stroke-width="6.0" /><path d="M7299.47,4270.0C7297.14,4277.35,7294.71,4284.66,7292.19,4291.92C7277.35,4334.54,7259.13,4375.59,7237.84,4414.72C7215.02,4456.68,7188.68,4496.44,7159.2,4533.61C7159.2,4533.61,7246.57,4587.36,7333.87,4641.08C7322.71,4655.84,7311.24,4670.34,7299.32,4684.47C7291.8,4693.4,7284.12,4702.19,7276.3,4710.85C7276.3,4710.85,7827.29,5189.82,7827.29,5189.82C7837.45,5178.38,7847.47,5166.81,7857.34,5155.11C7933.82,5064.44,8001.26,4965.91,8058.35,4860.94C8130.82,4727.69,8186.74,4584.08,8223.16,4432.87L8223.16,4432.87C8223.16,4432.87,7761.32,4351.44,7299.47,4270.0Z" id="108" fill="#ffffff" fill-opacity="1.0" stroke="#dddddd" stroke-opacity="1.0" stroke-width="6.0" /><path d="M7337.98,3737.85L7337.98,3737.85C7337.98,3878.98,7337.98,4020.11,7337.98,4020.11C7337.98,4064.7,7334.43,4108.46,7327.62,4151.13C7324.74,4169.17,7321.28,4187.0,7317.25,4204.62C7312.19,4226.78,7306.25,4248.6,7299.45,4270.05C7299.45,4270.05,8223.15,4432.92,8223.15,4432.92C8255.04,4300.52,8271.98,4162.3,8271.98,4020.11C8271.98,4020.11,8271.98,3879.64,8271.98,3739.18L8271.98,3739.18L7337.98,3737.85Z" id="107" fill="#ffffff" fill-opacity="1.0" stroke="#dddddd" stroke-opacity="1.0" stroke-width="6.0" /><path d="M8223.12,3047.0C7761.26,3128.44,7299.4,3209.88,7299.4,3209.88C7300.11,3212.12,7300.81,3214.37,7301.51,3216.63C7310.97,3247.41,7318.7,3278.96,7324.56,3311.16C7333.31,3359.28,7337.91,3408.87,7337.93,3459.52C7337.93,3459.52,7337.93,3599.49,7337.93,3739.45L7337.93,3739.45L8271.93,3739.45C8271.93,3646.04,8271.93,3552.63,8271.93,3459.28L8271.93,3459.28C8271.88,3317.32,8254.95,3179.2,8223.12,3047.0Z" id="106" fill="#ffffff" fill-opacity="1.0" stroke="#dddddd" stroke-opacity="1.0" stroke-width="6.0" /><path d="M7827.28,2290.1C7551.78,2529.58,7276.29,2769.07,7276.29,2769.07C7296.49,2791.45,7315.73,2814.72,7333.93,2838.82C7333.93,2838.82,7159.2,2946.34,7159.2,2946.34C7163.73,2952.06,7168.19,2957.84,7172.57,2963.67C7191.42,2988.76,7208.86,3014.96,7224.8,3042.15C7247.28,3080.49,7266.75,3120.8,7282.92,3162.76C7288.89,3178.25,7294.4,3193.97,7299.45,3209.9C7299.45,3209.9,8223.18,3047.02,8223.18,3047.02C8182.24,2877.03,8116.65,2716.65,8030.57,2569.8L8030.57,2569.8C7971.98,2469.84,7903.8,2376.18,7827.28,2290.1Z" id="105" fill="#ffffff" fill-opacity="1.0" stroke="#dddddd" stroke-opacity="1.0" stroke-width="6.0" /><path d="M7270.24,1630.0C6982.0,2248.14,6693.75,2866.29,6693.75,2866.29C6733.42,2878.48,6771.39,2894.54,6807.23,2914.03C6844.28,2934.17,6879.06,2957.97,6911.06,2984.94C6916.02,2989.12,6920.91,2993.37,6925.73,2997.7C6925.73,2997.7,7205.24,2697.69,7205.24,2697.69C7230.07,2720.31,7253.78,2744.13,7276.29,2769.05C7276.29,2769.05,7993.33,2145.74,7993.33,2145.74C7929.7,2073.99,7860.93,2006.9,7787.57,1945.07C7685.59,1859.11,7574.77,1783.3,7456.7,1719.13L7456.7,1719.13C7396.37,1686.33,7334.15,1656.55,7270.24,1630.0Z" id="104" fill="#ffffff" fill-opacity="1.0" stroke="#dddddd" stroke-opacity="1.0" stroke-width="6.0" /><path d="M6475.0,1479.0L6475.0,2839.0C6493.02,2839.0,6511.04,2839.0,6511.04,2839.0C6574.63,2839.0,6635.99,2848.57,6693.75,2866.33C6693.75,2866.33,7270.24,1630.04,7270.24,1630.04C7036.42,1532.9,6780.05,1479.0,6511.04,1479.0L6511.04,1479.0C6511.04,1479.0,6493.02,1479.0,6475.0,1479.0Z" id="103" fill="#ffffff" fill-opacity="1.0" stroke="#dddddd" stroke-opacity="1.0" stroke-width="6.0" /><path d="M5826.0,1479.0L5826.0,2919.0L6475.0,2919.0L6475.0,1479.0L5826.0,1479.0Z" id="102" fill="#ffffff" fill-opacity="1.0" stroke="#dddddd" stroke-opacity="1.0" stroke-width="6.0" /><path d="M5119.5,1479.0L5119.5,2919.0L5826.0,2919.0L5826.0,1479.0L5119.5,1479.0Z" id="101" fill="#ffffff" fill-opacity="1.0" stroke="#dddddd" stroke-opacity="1.0" stroke-width="6.0" /><path d="M3764.97,1479.0L3764.95,2918.98L4914.43,2918.98L4413.83,2918.98L4413.97,1479.0L3764.97,1479.0Z" id="123" fill="#ffffff" fill-opacity="1.0" stroke="#dddddd" stroke-opacity="1.0" stroke-width="6.0" /><path d="M3728.11,1479.0C3459.39,1479.11,3203.28,1532.95,2969.7,1630.01C2969.7,1630.01,3380.14,2510.21,3380.14,2510.21C3397.04,2504.01,3414.17,2498.23,3431.5,2492.9C3469.19,2481.32,3507.81,2471.87,3547.22,2464.7C3556.7,2462.97,3566.23,2461.38,3575.8,2459.92C3625.42,2452.06,3676.28,2447.95,3728.1,2447.9C3728.1,2447.9,3746.52,2447.9,3764.95,2447.9L3764.95,2447.9L3764.95,1479.0C3752.67,1479.0,3740.39,1479.0,3728.11,1479.0Z" id="122" fill="#ffffff" fill-opacity="1.0" stroke="#dddddd" stroke-opacity="1.0" stroke-width="6.0" /><path d="M2969.71,1630.0C2886.06,1664.76,2805.29,1705.06,2727.88,1750.42C2547.19,1856.28,2384.78,1989.99,2246.65,2145.73C2246.65,2145.73,2987.06,2792.5,2987.06,2792.5C2998.72,2778.7,3010.76,2765.23,3023.16,2752.11C3048.45,2725.35,3075.24,2700.03,3103.41,2676.27C3153.48,2634.06,3207.88,2596.81,3265.85,2565.28C3300.05,2546.68,3335.49,2530.08,3372.02,2515.63C3374.44,2513.57,3377.22,2511.93,3380.41,2510.76L3380.41,2510.76C3380.41,2510.76,3175.06,2070.38,2969.71,1630.0Z" id="121" fill="#ffffff" fill-opacity="1.0" stroke="#dddddd" stroke-opacity="1.0" stroke-width="6.0" /><path d="M4414.0,1479.0L4414.03,2918.98L5325.33,2918.98L5119.53,2918.98L5119.5,1479.0L4414.0,1479.0Z" id="124" fill="#ffffff" fill-opacity="1.0" stroke="#dddddd" stroke-opacity="1.0" stroke-width="6.0" /><path d="M7424.85,2848.65L7947.85,2526.65" id="line_rail 100" fill="none" stroke="#dfdfdf" stroke-opacity="1.0" stroke-width="12.0" /><path d="M8272.0,3739.19L8272.0,3739.19C8272.0,3879.65,8272.0,4020.11,8272.0,4020.11C8272.0,4162.3,8255.06,4300.53,8223.17,4432.93C8223.17,4432.93,8440.22,4471.2,8440.22,4471.2C8474.06,4326.31,8492.0,4175.31,8492.0,4020.11C8492.0,4020.11,8492.0,3879.8,8492.0,3739.5L8492.0,3739.5L8272.0,3739.19Z" id="107" fill="#dfdfdf" fill-opacity="1.0" stroke="#dfdfdf" stroke-opacity="1.0" stroke-width="6.0" /><path d="M8440.24,3008.78C8331.71,3027.91,8223.19,3047.05,8223.19,3047.05C8255.02,3179.24,8271.95,3317.25,8272.0,3459.21C8272.0,3459.21,8272.0,3599.35,8272.0,3739.5L8272.0,3739.5L8492.0,3739.5C8492.0,3599.45,8492.0,3459.4,8492.0,3459.4L8492.0,3459.4C8491.94,3304.18,8474.01,3153.43,8440.24,3008.78Z" id="106" fill="#dfdfdf" fill-opacity="1.0" stroke="#dfdfdf" stroke-opacity="1.0" stroke-width="6.0" /><path d="M7993.33,2145.78C7910.31,2217.95,7827.28,2290.12,7827.28,2290.12C7903.81,2376.2,7971.98,2469.86,8030.58,2569.82C8116.66,2716.67,8182.25,2877.06,8223.19,3047.05C8223.19,3047.05,8440.24,3008.78,8440.24,3008.78C8394.42,2812.59,8319.46,2627.6,8220.37,2458.56L8220.37,2458.56C8154.88,2346.84,8078.74,2242.11,7993.33,2145.78Z" id="105" fill="#dfdfdf" fill-opacity="1.0" stroke="#dfdfdf" stroke-opacity="1.0" stroke-width="6.0" /><path d="M8223.17,4432.93C8186.75,4584.13,8130.82,4727.74,8058.36,4860.99C8001.27,4965.96,7933.82,5064.5,7857.35,5155.17C7847.48,5166.87,7837.46,5178.44,7827.29,5189.87C7827.29,5189.87,7993.34,5334.21,7993.34,5334.21C8004.22,5321.95,8014.94,5309.54,8025.52,5297.01C8111.54,5195.01,8187.41,5084.18,8251.62,4966.1C8335.28,4812.29,8399.34,4646.2,8440.22,4471.2L8440.22,4471.2C8440.22,4471.2,8331.69,4452.06,8223.17,4432.93Z" id="108" fill="#dfdfdf" fill-opacity="1.0" stroke="#dfdfdf" stroke-opacity="1.0" stroke-width="6.0" /><path d="M6511.04,1479.0C6853.57,1479.0,7175.62,1566.39,7456.7,1719.17C7574.77,1783.34,7685.59,1859.15,7787.58,1945.12C7959.4,2089.95,8106.1,2263.62,8220.37,2458.56C8392.52,2752.24,8491.86,3094.05,8492.0,3459.12C8492.0,3459.12,8492.0,4020.11,8492.0,4020.11C8492.0,4362.77,8404.54,4684.94,8251.62,4966.1C8187.41,5084.18,8111.54,5195.01,8025.52,5297.01C7880.6,5468.82,7706.85,5615.49,7511.81,5729.72C7218.05,5901.76,6876.17,6000.99,6511.03,6000.99C6511.03,6000.99,3728.52,6001.0,3728.52,6001.0C3385.73,6000.88,3063.7,5913.38,2782.67,5760.49C2664.63,5696.27,2553.83,5620.42,2451.87,5534.41C2280.1,5389.51,2133.47,5215.78,2019.26,5020.78C1847.22,4727.04,1748.01,4385.19,1748.01,4020.09C1748.01,4020.09,1748.0,3459.42,1748.0,3459.42C1748.13,3116.67,1835.62,2794.7,1988.48,2513.7C2052.68,2395.69,2128.51,2284.92,2214.49,2182.98C2359.33,2011.25,2532.99,1864.64,2727.92,1750.43C3021.52,1578.41,3363.21,1479.15,3728.16,1479.0L3728.16,1479.0C3728.16,1479.0,5119.6,1479.0,6511.04,1479.0ZM3728.03,1179.0C3307.79,1179.17,2914.34,1293.51,2576.26,1491.59C2351.84,1623.07,2151.92,1791.85,1985.17,1989.56C1886.17,2106.93,1798.86,2234.47,1724.95,2370.35C1548.93,2693.92,1448.15,3064.66,1448.0,3459.0C1448.0,3459.0,1448.01,4020.09,1448.01,4020.09C1448.01,4440.51,1562.29,4834.15,1760.39,5172.4C1891.87,5396.89,2060.68,5596.9,2258.44,5763.72C2375.83,5862.75,2503.4,5950.08,2639.3,6024.01C2962.92,6200.07,3333.73,6300.86,3728.16,6301.0C3728.16,6301.0,6511.03,6300.99,6511.03,6300.99C6931.49,6300.99,7325.16,6186.7,7663.42,5988.59C7887.97,5857.08,8088.01,5688.23,8254.84,5490.43C8353.89,5373.0,8441.23,5245.38,8515.17,5109.43C8691.25,4785.67,8792.0,4414.7,8792.0,4020.11C8792.0,4020.11,8792.0,3459.34,8792.0,3459.34C8791.84,3038.61,8677.42,2645.03,8479.18,2306.85C8347.62,2082.42,8178.74,1882.47,7980.92,1715.73C7863.5,1616.76,7735.9,1529.47,7599.97,1455.59C7276.31,1279.66,6905.47,1179.0,6511.04,1179.0L6511.04,1179.0C6511.04,1179.0,5119.54,1179.0,3728.03,1179.0Z" id="suite inactive" fill="#dfdfdf" fill-opacity="1.0" stroke="#dfdfdf" stroke-opacity="1.0" stroke-width="6.0" /><path d="M6511.04,1179.0C6905.47,1179.0,7276.31,1279.66,7599.97,1455.59C7735.9,1529.47,7863.5,1616.76,7980.92,1715.73C8178.74,1882.47,8347.62,2082.42,8479.18,2306.85C8677.42,2645.03,8791.84,3038.61,8792.0,3459.0C8792.0,3459.0,8792.0,4020.11,8792.0,4020.11C8792.0,4414.7,8691.25,4785.67,8515.17,5109.43C8441.23,5245.38,8353.89,5373.0,8254.84,5490.43C8088.01,5688.23,7887.97,5857.08,7663.42,5988.59C7325.16,6186.7,6931.49,6300.99,6511.03,6300.99C6511.03,6300.99,3728.47,6301.0,3728.47,6301.0C3333.73,6300.86,2962.92,6200.07,2639.3,6024.01C2503.4,5950.08,2375.83,5862.75,2258.44,5763.72C2060.68,5596.9,1891.87,5396.89,1760.39,5172.4C1562.29,4834.15,1448.01,4440.51,1448.01,4020.09C1448.01,4020.09,1448.0,3459.36,1448.0,3459.36C1448.15,3064.66,1548.93,2693.92,1724.95,2370.35C1798.86,2234.47,1886.17,2106.93,1985.17,1989.56C2151.92,1791.85,2351.84,1623.07,2576.26,1491.59C2914.34,1293.51,3307.79,1179.17,3728.03,1179.0L3728.03,1179.0C3728.03,1179.0,5119.54,1179.0,6511.04,1179.0ZM3727.64,189.0C3416.64,189.125,3115.88,232.871,2830.99,314.216C2830.99,314.216,2792.14,200.503,2792.14,200.503C2517.27,279.53,2256.7,392.331,2015.13,533.864C1681.62,729.268,1384.49,980.091,1136.67,1273.91C989.521,1448.37,859.752,1637.96,749.885,1839.92C599.966,2115.51,486.723,2414.11,417.29,2729.14C417.29,2729.14,297.83,2713.65,297.83,2713.65C245.688,2953.69,218.1,3202.88,218.0,3458.52C218.0,3458.52,218.013,4020.09,218.013,4020.09C218.013,4667.33,394.054,5273.29,699.023,5794.01C901.334,6139.44,1161.07,6447.21,1465.36,6703.9C1646.03,6856.29,1842.35,6990.69,2051.51,7104.48C2549.7,7375.5,3120.51,7530.79,3727.73,7531.0C3727.73,7531.0,6511.03,7530.99,6511.03,7530.99C7158.31,7530.99,7764.31,7354.93,8285.03,7049.95C8630.54,6847.6,8938.36,6587.8,9195.06,6283.45C9347.5,6102.72,9481.92,5906.32,9595.71,5697.08C9866.78,5198.66,10022.0,4627.58,10022.0,4020.11C10022.0,4020.11,10022.0,3459.1,10022.0,3459.1C10021.9,3202.88,9994.34,2953.67,9942.21,2713.62C9942.21,2713.62,9822.75,2729.12,9822.75,2729.12C9745.34,2377.76,9613.42,2046.85,9436.79,1745.52C9241.27,1411.97,8990.3,1114.82,8696.31,867.014C8521.77,719.894,8332.11,590.16,8130.05,480.338C7915.53,363.739,7687.08,269.353,7447.79,200.547C7447.79,200.547,7408.95,314.257,7408.95,314.257C7123.67,232.79,6822.49,189.0,6511.04,189.0L6511.04,189.0C6511.04,189.0,5119.34,189.0,3727.64,189.0Z" id="300 drop" fill="#dfdfdf" fill-opacity="1.0" stroke="#dfdfdf" stroke-opacity="1.0" stroke-width="6.0" /><path d="M7424.85,4631.35L7947.85,4953.35" id="line_rail 100" fill="none" stroke="#dfdfdf" stroke-opacity="1.0" stroke-width="12.0" /><path d="M4720.2,189.0L4720.2,969.0L4858.05,969.0L4858.05,1179.0L5381.95,1179.0L5381.95,969.0L5514.8,969.0L5514.8,189.0L4720.2,189.0Z" id="332" fill="#ffffff" fill-opacity="1.0" stroke="#dddddd" stroke-opacity="1.0" stroke-width="6.0" /><path d="M3935.2,189.0L3935.2,969.0L3815.55,969.0L3815.55,1179.0L4858.05,1179.0L4858.05,969.0L4720.2,969.0L4720.2,189.0L3935.2,189.0Z" id="331" fill="#ffffff" fill-opacity="1.0" stroke="#dddddd" stroke-opacity="1.0" stroke-width="6.0" /><path d="M3727.63,189.0C3509.47,189.088,3296.34,210.641,3090.2,251.581C3090.2,251.581,3256.33,1013.94,3256.33,1013.94C3292.83,1006.91,3329.6,1000.67,3366.64,995.256C3383.98,1098.85,3401.33,1202.44,3401.33,1202.44C3508.01,1187.05,3617.08,1179.04,3728.03,1179.0C3728.03,1179.0,3771.78,1179.0,3815.54,1179.0L3815.54,1179.0L3815.54,969.0L3935.19,969.0L3935.19,189.0C3866.0,189.0,3796.82,189.0,3727.63,189.0Z" id="330" fill="#ffffff" fill-opacity="1.0" stroke="#dddddd" stroke-opacity="1.0" stroke-width="6.0" /><path d="M2792.1,200.5C2585.49,259.902,2386.95,338.387,2198.5,433.813C2198.5,433.813,2605.52,1236.53,2605.52,1236.53C2568.43,1255.3,2531.87,1274.96,2495.86,1295.48C2495.86,1295.48,2590.8,1483.11,2590.8,1483.11C2835.93,1341.9,3109.68,1244.53,3401.31,1202.44C3401.31,1202.44,3383.96,1098.85,3366.62,995.25C3329.58,1000.67,3292.8,1006.91,3256.31,1013.94C3256.31,1013.94,3090.18,251.574,3090.18,251.574C3002.45,268.996,2915.99,289.929,2830.94,314.213L2830.94,314.213C2830.94,314.213,2811.52,257.356,2792.1,200.5Z" id="329" fill="#ffffff" fill-opacity="1.0" stroke="#dddddd" stroke-opacity="1.0" stroke-width="6.0" /><path d="M2198.51,433.8C2136.25,465.325,2075.1,498.699,2015.11,533.844C1778.53,672.457,1560.25,838.957,1364.9,1028.91C1364.9,1028.91,1996.04,1670.54,1996.04,1670.54C2028.43,1639.17,2061.68,1608.68,2095.74,1579.1C2095.74,1579.1,2241.64,1730.56,2241.64,1730.56C2345.45,1641.27,2457.41,1561.19,2576.24,1491.57C2581.09,1488.73,2585.94,1485.91,2590.81,1483.1C2590.81,1483.1,2495.87,1295.47,2495.87,1295.47C2531.88,1274.95,2568.44,1255.29,2605.53,1236.52L2605.53,1236.52C2605.53,1236.52,2402.02,835.16,2198.51,433.8Z" id="328" fill="#ffffff" fill-opacity="1.0" stroke="#dddddd" stroke-opacity="1.0" stroke-width="6.0" /><path d="M1364.92,1028.9C1284.88,1106.72,1208.69,1188.49,1136.67,1273.88C990.841,1446.78,862.084,1634.52,752.85,1834.45C752.85,1834.45,1556.61,2240.78,1556.61,2240.78C1551.17,2250.47,1519.93,2308.32,1510.03,2327.72C1510.03,2327.72,1699.57,2418.31,1699.57,2418.31C1707.84,2402.2,1716.31,2386.2,1724.95,2370.32C1798.86,2234.44,1886.17,2106.9,1985.16,1989.53C2063.62,1896.51,2149.42,1809.9,2241.66,1730.55C2241.66,1730.55,2095.75,1579.09,2095.75,1579.09C2061.7,1608.67,2028.45,1639.16,1996.06,1670.53L1996.06,1670.53C1996.06,1670.53,1680.49,1349.71,1364.92,1028.9Z" id="327" fill="#ffffff" fill-opacity="1.0" stroke="#dddddd" stroke-opacity="1.0" stroke-width="6.0" /><path d="M752.813,1834.45C751.823,1836.26,750.834,1838.08,749.846,1839.89C599.927,2115.49,486.683,2414.09,417.25,2729.12C417.25,2729.12,1314.59,2845.52,1314.59,2845.52C1321.36,2818.92,1328.55,2792.49,1336.17,2766.24C1336.17,2766.24,1547.43,2792.65,1547.43,2792.65C1587.25,2662.56,1638.35,2537.41,1699.53,2418.31C1699.53,2418.31,1509.99,2327.72,1509.99,2327.72C1519.9,2308.32,1551.13,2250.47,1556.57,2240.78L1556.57,2240.78C1556.57,2240.78,1154.69,2037.61,752.813,1834.45Z" id="326" fill="#ffffff" fill-opacity="1.0" stroke="#dddddd" stroke-opacity="1.0" stroke-width="6.0" /><path d="M297.828,2713.65C245.688,2953.69,218.1,3203.19,218.0,3458.83C218.0,3464.5,218.0,3470.17,218.0,3475.85L218.0,3475.85L1238.0,3475.85L1238.01,3739.5L1448.01,3739.5C1448.0,3646.03,1448.0,3552.56,1448.0,3459.18C1448.09,3227.32,1482.97,3003.43,1547.47,2792.67C1547.47,2792.67,1336.2,2766.26,1336.2,2766.26C1328.59,2792.51,1321.4,2818.94,1314.63,2845.54L1314.63,2845.54C1314.63,2845.54,806.229,2779.6,297.828,2713.65Z" id="325" fill="#ffffff" fill-opacity="1.0" stroke="#dddddd" stroke-opacity="1.0" stroke-width="6.0" /><path d="M218.0,3475.85L218.012,4004.15L1238.01,4004.15L1238.0,3475.85L218.0,3475.85Z" id="324" fill="#ffffff" fill-opacity="1.0" stroke="#dddddd" stroke-opacity="1.0" stroke-width="6.0" /><path d="M1237.99,3739.5L1238.0,4004.15L218.0,4004.15C218.0,4012.12,218.0,4020.09,218.0,4020.09C218.0,4276.2,245.564,4525.85,297.773,4766.31C297.773,4766.31,1314.58,4634.41,1314.58,4634.41C1321.35,4661.03,1328.55,4687.47,1336.16,4713.74C1336.16,4713.74,1547.44,4687.33,1547.44,4687.33C1482.86,4476.3,1448.0,4252.28,1448.0,4020.09C1448.0,4020.09,1448.0,3879.8,1447.99,3739.5L1447.99,3739.5L1237.99,3739.5Z" id="323" fill="#ffffff" fill-opacity="1.0" stroke="#dddddd" stroke-opacity="1.0" stroke-width="6.0" /><path d="M1314.55,4634.4C865.875,4692.6,417.2,4750.8,417.2,4750.8C487.063,5067.92,601.33,5368.4,752.802,5645.5C752.802,5645.5,1556.57,5239.17,1556.57,5239.17C1540.49,5210.54,1524.95,5181.56,1509.97,5152.24C1509.97,5152.24,1699.52,5061.65,1699.52,5061.65C1638.32,4942.56,1587.21,4817.4,1547.4,4687.32C1547.4,4687.32,1336.13,4713.73,1336.13,4713.73L1336.13,4713.73C1328.51,4687.46,1321.32,4661.02,1314.55,4634.4Z" id="322" fill="#ffffff" fill-opacity="1.0" stroke="#dddddd" stroke-opacity="1.0" stroke-width="6.0" /><path d="M1699.52,5061.65C1604.75,5106.95,1509.97,5152.24,1509.97,5152.24C1524.95,5181.56,1540.49,5210.54,1556.57,5239.17C1556.57,5239.17,752.8,5645.5,752.8,5645.5C768.954,5675.05,785.532,5704.34,802.524,5733.35C957.253,5997.54,1146.76,6238.92,1364.87,6451.06C1364.87,6451.06,1996.02,5809.43,1996.02,5809.43C2028.4,5840.8,2061.65,5871.29,2095.7,5900.87C2095.7,5900.87,2241.61,5749.41,2241.61,5749.41C2051.07,5585.51,1888.09,5390.5,1760.34,5172.39L1760.34,5172.39C1739.09,5136.1,1718.8,5099.18,1699.52,5061.65Z" id="321" fill="#ffffff" fill-opacity="1.0" stroke="#dddddd" stroke-opacity="1.0" stroke-width="6.0" /><path d="M2241.63,5749.4C2168.68,5825.13,2095.73,5900.86,2095.73,5900.86C2061.67,5871.28,2028.43,5840.79,1996.04,5809.42C1996.04,5809.42,1280.75,6536.6,1280.75,6536.6C1340.26,6594.5,1401.83,6650.3,1465.34,6703.87C1646.01,6856.27,1842.33,6990.67,2051.49,7104.46C2082.14,7121.13,2113.06,7137.36,2144.25,7153.15C2144.25,7153.15,2605.53,6243.41,2605.53,6243.41C2583.14,6232.08,2510.13,6192.61,2495.86,6184.47C2495.86,6184.47,2590.8,5996.84,2590.8,5996.84C2472.95,5928.96,2361.75,5850.86,2258.42,5763.7L2258.42,5763.7C2252.8,5758.96,2247.21,5754.19,2241.63,5749.4Z" id="320" fill="#ffffff" fill-opacity="1.0" stroke="#dddddd" stroke-opacity="1.0" stroke-width="6.0" /><path d="M2590.8,5996.85C2543.33,6090.67,2495.86,6184.48,2495.86,6184.48C2510.13,6192.61,2583.14,6232.09,2605.54,6243.42C2605.54,6243.42,2144.25,7153.16,2144.25,7153.16C2423.23,7294.37,2723.52,7399.81,3039.1,7462.92C3039.1,7462.92,3256.35,6466.02,3256.35,6466.02C3292.83,6473.05,3329.59,6479.28,3366.62,6484.7C3366.62,6484.7,3401.38,6277.53,3401.38,6277.53C3128.81,6238.18,2871.86,6150.52,2639.29,6024.0L2639.29,6024.0C2623.0,6015.14,2606.84,6006.09,2590.8,5996.85Z" id="319" fill="#ffffff" fill-opacity="1.0" stroke="#dddddd" stroke-opacity="1.0" stroke-width="6.0" /><path d="M3401.38,6277.5C3384.0,6381.08,3366.62,6484.67,3366.62,6484.67C3329.59,6479.25,3292.83,6473.02,3256.35,6465.98C3256.35,6465.98,3039.1,7462.89,3039.1,7462.89C3261.74,7507.41,3492.24,7530.87,3727.97,7530.95C3796.21,7530.95,3864.45,7530.95,3932.68,7530.95L3932.68,7530.95L3932.68,6510.95L3815.53,6510.95L3815.53,6300.95C3786.43,6300.95,3757.32,6300.95,3728.3,6300.95L3728.3,6300.95C3617.33,6300.91,3508.08,6292.91,3401.38,6277.5Z" id="318" fill="#ffffff" fill-opacity="1.0" stroke="#dddddd" stroke-opacity="1.0" stroke-width="6.0" /><path d="M4858.05,6300.95L3815.55,6300.95L3815.55,6510.95L3932.7,6510.95L3932.7,7530.95L4720.2,7530.95L4720.2,6510.95L4858.05,6510.95L4858.05,6300.95Z" id="317" fill="#ffffff" fill-opacity="1.0" stroke="#dddddd" stroke-opacity="1.0" stroke-width="6.0" /><path d="M5381.95,6300.95L4858.05,6300.95L4858.05,6510.95L4720.2,6510.95L4720.2,7530.95L5514.8,7530.95L5514.8,6510.95L5381.95,6510.95L5381.95,6300.95Z" id="316" fill="#ffffff" fill-opacity="1.0" stroke="#dddddd" stroke-opacity="1.0" stroke-width="6.0" /><path d="M6421.95,6300.95L5381.95,6300.95L5381.95,6510.95L5514.8,6510.95L5514.8,7530.95L6304.75,7530.95L6304.75,6510.95L6421.95,6510.95L6421.95,6300.95Z" id="315" fill="#ffffff" fill-opacity="1.0" stroke="#dddddd" stroke-opacity="1.0" stroke-width="6.0" /><path d="M6838.55,6277.55C6731.6,6292.98,6622.25,6300.98,6511.03,6300.98C6511.03,6300.98,6466.49,6300.98,6421.95,6300.98L6421.95,6300.98L6421.95,6510.98L6304.75,6510.98L6304.75,7530.98C6407.89,7530.98,6511.03,7530.98,6511.03,7530.98C6747.16,7530.98,6977.81,7507.55,7200.82,7462.97C7200.82,7462.97,6983.57,6466.05,6983.57,6466.05C6947.09,6473.08,6910.34,6479.31,6873.31,6484.72L6873.31,6484.72C6873.31,6484.72,6855.93,6381.13,6838.55,6277.55Z" id="314" fill="#ffffff" fill-opacity="1.0" stroke="#dddddd" stroke-opacity="1.0" stroke-width="6.0" /><path d="M7649.18,5996.85C7404.02,6138.08,7130.23,6235.46,6838.55,6277.55C6838.55,6277.55,6873.31,6484.72,6873.31,6484.72C6910.34,6479.31,6947.09,6473.08,6983.57,6466.05C6983.57,6466.05,7200.82,7462.97,7200.82,7462.97C7516.42,7399.89,7816.75,7294.47,8095.74,7153.19C8095.74,7153.19,7634.45,6243.44,7634.45,6243.44C7671.55,6224.67,7708.11,6205.01,7744.12,6184.48L7744.12,6184.48C7744.12,6184.48,7696.65,6090.67,7649.18,5996.85Z" id="313" fill="#ffffff" fill-opacity="1.0" stroke="#dddddd" stroke-opacity="1.0" stroke-width="6.0" /><path d="M7998.29,5749.4C7894.39,5838.77,7782.32,5918.91,7663.37,5988.58C7658.63,5991.35,7653.89,5994.11,7649.13,5996.85C7649.13,5996.85,7744.07,6184.48,7744.07,6184.48C7708.06,6205.0,7671.5,6224.67,7634.4,6243.44C7634.4,6243.44,8095.69,7153.18,8095.69,7153.18C8159.94,7120.65,8223.07,7086.21,8284.98,7049.94C8530.31,6906.26,8756.64,6733.62,8959.15,6536.63C8959.15,6536.63,8243.86,5809.45,8243.86,5809.45C8211.48,5840.81,8178.24,5871.29,8144.19,5900.86L8144.19,5900.86C8144.19,5900.86,8071.24,5825.13,7998.29,5749.4Z" id="312" fill="#ffffff" fill-opacity="1.0" stroke="#dddddd" stroke-opacity="1.0" stroke-width="6.0" /><path d="M8540.38,5061.65C8532.15,5077.68,8523.73,5093.6,8515.13,5109.4C8441.2,5245.36,8353.85,5372.97,8254.8,5490.4C8176.34,5583.42,8090.54,5670.04,7998.3,5749.38C7998.3,5749.38,8144.2,5900.84,8144.2,5900.84C8178.25,5871.27,8211.49,5840.79,8243.87,5809.43C8243.87,5809.43,8875.01,6451.06,8875.01,6451.06C8955.06,6373.23,9031.26,6291.46,9103.3,6206.05C9249.12,6033.16,9377.87,5845.43,9487.1,5645.5C9487.1,5645.5,8683.35,5239.18,8683.35,5239.18C8688.83,5229.4,8720.06,5171.55,8729.92,5152.24L8729.92,5152.24C8729.92,5152.24,8635.15,5106.95,8540.38,5061.65Z" id="311" fill="#ffffff" fill-opacity="1.0" stroke="#dddddd" stroke-opacity="1.0" stroke-width="6.0" /><path d="M8925.36,4634.4C8918.59,4661.01,8911.4,4687.45,8903.78,4713.72C8903.78,4713.72,8692.51,4687.31,8692.51,4687.31C8652.69,4817.4,8601.58,4942.56,8540.4,5061.66C8540.4,5061.66,8729.94,5152.25,8729.94,5152.25C8720.08,5171.56,8688.85,5229.41,8683.36,5239.19C8683.36,5239.19,9487.12,5645.51,9487.12,5645.51C9488.17,5643.59,9489.22,5641.66,9490.27,5639.74C9640.11,5364.22,9753.3,5065.72,9822.71,4750.8L9822.71,4750.8C9822.71,4750.8,9374.03,4692.6,8925.36,4634.4Z" id="310" fill="#ffffff" fill-opacity="1.0" stroke="#dddddd" stroke-opacity="1.0" stroke-width="6.0" /><path d="M8791.97,3739.5L8791.97,3739.5C8791.97,3879.8,8791.97,4020.11,8791.97,4020.11C8791.97,4252.29,8757.09,4476.3,8692.5,4687.32C8692.5,4687.32,8903.77,4713.73,8903.77,4713.73C8911.39,4687.47,8918.58,4661.03,8925.35,4634.42C8925.35,4634.42,9942.15,4766.31,9942.15,4766.31C9994.38,4525.86,10022.0,4276.22,10022.0,4020.11C10022.0,4020.11,10022.0,4012.13,10022.0,4004.15L10022.0,4004.15L9001.97,4004.15L9001.97,3739.5L8791.97,3739.5Z" id="309" fill="#ffffff" fill-opacity="1.0" stroke="#dddddd" stroke-opacity="1.0" stroke-width="6.0" /><path d="M9002.0,3475.85L9002.0,4004.15L10022.0,4004.15L10022.0,3475.85L9002.0,3475.85Z" id="308" fill="#ffffff" fill-opacity="1.0" stroke="#dddddd" stroke-opacity="1.0" stroke-width="6.0" /><path d="M9822.74,2729.1C9374.06,2787.3,8925.39,2845.5,8925.39,2845.5C8918.63,2818.9,8911.43,2792.47,8903.82,2766.23C8903.82,2766.23,8692.55,2792.64,8692.55,2792.64C8757.05,3003.39,8791.89,3227.27,8791.98,3459.14C8791.98,3552.58,8791.98,3646.02,8791.98,3739.46L8791.98,3739.46L9001.98,3739.46L9001.98,3475.81L9901.98,3475.81C9901.98,3470.1,9901.98,3464.39,9901.98,3458.81L9901.98,3458.81C9901.89,3208.35,9874.5,2964.02,9822.74,2729.1Z" id="307" fill="#ffffff" fill-opacity="1.0" stroke="#dddddd" stroke-opacity="1.0" stroke-width="6.0" /><path d="M9487.11,1834.45C9085.23,2037.61,8683.35,2240.78,8683.35,2240.78C8699.43,2269.41,8714.97,2298.4,8729.95,2327.72C8729.95,2327.72,8540.4,2418.31,8540.4,2418.31C8601.61,2537.41,8652.72,2662.57,8692.53,2792.67C8692.53,2792.67,8903.8,2766.26,8903.8,2766.26C8911.42,2792.51,8918.61,2818.93,8925.37,2845.53C8925.37,2845.53,9822.72,2729.13,9822.72,2729.13L9822.72,2729.13C9752.85,2412.01,9638.59,2111.55,9487.11,1834.45Z" id="306" fill="#ffffff" fill-opacity="1.0" stroke="#dddddd" stroke-opacity="1.0" stroke-width="6.0" /><path d="M8875.06,1028.9C8559.49,1349.72,8243.92,1670.53,8243.92,1670.53C8211.54,1639.17,8178.3,1608.68,8144.25,1579.11C8144.25,1579.11,7998.35,1730.57,7998.35,1730.57C8188.67,1894.29,8351.5,2089.03,8479.18,2306.85C8500.59,2343.37,8521.02,2380.54,8540.43,2418.31C8540.43,2418.31,8729.98,2327.72,8729.98,2327.72C8715.0,2298.4,8699.46,2269.42,8683.38,2240.78C8683.38,2240.78,9487.15,1834.45,9487.15,1834.45C9470.79,1804.53,9454.0,1774.88,9436.79,1745.52L9436.79,1745.52C9282.17,1481.75,9092.88,1240.74,8875.06,1028.9Z" id="305" fill="#ffffff" fill-opacity="1.0" stroke="#dddddd" stroke-opacity="1.0" stroke-width="6.0" /><path d="M8041.42,433.8C7837.91,835.155,7634.4,1236.51,7634.4,1236.51C7656.53,1247.7,7729.55,1287.16,7744.07,1295.44C7744.07,1295.44,7649.13,1483.07,7649.13,1483.07C7766.74,1550.82,7877.74,1628.74,7980.89,1715.69C7986.72,1720.6,7992.53,1725.55,7998.32,1730.53C7998.32,1730.53,8144.22,1579.06,8144.22,1579.06C8178.27,1608.64,8211.5,1639.12,8243.88,1670.48C8243.88,1670.48,8875.02,1028.85,8875.02,1028.85C8817.4,972.81,8757.78,918.808,8696.28,866.966C8521.74,719.846,8332.07,590.112,8130.02,480.29L8130.02,480.29C8100.74,464.377,8071.21,448.877,8041.42,433.8Z" id="304" fill="#ffffff" fill-opacity="1.0" stroke="#dddddd" stroke-opacity="1.0" stroke-width="6.0" /><path d="M7447.74,200.5C7428.32,257.355,7408.9,314.21,7408.9,314.21C7323.86,289.925,7237.41,268.989,7149.69,251.562C7149.69,251.562,6983.57,1013.91,6983.57,1013.91C6947.08,1006.88,6910.3,1000.65,6873.26,995.227C6873.26,995.227,6838.5,1202.4,6838.5,1202.4C7110.81,1241.71,7367.52,1329.22,7599.92,1455.54C7616.44,1464.52,7632.84,1473.7,7649.12,1483.07C7649.12,1483.07,7744.06,1295.44,7744.06,1295.44C7729.53,1287.16,7656.52,1247.7,7634.38,1236.51C7634.38,1236.51,8041.4,433.8,8041.4,433.8L8041.4,433.8C7852.92,338.404,7654.37,259.915,7447.74,200.5Z" id="303" fill="#ffffff" fill-opacity="1.0" stroke="#dddddd" stroke-opacity="1.0" stroke-width="6.0" /><path d="M6304.75,189.0L6304.75,969.0L6421.95,969.0L6421.95,1179.0C6466.5,1179.0,6511.04,1179.0,6511.04,1179.0C6622.26,1179.0,6731.61,1187.0,6838.55,1202.44C6838.55,1202.44,6873.31,995.275,6873.31,995.275C6910.28,1000.68,6946.98,1006.9,6983.4,1013.92C6983.4,1013.92,7149.6,251.581,7149.6,251.581C6943.1,210.564,6729.6,189.0,6511.04,189.0L6511.04,189.0C6511.04,189.0,6407.9,189.0,6304.75,189.0Z" id="302" fill="#ffffff" fill-opacity="1.0" stroke="#dddddd" stroke-opacity="1.0" stroke-width="6.0" /><path d="M5514.8,189.0L5514.8,969.0L5381.95,969.0L5381.95,1179.0L6421.95,1179.0L6421.95,969.0L6304.75,969.0L6304.75,189.0L5514.8,189.0Z" id="301" fill="#ffffff" fill-opacity="1.0" stroke="#dddddd" stroke-opacity="1.0" stroke-width="6.0" /><path d="M788.597,4079.15C792.253,4263.85,813.014,4444.33,849.3,4619.14C849.3,4619.14,1297.13,4561.05,1297.13,4561.05C1262.56,4405.4,1242.56,4244.28,1238.7,4079.15L1238.7,4079.15C1238.7,4079.15,1013.65,4079.15,788.597,4079.15Z" id="323 inactive seats" fill="#dfdfdf" fill-opacity="1.0" /><path d="M5428.15,3968.4C5478.4,3968.4,5528.66,3968.4,5578.91,3968.4C5578.91,3917.53,5578.91,3866.67,5578.91,3815.81C5808.7,3815.81,6038.49,3815.81,6268.29,3815.81C6268.29,3763.82,6268.29,3711.83,6268.29,3659.84C6038.49,3659.84,5808.7,3659.84,5578.91,3659.84C5578.91,3608.89,5578.91,3557.94,5578.91,3506.99C5528.66,3506.99,5478.4,3506.99,5428.15,3506.99C5428.15,3456.72,5428.15,3406.45,5428.15,3356.19C5222.57,3356.19,5017.0,3356.19,4811.43,3356.19C4811.43,3406.45,4811.43,3456.72,4811.43,3506.99C4760.4,3506.99,4709.38,3506.99,4658.35,3506.99C4658.35,3557.94,4658.35,3608.89,4658.35,3659.84C4427.87,3659.84,4197.4,3659.84,3966.93,3659.84C3966.93,3711.83,3966.93,3763.82,3966.93,3815.81C4197.4,3815.81,4427.87,3815.81,4658.35,3815.81C4658.35,3866.67,4658.35,3917.53,4658.35,3968.4C4709.38,3968.4,4760.4,3968.4,4811.43,3968.4C4811.43,4020.16,4811.43,4071.93,4811.43,4123.7C5017.0,4123.7,5222.57,4123.7,5428.15,4123.7L5428.15,4123.7C5428.15,4071.93,5428.15,4020.16,5428.15,3968.4Z" id="Shape001pf" fill="#262626" fill-opacity="1.0" /><text text-align="left" id="STAGE" fill="#ffffff" fill-opacity="1.0" font-family="averta,arial,'arial bold'" font-weight="bold" font-size="217.2" x="4756.69" y="3816.75"><tspan text-anchor="start" x="4756.69">STAGE</tspan></text></svg>