<svg width="1024px" height="768px" viewBox="0 0 10240 7680" x="0px" y="0px" xmlns="http://www.w3.org/2000/svg"><defs></defs><path d="M3397.14,7664.64L2127.55,7105.88L1160.98,6125.16L650.85,4829.15L650.85,2830.45L1171.25,1524.57L2129.29,552.35L3419.64,25.0L6935.49,25.0L8792.96,1156.08L9729.3,2245.79L9729.3,5450.43L8855.88,6501.99L7871.84,7106.51L6903.14,7664.64L3397.14,7664.64Z" id="POCHE" fill="#f6f6f6" fill-opacity="1.0" stroke="#d4d4d4" stroke-opacity="1.0" stroke-width="3.0" /><path d="M6042.7,4749.7L6789.7,4749.7L6790.03,6157.88L6042.74,6157.79L6042.7,4749.7Z" id="bg|||106" fill="#ffffff" fill-opacity="1.0" stroke="#dddddd" stroke-opacity="1.0" stroke-width="8.0" /><path d="M5317.51,4749.85L6042.61,4749.85L6042.61,6157.94L5315.0,6158.13L5317.51,4749.85Z" id="bg|||107" fill="#ffffff" fill-opacity="1.0" stroke="#dddddd" stroke-opacity="1.0" stroke-width="8.0" /><path d="M4591.95,4749.75L5317.31,4749.75L5314.8,6158.14L4591.99,6158.19L4591.95,4749.75Z" id="bg|||108" fill="#ffffff" fill-opacity="1.0" stroke="#dddddd" stroke-opacity="1.0" stroke-width="8.0" /><path d="M3758.25,6157.98L4099.99,4749.6L4591.81,4749.81L4592.0,6157.94L3758.25,6157.98Z" id="bg|||109" fill="#ffffff" fill-opacity="1.0" stroke="#dddddd" stroke-opacity="1.0" stroke-width="8.0" /><path d="M3933.7,4780.8L3739.55,5082.4L3600.5,5021.76L3073.9,5783.92L3758.26,6157.81L4075.18,4851.15L3933.7,4780.8Z" id="bg|||110" fill="#ffffff" fill-opacity="1.0" stroke="#dddddd" stroke-opacity="1.0" stroke-width="8.0" /><path d="M2527.9,5252.03L2527.9,5252.03C3088.38,4885.01,3648.85,4518.0,3648.85,4518.0C3648.85,4518.0,3717.28,4623.05,3835.21,4682.54C3835.21,4682.54,3454.54,5233.5,3073.86,5784.46L3073.86,5784.46L3021.39,5755.8L2527.9,5252.03Z" id="bg|||111" fill="#ffffff" fill-opacity="1.0" stroke="#dddddd" stroke-opacity="1.0" stroke-width="8.0" /><path d="M2245.95,4572.12L2245.95,4572.12C2901.29,4436.06,3556.64,4300.0,3556.64,4300.0C3556.64,4300.0,3586.93,4433.62,3648.87,4518.03C3648.87,4518.03,3088.4,4885.04,2527.92,5252.06L2527.92,5252.06L2498.22,5221.71L2245.95,4572.12Z" id="bg|||112" fill="#ffffff" fill-opacity="1.0" stroke="#dddddd" stroke-opacity="1.0" stroke-width="8.0" /><path d="M2231.55,3831.65L2231.55,4535.0L2245.95,4572.08L3556.61,4299.91L3556.61,3831.66L2231.55,3831.65Z" id="bg|||113" fill="#ffffff" fill-opacity="1.0" stroke="#dddddd" stroke-opacity="1.0" stroke-width="8.0" /><path d="M2250.51,3091.75L3554.97,3381.66L3556.61,3831.71L2231.55,3831.68L2231.55,3141.69L2250.51,3091.75Z" id="bg|||114" fill="#ffffff" fill-opacity="1.0" stroke="#dddddd" stroke-opacity="1.0" stroke-width="8.0" /><path d="M2250.5,3091.72L2504.88,2421.67L2530.98,2396.0C3080.66,2774.39,3630.34,3152.77,3630.34,3152.77C3630.34,3152.77,3567.89,3248.31,3554.97,3381.64L3554.97,3381.64C3554.97,3381.64,2902.73,3236.68,2250.5,3091.72Z" id="bg|||115" fill="#ffffff" fill-opacity="1.0" stroke="#dddddd" stroke-opacity="1.0" stroke-width="8.0" /><path d="M3112.7,1861.85L3112.7,1861.85C3463.34,2420.77,3813.99,2979.7,3813.99,2979.7C3813.99,2979.7,3705.0,3028.75,3630.36,3152.8C3630.36,3152.8,3080.68,2774.42,2531.0,2396.03L2531.0,2396.03L3019.99,1915.0L3112.7,1861.85Z" id="bg|||116" fill="#ffffff" fill-opacity="1.0" stroke="#dddddd" stroke-opacity="1.0" stroke-width="8.0" /><path d="M3734.99,1505.0L3794.99,1505.0C3941.24,2225.62,4087.49,2946.24,4087.49,2946.24C4087.49,2946.24,3954.94,2928.14,3813.99,2979.7C3813.99,2979.7,3463.34,2420.77,3112.7,1861.85L3112.7,1861.85L3734.99,1505.0Z" id="bg|||117" fill="#ffffff" fill-opacity="1.0" stroke="#dddddd" stroke-opacity="1.0" stroke-width="8.0" /><path d="M4087.6,2946.05L3795.0,1505.0L4595.34,1505.04L4595.11,2945.86L4239.66,2945.86L4087.6,2946.05Z" id="bg|||118" fill="#ffffff" fill-opacity="1.0" stroke="#dddddd" stroke-opacity="1.0" stroke-width="8.0" /><path d="M4595.2,1505.04L5318.15,1505.0L5317.83,2945.93L4595.31,2945.86L4595.2,1505.04Z" id="bg|||119" fill="#ffffff" fill-opacity="1.0" stroke="#dddddd" stroke-opacity="1.0" stroke-width="8.0" /><path d="M5318.45,1505.03L6051.22,1505.0L6050.88,2945.93L5318.53,2945.93L5318.45,1505.03Z" id="bg|||120" fill="#ffffff" fill-opacity="1.0" stroke="#dddddd" stroke-opacity="1.0" stroke-width="8.0" /><path d="M6798.0,1505.0L6797.04,2396.71L6796.7,2945.8L6051.63,2945.93L6051.55,1505.03L6798.0,1505.0Z" id="bg|||121" fill="#ffffff" fill-opacity="1.0" stroke="#dddddd" stroke-opacity="1.0" stroke-width="8.0" /><path d="M6789.1,4749.57L6789.68,6157.37L7597.78,6157.77L7289.63,4749.55L6789.1,4749.57Z" id="bg|||105" fill="#ffffff" fill-opacity="1.0" stroke="#dddddd" stroke-opacity="1.0" stroke-width="8.0" /><path d="M7598.15,6158.27L7484.6,5633.05L8042.89,5422.75L8328.23,5854.89L7598.15,6158.27Z" id="bg|||104" fill="#ffffff" fill-opacity="1.0" stroke="#dddddd" stroke-opacity="1.0" stroke-width="8.0" /><path d="M7594.92,1505.0L7423.45,2335.05L7858.87,2494.61L8328.26,1808.34L7594.92,1505.0Z" id="bg|||123" fill="#ffffff" fill-opacity="1.0" stroke="#dddddd" stroke-opacity="1.0" stroke-width="8.0" /><path d="M7594.04,1504.95L7594.04,1504.95C7195.8,1504.95,6797.56,1504.96,6797.56,1504.96C6797.56,1504.96,6796.82,2489.48,6796.6,2945.79C6796.6,2945.79,7037.62,2945.89,7278.64,2945.99L7278.64,2945.99L7401.18,2436.95L7422.63,2335.17L7594.04,1504.95Z" id="bg|||122" fill="#ffffff" fill-opacity="1.0" stroke="#dddddd" stroke-opacity="1.0" stroke-width="8.0" /><path d="M9273.12,3851.65L8234.7,3851.94L8234.74,4412.09L9273.12,4609.96L9273.12,3851.65Z" id="bg|||101" fill="#ffffff" fill-opacity="1.0" stroke="#dddddd" stroke-opacity="1.0" stroke-width="8.0" /><path d="M9271.6,4607.63L9003.43,5199.98L8931.18,5341.03L8081.45,4758.74L8234.16,4412.45L9271.6,4607.63Z" id="bg|||102" fill="#ffffff" fill-opacity="1.0" stroke="#dddddd" stroke-opacity="1.0" stroke-width="8.0" /><path d="M8036.7,3046.05L6508.85,3046.15L6508.95,3652.6L6981.47,3652.54L6981.47,4041.01L6509.01,4040.94L6509.1,4647.15L8021.25,4647.1L8132.5,4390.09L8131.95,4037.0L7747.6,4037.0L7747.6,3632.7L8131.31,3632.7L8130.78,3291.19L8036.7,3046.05Z" id="bg|||SOUL-P" fill="#ffffff" fill-opacity="1.0" stroke="#dddddd" stroke-opacity="1.0" stroke-width="8.0" /><path d="M8079.92,4760.5L8931.08,5341.13L8328.43,5855.03L8041.27,5420.77L7777.5,5042.54L8079.92,4760.5Z" id="bg|||103" fill="#ffffff" fill-opacity="1.0" stroke="#dddddd" stroke-opacity="1.0" stroke-width="8.0" /><path d="M8326.73,1808.3L8948.39,2334.96L8081.89,2888.74L7798.6,2570.99L7857.75,2494.52L8326.73,1808.3Z" id="bg|||124" fill="#ffffff" fill-opacity="1.0" stroke="#dddddd" stroke-opacity="1.0" stroke-width="8.0" /><path d="M9273.26,3095.0L8232.91,3272.44L8083.25,2888.84L8948.26,2335.0L9273.26,3095.0Z" id="bg|||125" fill="#ffffff" fill-opacity="1.0" stroke="#dddddd" stroke-opacity="1.0" stroke-width="8.0" /><path d="M9273.09,3095.0L8233.9,3272.34L8234.67,3850.99L9273.09,3851.69L9273.09,3095.0Z" id="bg|||126" fill="#ffffff" fill-opacity="1.0" stroke="#dddddd" stroke-opacity="1.0" stroke-width="8.0" /><path d="M4947.85,3046.0L4947.85,3396.61L6508.9,3396.61L6508.9,3046.0L4947.85,3046.0Z" id="bg|||SEC A" fill="#ffffff" fill-opacity="1.0" stroke="#dddddd" stroke-opacity="1.0" stroke-width="8.0" /><path d="M4947.65,4296.9L4947.65,4647.51L6509.02,4647.51L6509.02,4296.9L4947.65,4296.9Z" id="bg|||SEC B" fill="#ffffff" fill-opacity="1.0" stroke="#dddddd" stroke-opacity="1.0" stroke-width="8.0" /><path d="M4480.3,4050.83L4480.3,3652.54L4947.76,3652.54L4947.76,3046.1L4208.02,3046.0C4119.67,3046.02,4031.32,3046.03,4031.32,3046.03C4025.53,3046.03,4019.76,3046.33,4013.99,3046.92C4011.55,3047.18,4009.11,3047.48,4006.68,3047.83C4002.56,3048.44,3998.45,3049.18,3994.35,3050.07C3988.17,3051.4,3982.01,3053.05,3975.88,3055.02C3968.09,3057.51,3960.34,3060.5,3952.65,3063.95C3939.58,3069.81,3926.66,3077.01,3913.96,3085.42C3904.75,3091.52,3895.65,3098.26,3886.69,3105.57C3876.99,3113.51,3867.45,3122.12,3858.11,3131.36C3846.67,3142.69,3835.52,3154.94,3824.74,3168.04C3824.74,3168.04,3810.82,3185.67,3810.82,3185.67C3803.44,3195.42,3796.25,3205.56,3789.28,3216.07C3789.28,3216.07,3778.41,3232.99,3778.41,3232.99C3771.64,3243.91,3765.09,3255.17,3758.79,3266.75C3741.86,3297.86,3726.71,3331.23,3713.79,3366.21C3704.44,3391.51,3696.25,3417.66,3689.41,3444.4C3686.55,3455.59,3683.92,3466.89,3681.55,3478.26C3681.55,3478.26,3681.3,3479.46,3681.05,3480.65L3681.05,3480.65C3680.83,3481.76,3680.6,3482.87,3680.6,3482.87C3677.05,3500.46,3674.11,3518.24,3671.82,3536.15C3668.58,3561.49,3666.67,3587.07,3666.25,3612.7C3666.25,3612.7,3919.91,3612.7,4173.56,3612.7L4173.56,3612.7L4173.56,4149.4C3922.21,4149.4,3670.85,4149.4,3670.85,4149.4C3671.16,4152.07,3671.49,4154.75,3671.83,4157.42C3673.4,4169.71,3675.28,4181.95,3677.46,4194.09C3681.15,4214.74,3685.7,4235.14,3690.99,4255.2C3694.46,4268.33,3698.25,4281.29,3702.37,4294.12C3707.73,4310.89,3713.62,4327.36,3719.97,4343.45C3727.12,4361.56,3734.86,4379.19,3743.13,4396.25C3743.13,4396.25,3754.27,4418.27,3754.27,4418.27C3760.47,4430.04,3766.92,4441.5,3773.61,4452.61C3782.66,4467.65,3792.12,4482.06,3801.97,4495.77C3801.97,4495.77,3802.84,4496.99,3803.71,4498.2L3803.71,4498.2C3804.59,4499.41,3805.48,4500.62,3805.48,4500.62C3825.15,4527.44,3846.24,4551.44,3868.35,4571.91C3880.2,4582.89,3892.35,4592.85,3904.72,4601.69C3927.81,4618.17,3951.69,4630.71,3975.93,4638.46C3988.17,4642.38,4000.5,4645.07,4012.86,4646.42C4019.01,4647.09,4025.16,4647.44,4031.32,4647.44C4031.32,4647.44,4489.54,4647.4,4947.76,4647.36L4947.76,4647.36L4947.76,4050.83L4480.3,4050.83Z" id="bg|||HEARTP" fill="#ffffff" fill-opacity="1.0" stroke="#dddddd" stroke-opacity="1.0" stroke-width="8.0" /><path d="M9039.75,2544.88L9468.33,2218.33L9305.0,2028.33L8675.0,1295.0L6885.0,205.0L3455.0,205.0L2231.58,705.0L1325.0,1625.0L830.85,2865.0L830.85,4795.0L1315.0,6025.0L2231.58,6955.0L3435.0,7484.64L6855.0,7484.64L7779.78,6951.82L8735.0,6365.0L9306.95,5651.48L9420.0,5525.0L9000.16,5194.16L8931.14,5341.08L8328.34,5855.0L7598.26,6158.38L3758.26,6158.38L3020.0,5755.04L2498.25,5221.71L2231.58,4535.04L2231.58,3141.7L2504.91,2421.7L3020.0,1915.0L3735.0,1505.0L7595.0,1505.0L8328.34,1808.34L8950.0,2335.0L9039.75,2544.88Z" id="DROPSHADOW 200s" fill="#ffffff" fill-opacity="1.0" /><path d="M8675.0,1294.99L8328.34,1808.33L7595.0,1504.99L7733.53,721.7L8675.0,1294.99Z" id="bg|||224" fill="#ffffff" fill-opacity="1.0" stroke="#dddddd" stroke-opacity="1.0" stroke-width="8.0" /><path d="M6042.5,6158.35L6790.0,6158.35L6790.0,7484.61L6042.5,7484.61L6042.5,6158.35Z" id="bg|||204" fill="#ffffff" fill-opacity="1.0" stroke="#dddddd" stroke-opacity="1.0" stroke-width="8.0" /><path d="M5275.0,6158.35L6042.5,6158.35L6042.5,7484.61L5275.0,7484.61L5275.0,6158.35Z" id="bg|||205" fill="#ffffff" fill-opacity="1.0" stroke="#dddddd" stroke-opacity="1.0" stroke-width="8.0" /><path d="M4540.0,6158.35L5275.0,6158.35L5275.0,7484.61L4540.0,7484.61L4540.0,6158.35Z" id="bg|||206" fill="#ffffff" fill-opacity="1.0" stroke="#dddddd" stroke-opacity="1.0" stroke-width="8.0" /><path d="M3758.26,6158.35L4540.0,6158.35L4540.0,7484.61L3435.0,7484.61L3758.26,6158.35Z" id="bg|||207" fill="#ffffff" fill-opacity="1.0" stroke="#dddddd" stroke-opacity="1.0" stroke-width="8.0" /><path d="M2588.2,7111.93L3226.7,5867.95L3758.25,6158.35L3434.99,7484.61L2588.2,7111.93Z" id="bg|||208" fill="#ffffff" fill-opacity="1.0" stroke="#dddddd" stroke-opacity="1.0" stroke-width="8.0" /><path d="M1899.0,6617.53L2846.03,5577.2L3019.98,5755.0L3226.69,5867.94L2588.19,7111.92L2231.56,6954.96L1899.0,6617.53Z" id="bg|||209" fill="#ffffff" fill-opacity="1.0" stroke="#dddddd" stroke-opacity="1.0" stroke-width="8.0" /><path d="M1315.0,6024.99L2498.25,5221.7L2846.05,5577.23L1899.02,6617.56L1315.0,6024.99Z" id="bg|||210" fill="#ffffff" fill-opacity="1.0" stroke="#dddddd" stroke-opacity="1.0" stroke-width="8.0" /><path d="M979.65,5173.07L2312.75,4744.1L2498.23,5221.71L1314.98,6025.0L979.65,5173.07Z" id="bg|||211" fill="#ffffff" fill-opacity="1.0" stroke="#dddddd" stroke-opacity="1.0" stroke-width="8.0" /><path d="M830.85,4271.65L2231.58,4271.65L2231.58,4535.02L2312.77,4744.08L979.67,5173.05L830.85,4794.98L830.85,4271.65Z" id="bg|||212" fill="#ffffff" fill-opacity="1.0" stroke="#dddddd" stroke-opacity="1.0" stroke-width="8.0" /><path d="M830.85,3361.7L2231.57,3361.7L2231.57,4271.65L830.85,4271.65L830.85,3361.7Z" id="bg|||213" fill="#ffffff" fill-opacity="1.0" stroke="#dddddd" stroke-opacity="1.0" stroke-width="8.0" /><path d="M994.58,2454.1L2312.77,2927.79L2231.58,3141.66L2231.58,3363.54L830.85,3363.54L830.85,2864.96L994.58,2454.1Z" id="bg|||214" fill="#ffffff" fill-opacity="1.0" stroke="#dddddd" stroke-opacity="1.0" stroke-width="8.0" /><path d="M1324.97,1625.0L2530.98,2396.03L2504.88,2421.7L2312.74,2927.83L994.55,2454.14L1324.97,1625.0Z" id="bg|||215" fill="#ffffff" fill-opacity="1.0" stroke="#dddddd" stroke-opacity="1.0" stroke-width="8.0" /><path d="M1941.39,999.45L2849.44,2082.75L2531.01,2396.0L1325.0,1624.97L1941.39,999.45Z" id="bg|||216" fill="#ffffff" fill-opacity="1.0" stroke="#dddddd" stroke-opacity="1.0" stroke-width="8.0" /><path d="M2677.14,522.85L3231.03,1793.92L3019.96,1914.96L2849.4,2082.74L1941.35,999.44L2231.54,704.96L2677.14,522.85Z" id="bg|||217" fill="#ffffff" fill-opacity="1.0" stroke="#dddddd" stroke-opacity="1.0" stroke-width="8.0" /><path d="M3454.97,205.0L3504.97,205.0L3774.97,1505.0L3734.97,1505.0L3231.04,1793.96L2677.15,522.89L3454.97,205.0Z" id="bg|||218" fill="#ffffff" fill-opacity="1.0" stroke="#dddddd" stroke-opacity="1.0" stroke-width="8.0" /><path d="M3505.0,205.0L3775.0,1505.0L4565.0,1505.0L4565.0,205.0L3505.0,205.0Z" id="bg|||219" fill="#ffffff" fill-opacity="1.0" stroke="#dddddd" stroke-opacity="1.0" stroke-width="8.0" /><path d="M4565.0,205.0L5288.33,205.0L5288.33,1505.0L4565.0,1505.0L4565.0,205.0Z" id="bg|||220" fill="#ffffff" fill-opacity="1.0" stroke="#dddddd" stroke-opacity="1.0" stroke-width="8.0" /><path d="M5288.3,205.0L6081.64,205.0L6081.64,1505.0L5288.3,1505.0L5288.3,205.0Z" id="bg|||221" fill="#ffffff" fill-opacity="1.0" stroke="#dddddd" stroke-opacity="1.0" stroke-width="8.0" /><path d="M6081.65,205.0L6798.32,205.0L6798.32,1505.0L6081.65,1505.0L6081.65,205.0Z" id="bg|||222" fill="#ffffff" fill-opacity="1.0" stroke="#dddddd" stroke-opacity="1.0" stroke-width="8.0" /><path d="M9003.39,5200.05L9419.96,5525.0L8734.96,6365.0L8328.3,5855.0L8931.1,5341.08L9003.39,5200.05Z" id="bg|||201" fill="#ffffff" fill-opacity="1.0" stroke="#dddddd" stroke-opacity="1.0" stroke-width="8.0" /><path d="M7779.77,6951.82L7598.25,6158.38L8328.33,5855.0L8734.99,6365.0L7779.77,6951.82Z" id="bg|||202" fill="#ffffff" fill-opacity="1.0" stroke="#dddddd" stroke-opacity="1.0" stroke-width="8.0" /><path d="M6790.0,6158.35L7598.26,6158.35L7779.78,6951.79L6855.0,7484.61L6790.0,7484.61L6790.0,6158.35Z" id="bg|||203" fill="#ffffff" fill-opacity="1.0" stroke="#dddddd" stroke-opacity="1.0" stroke-width="8.0" /><path d="M7733.49,721.71L7623.78,1341.53L7594.96,1505.0L6798.3,1505.0L6798.3,205.0L6884.96,205.0L7733.49,721.71Z" id="bg|||223" fill="#ffffff" fill-opacity="1.0" stroke="#dddddd" stroke-opacity="1.0" stroke-width="8.0" /><path d="M9468.29,2218.33L9039.71,2544.88L8949.96,2335.0L8328.3,1808.34L8674.96,1295.0L9468.29,2218.33Z" id="bg|||225" fill="#ffffff" fill-opacity="1.0" stroke="#dddddd" stroke-opacity="1.0" stroke-width="8.0" /><path d="M3587.0,6164.0L5987.0,6164.0L5986.9,6391.85L3587.0,6391.85L3587.0,6164.0Z" id="205-208 CONTINUOUS ROW BLOCKER" fill="#ffffff" fill-opacity="1.0" /><path d="M4998.0,7356.0L6223.05,7356.0L6223.05,7480.45L4998.0,7480.45L4998.0,7356.0Z" id="205 CONTINUOUS BASE" fill="#ffffff" fill-opacity="1.0" /><path d="M2187.12,4436.6L1926.25,4538.31L2184.2,5199.93L2252.67,5375.52L2550.55,5680.78L2750.94,5485.22L2492.85,5220.74L2187.12,4436.6Z" id="210-212 CONTINUOUS ROW BLOCKER" fill="#ffffff" fill-opacity="1.0" /><path d="M2893.54,1634.5L2345.77,2170.91L2300.25,2153.61L1970.0,3023.0L2232.69,3122.78L2498.49,2423.05L3094.34,1839.55L2893.54,1634.5Z" id="214-218 CONTINUOUS ROW BLOCKER" fill="#ffffff" fill-opacity="1.0" /><path d="M4377.0,1290.0L6349.0,1290.0L6349.0,1502.0L4377.0,1502.0L4377.0,1290.0Z" id="219CONTINUOUS ROWS BLOCKER" fill="#ffffff" fill-opacity="1.0" /><path d="M7509.5,1309.7C7572.83,1321.95,7636.17,1334.2,7699.5,1346.45L7699.5,1346.45L7733.5,1505.0L7597.89,1501.99C7541.95,1472.8,7486.0,1443.6,7486.0,1443.6L7486.0,1443.6C7486.0,1443.6,7509.49,1309.74,7509.5,1309.7Z" id="Shape001" fill="#ffffff" fill-opacity="1.0" /><path d="M8232.03,5907.49C8265.74,5890.8,8299.45,5874.11,8333.16,5857.42L8333.16,5857.42L8421.13,5797.29L8508.93,5932.59C8419.5,5982.27,8330.08,6031.94,8330.08,6031.94L8330.08,6031.94C8330.06,6031.92,8232.03,5907.49,8232.03,5907.49Z" id="Shape002" fill="#ffffff" fill-opacity="1.0" /><path d="M2739.9,5821.7L2573.05,5680.75L2768.7,5517.35L2840.88,5580.08L2923.43,5669.48L2739.9,5821.7Z" id="Shape003" fill="#ffffff" fill-opacity="1.0" /><path d="M3707.9,3644.7L4141.66,3644.7L4141.66,4117.45L3707.9,4117.45L3707.9,3644.7Z" id="Shape005" fill="#dfdfdf" fill-opacity="1.0" /><path d="M7779.65,3664.7L8091.93,3664.7L8091.93,4005.05L7779.65,4005.05L7779.65,3664.7Z" id="Shape006" fill="#dfdfdf" fill-opacity="1.0" /><text text-align="left" id="CAM" fill="#727272" fill-opacity="1.0" font-family="averta,arial,'arial bold'" font-weight="bold" font-size="90.5" x="7839.1" y="3869.55"><tspan text-anchor="start" x="7839.1">CAM</tspan></text><text text-align="left" id="MIX" fill="#727272" fill-opacity="1.0" font-family="averta,arial,'arial bold'" font-weight="bold" font-size="135.75" x="3810.19" y="3933.07"><tspan text-anchor="start" x="3810.19">MIX</tspan></text><path d="M6063.71,4067.42C6117.18,4067.42,6170.66,4067.42,6224.13,4067.42C6224.13,4022.62,6224.13,3977.81,6224.13,3933.01C6437.3,3933.01,6650.48,3933.01,6863.65,3933.01C6863.65,3878.81,6863.65,3824.61,6863.65,3770.41C6650.48,3770.41,6437.3,3770.41,6224.13,3770.41C6224.13,3724.16,6224.13,3677.91,6224.13,3631.65C6170.66,3631.65,6117.18,3631.65,6063.71,3631.65C6063.71,3592.63,6063.71,3553.6,6063.71,3514.57C5842.58,3514.57,5621.44,3514.57,5400.31,3514.57C5400.31,3553.6,5400.31,3592.63,5400.31,3631.65C5345.38,3631.65,5290.45,3631.65,5235.53,3631.65C5235.53,3677.91,5235.53,3724.16,5235.53,3770.41C5023.06,3770.41,4810.59,3770.41,4598.11,3770.41C4598.11,3824.61,4598.11,3878.81,4598.11,3933.01C4810.59,3933.01,5023.06,3933.01,5235.53,3933.01C5235.53,3977.81,5235.53,4022.62,5235.53,4067.42C5290.45,4067.42,5345.38,4067.42,5400.31,4067.42C5400.31,4107.88,5400.31,4148.35,5400.31,4188.81C5621.44,4188.81,5842.58,4188.81,6063.71,4188.81L6063.71,4188.81C6063.71,4148.35,6063.71,4107.88,6063.71,4067.42Z" id="STAGE" fill="#262626" fill-opacity="1.0" /><text text-align="left" id="STAGE" fill="#ffffff" fill-opacity="1.0" font-family="averta,arial,'arial bold'" font-weight="bold" font-size="226.25" x="5354.94" y="3931.68"><tspan text-anchor="start" x="5354.94">STAGE</tspan></text></svg>