<svg width="1024px" height="768px" viewBox="0 0 10240 7680" x="0px" y="0px" xmlns="http://www.w3.org/2000/svg"><defs></defs><path d="M10151.7,3969.8L10151.7,3390.85L10151.7,3137.27C10150.3,3130.04,10148.8,3122.82,10148.8,3122.82C10132.0,3037.99,10111.9,2953.04,10088.8,2868.92C10088.8,2868.92,10090.4,2868.47,10092.0,2868.02L10092.0,2868.02C10068.3,2794.58,10044.7,2721.14,10044.7,2721.14C10044.6,2720.74,10044.5,2720.34,10044.4,2719.94C10044.4,2719.94,10022.2,2651.08,10000.1,2582.22L10000.1,2582.22C9998.66,2582.63,9997.23,2583.03,9997.23,2583.03C9936.94,2418.51,9864.57,2258.07,9780.9,2103.55C9780.9,2103.55,9782.25,2102.75,9783.6,2101.96L9783.6,2101.96C9745.49,2038.04,9707.38,1974.13,9707.38,1974.13C9707.1,1973.65,9706.82,1973.17,9706.54,1972.69C9706.54,1972.69,9668.26,1908.49,9629.98,1844.29L9629.98,1844.29C9628.62,1845.09,9627.26,1845.9,9627.26,1845.9C9493.1,1640.5,9338.4,1448.64,9165.9,1274.16C9165.9,1274.16,9110.88,1218.51,9055.87,1162.85L9055.87,1162.85L7424.93,754.22L7340.75,730.49L6817.06,582.9L6533.47,582.9L6233.44,582.9L5874.35,582.9L5574.34,582.9L5106.04,582.9L4806.04,582.9L4353.25,582.9L4053.29,582.9L3668.62,582.9L3368.59,582.9L3140.63,582.9L2865.37,657.38L2536.0,746.53L1217.92,1141.65C1163.57,1195.59,1109.22,1249.54,1109.22,1249.54C922.35,1435.0,756.12,1640.2,613.5,1860.9C613.5,1860.9,612.105,1860.06,610.71,1859.23L610.71,1859.23L533.995,1989.5L458.46,2117.77C459.79,2118.56,461.12,2119.36,461.12,2119.36C377.45,2275.77,305.31,2438.21,245.49,2604.78C245.49,2604.78,244.08,2604.4,242.67,2604.02L242.67,2604.02C221.69,2670.71,200.71,2737.41,200.71,2737.41C200.29,2738.76,199.83,2740.11,199.41,2741.46C199.41,2741.46,175.99,2815.92,152.57,2890.39L152.57,2890.39C154.22,2890.83,155.87,2891.28,155.87,2891.28C133.23,2975.84,113.6,3061.35,97.23,3146.87C97.23,3146.87,95.89,3153.86,94.55,3160.85L94.55,3160.85L94.55,3408.4L94.55,3708.41L94.55,3974.8L94.55,4274.82L94.55,4511.37C95.89,4518.35,97.23,4525.34,97.23,4525.34C114.0,4612.95,134.24,4700.62,157.66,4787.41C157.66,4787.41,156.0,4787.85,154.34,4788.3L154.34,4788.3C178.025,4863.04,201.71,4937.79,201.71,4937.79C201.77,4937.98,201.83,4938.16,201.9,4938.36C201.9,4938.36,223.47,5006.45,245.04,5074.54L245.04,5074.54C246.445,5074.17,247.85,5073.79,247.85,5073.79C306.26,5235.52,376.21,5393.26,457.01,5545.22C457.01,5545.22,455.61,5546.01,454.21,5546.8L454.21,5546.8C492.775,5612.51,531.34,5678.22,531.34,5678.22C531.6,5678.67,531.88,5679.11,532.14,5679.56C532.14,5679.56,569.12,5742.56,606.1,5805.57L606.1,5805.57C607.45,5804.8,608.8,5804.04,608.8,5804.04C753.02,6028.41,921.67,6236.88,1111.68,6425.13C1111.68,6425.13,1165.1,6478.05,1218.52,6530.97L1218.52,6530.97L3118.75,7107.0L3688.2,7106.97L4061.5,7106.94L4361.53,7106.94L4806.05,7106.94L5106.01,7106.94L5564.85,7106.94L5864.88,7106.94L6248.2,7106.97L6808.39,7107.0L9090.29,6476.87C9143.71,6421.5,9197.14,6366.13,9197.14,6366.13C9356.78,6200.68,9500.68,6020.17,9626.31,5828.14C9626.31,5828.14,9627.63,5828.9,9628.95,5829.65L9628.95,5829.65C9666.54,5766.79,9704.12,5703.92,9704.12,5703.92C9704.28,5703.65,9704.45,5703.38,9704.61,5703.11C9704.61,5703.11,9743.77,5637.6,9782.92,5572.09L9782.92,5572.09C9781.52,5571.29,9780.12,5570.48,9780.12,5570.48C9861.6,5420.1,9932.47,5263.81,9992.0,5103.39C9992.0,5103.39,9993.44,5103.81,9994.88,5104.23L9994.88,5104.23C10017.4,5035.14,10039.9,4966.05,10039.9,4966.05C10040.1,4965.51,10040.3,4964.98,10040.4,4964.44C10040.4,4964.44,10064.2,4891.67,10087.9,4818.89L10087.9,4818.89C10086.3,4818.42,10084.7,4817.95,10084.7,4817.95C10109.6,4728.9,10131.1,4639.03,10148.9,4549.38C10148.9,4549.38,10150.3,4542.15,10151.8,4534.92L10151.8,4534.92L10151.7,3969.8Z" id="POCHE" fill="#f6f6f6" fill-opacity="1.0" stroke="#d4d4d4" stroke-opacity="1.0" stroke-width="3.0" /><path d="M4207.41,3970.11L4207.41,4579.91L3580.02,4580.32L3559.58,4579.92L3546.0,4579.42C3532.55,4578.98,3519.1,4578.54,3519.1,4578.54C3496.53,4574.69,3474.57,4569.43,3453.22,4562.76C3438.36,4558.12,3423.78,4552.81,3409.55,4546.84C3409.55,4546.84,3384.62,4535.55,3384.62,4535.55C3365.27,4526.1,3346.58,4515.37,3328.71,4503.4C3310.07,4490.89,3292.26,4477.04,3275.48,4461.96C3264.64,4451.92,3254.04,4441.27,3243.36,4430.35C3231.82,4417.9,3220.86,4404.85,3210.57,4391.19C3210.57,4391.19,3200.61,4376.95,3190.65,4362.72L3190.65,4362.72C3185.19,4353.93,3179.72,4345.14,3179.72,4345.14C3171.33,4331.02,3163.57,4316.41,3152.2,4291.22C3142.18,4268.92,3133.66,4245.69,3126.7,4221.73C3122.07,4205.74,3118.16,4189.42,3115.01,4172.83C3115.01,4172.83,3112.59,4157.89,3110.17,4142.96L3110.17,4142.96L3501.43,4142.4L3501.43,3595.69C3303.39,3595.69,3105.35,3595.69,3105.35,3595.69C3105.41,3562.47,3108.4,3529.99,3114.11,3498.56C3117.94,3477.44,3122.99,3456.78,3129.19,3436.67C3132.85,3424.75,3136.91,3413.02,3141.35,3401.51C3151.91,3374.15,3164.63,3347.96,3179.25,3323.25C3189.12,3306.55,3199.87,3290.53,3211.38,3275.27C3211.38,3275.27,3223.46,3260.47,3235.54,3245.67L3235.54,3245.67C3243.18,3237.38,3250.82,3229.1,3250.82,3229.1C3263.16,3216.28,3276.2,3204.16,3289.77,3192.84C3309.6,3176.32,3330.65,3161.46,3352.79,3148.44C3367.55,3139.75,3382.77,3131.87,3398.43,3124.89C3407.7,3120.72,3417.12,3116.89,3426.69,3113.38C3449.4,3105.01,3472.89,3098.44,3497.01,3093.83C3508.59,3091.61,3520.31,3089.83,3532.17,3088.51C3541.46,3087.53,3550.86,3086.82,3560.3,3086.39C3560.3,3086.39,3570.84,3086.12,3581.38,3085.85L3581.38,3085.85L4207.41,3085.96L4207.41,3708.6L3793.99,3708.6L3793.98,3970.11L4207.41,3970.11Z" id="HEART" fill="#ffffff" fill-opacity="1.0" stroke="#dddddd" stroke-opacity="1.0" stroke-width="7.0" /><path d="M5642.55,3970.11L5642.55,4579.76L7476.78,4580.32L7497.13,4579.92L7510.66,4579.41C7524.08,4578.96,7537.5,4578.52,7537.5,4578.52C7559.94,4574.68,7581.78,4569.41,7603.0,4562.76C7617.81,4558.12,7632.32,4552.81,7646.49,4546.84C7654.76,4543.07,7663.03,4539.31,7671.32,4535.53C7690.58,4526.1,7709.18,4515.37,7726.97,4503.39C7745.53,4490.88,7763.26,4477.03,7779.97,4461.95C7790.76,4451.9,7801.3,4441.28,7811.95,4430.34C7823.44,4417.88,7834.33,4404.86,7844.58,4391.19C7851.19,4381.7,7857.81,4372.21,7864.42,4362.71L7864.42,4362.71C7868.04,4356.86,7871.67,4351.0,7875.29,4345.14C7883.66,4331.0,7891.37,4316.41,7902.7,4291.23C7912.67,4268.91,7921.15,4245.68,7928.08,4221.74C7932.69,4205.73,7936.58,4189.42,7939.71,4172.82C7941.31,4121.73,7942.9,4070.64,7944.5,4019.55L7944.5,4019.55L7576.55,4018.99L7576.55,3651.65C7762.94,3651.09,7949.33,3650.53,7949.33,3650.53C7949.2,3617.71,7946.24,3529.63,7940.62,3498.55C7936.8,3477.43,7931.77,3456.78,7925.6,3436.66C7921.96,3424.74,7917.91,3413.01,7913.49,3401.51C7902.98,3374.14,7890.32,3347.96,7875.77,3323.24C7865.94,3306.55,7855.25,3290.54,7843.77,3275.27C7835.76,3265.4,7827.74,3255.53,7819.72,3245.67L7819.72,3245.67C7814.65,3240.14,7809.58,3234.62,7804.51,3229.09C7792.22,3216.27,7779.25,3204.15,7765.74,3192.82C7746.0,3176.32,7725.04,3161.45,7703.0,3148.43C7688.3,3139.75,7673.17,3131.87,7657.56,3124.88C7648.19,3121.05,7638.81,3117.21,7629.42,3113.37C7606.81,3105.0,7583.42,3098.44,7559.41,3093.81C7547.89,3091.61,7536.25,3089.82,7524.42,3088.5C7515.08,3087.8,7505.75,3087.09,7496.41,3086.39L7496.41,3086.39L7475.42,3085.85L7047.78,3085.85L5642.55,3086.01C5642.55,3293.54,5642.55,3501.07,5642.55,3708.6C5790.01,3708.6,5937.47,3708.6,6084.93,3708.6L6084.93,3708.6L6084.93,3970.11L5642.55,3970.11Z" id="SOUL" fill="#ffffff" fill-opacity="1.0" stroke="#dddddd" stroke-opacity="1.0" stroke-width="7.0" /><path d="M5641.65,4321.95L4630.84,4321.97L4209.1,4321.96L4209.1,4580.24L5641.65,4580.24L5641.65,4321.95Z" id="A" fill="#ffffff" fill-opacity="1.0" stroke="#dddddd" stroke-opacity="1.0" stroke-width="7.0" /><path d="M5642.5,3085.85L4631.69,3085.87L4209.95,3085.86L4209.95,3344.14L5642.5,3344.14L5642.5,3085.85Z" id="B" fill="#ffffff" fill-opacity="1.0" stroke="#dddddd" stroke-opacity="1.0" stroke-width="7.0" /><path d="M4952.9,1444.25L4952.9,2988.17L5609.2,2988.17L5609.2,2544.0L5661.63,2544.0L5661.63,1444.25L4952.9,1444.25Z" id="101" fill="#ffffff" fill-opacity="1.0" stroke="#dddddd" stroke-opacity="1.0" stroke-width="7.0" /><path d="M5661.6,1444.25L5661.6,2544.0L5760.25,2544.0L5760.25,2988.07L6380.31,2988.08C6380.31,2216.26,6380.31,1444.43,6380.31,1444.43C6375.52,1444.4,6370.75,1444.25,6365.93,1444.25L6365.93,1444.25C6365.93,1444.25,6013.77,1444.25,5661.6,1444.25Z" id="102" fill="#ffffff" fill-opacity="1.0" stroke="#dddddd" stroke-opacity="1.0" stroke-width="7.0" /><path d="M6380.3,1444.45C6380.3,1959.0,6380.3,2473.54,6380.3,2988.09L6380.3,2988.09C6381.24,2988.09,6382.18,2988.1,6382.18,2988.1C6382.18,2988.1,6510.81,2988.1,6639.45,2988.1L6639.45,2988.1L6810.09,2667.1L6876.42,2695.41C7151.13,2209.4,7425.84,1723.38,7425.84,1723.38L7425.84,1723.38C7116.92,1547.99,6760.33,1446.95,6380.3,1444.45Z" id="103" fill="#ffffff" fill-opacity="1.0" stroke="#dddddd" stroke-opacity="1.0" stroke-width="7.0" /><path d="M7425.8,1723.35C7242.67,2047.36,7059.53,2371.37,6876.4,2695.38L6876.4,2695.38L7042.11,2806.9L7271.76,2504.2L7496.74,2731.19L7700.81,2615.25L7781.24,2750.74C7996.32,2620.78,8211.4,2490.82,8211.4,2490.82L8211.4,2490.82C8020.43,2172.11,7749.29,1907.01,7425.8,1723.35Z" id="104" fill="#ffffff" fill-opacity="1.0" stroke="#dddddd" stroke-opacity="1.0" stroke-width="7.0" /><path d="M7061.91,4878.15L6889.3,4982.93C7166.71,5469.25,7444.12,5955.56,7444.12,5955.56C7762.04,5770.9,8028.22,5507.08,8215.82,5191.11C8215.82,5191.11,8005.83,5067.19,7795.84,4943.28L7795.84,4943.28L7711.61,5065.8L7532.71,4919.85L7292.61,5175.7L7061.91,4878.15Z" id="108" fill="#ffffff" fill-opacity="1.0" stroke="#dddddd" stroke-opacity="1.0" stroke-width="7.0" /><path d="M6390.83,4686.4C6387.93,4686.44,6384.99,4686.46,6382.07,4686.46C6382.07,4686.46,6381.18,4686.46,6380.3,4686.46L6380.3,4686.46C6380.3,5465.71,6380.3,6244.96,6380.3,6244.96C6522.79,6244.03,6662.01,6229.33,6796.64,6201.96C6796.64,6201.96,6853.4,6189.63,6853.4,6189.63C7063.86,6140.84,7262.43,6061.09,7444.16,5955.54C7444.16,5955.54,7166.69,5469.18,6889.22,4982.81L6889.22,4982.81L6818.77,5007.31L6649.99,4686.4C6563.6,4686.4,6477.21,4686.4,6390.83,4686.4Z" id="109" fill="#ffffff" fill-opacity="1.0" stroke="#dddddd" stroke-opacity="1.0" stroke-width="7.0" /><path d="M5691.55,6245.19L5691.55,6245.19C6028.75,6245.19,6365.94,6245.19,6365.94,6245.19C6370.74,6245.19,6375.51,6245.04,6380.31,6245.0C6380.31,6245.0,6380.31,5465.75,6380.31,4686.5L6380.31,4686.5L5691.55,4686.5L5691.55,6245.19Z" id="110" fill="#ffffff" fill-opacity="1.0" stroke="#dddddd" stroke-opacity="1.0" stroke-width="7.0" /><path d="M4952.98,4686.42L4952.9,6245.12L5691.57,6245.12L5691.57,4686.44L5392.3,4686.44L5254.83,4686.42L4952.98,4686.42Z" id="111" fill="#ffffff" fill-opacity="1.0" stroke="#dddddd" stroke-opacity="1.0" stroke-width="7.0" /><path d="M4229.2,4686.44L4229.2,6245.11L4952.9,6245.11L4952.83,4686.42L4652.98,4686.42L4229.2,4686.44Z" id="112" fill="#ffffff" fill-opacity="1.0" stroke="#dddddd" stroke-opacity="1.0" stroke-width="7.0" /><path d="M3595.67,4686.5C3568.45,4686.5,3541.7,4684.51,3515.45,4680.95C3515.45,4680.95,3515.45,6243.81,3515.45,6243.81C3539.68,6244.62,3563.97,6245.18,3588.39,6245.18C3588.39,6245.18,3908.78,6245.18,4229.17,6245.18L4229.17,6245.18L4229.17,4686.5C4018.0,4686.5,3806.84,4686.5,3595.67,4686.5Z" id="113" fill="#ffffff" fill-opacity="1.0" stroke="#dddddd" stroke-opacity="1.0" stroke-width="7.0" /><path d="M3307.01,4611.6C3260.41,4715.06,3213.8,4818.52,3167.2,4921.98L3167.2,4921.98L3085.4,4875.67C2778.35,5404.09,2471.3,5932.51,2471.3,5932.51C2777.43,6119.03,3133.86,6231.08,3515.47,6243.81C3515.47,6243.81,3515.47,4680.94,3515.47,4680.94L3515.47,4680.94C3440.65,4670.84,3370.28,4646.85,3307.01,4611.6Z" id="114" fill="#ffffff" fill-opacity="1.0" stroke="#dddddd" stroke-opacity="1.0" stroke-width="7.0" /><path d="M3065.6,4360.5C2395.15,4764.16,1724.7,5167.81,1724.7,5167.81C1905.4,5481.1,2162.82,5744.57,2471.31,5932.53C2471.31,5932.53,2778.36,5404.11,3085.41,4875.7L3085.41,4875.7L3031.1,4844.95C3117.57,4691.95,3204.03,4538.94,3204.03,4538.94L3204.03,4538.94C3147.25,4489.08,3100.08,4428.57,3065.6,4360.5Z" id="115" fill="#ffffff" fill-opacity="1.0" stroke="#dddddd" stroke-opacity="1.0" stroke-width="7.0" /><path d="M3002.68,4126.4C2220.74,4126.4,1438.8,4126.4,1438.8,4126.4C1444.2,4505.31,1547.48,4860.52,1724.69,5167.79C1724.69,5167.79,3065.59,4360.48,3065.59,4360.48L3065.59,4360.48C3029.61,4289.45,3007.4,4210.29,3002.68,4126.4Z" id="116" fill="#ffffff" fill-opacity="1.0" stroke="#dddddd" stroke-opacity="1.0" stroke-width="7.0" /><path d="M3001.65,4092.46C3001.65,3837.29,3001.65,3582.12,3001.65,3582.12C3001.65,3570.47,3002.07,3558.93,3002.73,3547.45C3002.73,3547.45,1438.99,3547.45,1438.99,3547.45C1438.66,3563.02,1438.4,3578.61,1438.4,3594.26C1438.4,3594.26,1438.4,4095.18,1438.4,4095.18C1438.4,4105.62,1438.65,4116.0,1438.8,4126.41C1438.8,4126.41,3002.68,4126.41,3002.68,4126.41L3002.68,4126.41C3002.04,4115.16,3001.65,4103.85,3001.65,4092.46Z" id="117" fill="#ffffff" fill-opacity="1.0" stroke="#dddddd" stroke-opacity="1.0" stroke-width="7.0" /><path d="M3084.08,3280.32C2408.1,2894.71,1732.13,2509.1,1732.13,2509.1C1552.89,2815.05,1447.09,3169.2,1439.0,3547.46C1439.0,3547.46,3002.74,3547.46,3002.74,3547.46L3002.74,3547.46C3008.33,3450.3,3037.3,3359.44,3084.08,3280.32Z" id="118" fill="#ffffff" fill-opacity="1.0" stroke="#dddddd" stroke-opacity="1.0" stroke-width="7.0" /><path d="M2501.47,1739.0C2183.8,1925.51,1918.32,2191.23,1732.1,2509.08C1732.1,2509.08,3084.05,3280.3,3084.05,3280.3C3114.86,3228.2,3153.39,3181.25,3198.07,3140.97C3198.07,3140.97,3099.54,2981.81,3001.0,2822.64L3001.0,2822.64L3074.4,2775.56C2883.43,2430.04,2692.45,2084.52,2501.47,1739.0Z" id="119" fill="#ffffff" fill-opacity="1.0" stroke="#dddddd" stroke-opacity="1.0" stroke-width="7.0" /><path d="M3515.47,1445.65C3146.32,1457.96,2800.79,1563.31,2501.5,1739.03C2501.5,1739.03,2787.96,2257.29,3074.41,2775.56L3074.41,2775.56L3141.39,2732.6C3215.72,2902.73,3290.05,3072.86,3290.05,3072.86C3357.61,3032.22,3433.89,3004.67,3515.47,2993.65L3515.47,2993.65C3515.47,2993.65,3515.47,2219.65,3515.47,1445.65Z" id="120" fill="#ffffff" fill-opacity="1.0" stroke="#dddddd" stroke-opacity="1.0" stroke-width="7.0" /><path d="M3588.39,1444.25C3563.97,1444.25,3539.68,1444.81,3515.45,1445.62C3515.45,1445.62,3515.45,2993.62,3515.45,2993.62C3541.7,2990.07,3568.45,2988.08,3595.67,2988.08C3595.67,2988.08,3876.18,2988.08,4156.7,2988.08L4156.7,2988.08L4156.7,2554.0L4229.17,2554.0L4229.17,1444.25C4015.58,1444.25,3801.98,1444.25,3588.39,1444.25Z" id="121" fill="#ffffff" fill-opacity="1.0" stroke="#dddddd" stroke-opacity="1.0" stroke-width="7.0" /><path d="M4229.2,1444.25L4229.2,2554.0L4295.3,2554.0L4295.3,2988.17L4952.9,2988.17L4952.9,1444.25L4229.2,1444.25Z" id="122" fill="#ffffff" fill-opacity="1.0" stroke="#dddddd" stroke-opacity="1.0" stroke-width="7.0" /><path d="M8211.42,2490.85C8067.98,2577.47,7924.54,2664.09,7781.1,2750.71L7781.1,2750.71L7980.41,3101.81L8034.95,3542.51C8275.11,3542.48,8515.27,3542.46,8515.27,3542.46L8515.27,3542.46C8506.19,3158.53,8396.4,2799.59,8211.42,2490.85Z" id="105" fill="#ffffff" fill-opacity="1.0" stroke="#dddddd" stroke-opacity="1.0" stroke-width="7.0" /><path d="M8035.05,3542.45L8035.05,4121.41C8275.15,4121.41,8515.25,4121.41,8515.25,4121.41C8515.5,4112.66,8515.93,4103.95,8515.93,4095.18C8515.93,4095.18,8515.93,3594.26,8515.93,3594.26C8515.93,3576.95,8515.46,3559.68,8514.62,3542.45L8514.62,3542.45C8514.62,3542.45,8274.83,3542.45,8035.05,3542.45Z" id="106" fill="#ffffff" fill-opacity="1.0" stroke="#dddddd" stroke-opacity="1.0" stroke-width="7.0" /><path d="M8035.05,4121.36L7981.66,4521.31L7795.7,4943.16C8005.76,5067.11,8215.81,5191.06,8215.81,5191.06C8402.18,4877.14,8510.88,4511.79,8515.56,4121.35L8515.56,4121.35C8515.56,4121.35,8275.31,4121.36,8035.05,4121.36Z" id="107" fill="#ffffff" fill-opacity="1.0" stroke="#dddddd" stroke-opacity="1.0" stroke-width="7.0" /><path d="M8858.88,3569.96C8858.88,3451.95,8850.02,3336.0,8833.28,3222.65C8801.78,3009.24,8741.72,2805.15,8657.05,2614.37C8569.06,2416.13,8454.56,2232.29,8318.02,2067.34C8259.21,1996.29,8196.43,1928.63,8129.81,1864.95C8129.81,1864.95,7909.06,2097.33,7909.06,2097.33C7965.24,2155.24,8018.11,2216.37,8067.56,2280.28C8174.02,2417.94,8264.21,2568.85,8335.12,2730.15C8411.39,2903.68,8465.36,3089.2,8493.5,3283.12C8508.24,3384.72,8515.97,3488.57,8515.97,3594.24C8515.97,3594.24,8515.96,3717.1,8515.95,3839.96L8515.95,3839.96C8515.94,3967.58,8515.93,4095.2,8515.93,4095.2C8515.93,4196.44,8508.78,4295.99,8495.26,4393.5C8469.66,4577.77,8420.78,4754.55,8351.55,4920.79C8277.51,5098.66,8180.23,5264.4,8063.56,5414.31C8017.69,5473.25,7968.93,5529.84,7917.31,5583.64C7917.31,5583.64,8144.15,5810.48,8144.15,5810.48C8209.23,5747.21,8270.58,5680.13,8328.04,5609.75C8461.71,5446.04,8573.81,5264.07,8660.05,5068.1C8743.66,4878.1,8802.9,4674.98,8833.88,4462.67C8850.23,4350.62,8858.86,4236.08,8858.86,4119.49C8858.86,4119.49,8858.86,3979.74,8858.87,3839.98L8858.87,3839.98C8858.88,3749.97,8858.88,3659.96,8858.88,3569.96Z" id="C DROP SHADWO" fill="#dfdfdf" fill-opacity="1.0" stroke="#dfdfdf" stroke-opacity="1.0" stroke-width="7.0" /><path d="M8063.55,5414.31C8195.77,5512.04,8327.99,5609.76,8327.99,5609.76C8461.68,5446.04,8573.79,5264.07,8660.03,5068.09C8660.03,5068.09,8351.53,4920.8,8351.53,4920.8L8351.53,4920.8C8277.5,5098.66,8180.21,5264.39,8063.55,5414.31Z" id="C7" fill="none" /><path d="M8351.55,4920.8C8505.8,4994.44,8660.05,5068.09,8660.05,5068.09C8743.66,4878.09,8802.89,4674.97,8833.87,4462.66C8833.87,4462.66,8495.26,4393.5,8495.26,4393.5L8495.26,4393.5C8469.66,4577.76,8420.77,4754.56,8351.55,4920.8Z" id="C6" fill="none" /><path d="M8515.93,4095.2C8515.93,4196.44,8508.78,4295.99,8495.26,4393.5C8495.26,4393.5,8833.87,4462.66,8833.87,4462.66C8850.22,4350.61,8858.85,4236.07,8858.85,4119.48C8858.85,4119.48,8858.85,3979.74,8858.85,3840.0L8858.85,3840.0L8515.93,3840.0C8515.93,3925.07,8515.93,4010.13,8515.93,4095.2Z" id="C5" fill="none" /><path d="M8515.96,3594.24C8515.96,3676.15,8515.96,3758.05,8515.96,3839.96L8515.96,3839.96L8858.88,3839.96C8858.88,3704.96,8858.88,3569.96,8858.88,3569.96C8858.88,3451.95,8850.03,3336.0,8833.29,3222.65C8833.29,3222.65,8493.5,3283.09,8493.5,3283.09L8493.5,3283.09C8508.23,3384.7,8515.96,3488.56,8515.96,3594.24Z" id="C4" fill="none" /><path d="M8335.1,2730.15C8411.38,2903.68,8465.34,3089.2,8493.47,3283.12C8493.47,3283.12,8833.26,3222.67,8833.26,3222.67C8801.76,3009.24,8741.71,2805.14,8657.03,2614.34L8657.03,2614.34C8657.03,2614.34,8496.06,2672.25,8335.1,2730.15Z" id="C3" fill="none" /><path d="M7917.3,5583.63C8030.72,5697.05,8144.14,5810.47,8144.14,5810.47C8209.22,5747.2,8270.57,5680.12,8328.03,5609.75C8328.03,5609.75,8063.59,5414.3,8063.59,5414.3L8063.59,5414.3C8017.7,5473.23,7968.94,5529.82,7917.3,5583.63Z" id="C8" fill="none" /><path d="M8318.03,2067.35C8192.79,2173.83,8067.55,2280.3,8067.55,2280.3C8174.02,2417.97,8264.21,2568.87,8335.13,2730.18C8335.13,2730.18,8657.06,2614.37,8657.06,2614.37L8657.06,2614.37C8569.07,2416.13,8454.57,2232.3,8318.03,2067.35Z" id="C2" fill="none" /><path d="M8129.8,1864.95C8019.42,1981.14,7909.05,2097.33,7909.05,2097.33C7965.23,2155.24,8018.1,2216.35,8067.55,2280.26C8067.55,2280.26,8318.03,2067.31,8318.03,2067.31L8318.03,2067.31C8259.22,1996.26,8196.43,1928.63,8129.8,1864.95Z" id="C1" fill="none" /><path d="M7267.37,6152.4L6990.0,6227.0L6726.12,6297.94L6395.05,6297.92L4952.89,6297.91L3535.05,6297.92L3243.75,6297.94L2938.38,6219.18L2680.45,6152.65L2680.45,6829.55L2756.99,6851.22L3136.41,6958.59L3535.05,6958.56L4952.88,6958.53L6395.04,6958.54L6785.78,6958.59L7168.96,6857.51L7267.37,6831.55L7267.37,6152.4Z" id="dropshadow level 2" fill="#dfdfdf" fill-opacity="1.0" /><path d="M3157.42,734.5L2757.94,842.622L2682.85,862.92L2682.85,1554.82L2937.48,1482.93L3240.43,1397.39L3515.44,1397.4L4200.12,1397.4L6380.31,1397.4L6724.89,1397.39L6973.14,1462.93L7271.79,1541.77L7271.79,869.39L7152.1,835.65L6793.18,734.5L4200.14,734.508L3157.42,734.5Z" id="dropshadow level 2" fill="#dfdfdf" fill-opacity="1.0" /><path d="M1211.73,1357.61C998.93,1568.82,813.21,1807.25,660.11,2067.21C527.42,2292.54,419.27,2534.05,339.37,2788.08C299.56,2914.65,266.74,3044.35,241.4,3176.68C241.4,3176.68,241.4,3368.34,241.4,3560.0L241.4,3560.0L241.4,4126.41C241.4,4312.58,241.4,4498.74,241.4,4498.74C267.19,4633.43,300.785,4765.35,341.565,4894.07C420.745,5144.0,527.195,5381.79,657.555,5603.88C811.685,5866.5,999.13,6107.18,1214.09,6320.15C1214.09,6320.15,1924.05,5599.85,1924.05,5599.85C1776.46,5451.81,1647.4,5285.29,1540.51,5104.16C1452.73,4955.38,1379.94,4796.7,1324.22,4630.19C1305.67,4574.76,1288.96,4518.46,1274.27,4461.36C1274.27,4461.36,1274.27,4293.89,1274.28,4126.42L1274.28,4126.42L1274.28,3560.0C1274.28,3444.7,1274.28,3329.39,1274.28,3214.09C1288.17,3160.1,1303.82,3106.8,1321.17,3054.29C1321.17,3054.29,1321.09,3054.25,1321.02,3054.21L1321.02,3054.21C1321.09,3054.23,1321.16,3054.25,1321.16,3054.25C1375.1,2890.99,1445.51,2735.23,1530.31,2588.85C1635.67,2406.98,1763.27,2239.59,1909.47,2090.49L1909.47,2090.49C1909.47,2090.49,1560.6,1724.05,1211.73,1357.61Z" id="dropshadow level 2" fill="#dfdfdf" fill-opacity="1.0" /><path d="M9925.01,4921.28C9843.84,5170.23,9748.82,5407.83,9616.78,5628.71C9479.03,5859.17,9306.37,6110.48,9121.03,6302.58C9121.03,6302.58,8749.52,5923.63,8378.0,5544.67C8498.19,5416.52,8604.96,5275.66,8696.22,5124.36C8788.04,4972.09,8864.04,4809.24,8921.98,4638.04C8941.6,4580.07,8959.23,4521.15,8974.61,4461.36C8974.61,4348.04,8974.61,4234.72,8974.61,4121.4C8974.59,3928.4,8974.56,3735.41,8974.56,3542.42C8974.56,3378.23,8974.53,3214.01,8974.53,3214.01C8959.59,3155.93,8942.57,3098.7,8923.63,3042.34C8867.31,2874.76,8793.74,2715.11,8704.94,2565.55C8609.52,2404.85,8496.62,2255.72,8368.8,2120.89C8368.8,2120.89,8730.4,1735.87,9091.99,1350.85C9290.6,1551.75,9464.99,1774.88,9610.52,2018.95C9744.0,2242.79,9841.64,2494.84,9922.81,2747.4C9963.25,2873.16,9994.53,3013.44,10020.6,3144.98C10020.6,3277.47,10020.6,3409.97,10020.7,3542.48C10020.7,3735.45,10020.7,3928.32,10020.6,4121.29C10009.6,4321.59,9998.59,4521.79,9998.59,4521.79L9998.59,4521.79C9971.56,4657.96,9967.36,4791.31,9925.01,4921.28Z" id="dropshadow level 2" fill="#dfdfdf" fill-opacity="1.0" stroke="#dfdfdf" stroke-opacity="1.0" stroke-width="7.0" /><path d="M4952.9,734.5L5721.21,734.5L5721.21,1397.4L4952.9,1397.4L4952.9,734.5Z" id="201" fill="#ffffff" fill-opacity="1.0" stroke="#dddddd" stroke-opacity="1.0" stroke-width="7.0" /><path d="M5721.2,734.5L6380.32,734.5L6380.32,1397.4L5721.2,1397.4L5721.2,734.5Z" id="202" fill="#ffffff" fill-opacity="1.0" stroke="#dddddd" stroke-opacity="1.0" stroke-width="7.0" /><path d="M6380.3,734.5L6380.3,1397.39L6724.9,1397.39L6973.16,1462.93L7152.1,835.65L6793.18,734.5L6380.3,734.5Z" id="203" fill="#ffffff" fill-opacity="1.0" stroke="#dddddd" stroke-opacity="1.0" stroke-width="7.0" /><path d="M7271.81,1541.77L7271.81,869.39L7152.09,835.65L6973.15,1462.93L7271.81,1541.77Z" id="204" fill="#ffffff" fill-opacity="1.0" stroke="#dddddd" stroke-opacity="1.0" stroke-width="7.0" /><path d="M7267.37,6831.55L7267.37,6152.4L6990.0,6226.98L7168.93,6857.51L7267.37,6831.55Z" id="212" fill="#ffffff" fill-opacity="1.0" stroke="#dddddd" stroke-opacity="1.0" stroke-width="7.0" /><path d="M6395.05,6297.94L6395.05,6958.59L6785.78,6958.59L7168.96,6857.53L6990.03,6227.0L6726.12,6297.94L6395.05,6297.94Z" id="213" fill="#ffffff" fill-opacity="1.0" stroke="#dddddd" stroke-opacity="1.0" stroke-width="7.0" /><path d="M5711.7,6297.9L6395.03,6297.9L6395.03,6958.54L5711.7,6958.54L5711.7,6297.9Z" id="214" fill="#ffffff" fill-opacity="1.0" stroke="#dddddd" stroke-opacity="1.0" stroke-width="7.0" /><path d="M4952.9,6297.9L5711.73,6297.9L5711.73,6958.54L4952.9,6958.54L4952.9,6297.9Z" id="215" fill="#ffffff" fill-opacity="1.0" stroke="#dddddd" stroke-opacity="1.0" stroke-width="7.0" /><path d="M4208.35,6297.9L4952.86,6297.9L4952.86,6958.54L4208.35,6958.54L4208.35,6297.9Z" id="216" fill="#ffffff" fill-opacity="1.0" stroke="#dddddd" stroke-opacity="1.0" stroke-width="7.0" /><path d="M3535.05,6297.9L4208.38,6297.9L4208.38,6958.54L3535.05,6958.54L3535.05,6297.9Z" id="217" fill="#ffffff" fill-opacity="1.0" stroke="#dddddd" stroke-opacity="1.0" stroke-width="7.0" /><path d="M3243.75,6297.94L2938.39,6219.2L2757.0,6851.25L3136.41,6958.59L3535.05,6958.59L3535.05,6297.94L3243.75,6297.94Z" id="218" fill="#ffffff" fill-opacity="1.0" stroke="#dddddd" stroke-opacity="1.0" stroke-width="7.0" /><path d="M2680.45,6152.65L2680.45,6829.55L2756.98,6851.21L2938.37,6219.16L2680.45,6152.65Z" id="219" fill="#ffffff" fill-opacity="1.0" stroke="#dddddd" stroke-opacity="1.0" stroke-width="7.0" /><path d="M1214.09,6320.16C1569.07,5960.01,1924.05,5599.85,1924.05,5599.85C1776.46,5451.81,1647.4,5285.3,1540.52,5104.15C1540.52,5104.15,657.55,5603.89,657.55,5603.89L657.55,5603.89C811.68,5866.5,999.13,6107.19,1214.09,6320.16Z" id="220" fill="#ffffff" fill-opacity="1.0" stroke="#dddddd" stroke-opacity="1.0" stroke-width="7.0" /><path d="M341.551,4894.09C420.731,5144.02,527.201,5381.8,657.561,5603.89C657.561,5603.89,1540.52,5104.14,1540.52,5104.14C1452.74,4955.36,1379.94,4796.71,1324.23,4630.2L1324.23,4630.2C1324.23,4630.2,832.891,4762.14,341.551,4894.09Z" id="221" fill="#ffffff" fill-opacity="1.0" stroke="#dddddd" stroke-opacity="1.0" stroke-width="7.0" /><path d="M1274.28,4461.36C1274.28,4349.71,1274.28,4238.05,1274.28,4126.4L1274.28,4126.4L241.401,4126.4C241.401,4312.57,241.401,4498.74,241.401,4498.74C267.191,4633.43,300.771,4765.34,341.551,4894.06C341.551,4894.06,1324.24,4630.18,1324.24,4630.18L1324.24,4630.18C1305.68,4574.75,1288.97,4518.46,1274.28,4461.36Z" id="222" fill="#ffffff" fill-opacity="1.0" stroke="#dddddd" stroke-opacity="1.0" stroke-width="7.0" /><path d="M241.4,3560.0L1274.29,3560.0L1274.29,4126.42L241.4,4126.42L241.4,3560.0Z" id="223" fill="#ffffff" fill-opacity="1.0" stroke="#dddddd" stroke-opacity="1.0" stroke-width="7.0" /><path d="M1274.28,3214.07C1288.17,3160.08,1303.83,3106.78,1321.18,3054.27C1321.18,3054.27,339.369,2788.1,339.369,2788.1C299.559,2914.67,266.739,3044.35,241.399,3176.68C241.399,3176.68,241.399,3368.35,241.399,3560.01L241.399,3560.01L1274.29,3560.01C1274.29,3444.7,1274.28,3329.38,1274.28,3214.07Z" id="224" fill="#ffffff" fill-opacity="1.0" stroke="#dddddd" stroke-opacity="1.0" stroke-width="7.0" /><path d="M1530.33,2588.81C1095.22,2328.0,660.11,2067.2,660.11,2067.2C527.42,2292.53,419.25,2534.03,339.35,2788.06C339.35,2788.06,1321.17,3054.23,1321.17,3054.23L1321.17,3054.23C1375.11,2890.96,1445.53,2735.19,1530.33,2588.81Z" id="225" fill="#ffffff" fill-opacity="1.0" stroke="#dddddd" stroke-opacity="1.0" stroke-width="7.0" /><path d="M1909.48,2090.48C1560.61,1724.04,1211.74,1357.6,1211.74,1357.6C998.93,1568.82,813.2,1807.26,660.1,2067.23C660.1,2067.23,1530.32,2588.84,1530.32,2588.84L1530.32,2588.84C1635.68,2406.97,1763.28,2239.58,1909.48,2090.48Z" id="226" fill="#ffffff" fill-opacity="1.0" stroke="#dddddd" stroke-opacity="1.0" stroke-width="7.0" /><path d="M2682.85,862.92L2682.85,1554.82L2937.49,1482.92L2757.93,842.6L2682.85,862.92Z" id="227" fill="#ffffff" fill-opacity="1.0" stroke="#dddddd" stroke-opacity="1.0" stroke-width="7.0" /><path d="M3157.42,734.5L2757.95,842.61L2937.51,1482.93L3240.44,1397.39L3515.48,1397.39L3515.48,734.5L3157.42,734.5Z" id="228" fill="#ffffff" fill-opacity="1.0" stroke="#dddddd" stroke-opacity="1.0" stroke-width="7.0" /><path d="M3515.45,734.5L4200.11,734.5L4200.11,1397.4L3515.45,1397.4L3515.45,734.5Z" id="229" fill="#ffffff" fill-opacity="1.0" stroke="#dddddd" stroke-opacity="1.0" stroke-width="7.0" /><path d="M4200.15,734.5L4952.9,734.5L4952.9,1397.4L4200.15,1397.4L4200.15,734.5Z" id="230" fill="#ffffff" fill-opacity="1.0" stroke="#dddddd" stroke-opacity="1.0" stroke-width="7.0" /><path d="M8378.0,5544.67C8749.52,5923.63,9121.03,6302.58,9121.03,6302.58C9306.37,6110.48,9479.03,5859.19,9616.78,5628.73C9616.78,5628.73,8696.24,5124.35,8696.24,5124.35L8696.24,5124.35C8604.98,5275.65,8498.19,5416.52,8378.0,5544.67Z" id="211" fill="#ffffff" fill-opacity="1.0" stroke="#dddddd" stroke-opacity="1.0" stroke-width="7.0" /><path d="M9091.99,1350.85C8730.4,1735.87,8368.8,2120.89,8368.8,2120.89C8496.62,2255.72,8609.51,2404.84,8704.93,2565.54C8704.93,2565.54,9610.49,2019.0,9610.49,2019.0L9610.49,2019.0C9464.96,1774.93,9290.6,1551.75,9091.99,1350.85Z" id="205" fill="#ffffff" fill-opacity="1.0" stroke="#dddddd" stroke-opacity="1.0" stroke-width="7.0" /><path d="M8696.2,5124.37C9156.49,5376.53,9616.78,5628.68,9616.78,5628.68C9748.82,5407.8,9843.81,5170.23,9924.98,4921.28C9924.98,4921.28,8921.97,4638.05,8921.97,4638.05L8921.97,4638.05C8864.03,4809.25,8788.02,4972.1,8696.2,5124.37Z" id="210" fill="#ffffff" fill-opacity="1.0" stroke="#dddddd" stroke-opacity="1.0" stroke-width="7.0" /><path d="M8974.61,4461.36C8959.23,4521.15,8941.62,4580.05,8922.0,4638.02C8922.0,4638.02,9925.03,4921.28,9925.03,4921.28C9967.38,4791.31,9971.56,4657.96,9998.59,4521.79C9998.59,4521.79,10009.6,4321.5,10020.7,4121.2L10020.7,4121.2L8974.61,4121.39C8974.61,4234.72,8974.61,4348.04,8974.61,4461.36Z" id="209W" fill="#ffffff" fill-opacity="1.0" stroke="#dddddd" stroke-opacity="1.0" stroke-width="7.0" /><path d="M8974.6,3542.45L10020.6,3542.48L10020.6,4121.38L8974.6,4121.41L8974.6,3542.45Z" id="208" fill="#ffffff" fill-opacity="1.0" stroke="#dddddd" stroke-opacity="1.0" stroke-width="7.0" /><path d="M10020.6,3144.98C9994.53,3013.44,9963.32,2873.21,9922.88,2747.45C9922.88,2747.45,8923.6,3042.36,8923.6,3042.36C8942.54,3098.72,8959.59,3155.93,8974.53,3214.01C8974.53,3214.01,8974.53,3378.2,8974.53,3542.4L8974.53,3542.4L10020.7,3542.48C10020.7,3409.97,10020.7,3277.47,10020.6,3144.98Z" id="207" fill="#ffffff" fill-opacity="1.0" stroke="#dddddd" stroke-opacity="1.0" stroke-width="7.0" /><path d="M9610.55,2018.9C9157.75,2292.23,8704.95,2565.55,8704.95,2565.55C8793.75,2715.11,8867.34,2874.74,8923.65,3042.32C8923.65,3042.32,9922.73,2747.36,9922.73,2747.36L9922.73,2747.36C9841.56,2494.8,9744.03,2242.74,9610.55,2018.9Z" id="206" fill="#ffffff" fill-opacity="1.0" stroke="#dddddd" stroke-opacity="1.0" stroke-width="7.0" /><g id="13_g"><path d="M3629.8,3120.4L3629.8,3181.2L3282.15,3181.2L3282.15,4536.0L3629.8,4536.0L3629.8,4595.5L4118.7,4595.5L4118.7,4351.9L4060.65,4351.9L4060.65,3363.7L4118.7,3363.7L4118.7,3120.4L3629.8,3120.4Z" id="Shape001" fill="none" /><path d="M3131.55,3514.0L4190.2,3514.0" id="1_line" fill="none" /><path d="M3041.0,4161.95L4213.3,4161.95" id="2_line" fill="none" /></g><path d="M7737.64,3692.5L7737.64,3973.53L8020.49,3973.59L8020.49,3692.5L7737.64,3692.5Z" id="Shape002" fill="#dfdfdf" fill-opacity="1.0" /><path d="M3015.38,3638.71L3458.53,3638.71L3458.53,4099.41L3015.38,4099.41L3015.38,3638.71Z" id="Shape003" fill="#dfdfdf" fill-opacity="1.0" /><text text-align="left" id="CAM" fill="#727272" fill-opacity="1.0" font-family="averta,arial,'arial bold'" font-weight="bold" font-size="69.8049" x="7804.46" y="3857.76"><tspan text-anchor="start" x="7804.46">CAM</tspan></text><text text-align="left" id="MIX" fill="#727272" fill-opacity="1.0" font-family="averta,arial,'arial bold'" font-weight="bold" font-size="130.884" x="3126.47" y="3915.45"><tspan text-anchor="start" x="3126.47">MIX</tspan></text><path d="M2714.8,3028.2L2677.75,3134.0L3071.65,3289.0L3091.25,3257.1L2714.8,3028.2Z" id="WHITE MASK" fill="#ffffff" fill-opacity="1.0" /><path d="M4417.62,3918.33C4417.62,3935.89,4417.62,3953.46,4417.62,3971.02C4417.62,3998.51,4417.62,4026.01,4417.62,4097.82C4492.72,4097.82,4519.16,4097.82,4573.62,4097.82C4573.62,4153.76,4573.62,4132.83,4573.62,4215.31C4788.78,4215.31,5089.9,4215.31,5305.06,4215.31C5305.06,4132.83,5305.06,4154.34,5305.06,4097.82C5360.13,4097.82,5413.5,4097.82,5466.88,4097.82C5466.88,4036.96,5466.88,3976.1,5466.88,3918.33C5655.65,3918.33,5844.43,3918.33,6033.21,3918.33C6033.21,3865.66,6033.21,3813.0,6033.21,3760.33C5844.43,3760.33,5655.66,3760.33,5466.88,3760.33C5466.88,3679.2,5466.88,3615.04,5466.88,3582.12C5390.57,3582.12,5360.67,3582.12,5305.05,3582.12C5305.05,3525.3,5305.06,3544.34,5305.06,3460.75C5089.69,3460.75,4788.98,3460.75,4573.62,3460.75C4573.62,3544.34,4573.62,3525.89,4573.62,3582.12C4518.61,3582.12,4492.56,3582.12,4417.61,3582.12C4417.61,3653.66,4417.61,3680.64,4417.61,3707.61C4417.61,3725.18,4417.61,3742.76,4417.61,3760.33C4227.0,3760.33,4036.39,3760.33,3845.78,3760.33C3845.78,3813.0,3845.78,3865.66,3845.78,3918.33L3845.78,3918.33C4036.39,3918.33,4227.0,3918.33,4417.62,3918.33Z" id="Shape004pf" fill="#262626" fill-opacity="1.0" /><text text-align="left" id="STAGE" fill="#ffffff" fill-opacity="1.0" font-family="averta,arial,'arial bold'" font-weight="bold" font-size="226.25" x="4563.51" y="3918.06"><tspan text-anchor="start" x="4563.51">STAGE</tspan></text></svg>