<svg version="1.1" viewBox="0 0 10240 7680" x="0px" y="0px" width="1024px" height="768px" xmlns="http://www.w3.org/2000/svg">
  <defs>
  </defs>
  <g id="BACKGROUND">
    <path d="M8869.419999999996,2824.95C8868.71,2801.420000000001 8867.96,2777.9100000000008 8866.849999999999,2754.45C8864.279999999999,2700.7 8860.45,2645.6899999999996 8855.46,2590.9100000000008L8850.470000000001,2536.2400000000007L7970.46,1454.4900000000007L7718.639999999999,1197.4300000000003L7257.900000000001,1588.6400000000008L7186.160000000001,1516.71L6219.0199999999995,547.0799999999997L6057.079999999999,385.1199999999997L5906.22,251.21999999999997L5767.89,170.76999999999967L5767.849999999999,170.8199999999998L5759.94,166.22999999999976L5204.969999999998,-18.05L4997.41,206.13000000000008L4941.2300000000005,755.59L4927.160000000001,865.4400000000004L3787.66,2035.4399999999998L3635.66,1886.44L2499.08,3213.87L1288.45,3213.87L1288.45,4927.7699999999995L2191.9000000000005,5814.990000000001L2191.879999999999,5815.0199999999995L3405.9800000000005,7007.360000000001L3419.1799999999994,7019.220000000002C3509.9399999999996,7100.6 3608.869999999999,7176.160000000002 3713.239999999999,7243.840000000003C3857.6799999999994,7337.470000000001 4013.92,7416.610000000001 4177.619999999998,7479.0700000000015L4208.649999999998,7490.9000000000015L4209.29,7490.9000000000015C4361.7,7546.720000000003 4521.239999999999,7588.570000000003 4684.059999999999,7615.410000000002C4780.909999999999,7631.389999999999 4879.309999999999,7638.080000000004 4978.089999999999,7643.560000000003L4978.089999999999,7649.52L5159.96,7647.639999999999C5310.19,7646.090000000003 5460.969999999998,7636.120000000001 5608.070000000001,7609.94L5661.04,7600.500000000002L5661.79,7599.800000000001C5818.770000000001,7568.53 5972.19,7523.3200000000015 6118.600000000001,7465.110000000001L6175.800000000002,7442.340000000003L6176.440000000001,7441.26C6245.520000000001,7411.81 6313.200000000002,7379.340000000003 6378.300000000002,7344.4000000000015C6438.170000000001,7312.28 6498.810000000002,7276.240000000002 6558.470000000002,7237.299999999999C6669.420000000003,7164.9400000000005 6773.040000000002,7084.379999999999 6868.080000000003,6996.679999999999L7000.780000000002,6863.549999999998C7102.160000000003,6752.759999999999 7191.190000000003,6632.71 7265.440000000001,6506.670000000001L8049.240000000004,5284.44L8067.370000000002,5256.11L8371.390000000003,4782.009999999999L8377.130000000001,4772.920000000001C8424.91,4696.11 8470.400000000005,4614.419999999999 8512.36,4530.13C8558.560000000001,4437.28 8600.84,4340.420000000001 8638.690000000004,4240.78L8716.990000000005,4012.640000000001L8716.450000000004,4011.6200000000017C8749.510000000002,3901.480000000001 8777.630000000005,3787.9100000000008 8800.290000000005,3673.020000000001L8830.130000000005,3499.6800000000017C8842.360000000004,3417.0600000000004 8851.930000000004,3333.500000000001 8858.710000000003,3249.7799999999997L8859.300000000003,3242.46C8860.510000000002,3227.2799999999997 8861.650000000005,3212.0999999999995 8862.690000000006,3196.86C8868.440000000006,3111.1799999999994 8871.360000000004,3024.61 8871.360000000004,2939.579999999999C8871.349999999999,2905.06 8870.73,2868.6600000000008 8869.419999999996,2824.95z" id="POCHE" fill="#f6f6f6" stroke="#d4d4d4" stroke-width="3"/>
    <path d="M4284.332,3272.9410000000003L3885.665,3315.888L3933.594,3789.5409999999997L4335.259,3747.3399999999997L4284.332,3272.9410000000003z" id="H" fill="#ffffff" stroke="#dddddd" stroke-width="3"/>
    <path d="M4688.389999999999,3229.3999999999996L4285.3,3272.81L4348.05,3872.8700000000003L4753.44,3828.81L4688.389999999999,3229.3999999999996z" id="J" fill="#ffffff" stroke="#dddddd" stroke-width="3"/>
    <path d="M5104.36,3184.65L4689.43,3229.3300000000004L4716.26,3472.2700000000004L5131.04,3428.75L5104.36,3184.65z" id="K" fill="#ffffff" stroke="#dddddd" stroke-width="3"/>
    <path d="M5502.07,3141.7999999999997L5105.35,3184.52L5168.44,3783.7000000000003L5570.17,3740.04L5502.07,3141.7999999999997z" id="L" fill="#ffffff" stroke="#dddddd" stroke-width="3"/>
    <path d="M5900.145,3098.941L5503.076,3141.7070000000003L5556.803,3618.942L5952.527,3577.3599999999997L5900.145,3098.941z" id="M" fill="#ffffff" stroke="#dddddd" stroke-width="3"/>
    <path d="M3853.21,2770.55L3534.5,3071.52L3551.920215553688,3263.0702155536883L3834.170215553688,3321.2702155536886L3886.02,3316.18L3918.77,3312.4z" id="A" fill="#ffffff" stroke="#dddddd" stroke-width="3"/>
    <path d="M4126.49,2567.94L3839.2400000000002,2645.67L3918.71,3312.33L4267.7300000000005,3274.7300000000005L4284.14,3271.3500000000004L4211.01,2590.23L4126.49,2567.94z" id="B" fill="#ffffff" stroke="#dddddd" stroke-width="3"/>
    <path d="M5793.139999999999,2380.8700000000003L5502.81,2407.5099999999998L5424.55,2444.71L5502.1900000000005,3141.79L5513.08,3140.63L5872.8099999999995,3101.88L5793.139999999999,2380.8700000000003z" id="F" fill="#ffffff" stroke="#dddddd" stroke-width="3"/>
    <path d="M6143.030000000001,2812.22L5914.92,2929.7999999999997L5958.99,3019.2599999999998L6186.47,2900.16L6143.030000000001,2812.22z" id="ADA" fill="#ffffff" stroke="#dddddd" stroke-width="3"/>
    <path d="M5812.07,2545.93L5856.96,2958.5699999999997L6175.83,2794.19L6171.75,2755.35L5812.07,2545.93z" id="G" fill="#ffffff" stroke="#dddddd" stroke-width="3"/>
    <path d="M4600.160000000001,2432.14L4199.47,2475.12L4204.610000000001,2521.41L4285.1900000000005,3271.8L4688.27,3228.3700000000003L4636.28,2762.71L4600.160000000001,2432.14z" id="C" fill="#ffffff" stroke="#dddddd" stroke-width="3"/>
    <path d="M5019.83,2391.31L4866.7,2406.06L4883.37,2579.38L4912.39,2576.58L4922.94,2686.18L4755.21,2702.33L4744.66,2592.74L4773.63,2589.94L4756.99,2416.62L4600.160000000001,2431.72L4638.08,2764.54L4689.3,3228.31L5104.24,3183.6099999999997L5054.679999999999,2720.7799999999997L5019.83,2391.31z" id="D" fill="#ffffff" stroke="#dddddd" stroke-width="3"/>
    <path d="M5413.17,2353.83L5020.66,2391.63L5054.46,2718.81L5105.25,3183.54L5501.95,3140.81L5417.56,2392.23L5413.17,2353.83z" id="E" fill="#ffffff" stroke="#dddddd" stroke-width="3"/>
    <g id="SECTIONS">
      <g id="LEVEL 100">
        <path d="M5809.6900000000005,1087.3L5506,1391L5747.97,1632.96L6051.990000000001,1328.93L5809.6900000000005,1087.3z" id="156" fill="#ffffff" stroke="#dddddd" stroke-width="3"/>
        <path d="M6052.02,1328.95L5748,1632.98L5941.69,1826.68L5837.3099999999995,1931.06L5874.99,1968.1999999999998L6283.46,1559.7299999999998L6052.02,1328.95z" id="155" fill="#ffffff" stroke="#dddddd" stroke-width="3"/>
        <path d="M6283.42,1559.7L5874.95,1968.17L6103.25,2193.23L6510.410000000001,1786.07L6283.42,1559.7z" id="154" fill="#ffffff" stroke="#dddddd" stroke-width="3"/>
        <path d="M6103.25,2193.2599999999998L6340.77,2427.39L6746.5599999999995,2021.6L6510.41,1786.1L6103.25,2193.2599999999998z" id="153" fill="#ffffff" stroke="#dddddd" stroke-width="3"/>
        <path d="M6907.910000000001,2182.46L6746.590000000001,2021.6000000000004L6340.800000000001,2427.3900000000003L6486.280000000002,2570.8L6758.670000000002,2498.2700000000004L6981.270000000002,2275.6700000000005C6957.95,2239.33 6933.39,2207.94 6907.910000000001,2182.46z" id="152" fill="#ffffff" stroke="#dddddd" stroke-width="3"/>
        <path d="M7051.040000000001,2408.0299999999997C7029.540000000001,2358.8 7006.11,2314.39 6981.25,2275.65L6758.65,2498.25L6859.27,2599.81L7051.040000000001,2408.0299999999997z" id="151" fill="#ffffff" stroke="#dddddd" stroke-width="3"/>
        <path d="M7051.040000000001,2408.05L6859.250000000001,2599.83L6879.520000000001,2620.29L7107.640000000001,2563.25C7090.82,2507.66 7071.83,2455.62 7051.040000000001,2408.05z" id="150" fill="#ffffff" stroke="#dddddd" stroke-width="3"/>
        <path d="M6670.29,2752.24L6464.85,3015.68L7182.660000000001,2973.8399999999997C7171.2300000000005,2825.749999999999 7144.7300000000005,2685.8199999999993 7107.620000000001,2563.249999999999L6879.5,2620.2899999999995L6733.380000000001,2670.2099999999996L6670.29,2752.24z" id="134" fill="#ffffff" stroke="#dddddd" stroke-width="3"/>
        <path d="M6333.8099999999995,3183.73C6333.8099999999995,3183.73 6333.199999999999,3202.24 6330,3233.6099999999997L7183.61,3285.4500000000003C7191.24,3179.78 7190.48,3074.93 7182.66,2973.85L6464.8499999999985,3015.69L6333.8099999999995,3183.73z" id="133" fill="#ffffff" stroke="#dddddd" stroke-width="3"/>
        <path d="M6307.25,3376.4100000000003L7136.91,3590.36C7161.120000000001,3489.71 7176.29,3387.21 7183.65,3285.4500000000003L6330.04,3233.6099999999997C6326.49,3268.0200000000004 6319.7699999999995,3318.06 6307.25,3376.4100000000003z" id="132" fill="#ffffff" stroke="#dddddd" stroke-width="3"/>
        <path d="M6252.65,3560.85L7019.47,3918.33C7071.219999999999,3813.8399999999997 7109.73,3703.2599999999998 7136.91,3590.34L6307.25,3376.3900000000003C6295.209999999999,3432.38 6277.8099999999995,3495.96 6252.65,3560.85z" id="131" fill="#ffffff" stroke="#dddddd" stroke-width="3"/>
        <path d="M6167.57,3729.14C6163.19,3735.86 6158.5199999999995,3743.04 6153.649999999999,3750.54L6861.359999999999,4203.83L6864.259999999998,4199.25C6864.259999999998,4199.25 6963.2199999999975,4042.7 7018.639999999998,3919.9799999999996C7018.899999999998,3919.4299999999994 7019.169999999998,3918.879999999999 7019.429999999998,3918.329999999999L6252.609999999997,3560.8499999999995C6230.68,3617.43 6202.9,3674.9400000000005 6167.57,3729.14z" id="129" fill="#ffffff" stroke="#dddddd" stroke-width="3"/>
        <path d="M5998.55,3991.06L6704.18,4452.03L6861.370000000001,4203.839999999999L6153.660000000001,3750.5499999999993C6114.48,3810.84 6060.05,3895.3199999999997 5998.55,3991.06z" id="128" fill="#ffffff" stroke="#dddddd" stroke-width="3"/>
        <path d="M5998.5599999999995,3991.05C5961.26,4049.15 5921.35,4111.35 5880.65,4174.92L5952.61,4219L5913.379999999999,4287.01L6553.74,4689.52L6704.17,4452.02L5998.5599999999995,3991.05z" id="127" fill="#ffffff" stroke="#dddddd" stroke-width="3"/>
        <path d="M6428.099999999999,4887.900000000001L6553.75,4689.51L5913.39,4287L5793.7,4475.79L6428.099999999999,4887.900000000001z" id="126" fill="#ffffff" stroke="#dddddd" stroke-width="3"/>
        <path d="M5658.3,4689.45L6296.01,5096.530000000001L6428.13,4887.91L5793.74,4475.8L5658.3,4689.45z" id="125" fill="#ffffff" stroke="#dddddd" stroke-width="3"/>
        <path d="M5523.75,4901.639999999999L6163.01,5306.459999999999L6295.970000000001,5096.53L5658.260000000001,4689.449999999999L5523.75,4901.639999999999z" id="124" fill="#ffffff" stroke="#dddddd" stroke-width="3"/>
        <path d="M5907.67,5623.35L5992.550000000001,5538.469999999999L6077.420000000001,5442.98L6151.6900000000005,5324.360000000001L6163.020000000001,5306.47L5523.760000000001,4901.660000000001L5495.000000000001,4947.030000000001L5392.85,5051.130000000001L5465.090000000001,5134.480000000001C5454.660000000002,5144.790000000001 5443.43,5154.6500000000015 5431.670000000002,5164.110000000001L5431.720000000001,5164.18L5431.720000000001,5164.18L5700.040000000001,5564.76L5794.500000000002,5704.71L5907.67,5623.35z" id="122" fill="#ffffff" stroke="#dddddd" stroke-width="3"/>
        <path d="M5431.58,5164.15C5366.98,5216.139999999999 5283.17,5254.66 5188.490000000001,5273.61L5286.6,5742.039999999999C5460.760000000001,5711.98 5607.250000000002,5648.18 5700.030000000001,5564.73L5431.710000000001,5164.15L5431.58,5164.15z" id="120" fill="#ffffff" stroke="#dddddd" stroke-width="3"/>
        <path d="M5063.32,5761.040000000001C5141.14,5760.880000000001 5216.129999999999,5754.23 5286.620000000001,5742.080000000001L5188.51,5273.6500000000015C5146.52,5282.050000000001 5102.45,5286.700000000001 5056.9,5286.810000000001L5063.32,5761.040000000001z" id="119" fill="#ffffff" stroke="#dddddd" stroke-width="3"/>
        <path d="M5063.31,5761.040000000001L5056.9,5286.82C5056.27,5286.82 5055.64,5286.860000000001 5055.01,5286.860000000001C4957.96,5286.860000000001 4867.29,5266.740000000001 4789.95,5231.91L4613.15,5680.22C4737.83,5730.990000000001 4892.66,5761.080000000001 5060.44,5761.080000000001C5061.4,5761.07 5062.35,5761.040000000001 5063.31,5761.040000000001z" id="118" fill="#ffffff" stroke="#dddddd" stroke-width="3"/>
        <path d="M4740.44,5206.549999999999L4787.88,5102.17L4670.03,5013.78L4648.25,4991.99L4110,5530.259999999999L4111.11,5531.379999999999L4231.34,5637.469999999999L4319.76,5704.67L4436.46,5782.469999999999L4535.490000000001,5824.91L4613.17,5680.16L4789.97,5231.84C4772.780000000001,5224.139999999999 4756.24,5215.69 4740.44,5206.549999999999z" id="116" fill="#ffffff" stroke="#dddddd" stroke-width="3"/>
        <path d="M3926.45,5344.0599999999995L4110,5530.29L4648.25,4992.04L4463.360000000001,4807.150000000001L3926.45,5344.0599999999995z" id="114" fill="#ffffff" stroke="#dddddd" stroke-width="3"/>
        <path d="M4287.7,4631.5L3752.0599999999995,5167.129999999999L3926.4399999999996,5344.049999999999L4463.349999999999,4807.139999999999L4287.7,4631.5z" id="113" fill="#ffffff" stroke="#dddddd" stroke-width="3"/>
        <path d="M3752.04,5167.129999999999L4287.67,4631.5L4128.83,4472.639999999999L3594.3399999999997,5007.129999999999L3752.04,5167.129999999999z" id="112" fill="#ffffff" stroke="#dddddd" stroke-width="3"/>
        <path d="M4152.08,4358.78L4006.8,4213.5L3405.1499999999996,4815.16L3594.3599999999997,5007.13L4128.85,4472.64L4083.54,4427.34L4152.08,4358.78z" id="111" fill="#ffffff" stroke="#dddddd" stroke-width="3"/>
        <path d="M3809.049823615412,4015.85L3208.85,4616.150176384588L3405.159647230824,4815.169647230823L4006.809647230824,4213.509647230823z" id="110" fill="#ffffff" stroke="#dddddd" stroke-width="3"/>
        <path d="M3765.0099999999993,3971.8L3223.23,4181.67L3000.35,4404.55L3208.7001763845883,4616.100176384588L3809.050176384588,4015.750176384589z" id="109" fill="#ffffff" stroke="#dddddd" stroke-width="3"/>
        <path d="M2896.35,4177.5L2898.05,4300.65L3000.42,4404.51L3223.3,4181.63L2896.35,4177.5z" id="108" fill="#ffffff" stroke="#dddddd" stroke-width="3"/>
        <path d="M3765.089647230824,3971.799647230824L3744.979647230824,3951.679647230824L3742.600000000001,3837.45L2891.8,3837.4500000000003L2896.359647230824,4177.539647230824L3223.3096472308243,4181.669647230823z" id="107" fill="#ffffff" stroke="#dddddd" stroke-width="3"/>
        <path d="M3741.01,3694.3600000000006L3553.53,3542.9L2887.55,3542.9L2891.7001763845883,3837.400176384588L3742.550176384588,3837.400176384588z" id="106" fill="#ffffff" stroke="#dddddd" stroke-width="3"/>
        <path d="M3553.53,3542.88L3143.27,3211.3999999999996L2883.8999999999996,3278.5899999999997L2887.55,3542.89L3553.53,3542.89z" id="105" fill="#ffffff" stroke="#dddddd" stroke-width="3"/>
        <path d="M3182.75,3164.1699999999996L2947.21,2968.6499999999996L2698.8,3263.249999999999L2756.59,3321.0299999999997L2883.91,3278.5999999999995L3143.2799999999997,3211.41L3182.75,3164.1699999999996z" id="104" fill="#ffffff" stroke="#dddddd" stroke-width="3"/>
        <path d="M3203.102770496658,2760.75L3002,3014.0316885100233L3182.71,3164.1016885100235L3390.402770496659,2915.652770496659z" id="103" fill="#ffffff" stroke="#dddddd" stroke-width="3"/>
        <path d="M3562.11,2710.1600000000003L3379.4900000000002,2541.3500000000004L3203.15,2760.8100000000004L3390.4,2915.6800000000003L3562.11,2710.1600000000003z" id="102" fill="#ffffff" stroke="#dddddd" stroke-width="3"/>
        <path d="M3711.63,2531.2L3538.2400000000002,2346.4L3379.5,2541.34L3562.12,2710.1499999999996L3711.63,2531.2z" id="101" fill="#ffffff" stroke="#dddddd" stroke-width="3"/>
        <path d="M3782.2000000000003,2455.84L3673.9100000000003,2256.43L3768.07,2158.06L3748.9300000000003,2138.15L3660.1700000000005,2231.12L3648.28,2209.23L3538.1500000000005,2346.7599999999998L3711.6300000000006,2531.17L3782.2000000000003,2455.84z" id="100" fill="#ffffff" stroke="#dddddd" stroke-width="3"/>
        <path d="M4740.44,5206.549999999999L4787.88,5102.17L4670.03,5013.78L4648.25,4991.99L4110,5530.259999999999L4111.11,5531.379999999999L4231.34,5637.469999999999L4319.76,5704.67L4436.46,5782.469999999999L4535.490000000001,5824.91L4613.17,5680.16L4789.97,5231.84C4772.780000000001,5224.139999999999 4756.24,5215.69 4740.44,5206.549999999999z" id="116" fill="#ffffff" stroke="#dddddd" stroke-width="3"/>
      </g>
      <g id="ISM_GROUP_LEVEL 200 DROPSHADOW">
        <path d="M5357.67,726.11L5120,654.81L5159.34,315.75999999999993L5254.57,212.89999999999992L5540.44,284.3699999999999L5540.43,284.3999999999999L5544.06,285.3199999999999L5805.6900000000005,437.33999999999986L5787.830000000002,461.15999999999985L5787.840000000001,461.15999999999985L5805.6900000000005,437.35999999999984L5825.960000000001,449.14999999999986L6069.760000000001,692.9499999999998L6081.490000000002,704.7099999999999L6081.500000000001,704.7099999999999L6360.480000000001,984.4299999999998L6360.500000000001,984.4199999999998L6636.360000000001,1261.0199999999998L6636.390000000001,1261.0199999999998L6921.660000000002,1547.0499999999997L6921.640000000002,1547.07L6921.660000000002,1547.07L7203.800000000001,1829.95L7203.780000000002,1829.96L7203.800000000001,1829.96L7432.610000000001,2059.37L7432.620000000001,2059.36L7505.9800000000005,2132.91L7403.120000000001,2247.2L7263.130000000001,2228.8999999999996L7263.1,2228.93L6907.890000000001,2182.4799999999996L6879.540000000001,2154.2099999999996L6879.530000000001,2154.18L6596.640000000001,1872.0799999999997L6596.640000000001,1872.0599999999995L6310.590000000001,1586.8199999999997L6310.590000000001,1586.7999999999995L6310.56,1586.8199999999997L6033.97,1310.9999999999995L6033.960000000001,1311.0099999999998L5754.2,1032L5754.2,1031.99L5754.19,1032L5540.25,818.66L5525.4,811.0699999999999L5525.4,811.06L5361.2,727.2199999999999L5357.65,726.15L5357.67,726.11zM7784.04,3001.25C7784.210000000001,2989.2000000000003 7784.57,2977.24 7784.57,2965.1299999999997C7784.57,2870.8599999999997 7779.51,2778.34 7769.8,2688.1L7769.75,2688.07L7769.84,2688.0600000000004C7760.450000000001,2600.7300000000005 7746.67,2515.5600000000004 7728.870000000001,2433.0000000000005L7728.83,2433.01C7716.33,2375.0000000000005 7701.900000000001,2318.28 7685.550000000001,2263.05L7258.34,2398.1700000000005C7269.160000000001,2439.4100000000003 7279.140000000001,2481.2900000000004 7288.26,2523.5500000000006L7288.3,2523.5500000000006C7303.950000000001,2596.1300000000006 7317.01,2669.84 7327.130000000001,2743.3700000000003L7327.09,2743.4300000000003C7339.780000000001,2835.7300000000005 7347.7300000000005,2927.69 7350.480000000001,3016.85L7350.490000000001,3016.85C7351.18,3039.4799999999996 7351.630000000001,3062.01 7351.630000000001,3084.24C7351.630000000001,3146.9700000000003 7348.280000000001,3208.5899999999997 7342.090000000002,3269.0099999999993L7342.100000000001,3269.0099999999993C7332.830000000002,3359.5699999999993 7317.100000000001,3447.4299999999994 7296.140000000001,3532.1599999999994L7296.1500000000015,3532.1599999999994C7273.750000000001,3622.7099999999996 7245.400000000001,3709.6899999999996 7212.790000000001,3792.7399999999993L7212.800000000001,3792.7399999999993L7212.790000000001,3792.749999999999C7182.970000000001,3868.6799999999994 7149.59,3941.269999999999 7113.830000000002,4010.169999999999L7113.850000000001,4010.1799999999994L7113.830000000002,4010.1899999999987C7087.230000000001,4061.479999999999 7059.3600000000015,4110.759999999999 7030.660000000002,4157.809999999999L6975.450000000002,4245.609999999999L6975.410000000002,4245.589999999998L6815.140000000001,4500.449999999999L6815.160000000001,4500.459999999998L6653.150000000001,4758.0999999999985L6653.16,4758.0999999999985L6653.12,4758.149999999998L6491.660000000001,5014.909999999998L6491.640000000001,5014.899999999999L6331.4000000000015,5269.709999999999L6331.42,5269.719999999998L6195.970000000001,5485.129999999999C6187.360000000001,5500.4 6178.170000000001,5515.379999999999 6168.700000000001,5530.239999999999L6168.710000000001,5530.239999999999L6168.700000000001,5530.249999999998C6126.210000000001,5596.979999999999 6075.470000000001,5659.259999999998 6017.560000000001,5716.169999999998L6017.540000000001,5716.149999999999C5955.630000000001,5776.979999999999 5885.590000000001,5831.57 5808.850000000001,5878.7699999999995L5808.870000000001,5878.789999999999L5808.84,5878.799999999999C5740.85,5920.629999999999 5667.64,5956.589999999998 5590.15,5985.9L5590.14,5985.9C5512.3,6015.36 5430.2,6038.019999999999 5344.790000000001,6053.099999999999C5276.54,6065.139999999999 5206.2300000000005,6072.37 5134.33,6074.28L5096.37,6074.85C5012.86,6074.85 4931.360000000001,6067.59 4852.58,6053.95L4852.58,6053.99C4769,6039.51 4688.51,6017.759999999999 4612.09,5989.51L4612.09,5989.52L4612.08,5989.51C4532.38,5960.030000000001 4457.05,5923.580000000001 4387.240000000001,5880.93L4387.22,5880.880000000001C4321.06,5840.47 4259.830000000001,5794.5700000000015 4204.47,5743.940000000001L4195.150000000001,5734.6100000000015L4195.150000000001,5734.620000000001L3983.5300000000007,5522.690000000001L3983.5100000000007,5522.6500000000015L3766.290000000001,5305.110000000001L3766.2700000000004,5305.13L3766.260000000001,5305.110000000001L3552.9700000000007,5091.520000000001L3552.960000000001,5091.530000000001L3334.970000000001,4873.22L3334.980000000001,4873.210000000001L3149.940000000001,4687.900000000001L3149.940000000001,4687.840000000001L2936.6500000000005,4474.220000000001L2936.6100000000006,4474.260000000001L2803.3200000000006,4340.780000000001L2803.310000000001,4340.740000000001L2803.310000000001,4056.9900000000007L2803.310000000001,4056.9700000000007L2803.310000000001,3661.460000000001L2803.300000000001,3661.460000000001L2803.310000000001,3661.4400000000005L2803.310000000001,3424.3600000000006L2378.370000000001,3424.3600000000006L2378.370000000001,3661.44L2378.380000000001,3661.46L2378.370000000001,3661.46L2378.370000000001,4056.9700000000003L2378.370000000001,4056.9900000000002L2378.370000000001,4504.360000000001L2378.4100000000008,4504.38L2378.370000000001,4504.39L2643.130000000001,4767.74L2643.170000000001,4767.6900000000005L2857.190000000001,4980.5599999999995L2857.190000000001,4980.5599999999995L2857.160000000001,4980.59L3042.8700000000017,5165.3099999999995L3042.8600000000015,5165.32L3261.6100000000015,5382.8899999999985L3261.6200000000017,5382.879999999999L3475.6300000000015,5595.749999999999L3475.6600000000017,5595.749999999999L3693.6200000000013,5812.529999999999L3693.6200000000013,5812.529999999999L3693.6100000000015,5812.539999999999L3915.2700000000013,6033L3915.2700000000013,6032.99L4037.5400000000013,6154.599999999999C4075.430000000001,6191.879999999999 4116.6500000000015,6227.099999999999 4160.770000000001,6260.11L4160.780000000001,6260.11L4160.760000000001,6260.14C4245.550000000001,6323.580000000001 4341.230000000001,6378.68 4445.530000000001,6423.630000000001L4541.120000000001,6174.480000000001L4541.150000000001,6174.470000000001L4541.120000000001,6174.550000000001L4678.000000000001,6216.760000000002C4723.18,6229.240000000002 4771.890000000001,6239.620000000001 4823.320000000001,6247.750000000002L4823.320000000001,6247.700000000003C4908.62,6261.190000000002 5001.56,6268.290000000002 5099.120000000001,6267.7800000000025L5099.160000000001,6267.770000000002L5099.160000000001,6267.790000000003C5117.8,6267.690000000002 5136.58,6267.390000000003 5155.53,6266.730000000002C5236.67,6263.910000000002 5314.8,6256.050000000003 5388.24,6243.950000000003C5489.789999999999,6227.200000000003 5582.339999999999,6202.300000000003 5661.639999999999,6171.350000000002L5661.65,6171.340000000002L5661.65,6171.350000000002C5708.869999999999,6152.930000000002 5751.4400000000005,6132.390000000003 5788.27,6110.110000000002L5913.9,6030.960000000003L5913.93,6030.950000000003L6073.64,6262.190000000002C6170.320000000001,6190.310000000003 6252.84,6107.570000000003 6317.960000000001,6016.610000000002L6317.98,6016.630000000003C6344.56,5979.500000000003 6368.41,5941.0700000000015 6388.93,5901.370000000003L6494.6,5730.0300000000025L6494.6,5730.010000000003L6654.240000000001,5471.1600000000035L6654.220000000001,5471.150000000003L6809.710000000001,5219.040000000004L6809.7300000000005,5219.050000000003L6972.05,4955.860000000003L6972.06,4955.810000000003L6972.08,4955.820000000002L7133.18,4694.610000000003L7133.16,4694.590000000003L7291.29,4438.240000000003L7291.320000000001,4438.260000000003L7446.130000000001,4187.240000000003L7446.130000000001,4187.220000000003L7529.360000000001,4052.250000000003C7549.96,4013.710000000003 7569.42,3973.840000000003 7587.800000000001,3932.830000000003L7587.790000000001,3932.810000000003L7587.800000000001,3932.810000000003C7629.64,3839.410000000003 7665.470000000001,3739.7100000000028 7694.750000000002,3635.050000000003L7694.740000000002,3635.050000000003C7723.220000000001,3533.360000000003 7745.350000000002,3426.9100000000026 7760.520000000001,3316.7100000000028L7760.510000000002,3316.7100000000028C7774.58,3214.46 7782.58,3109.0499999999997 7784.04,3001.25L7784.04,3001.25z" fill="#ffffff" stroke="#dddddd" stroke-width="3"/>
        <path d="M5357.67,726.11L5120,654.81L5159.34,315.75999999999993L5254.57,212.89999999999992L5540.44,284.3699999999999L5540.43,284.3999999999999L5544.06,285.3199999999999L5805.6900000000005,437.33999999999986L5787.830000000002,461.15999999999985L5787.840000000001,461.15999999999985L5805.6900000000005,437.35999999999984L5825.960000000001,449.14999999999986L6069.760000000001,692.9499999999998L6081.490000000002,704.7099999999999L6081.500000000001,704.7099999999999L6360.480000000001,984.4299999999998L6360.500000000001,984.4199999999998L6636.360000000001,1261.0199999999998L6636.390000000001,1261.0199999999998L6921.660000000002,1547.0499999999997L6921.640000000002,1547.07L6921.660000000002,1547.07L7203.800000000001,1829.95L7203.780000000002,1829.96L7203.800000000001,1829.96L7432.610000000001,2059.37L7432.620000000001,2059.36L7505.9800000000005,2132.91L7403.120000000001,2247.2L7263.130000000001,2228.8999999999996L7263.1,2228.93L6907.890000000001,2182.4799999999996L6879.540000000001,2154.2099999999996L6879.530000000001,2154.18L6596.640000000001,1872.0799999999997L6596.640000000001,1872.0599999999995L6310.590000000001,1586.8199999999997L6310.590000000001,1586.7999999999995L6310.56,1586.8199999999997L6033.97,1310.9999999999995L6033.960000000001,1311.0099999999998L5754.2,1032L5754.2,1031.99L5754.19,1032L5540.25,818.66L5525.4,811.0699999999999L5525.4,811.06L5361.2,727.2199999999999L5357.65,726.15L5357.67,726.11zM7784.04,3001.25C7784.210000000001,2989.2000000000003 7784.57,2977.24 7784.57,2965.1299999999997C7784.57,2870.8599999999997 7779.51,2778.34 7769.8,2688.1L7769.75,2688.07L7769.84,2688.0600000000004C7760.450000000001,2600.7300000000005 7746.67,2515.5600000000004 7728.870000000001,2433.0000000000005L7728.83,2433.01C7716.33,2375.0000000000005 7701.900000000001,2318.28 7685.550000000001,2263.05L7258.34,2398.1700000000005C7269.160000000001,2439.4100000000003 7279.140000000001,2481.2900000000004 7288.26,2523.5500000000006L7288.3,2523.5500000000006C7303.950000000001,2596.1300000000006 7317.01,2669.84 7327.130000000001,2743.3700000000003L7327.09,2743.4300000000003C7339.780000000001,2835.7300000000005 7347.7300000000005,2927.69 7350.480000000001,3016.85L7350.490000000001,3016.85C7351.18,3039.4799999999996 7351.630000000001,3062.01 7351.630000000001,3084.24C7351.630000000001,3146.9700000000003 7348.280000000001,3208.5899999999997 7342.090000000002,3269.0099999999993L7342.100000000001,3269.0099999999993C7332.830000000002,3359.5699999999993 7317.100000000001,3447.4299999999994 7296.140000000001,3532.1599999999994L7296.1500000000015,3532.1599999999994C7273.750000000001,3622.7099999999996 7245.400000000001,3709.6899999999996 7212.790000000001,3792.7399999999993L7212.800000000001,3792.7399999999993L7212.790000000001,3792.749999999999C7182.970000000001,3868.6799999999994 7149.59,3941.269999999999 7113.830000000002,4010.169999999999L7113.850000000001,4010.1799999999994L7113.830000000002,4010.1899999999987C7087.230000000001,4061.479999999999 7059.3600000000015,4110.759999999999 7030.660000000002,4157.809999999999L6975.450000000002,4245.609999999999L6975.410000000002,4245.589999999998L6815.140000000001,4500.449999999999L6815.160000000001,4500.459999999998L6653.150000000001,4758.0999999999985L6653.16,4758.0999999999985L6653.12,4758.149999999998L6491.660000000001,5014.909999999998L6491.640000000001,5014.899999999999L6331.4000000000015,5269.709999999999L6331.42,5269.719999999998L6195.970000000001,5485.129999999999C6187.360000000001,5500.4 6178.170000000001,5515.379999999999 6168.700000000001,5530.239999999999L6168.710000000001,5530.239999999999L6168.700000000001,5530.249999999998C6126.210000000001,5596.979999999999 6075.470000000001,5659.259999999998 6017.560000000001,5716.169999999998L6017.540000000001,5716.149999999999C5955.630000000001,5776.979999999999 5885.590000000001,5831.57 5808.850000000001,5878.7699999999995L5808.870000000001,5878.789999999999L5808.84,5878.799999999999C5740.85,5920.629999999999 5667.64,5956.589999999998 5590.15,5985.9L5590.14,5985.9C5512.3,6015.36 5430.2,6038.019999999999 5344.790000000001,6053.099999999999C5276.54,6065.139999999999 5206.2300000000005,6072.37 5134.33,6074.28L5096.37,6074.85C5012.86,6074.85 4931.360000000001,6067.59 4852.58,6053.95L4852.58,6053.99C4769,6039.51 4688.51,6017.759999999999 4612.09,5989.51L4612.09,5989.52L4612.08,5989.51C4532.38,5960.030000000001 4457.05,5923.580000000001 4387.240000000001,5880.93L4387.22,5880.880000000001C4321.06,5840.47 4259.830000000001,5794.5700000000015 4204.47,5743.940000000001L4195.150000000001,5734.6100000000015L4195.150000000001,5734.620000000001L3983.5300000000007,5522.690000000001L3983.5100000000007,5522.6500000000015L3766.290000000001,5305.110000000001L3766.2700000000004,5305.13L3766.260000000001,5305.110000000001L3552.9700000000007,5091.520000000001L3552.960000000001,5091.530000000001L3334.970000000001,4873.22L3334.980000000001,4873.210000000001L3149.940000000001,4687.900000000001L3149.940000000001,4687.840000000001L2936.6500000000005,4474.220000000001L2936.6100000000006,4474.260000000001L2803.3200000000006,4340.780000000001L2803.310000000001,4340.740000000001L2803.310000000001,4056.9900000000007L2803.310000000001,4056.9700000000007L2803.310000000001,3661.460000000001L2803.300000000001,3661.460000000001L2803.310000000001,3661.4400000000005L2803.310000000001,3424.3600000000006L2378.370000000001,3424.3600000000006L2378.370000000001,3661.44L2378.380000000001,3661.46L2378.370000000001,3661.46L2378.370000000001,4056.9700000000003L2378.370000000001,4056.9900000000002L2378.370000000001,4504.360000000001L2378.4100000000008,4504.38L2378.370000000001,4504.39L2643.130000000001,4767.74L2643.170000000001,4767.6900000000005L2857.190000000001,4980.5599999999995L2857.190000000001,4980.5599999999995L2857.160000000001,4980.59L3042.8700000000017,5165.3099999999995L3042.8600000000015,5165.32L3261.6100000000015,5382.8899999999985L3261.6200000000017,5382.879999999999L3475.6300000000015,5595.749999999999L3475.6600000000017,5595.749999999999L3693.6200000000013,5812.529999999999L3693.6200000000013,5812.529999999999L3693.6100000000015,5812.539999999999L3915.2700000000013,6033L3915.2700000000013,6032.99L4037.5400000000013,6154.599999999999C4075.430000000001,6191.879999999999 4116.6500000000015,6227.099999999999 4160.770000000001,6260.11L4160.780000000001,6260.11L4160.760000000001,6260.14C4245.550000000001,6323.580000000001 4341.230000000001,6378.68 4445.530000000001,6423.630000000001L4541.120000000001,6174.480000000001L4541.150000000001,6174.470000000001L4541.120000000001,6174.550000000001L4678.000000000001,6216.760000000002C4723.18,6229.240000000002 4771.890000000001,6239.620000000001 4823.320000000001,6247.750000000002L4823.320000000001,6247.700000000003C4908.62,6261.190000000002 5001.56,6268.290000000002 5099.120000000001,6267.7800000000025L5099.160000000001,6267.770000000002L5099.160000000001,6267.790000000003C5117.8,6267.690000000002 5136.58,6267.390000000003 5155.53,6266.730000000002C5236.67,6263.910000000002 5314.8,6256.050000000003 5388.24,6243.950000000003C5489.789999999999,6227.200000000003 5582.339999999999,6202.300000000003 5661.639999999999,6171.350000000002L5661.65,6171.340000000002L5661.65,6171.350000000002C5708.869999999999,6152.930000000002 5751.4400000000005,6132.390000000003 5788.27,6110.110000000002L5913.9,6030.960000000003L5913.93,6030.950000000003L6073.64,6262.190000000002C6170.320000000001,6190.310000000003 6252.84,6107.570000000003 6317.960000000001,6016.610000000002L6317.98,6016.630000000003C6344.56,5979.500000000003 6368.41,5941.0700000000015 6388.93,5901.370000000003L6494.6,5730.0300000000025L6494.6,5730.010000000003L6654.240000000001,5471.1600000000035L6654.220000000001,5471.150000000003L6809.710000000001,5219.040000000004L6809.7300000000005,5219.050000000003L6972.05,4955.860000000003L6972.06,4955.810000000003L6972.08,4955.820000000002L7133.18,4694.610000000003L7133.16,4694.590000000003L7291.29,4438.240000000003L7291.320000000001,4438.260000000003L7446.130000000001,4187.240000000003L7446.130000000001,4187.220000000003L7529.360000000001,4052.250000000003C7549.96,4013.710000000003 7569.42,3973.840000000003 7587.800000000001,3932.830000000003L7587.790000000001,3932.810000000003L7587.800000000001,3932.810000000003C7629.64,3839.410000000003 7665.470000000001,3739.7100000000028 7694.750000000002,3635.050000000003L7694.740000000002,3635.050000000003C7723.220000000001,3533.360000000003 7745.350000000002,3426.9100000000026 7760.520000000001,3316.7100000000028L7760.510000000002,3316.7100000000028C7774.58,3214.46 7782.58,3109.0499999999997 7784.04,3001.25L7784.04,3001.25z" fill="none" stroke="#dddddd" stroke-width="3"/>
      </g>
      <g id="LEVEL 200">
        <path d="M5254.57,212.9L5159.34,315.76L5120,654.8100000000001L5357.69,726.12L5540.44,284.37z" id="258" fill="#dfdfdf" stroke="#dfdfdf" stroke-width="3"/>
        <path d="M5525.4,811.06L5805.69,437.3399999999999L5544.0599999999995,285.31999999999994L5540.4,284.4L5357.65,726.15L5361.2,727.2199999999999L5525.4,811.06z" id="257" fill="#dfdfdf" stroke="#dfdfdf" stroke-width="3"/>
        <path d="M5540.25,818.66L5754.19,1032L6081.49,704.7L6069.76,692.9399999999999L5825.96,449.14L5805.69,437.35L5525.4,811.0699999999999L5540.25,818.66z" id="256" fill="#dfdfdf" stroke="#dfdfdf" stroke-width="3"/>
        <path d="M6033.959999999999,1310.9899999999998L6360.509999999999,984.4399999999998L6081.5,704.7L5754.2,1032L6033.959999999999,1310.9899999999998z" id="255" fill="#ffffff" stroke="#dddddd" stroke-width="3"/>
        <path d="M6310.57,1586.79L6636.370000000001,1261L6360.51,984.4L6033.950000000001,1310.95L6310.57,1586.79z" id="254" fill="#ffffff" stroke="#dddddd" stroke-width="3"/>
        <path d="M6596.65,1872.04L6921.669999999999,1547.03L6636.4,1261L6310.599999999999,1586.79L6596.65,1872.04z" id="253" fill="#ffffff" stroke="#dddddd" stroke-width="3"/>
        <path d="M6879.55,2154.1800000000003L7203.810000000001,1829.9299999999998L6921.670000000002,1547.0499999999997L6596.6500000000015,1872.06L6879.55,2154.1800000000003z" id="252" fill="#ffffff" stroke="#dddddd" stroke-width="3"/>
        <path d="M6907.9,2182.4700000000003L7263.109999999999,2228.92L7432.639999999999,2059.3900000000003L7203.809999999999,1829.9500000000003L6879.549999999998,2154.2000000000003L6907.9,2182.4700000000003z" id="251" fill="#ffffff" stroke="#dddddd" stroke-width="3"/>
        <path d="M7403.13,2247.19L7505.99,2132.9L7432.629999999999,2059.35L7263.099999999999,2228.88L7403.13,2247.19z" id="250" fill="#ffffff" stroke="#dddddd" stroke-width="3"/>
        <path d="M7685.56,2263.05L7258.35,2398.17C7269.17,2439.41 7279.150000000001,2481.29 7288.27,2523.55L7728.85,2433.0400000000004C7716.35,2375.02 7701.900000000001,2318.29 7685.56,2263.05z" id="236" fill="#ffffff" stroke="#dddddd" stroke-width="3"/>
        <path d="M7288.3,2523.51C7303.960000000001,2596.1099999999997 7317.02,2669.8399999999997 7327.14,2743.39L7769.85,2688.06C7760.460000000001,2600.7299999999996 7746.68,2515.56 7728.88,2433L7288.3,2523.51z" id="235" fill="#ffffff" stroke="#dddddd" stroke-width="3"/>
        <path d="M7350.49,3016.85L7784.04,3001.27C7784.210000000001,2989.2200000000003 7784.57,2977.24 7784.57,2965.13C7784.57,2870.86 7779.51,2778.3400000000006 7769.8,2688.1000000000004L7327.09,2743.4300000000007C7339.790000000001,2835.7299999999996 7347.74,2927.69 7350.49,3016.85z" id="234" fill="#ffffff" stroke="#dddddd" stroke-width="3"/>
        <path d="M7351.639999999999,3084.24C7351.639999999999,3146.9700000000003 7348.289999999999,3208.5899999999997 7342.1,3269.0099999999993L7760.500000000001,3316.6799999999994C7774.580000000001,3214.4699999999993 7782.58,3109.0599999999995 7784.050000000001,3001.2599999999998L7350.500000000001,3016.8399999999997C7351.1900000000005,3039.4700000000003 7351.639999999999,3062 7351.639999999999,3084.24z" id="233" fill="#ffffff" stroke="#dddddd" stroke-width="3"/>
        <path d="M7296.15,3532.16L7694.719999999999,3635.02C7723.199999999999,3533.3300000000004 7745.33,3426.88 7760.5,3316.67L7342.099999999999,3269.0000000000005C7332.84,3359.5600000000004 7317.110000000001,3447.42 7296.15,3532.16z" id="232" fill="#ffffff" stroke="#dddddd" stroke-width="3"/>
        <path d="M7212.799999999999,3792.7300000000005L7587.780000000001,3932.7700000000004C7629.62,3839.370000000001 7665.450000000001,3739.6700000000005 7694.7300000000005,3635.01L7296.160000000001,3532.1500000000005C7273.76,3622.7 7245.410000000001,3709.69 7212.799999999999,3792.7300000000005z" id="231" fill="#ffffff" stroke="#dddddd" stroke-width="3"/>
        <path d="M7113.85,4010.18L7446.12,4187.19L7529.349999999999,4052.22C7549.949999999999,4013.68 7569.409999999999,3973.8099999999995 7587.79,3932.7999999999997L7212.8099999999995,3792.7599999999993C7182.98,3868.68 7149.6,3941.27 7113.85,4010.18z" id="230" fill="#ffffff" stroke="#dddddd" stroke-width="3"/>
        <path d="M7030.67,4157.81L6975.45,4245.62L7291.3,4438.22L7446.11,4187.200000000001L7113.84,4010.19C7087.25,4061.4800000000005 7059.38,4110.76 7030.67,4157.81z" id="229" fill="#ffffff" stroke="#dddddd" stroke-width="3"/>
        <path d="M6815.15,4500.46L7133.13,4694.58L7291.2699999999995,4438.19L6975.419999999999,4245.59L6815.15,4500.46z" id="228" fill="#ffffff" stroke="#dddddd" stroke-width="3"/>
        <path d="M6653.150000000001,4758.11L6972.06,4955.789999999999L7133.16,4694.58L6815.17,4500.46L6653.150000000001,4758.11z" id="227" fill="#ffffff" stroke="#dddddd" stroke-width="3"/>
        <path d="M6491.65,5014.92L6809.71,5219.01L6972.03,4955.820000000001L6653.12,4758.150000000001L6491.65,5014.92z" id="226" fill="#ffffff" stroke="#dddddd" stroke-width="3"/>
        <path d="M6331.4,5269.719999999999L6654.18,5471.15L6809.700000000001,5219L6491.639999999999,5014.91L6331.4,5269.719999999999z" id="225" fill="#ffffff" stroke="#dddddd" stroke-width="3"/>
        <path d="M6195.969999999999,5485.14C6187.36,5500.410000000001 6178.17,5515.389999999999 6168.7,5530.25L6494.58,5729.98L6654.22,5471.129999999999L6331.4400000000005,5269.699999999999L6195.969999999999,5485.14z" id="224" fill="#ffffff" stroke="#dddddd" stroke-width="3"/>
        <path d="M6017.55,5716.18L6317.960000000001,6016.590000000001C6344.540000000001,5979.460000000001 6368.39,5941.030000000001 6388.910000000001,5901.330000000002L6494.580000000001,5729.990000000002L6168.700000000001,5530.250000000001C6126.21,5596.98 6075.460000000001,5659.28 6017.55,5716.18z" id="223" fill="#ffffff" stroke="#dddddd" stroke-width="3"/>
        <path d="M5808.85,5878.7699999999995L6073.629999999999,6262.15C6170.3099999999995,6190.2699999999995 6252.84,6107.5199999999995 6317.959999999999,6016.5599999999995L6017.549999999999,5716.149999999999C5955.63,5776.98 5885.59,5831.570000000001 5808.85,5878.7699999999995z" id="222" fill="#ffffff" stroke="#dddddd" stroke-width="3"/>
        <path d="M5808.84,5878.8C5740.85,5920.63 5667.64,5956.59 5590.15,5985.900000000001L5661.639999999999,6171.310000000001C5708.86,6152.890000000001 5751.43,6132.350000000001 5788.26,6110.070000000001L5913.89,6030.920000000001L5808.84,5878.8z" id="221" fill="#ffffff" stroke="#dddddd" stroke-width="3"/>
        <path d="M5344.75,6053.110000000001L5388.240000000001,6243.910000000001C5489.790000000001,6227.160000000002 5582.34,6202.260000000001 5661.640000000001,6171.310000000001L5590.1500000000015,5985.900000000001C5512.290000000001,6015.36 5430.17,6038.03 5344.75,6053.110000000001z" id="220" fill="#ffffff" stroke="#dddddd" stroke-width="3"/>
        <path d="M5099.150000000001,6074.8099999999995L5099.150000000001,6267.75C5117.79,6267.65 5136.570000000001,6267.35 5155.52,6266.69C5236.67,6263.869999999999 5314.82,6256.01 5388.27,6243.9L5344.78,6053.099999999999C5265.44,6067.1 5183.32,6074.64 5099.150000000001,6074.8099999999995z" id="219" fill="#ffffff" stroke="#dddddd" stroke-width="3"/>
        <path d="M5096.37,6074.84C5012.86,6074.84 4931.360000000001,6067.58 4852.58,6053.9400000000005L4823.3,6247.66C4908.599999999999,6261.15 5001.549999999999,6268.249999999999 5099.11,6267.74L5099.11,6074.8C5098.1900000000005,6074.8 5097.29,6074.84 5096.37,6074.84z" id="218" fill="#ffffff" stroke="#dddddd" stroke-width="3"/>
        <path d="M4852.6,6053.9800000000005C4769.01,6039.51 4688.5199999999995,6017.75 4612.08,5989.5L4541.099999999999,6174.52L4677.98,6216.73C4723.159999999999,6229.210000000001 4771.87,6239.589999999999 4823.299999999999,6247.72L4852.6,6053.9800000000005z" id="217" fill="#ffffff" stroke="#dddddd" stroke-width="3"/>
        <path d="M4387.19,5880.900000000001L4160.75,6260.120000000001C4245.54,6323.560000000001 4341.22,6378.660000000001 4445.5199999999995,6423.610000000001L4612.0599999999995,5989.510000000001C4532.35,5960.0199999999995 4457.01,5923.5599999999995 4387.19,5880.900000000001z" id="216" fill="#ffffff" stroke="#dddddd" stroke-width="3"/>
        <path d="M4204.4400000000005,5743.93L4195.12,5734.6L3915.24,6032.960000000001L4037.52,6154.580000000001C4075.41,6191.860000000001 4116.63,6227.080000000001 4160.75,6260.090000000001L4387.19,5880.870000000001C4321.04,5840.460000000001 4259.8,5794.56 4204.4400000000005,5743.93z" id="215" fill="#ffffff" stroke="#dddddd" stroke-width="3"/>
        <path d="M3983.48,5522.65L3693.6000000000004,5812.5199999999995L3915.26,6032.98L4195.14,5734.62L3983.48,5522.65z" id="214" fill="#ffffff" stroke="#dddddd" stroke-width="3"/>
        <path d="M3766.27,5305.1L3475.65,5595.73L3693.6099999999997,5812.51L3983.49,5522.64L3766.27,5305.1z" id="213" fill="#ffffff" stroke="#dddddd" stroke-width="3"/>
        <path d="M3552.9500000000003,5091.5L3261.6000000000004,5382.849999999999L3475.62,5595.73L3766.2400000000002,5305.1L3552.9500000000003,5091.5z" id="212" fill="#ffffff" stroke="#dddddd" stroke-width="3"/>
        <path d="M3334.95,4873.2L3042.8500000000004,5165.299999999999L3261.6000000000004,5382.869999999999L3552.9500000000003,5091.5199999999995L3334.95,4873.2z" id="211" fill="#ffffff" stroke="#dddddd" stroke-width="3"/>
        <path d="M3149.89,4687.85L2857.1499999999996,4980.57L3042.86,5165.29L3334.96,4873.1900000000005L3149.89,4687.85z" id="210" fill="#ffffff" stroke="#dddddd" stroke-width="3"/>
        <path d="M2936.63,4474.2L2643.15,4767.68L2857.1800000000003,4980.55L3149.92,4687.83L2936.63,4474.2z" id="209" fill="#ffffff" stroke="#dddddd" stroke-width="3"/>
        <path d="M2936.59,4474.24L2803.29,4340.75L2378.35,4504.37L2643.1100000000006,4767.72L2936.59,4474.24z" id="208" fill="#ffffff" stroke="#dddddd" stroke-width="3"/>
        <path d="M2803.29,4056.95L2378.35,4056.95L2378.35,4504.34L2803.29,4340.719999999999L2803.29,4056.95z" id="207" fill="#ffffff" stroke="#dddddd" stroke-width="3"/>
        <path d="M2378.35,3661.45L2803.29,3661.45L2803.29,4056.9799999999996L2378.35,4056.9799999999996L2378.35,3661.45z" id="206" fill="#ffffff" stroke="#dddddd" stroke-width="3"/>
        <path d="M2378.35,3424.35L2803.29,3424.35L2803.29,3661.4300000000003L2378.35,3661.4300000000003L2378.35,3424.35z" id="205" fill="#ffffff" stroke="#dddddd" stroke-width="3"/>
      </g>
      <g id="ISM_GROUP_LEVEL 300 DROPSHADOW">
        <path d="M8081.24,2970.0599999999995C8081.24,2923.4999999999995 8080.1,2877.3399999999997 8078.07,2831.52L8078.08,2831.52C8072.5599999999995,2707.5 8059.719999999999,2586.41 8040.14,2469.1L8040.11,2469.08L8040.15,2469.0699999999997C8020.59,2351.8199999999997 7994.32,2238.38 7961.96,2129.6299999999997C7921.3099999999995,1993.0799999999997 7871.0599999999995,1863.9699999999996 7812.4400000000005,1744.0499999999997L7812.420000000001,1744.0399999999997L7812.43,1744.0399999999997C7769.52,1656.2599999999998 7722.21,1573.3099999999995 7670.8200000000015,1496.0999999999995L7424.06,1705.6199999999994C7459.450000000001,1756.4999999999995 7492.68,1810.6099999999994 7523.6,1867.5699999999995L7523.62,1867.5599999999995L7523.61,1867.5799999999995C7582.95,1976.9199999999996 7633.59,2096.8899999999994 7674.0599999999995,2225.2399999999993C7704.92,2323.1199999999994 7729.8099999999995,2425.879999999999 7748.109999999999,2532.4999999999995L7748.099999999999,2532.5399999999995C7765.74,2635.16 7777.209999999999,2741.379999999999 7781.99,2850.2899999999995L7781.98,2850.2899999999995C7783.65,2888.249999999999 7784.589999999999,2926.5199999999995 7784.589999999999,2965.0999999999995C7784.589999999999,3031.329999999999 7781.849999999999,3096.5799999999995 7777.009999999999,3160.9099999999994L7777.029999999999,3160.9099999999994C7769.249999999998,3264.379999999999 7755.4299999999985,3365.1299999999997 7735.999999999999,3462.39L7735.919999999998,3462.6499999999996C7714.989999999999,3567.3500000000004 7687.679999999999,3667.97 7654.549999999999,3763.5699999999997L7654.629999999999,3763.5999999999995L7654.589999999999,3763.609999999999C7619.129999999999,3865.9599999999996 7577.209999999999,3962.669999999999 7529.359999999999,4052.249999999999L7526.619999999999,4056.7199999999993L7526.589999999998,4056.699999999999L7347.209999999999,4347.529999999999L7347.19,4347.549999999999L7101.8099999999995,4745.419999999999L7101.819999999999,4745.419999999999L6862.559999999999,5133.319999999999L6862.539999999999,5133.299999999999L6623.709999999999,5520.54L6623.719999999998,5520.549999999999L6389.049999999999,5901L6388.86,5901.29C6341.619999999999,5992.6900000000005 6277.54,6077.65 6199.8,6154.210000000001L6199.84,6154.250000000001L6199.820000000001,6154.250000000001C6130.760000000001,6222.27 6050.830000000001,6283.560000000001 5961.920000000001,6336.650000000001L5961.870000000001,6336.650000000001C5874.200000000001,6389.000000000001 5777.980000000001,6433.5 5674.870000000001,6468.460000000001L5674.860000000001,6468.450000000002C5587.050000000001,6498.230000000001 5494.250000000001,6521.02 5397.800000000001,6536.220000000002L5397.81,6536.250000000002L5397.790000000001,6536.250000000002C5316.930000000001,6549.000000000002 5233.43,6556.290000000003 5148.020000000001,6557.670000000003L5148.020000000001,6557.630000000003C5138.230000000001,6557.800000000003 5128.460000000001,6558.060000000003 5118.630000000001,6558.060000000003C5025.410000000001,6558.060000000003 4934.420000000001,6550.900000000002 4846.460000000001,6537.410000000002L4846.460000000001,6537.440000000002L4846.450000000002,6537.430000000003C4747.040000000002,6522.170000000004 4651.590000000002,6498.690000000002 4561.310000000001,6468.010000000003L4561.310000000001,6468.000000000003C4463.990000000002,6434.9100000000035 4372.720000000001,6393.460000000004 4289.0700000000015,6344.820000000003L4289.0700000000015,6344.830000000003L4289.060000000001,6344.800000000003C4198.500000000002,6292.110000000002 4116.960000000002,6231.0300000000025 4046.3800000000015,6163.060000000003C4043.4500000000016,6160.250000000004 4040.450000000001,6157.460000000003 4037.5600000000013,6154.620000000003L3736.2800000000016,5854.960000000002L3736.2800000000016,5854.970000000002L3407.6000000000017,5528.060000000001L3407.6000000000017,5528.0700000000015L3407.590000000002,5528.040000000001L3069.5500000000015,5191.81L3069.540000000002,5191.82L3069.540000000002,5191.82L2747.490000000002,4871.54L2747.490000000002,4871.5L2415.780000000002,4541.57L2415.760000000002,4541.59L2415.760000000002,4541.57L2378.360000000002,4504.36L2378.360000000002,4143.379999999999L2378.360000000002,4143.36L2378.360000000002,3684.5599999999995L2378.360000000002,3684.5599999999995L2378.360000000002,3684.5499999999997L2378.360000000002,3424.35L2058.360000000002,3424.35L2058.360000000002,3684.5499999999997L2058.360000000002,3684.5599999999995L2058.360000000002,3684.5599999999995L2058.360000000002,4143.36L2058.360000000002,4143.379999999999L2058.360000000002,4631.0199999999995L2193.540000000002,4763.7699999999995L2193.6200000000017,4763.829999999999L2527.3700000000017,5091.61L2527.3700000000017,5091.61L2527.360000000002,5091.629999999999L2851.450000000002,5409.92L2851.480000000002,5409.929999999999L3191.640000000002,5743.989999999999L3191.660000000002,5743.999999999998L3191.660000000002,5744.009999999998L3522.410000000002,6068.829999999998L3832.0900000000024,6372.959999999998L3929.830000000002,6468.949999999999C3988.4800000000023,6521.559999999999 4052.120000000002,6570.179999999999 4119.9900000000025,6614.509999999999L4120.010000000003,6614.519999999999L4120.010000000003,6614.519999999999C4219.390000000002,6679.379999999999 4327.960000000003,6734.819999999999 4443.860000000002,6779.219999999999L4443.860000000002,6779.229999999999C4554.650000000002,6821.66 4672.090000000002,6854.0199999999995 4794.540000000003,6874.879999999999L4794.610000000002,6874.87C4900.120000000003,6892.849999999999 5009.320000000002,6902.389999999999 5121.200000000003,6902.389999999999C5130.170000000003,6902.389999999999 5139.070000000002,6902.109999999999 5148.010000000003,6901.979999999999L5148.010000000003,6902.019999999999C5254.480000000003,6900.5599999999995 5358.480000000003,6890.629999999999 5459.050000000003,6872.8899999999985L5459.150000000003,6872.839999999998C5580.370000000003,6851.449999999999 5696.660000000003,6818.859999999999 5806.300000000003,6776.289999999999L5806.310000000003,6776.299999999999C5922.970000000004,6730.979999999999 6032.140000000003,6674.469999999999 6131.860000000002,6608.379999999998L6131.870000000003,6608.369999999999L6131.880000000002,6608.3899999999985C6240.090000000002,6536.669999999998 6337.080000000002,6453.659999999999 6420.470000000003,6361.549999999998L6420.490000000002,6361.459999999998C6485.640000000002,6289.529999999999 6542.580000000002,6212.079999999998 6589.830000000002,6129.979999999998L6634.030000000002,6061.029999999999L6634.040000000001,6061.039999999998L6877.620000000001,5681.199999999998L6877.620000000001,5681.169999999997L7119.790000000001,5303.499999999996L7119.8099999999995,5303.519999999997L7373.15,4908.479999999996L7373.139999999999,4908.469999999997L7627.5599999999995,4511.719999999997L7627.5599999999995,4511.689999999997L7627.579999999999,4511.699999999996L7704.719999999999,4391.409999999996C7741.82,4331.769999999996 7776.599999999999,4269.0499999999965 7808.88,4203.559999999996L7808.910000000001,4203.579999999996C7861.310000000001,4097.319999999996 7907.0700000000015,3983.729999999996 7945.430000000001,3864.119999999996L7945.410000000002,3864.0299999999957C7979.520000000001,3757.6899999999955 8007.700000000003,3646.569999999996 8029.410000000002,3531.5399999999954L8029.410000000002,3531.5199999999954L8029.440000000002,3531.529999999995C8050.940000000001,3417.529999999995 8066.110000000002,3299.729999999995 8074.240000000002,3178.9299999999953L8074.220000000003,3178.9299999999953C8078.83,3110.21 8081.24,3040.55 8081.24,2970.0599999999995z" fill="#ffffff" stroke="#dddddd" stroke-width="3"/>
        <path d="M8081.24,2970.0599999999995C8081.24,2923.4999999999995 8080.1,2877.3399999999997 8078.07,2831.52L8078.08,2831.52C8072.5599999999995,2707.5 8059.719999999999,2586.41 8040.14,2469.1L8040.11,2469.08L8040.15,2469.0699999999997C8020.59,2351.8199999999997 7994.32,2238.38 7961.96,2129.6299999999997C7921.3099999999995,1993.0799999999997 7871.0599999999995,1863.9699999999996 7812.4400000000005,1744.0499999999997L7812.420000000001,1744.0399999999997L7812.43,1744.0399999999997C7769.52,1656.2599999999998 7722.21,1573.3099999999995 7670.8200000000015,1496.0999999999995L7424.06,1705.6199999999994C7459.450000000001,1756.4999999999995 7492.68,1810.6099999999994 7523.6,1867.5699999999995L7523.62,1867.5599999999995L7523.61,1867.5799999999995C7582.95,1976.9199999999996 7633.59,2096.8899999999994 7674.0599999999995,2225.2399999999993C7704.92,2323.1199999999994 7729.8099999999995,2425.879999999999 7748.109999999999,2532.4999999999995L7748.099999999999,2532.5399999999995C7765.74,2635.16 7777.209999999999,2741.379999999999 7781.99,2850.2899999999995L7781.98,2850.2899999999995C7783.65,2888.249999999999 7784.589999999999,2926.5199999999995 7784.589999999999,2965.0999999999995C7784.589999999999,3031.329999999999 7781.849999999999,3096.5799999999995 7777.009999999999,3160.9099999999994L7777.029999999999,3160.9099999999994C7769.249999999998,3264.379999999999 7755.4299999999985,3365.1299999999997 7735.999999999999,3462.39L7735.919999999998,3462.6499999999996C7714.989999999999,3567.3500000000004 7687.679999999999,3667.97 7654.549999999999,3763.5699999999997L7654.629999999999,3763.5999999999995L7654.589999999999,3763.609999999999C7619.129999999999,3865.9599999999996 7577.209999999999,3962.669999999999 7529.359999999999,4052.249999999999L7526.619999999999,4056.7199999999993L7526.589999999998,4056.699999999999L7347.209999999999,4347.529999999999L7347.19,4347.549999999999L7101.8099999999995,4745.419999999999L7101.819999999999,4745.419999999999L6862.559999999999,5133.319999999999L6862.539999999999,5133.299999999999L6623.709999999999,5520.54L6623.719999999998,5520.549999999999L6389.049999999999,5901L6388.86,5901.29C6341.619999999999,5992.6900000000005 6277.54,6077.65 6199.8,6154.210000000001L6199.84,6154.250000000001L6199.820000000001,6154.250000000001C6130.760000000001,6222.27 6050.830000000001,6283.560000000001 5961.920000000001,6336.650000000001L5961.870000000001,6336.650000000001C5874.200000000001,6389.000000000001 5777.980000000001,6433.5 5674.870000000001,6468.460000000001L5674.860000000001,6468.450000000002C5587.050000000001,6498.230000000001 5494.250000000001,6521.02 5397.800000000001,6536.220000000002L5397.81,6536.250000000002L5397.790000000001,6536.250000000002C5316.930000000001,6549.000000000002 5233.43,6556.290000000003 5148.020000000001,6557.670000000003L5148.020000000001,6557.630000000003C5138.230000000001,6557.800000000003 5128.460000000001,6558.060000000003 5118.630000000001,6558.060000000003C5025.410000000001,6558.060000000003 4934.420000000001,6550.900000000002 4846.460000000001,6537.410000000002L4846.460000000001,6537.440000000002L4846.450000000002,6537.430000000003C4747.040000000002,6522.170000000004 4651.590000000002,6498.690000000002 4561.310000000001,6468.010000000003L4561.310000000001,6468.000000000003C4463.990000000002,6434.9100000000035 4372.720000000001,6393.460000000004 4289.0700000000015,6344.820000000003L4289.0700000000015,6344.830000000003L4289.060000000001,6344.800000000003C4198.500000000002,6292.110000000002 4116.960000000002,6231.0300000000025 4046.3800000000015,6163.060000000003C4043.4500000000016,6160.250000000004 4040.450000000001,6157.460000000003 4037.5600000000013,6154.620000000003L3736.2800000000016,5854.960000000002L3736.2800000000016,5854.970000000002L3407.6000000000017,5528.060000000001L3407.6000000000017,5528.0700000000015L3407.590000000002,5528.040000000001L3069.5500000000015,5191.81L3069.540000000002,5191.82L3069.540000000002,5191.82L2747.490000000002,4871.54L2747.490000000002,4871.5L2415.780000000002,4541.57L2415.760000000002,4541.59L2415.760000000002,4541.57L2378.360000000002,4504.36L2378.360000000002,4143.379999999999L2378.360000000002,4143.36L2378.360000000002,3684.5599999999995L2378.360000000002,3684.5599999999995L2378.360000000002,3684.5499999999997L2378.360000000002,3424.35L2058.360000000002,3424.35L2058.360000000002,3684.5499999999997L2058.360000000002,3684.5599999999995L2058.360000000002,3684.5599999999995L2058.360000000002,4143.36L2058.360000000002,4143.379999999999L2058.360000000002,4631.0199999999995L2193.540000000002,4763.7699999999995L2193.6200000000017,4763.829999999999L2527.3700000000017,5091.61L2527.3700000000017,5091.61L2527.360000000002,5091.629999999999L2851.450000000002,5409.92L2851.480000000002,5409.929999999999L3191.640000000002,5743.989999999999L3191.660000000002,5743.999999999998L3191.660000000002,5744.009999999998L3522.410000000002,6068.829999999998L3832.0900000000024,6372.959999999998L3929.830000000002,6468.949999999999C3988.4800000000023,6521.559999999999 4052.120000000002,6570.179999999999 4119.9900000000025,6614.509999999999L4120.010000000003,6614.519999999999L4120.010000000003,6614.519999999999C4219.390000000002,6679.379999999999 4327.960000000003,6734.819999999999 4443.860000000002,6779.219999999999L4443.860000000002,6779.229999999999C4554.650000000002,6821.66 4672.090000000002,6854.0199999999995 4794.540000000003,6874.879999999999L4794.610000000002,6874.87C4900.120000000003,6892.849999999999 5009.320000000002,6902.389999999999 5121.200000000003,6902.389999999999C5130.170000000003,6902.389999999999 5139.070000000002,6902.109999999999 5148.010000000003,6901.979999999999L5148.010000000003,6902.019999999999C5254.480000000003,6900.5599999999995 5358.480000000003,6890.629999999999 5459.050000000003,6872.8899999999985L5459.150000000003,6872.839999999998C5580.370000000003,6851.449999999999 5696.660000000003,6818.859999999999 5806.300000000003,6776.289999999999L5806.310000000003,6776.299999999999C5922.970000000004,6730.979999999999 6032.140000000003,6674.469999999999 6131.860000000002,6608.379999999998L6131.870000000003,6608.369999999999L6131.880000000002,6608.3899999999985C6240.090000000002,6536.669999999998 6337.080000000002,6453.659999999999 6420.470000000003,6361.549999999998L6420.490000000002,6361.459999999998C6485.640000000002,6289.529999999999 6542.580000000002,6212.079999999998 6589.830000000002,6129.979999999998L6634.030000000002,6061.029999999999L6634.040000000001,6061.039999999998L6877.620000000001,5681.199999999998L6877.620000000001,5681.169999999997L7119.790000000001,5303.499999999996L7119.8099999999995,5303.519999999997L7373.15,4908.479999999996L7373.139999999999,4908.469999999997L7627.5599999999995,4511.719999999997L7627.5599999999995,4511.689999999997L7627.579999999999,4511.699999999996L7704.719999999999,4391.409999999996C7741.82,4331.769999999996 7776.599999999999,4269.0499999999965 7808.88,4203.559999999996L7808.910000000001,4203.579999999996C7861.310000000001,4097.319999999996 7907.0700000000015,3983.729999999996 7945.430000000001,3864.119999999996L7945.410000000002,3864.0299999999957C7979.520000000001,3757.6899999999955 8007.700000000003,3646.569999999996 8029.410000000002,3531.5399999999954L8029.410000000002,3531.5199999999954L8029.440000000002,3531.529999999995C8050.940000000001,3417.529999999995 8066.110000000002,3299.729999999995 8074.240000000002,3178.9299999999953L8074.220000000003,3178.9299999999953C8078.83,3110.21 8081.24,3040.55 8081.24,2970.0599999999995z" fill="none" stroke="#dddddd" stroke-width="3"/>
      </g>
      <g id="LEVEL 300">
        <path d="M7670.81,1496.1000000000001L7424.049999999999,1705.6200000000001C7459.44,1756.5 7492.669999999999,1810.6100000000001 7523.589999999999,1867.5700000000002L7812.42,1744.04C7769.51,1656.26 7722.200000000001,1573.31 7670.81,1496.1000000000001z" id="338" fill="#ffffff" stroke="#dddddd" stroke-width="3"/>
        <path d="M7812.43,1744.05L7523.6,1867.5800000000002C7582.94,1976.93 7633.59,2096.91 7674.06,2225.27L7961.950000000001,2129.63C7921.3,1993.08 7871.05,1863.9699999999998 7812.43,1744.05z" id="337" fill="#ffffff" stroke="#dddddd" stroke-width="3"/>
        <path d="M7961.94,2129.6L7674.049999999999,2225.24C7704.91,2323.12 7729.8,2425.89 7748.099999999999,2532.51L8040.139999999999,2469.07C8020.59,2351.81 7994.32,2238.36 7961.94,2129.6z" id="336" fill="#ffffff" stroke="#dddddd" stroke-width="3"/>
        <path d="M8040.14,2469.1L7748.1,2532.54C7765.740000000001,2635.17 7777.21,2741.3900000000003 7781.990000000001,2850.31L8078.080000000001,2831.52C8072.5599999999995,2707.5 8059.719999999999,2586.4100000000003 8040.14,2469.1z" id="334" fill="#ffffff" stroke="#dddddd" stroke-width="3"/>
        <path d="M8081.24,2970.0599999999995C8081.24,2923.49 8080.1,2877.3199999999997 8078.07,2831.5L7781.98,2850.29C7783.65,2888.25 7784.589999999999,2926.52 7784.589999999999,2965.1C7784.589999999999,3031.33 7781.849999999999,3096.58 7777.009999999999,3160.91L8074.219999999999,3178.94C8078.83,3110.22 8081.24,3040.55 8081.24,2970.0599999999995z" id="333" fill="#ffffff" stroke="#dddddd" stroke-width="3"/>
        <path d="M8074.23,3178.93L7777.02,3160.8999999999996C7769.23,3264.45 7755.4,3365.29 7735.950000000001,3462.6399999999994L8029.43,3531.5299999999997C8050.929999999999,3417.52 8066.09,3299.73 8074.23,3178.93z" id="332" fill="#ffffff" stroke="#dddddd" stroke-width="3"/>
        <path d="M8029.389999999999,3531.53L7735.91,3462.6400000000003C7714.9800000000005,3567.34 7687.67,3667.96 7654.539999999999,3763.56L7945.36,3864.0699999999997C7979.49,3757.72 8007.6900000000005,3646.58 8029.389999999999,3531.53z" id="331" fill="#ffffff" stroke="#dddddd" stroke-width="3"/>
        <path d="M7945.410000000001,3864.11L7654.59,3763.6000000000004C7619.13,3865.9500000000003 7577.21,3962.6600000000003 7529.360000000001,4052.24L7526.610000000001,4056.72L7808.9000000000015,4203.57C7861.29,4097.3099999999995 7907.05,3983.7200000000003 7945.410000000001,3864.11z" id="330" fill="#ffffff" stroke="#dddddd" stroke-width="3"/>
        <path d="M7704.700000000001,4391.41C7741.800000000001,4331.76 7776.58,4269.04 7808.870000000001,4203.540000000001L7526.58,4056.7000000000003L7347.200000000001,4347.530000000001L7627.560000000001,4511.700000000001L7704.700000000001,4391.41z" id="329" fill="#ffffff" stroke="#dddddd" stroke-width="3"/>
        <path d="M7627.54,4511.72L7347.18,4347.55L7101.800000000001,4745.42L7373.1,4908.5L7627.54,4511.72z" id="328" fill="#ffffff" stroke="#dddddd" stroke-width="3"/>
        <path d="M7373.13,4908.4800000000005L7101.82,4745.400000000001L6862.55,5133.32L7119.790000000001,5303.5199999999995L7373.13,4908.4800000000005z" id="327" fill="#ffffff" stroke="#dddddd" stroke-width="3"/>
        <path d="M7119.7699999999995,5303.5L6862.529999999999,5133.3L6623.699999999999,5520.540000000001L6877.589999999999,5681.18L7119.7699999999995,5303.5z" id="325" fill="#ffffff" stroke="#dddddd" stroke-width="3"/>
        <path d="M6877.6,5681.1900000000005L6623.71,5520.550000000001L6389.049999999999,5901.010000000001L6634.009999999999,6061.040000000002L6877.6,5681.1900000000005z" id="324" fill="#ffffff" stroke="#dddddd" stroke-width="3"/>
        <path d="M6589.8,6129.969999999999L6634.01,6061.01L6389.049999999999,5901L6388.86,5901.29C6341.619999999999,5992.6900000000005 6277.54,6077.65 6199.8,6154.210000000001L6420.43,6361.500000000001C6485.599999999999,6289.55 6542.55,6212.089999999999 6589.8,6129.969999999999z" id="323" fill="#ffffff" stroke="#dddddd" stroke-width="3"/>
        <path d="M6420.45,6361.54L6199.82,6154.25C6130.76,6222.2699999999995 6050.82,6283.57 5961.9,6336.66L6131.849999999999,6608.379999999999C6240.07,6536.660000000001 6337.05,6453.65 6420.45,6361.54z" id="322" fill="#ffffff" stroke="#dddddd" stroke-width="3"/>
        <path d="M6131.84,6608.37L5961.88,6336.65C5874.209999999999,6389 5777.98,6433.51 5674.86,6468.469999999999L5806.3,6776.29C5922.95,6730.969999999999 6032.12,6674.46 6131.84,6608.37z" id="321" fill="#ffffff" stroke="#dddddd" stroke-width="3"/>
        <path d="M5806.3,6776.2699999999995L5674.86,6468.449999999999C5587.05,6498.229999999999 5494.25,6521.019999999999 5397.799999999999,6536.219999999999L5459.04,6872.849999999999C5580.3099999999995,6851.459999999999 5696.620000000001,6818.86 5806.3,6776.2699999999995z" id="320" fill="#ffffff" stroke="#dddddd" stroke-width="3"/>
        <path d="M5459.030000000001,6872.88L5397.79,6536.25C5316.92,6549 5233.41,6556.29 5148,6557.67L5148,6902.02C5254.47,6900.56 5358.469999999999,6890.63 5459.030000000001,6872.88z" id="319" fill="#ffffff" stroke="#dddddd" stroke-width="3"/>
        <path d="M5121.1900000000005,6902.380000000001C5130.17,6902.380000000001 5139.08,6902.1 5148.03,6901.97L5148.03,6557.619999999999C5138.24,6557.79 5128.469999999999,6558.049999999999 5118.639999999999,6558.049999999999C5025.42,6558.049999999999 4934.43,6550.889999999999 4846.47,6537.399999999999L4794.56,6874.8499999999985C4900.08,6892.84 5009.29,6902.380000000001 5121.1900000000005,6902.380000000001z" id="318" fill="#ffffff" stroke="#dddddd" stroke-width="3"/>
        <path d="M4794.53,6874.87L4846.44,6537.42C4747.03,6522.16 4651.58,6498.679999999999 4561.29,6468L4443.839999999999,6779.219999999999C4554.64,6821.65 4672.08,6854.009999999999 4794.53,6874.87z" id="317" fill="#ffffff" stroke="#dddddd" stroke-width="3"/>
        <path d="M4443.860000000001,6779.210000000001L4561.31,6467.990000000001C4463.99,6434.9000000000015 4372.72,6393.450000000002 4289.070000000001,6344.810000000001L4120,6614.51C4219.38,6679.38 4327.96,6734.8099999999995 4443.860000000001,6779.210000000001z" id="316" fill="#ffffff" stroke="#dddddd" stroke-width="3"/>
        <path d="M3929.82,6468.95C3988.4700000000003,6521.5599999999995 4052.11,6570.18 4119.9800000000005,6614.51L4289.05,6344.790000000001C4198.490000000001,6292.1 4116.950000000001,6231.02 4046.370000000001,6163.050000000001L3832.040000000001,6372.930000000001L3929.82,6468.95z" id="315" fill="#ffffff" stroke="#dddddd" stroke-width="3"/>
        <path d="M3832.0800000000004,6372.960000000001L4046.4100000000003,6163.08C4043.4700000000003,6160.259999999999 4040.46,6157.46 4037.5600000000004,6154.610000000001L3736.2800000000007,5854.95L3522.4000000000005,6068.83L3832.0800000000004,6372.960000000001z" id="314" fill="#ffffff" stroke="#dddddd" stroke-width="3"/>
        <path d="M3522.4,6068.83L3736.2799999999997,5854.960000000001L3407.6,5528.050000000001L3191.65,5744L3522.4,6068.83z" id="313" fill="#ffffff" stroke="#dddddd" stroke-width="3"/>
        <path d="M3191.63,5743.9800000000005L3407.5800000000004,5528.02L3069.540000000001,5191.79L2851.4500000000003,5409.9L3191.63,5743.9800000000005z" id="311" fill="#ffffff" stroke="#dddddd" stroke-width="3"/>
        <path d="M2851.44,5409.91L3069.53,5191.799999999999L2747.4700000000003,4871.5L2527.3500000000004,5091.62L2851.44,5409.91z" id="310" fill="#ffffff" stroke="#dddddd" stroke-width="3"/>
        <path d="M2527.3599999999997,5091.6L2747.48,4871.4800000000005L2415.77,4541.55L2193.5499999999997,4763.76L2527.3599999999997,5091.6z" id="309" fill="#ffffff" stroke="#dddddd" stroke-width="3"/>
        <path d="M2058.35,4631.01L2193.53,4763.76L2415.75,4541.549999999999L2378.35,4504.34L2378.35,4143.339999999999L2058.35,4143.339999999999L2058.35,4631.01z" id="307" fill="#ffffff" stroke="#dddddd" stroke-width="3"/>
        <path d="M2058.35,3684.5499999999997L2378.35,3684.5499999999997L2378.35,4143.37L2058.35,4143.37L2058.35,3684.5499999999997z" id="306" fill="#ffffff" stroke="#dddddd" stroke-width="3"/>
        <path d="M2058.35,3424.35L2378.35,3424.35L2378.35,3684.5499999999997L2058.35,3684.5499999999997L2058.35,3424.35z" id="305" fill="#ffffff" stroke="#dddddd" stroke-width="3"/>
      </g>
      <g id="ISM_GROUP_LEVEL 400 DROPSHADOW">
        <path d="M8679.400000000001,2860.8999999999996C8678.720000000001,2838.3999999999996 8678.01,2815.9099999999994 8676.95,2793.51C8674.460000000001,2741.32 8670.81,2689.38 8666.1,2637.74L8551.57,2496.96L8305.92,2195L8305.84,2194.98L8305.89,2194.97L8140.169999999999,1991.25L8140.179999999999,1991.25L7906.369999999999,1703.85L7812.41,1744.04C7860.52,1842.45 7902.870000000001,1947.1299999999999 7939.0199999999995,2056.94L7939.009999999999,2056.94C7946.92,2080.95 7954.629999999999,2105.11 7961.92,2129.6099999999997C7975.96,2176.85 7988.79,2225.0299999999997 8000.47,2273.97L8000.52,2273.96L8000.500000000001,2274C8002.820000000001,2283.71 8005.17,2293.3999999999996 8007.39,2303.1699999999996C8019.780000000001,2357.5499999999997 8030.76,2412.8799999999997 8040.13,2469.0999999999995C8046.280000000001,2505.97 8051.69,2543.24 8056.51,2580.83L8056.500000000001,2580.83C8066.980000000001,2662.84 8074.280000000001,2746.47 8078.06,2831.5099999999993C8079.13,2855.8099999999995 8079.93,2880.2299999999996 8080.460000000001,2904.7399999999993C8080.93,2926.4299999999994 8081.2300000000005,2948.1899999999996 8081.2300000000005,2970.0499999999993C8081.2300000000005,3040.539999999999 8078.820000000001,3110.2199999999993 8074.1900000000005,3178.9299999999994C8073.500000000002,3189.209999999999 8072.690000000001,3199.4499999999994 8071.900000000001,3209.669999999999L8071.91,3209.669999999999L8071.900000000001,3209.699999999999C8063.380000000001,3319.759999999999 8049.090000000001,3427.269999999999 8029.400000000001,3531.5699999999993L8029.42,3531.5699999999993C8007.7300000000005,3646.499999999999 7979.56,3757.5499999999993 7945.48,3863.809999999999L7945.360000000001,3864.099999999999C7907,3983.709999999999 7861.24,4097.289999999999 7808.84,4203.539999999999L7808.83,4203.549999999999C7776.550000000001,4269.039999999999 7741.78,4331.759999999999 7704.68,4391.409999999999L7627.54,4511.699999999999L7627.530000000001,4511.69L7373.090000000001,4908.469999999999L7373.120000000001,4908.49L7373.120000000001,4908.49L7119.810000000001,5303.509999999998L7119.780000000001,5303.49L6877.59,5681.179999999999L6877.6,5681.189999999999L6877.58,5681.199999999999L6634,6061.040000000001L6634.030000000001,6061.0599999999995L6634.02,6061.0599999999995L6589.820000000001,6130C6542.550000000001,6212.12 6485.610000000001,6289.56 6420.450000000001,6361.530000000001L6420.430000000001,6361.51C6337.030000000001,6453.630000000001 6240.050000000001,6536.640000000001 6131.840000000001,6608.35L6131.85,6608.360000000001L6131.840000000001,6608.360000000001C6032.130000000001,6674.450000000001 5922.960000000001,6730.96 5806.290000000001,6776.280000000001L5806.300000000001,6776.310000000001C5696.620000000002,6818.890000000001 5580.31,6851.500000000001 5459.040000000001,6872.890000000001L5459.050000000001,6872.920000000002L5459.030000000002,6872.910000000002C5358.460000000001,6890.6500000000015 5254.470000000001,6900.580000000002 5148.000000000002,6902.020000000001L5148.000000000002,6901.970000000001C5139.050000000002,6902.100000000001 5130.160000000002,6902.390000000001 5121.170000000002,6902.390000000001C5009.280000000002,6902.390000000001 4900.0700000000015,6892.850000000002 4794.520000000001,6874.860000000001L4794.520000000001,6874.870000000001L4794.500000000002,6874.860000000001C4672.040000000002,6854.01 4554.600000000001,6821.650000000001 4443.8200000000015,6779.210000000001L4443.8200000000015,6779.23L4443.8200000000015,6779.22C4327.930000000002,6734.82 4219.340000000002,6679.390000000001 4119.970000000002,6614.51C4052.090000000002,6570.2 3988.450000000002,6521.58 3929.8100000000018,6468.97L3832.0700000000015,6372.97L3832.0500000000015,6372.93L3522.3700000000013,6068.8L3522.3600000000015,6068.8099999999995L3191.630000000002,5744.009999999999L3191.620000000002,5744.0199999999995L3191.6100000000024,5743.989999999999L2851.4400000000023,5409.929999999999L2851.4600000000023,5409.899999999999L2527.3700000000026,5091.609999999999L2527.350000000002,5091.629999999999L2527.3400000000024,5091.599999999999L2193.5300000000025,4763.759999999999L2058.35,4631L2058.35,4613.360000000001L2058.35,4613.35L2058.35,4143.370000000001L2058.35,4143.35L2058.35,3684.55L2025.5600000000002,3684.55L2025.54,3684.540000000001L2058.35,3684.540000000001L2058.35,3424.340000000001L1458.3500000000001,3424.340000000001L1458.3500000000001,3684.540000000001L1487.38,3684.540000000001L1487.36,3684.55L1458.35,3684.55L1458.35,4143.35L1458.35,4143.370000000001L1458.35,4882.7300000000005L1458.35,4882.7300000000005L1769.2399999999998,5188.03L2103.0499999999997,5515.87L2103.12,5515.91L2427.16,5834.139999999999L2427.14,5834.17L2767.3199999999997,6168.26L2767.3399999999997,6168.27L2767.3399999999997,6168.28L3098.0899999999997,6493.099999999999L3098.0999999999995,6493.08L3403.2899999999995,6792.820000000001L3403.2899999999995,6792.820000000001L3403.2899999999995,6792.83L3519.12,6906.58L3529.2499999999995,6915.67C3614.2799999999993,6991.92 3705.2199999999993,7061.130000000001 3801.0499999999997,7123.26C3935.5899999999997,7210.48 4079.91,7283.46 4231.679999999999,7341.370000000001L4231.719999999999,7341.370000000001C4382.34,7398.820000000001 4540.259999999999,7441.410000000001 4703.219999999999,7468.280000000001L4703.24,7468.280000000001C4839.499999999999,7490.75 4979.24,7502.380000000001 5121.17,7502.380000000001C5130.11,7502.380000000001 5139.0599999999995,7502.260000000001 5147.99,7502.170000000001L5147.99,7502.220000000001C5289.299999999999,7500.760000000001 5429.37,7487.590000000001 5566.43,7463.210000000001L5566.45,7463.190000000002C5730.2699999999995,7434.030000000002 5889.78,7388.830000000002 6041.999999999999,7328.330000000002L6042.03,7328.2800000000025C6124.71,7295.410000000002 6205.219999999999,7258.060000000001 6283.09,7216.270000000002C6340.65,7185.390000000002 6396.21,7152.140000000001 6450.01,7117.0300000000025L6450.01,7117.020000000002C6602.41,7017.620000000002 6739.41,6901.910000000003 6857.84,6772.4900000000025L6857.86,6772.510000000002C6951.139999999999,6670.580000000002 7033.049999999999,6560.290000000003 7101.9,6442.930000000002L7136.329999999999,6389.220000000003L7136.329999999999,6389.200000000003L7384.619999999999,6002.010000000002L7384.619999999999,6001.980000000002L7384.629999999998,6001.990000000002L7620.209999999998,5634.620000000003L7620.239999999999,5634.640000000001L7887.579999999999,5217.760000000002L7887.5999999999985,5217.660000000002L8145.709999999999,4815.140000000002L8145.719999999999,4815.1500000000015L8209.729999999998,4715.330000000002L8214.149999999998,4708.340000000001C8259.589999999998,4635.280000000002 8301.89,4559.140000000001 8341.06,4480.420000000002L8341.06,4480.410000000002L8341.069999999998,4480.420000000002C8407.369999999999,4347.200000000002 8464.599999999999,4206.460000000001 8512.13,4060.0300000000016L8512.119999999999,4060.0100000000016L8512.16,4060.0200000000013C8553.269999999999,3933.4000000000015 8587.15,3802.5400000000013 8613.55,3668.680000000001L8613.529999999999,3668.680000000001C8639.509999999998,3536.8900000000012 8658.099999999999,3402.180000000001 8669.16,3265.730000000001L8669.15,3265.700000000001L8669.16,3265.700000000001C8670.529999999999,3248.910000000001 8671.82,3232.120000000001 8672.949999999999,3215.290000000001C8678.41,3134.040000000001 8681.22,3052.2300000000014 8681.22,2970.080000000001C8681.25,2933.56 8680.5,2897.2000000000003 8679.400000000001,2860.8999999999996z" fill="#ffffff" stroke="#dddddd" stroke-width="3"/>
        <path d="M8679.400000000001,2860.8999999999996C8678.720000000001,2838.3999999999996 8678.01,2815.9099999999994 8676.95,2793.51C8674.460000000001,2741.32 8670.81,2689.38 8666.1,2637.74L8551.57,2496.96L8305.92,2195L8305.84,2194.98L8305.89,2194.97L8140.169999999999,1991.25L8140.179999999999,1991.25L7906.369999999999,1703.85L7812.41,1744.04C7860.52,1842.45 7902.870000000001,1947.1299999999999 7939.0199999999995,2056.94L7939.009999999999,2056.94C7946.92,2080.95 7954.629999999999,2105.11 7961.92,2129.6099999999997C7975.96,2176.85 7988.79,2225.0299999999997 8000.47,2273.97L8000.52,2273.96L8000.500000000001,2274C8002.820000000001,2283.71 8005.17,2293.3999999999996 8007.39,2303.1699999999996C8019.780000000001,2357.5499999999997 8030.76,2412.8799999999997 8040.13,2469.0999999999995C8046.280000000001,2505.97 8051.69,2543.24 8056.51,2580.83L8056.500000000001,2580.83C8066.980000000001,2662.84 8074.280000000001,2746.47 8078.06,2831.5099999999993C8079.13,2855.8099999999995 8079.93,2880.2299999999996 8080.460000000001,2904.7399999999993C8080.93,2926.4299999999994 8081.2300000000005,2948.1899999999996 8081.2300000000005,2970.0499999999993C8081.2300000000005,3040.539999999999 8078.820000000001,3110.2199999999993 8074.1900000000005,3178.9299999999994C8073.500000000002,3189.209999999999 8072.690000000001,3199.4499999999994 8071.900000000001,3209.669999999999L8071.91,3209.669999999999L8071.900000000001,3209.699999999999C8063.380000000001,3319.759999999999 8049.090000000001,3427.269999999999 8029.400000000001,3531.5699999999993L8029.42,3531.5699999999993C8007.7300000000005,3646.499999999999 7979.56,3757.5499999999993 7945.48,3863.809999999999L7945.360000000001,3864.099999999999C7907,3983.709999999999 7861.24,4097.289999999999 7808.84,4203.539999999999L7808.83,4203.549999999999C7776.550000000001,4269.039999999999 7741.78,4331.759999999999 7704.68,4391.409999999999L7627.54,4511.699999999999L7627.530000000001,4511.69L7373.090000000001,4908.469999999999L7373.120000000001,4908.49L7373.120000000001,4908.49L7119.810000000001,5303.509999999998L7119.780000000001,5303.49L6877.59,5681.179999999999L6877.6,5681.189999999999L6877.58,5681.199999999999L6634,6061.040000000001L6634.030000000001,6061.0599999999995L6634.02,6061.0599999999995L6589.820000000001,6130C6542.550000000001,6212.12 6485.610000000001,6289.56 6420.450000000001,6361.530000000001L6420.430000000001,6361.51C6337.030000000001,6453.630000000001 6240.050000000001,6536.640000000001 6131.840000000001,6608.35L6131.85,6608.360000000001L6131.840000000001,6608.360000000001C6032.130000000001,6674.450000000001 5922.960000000001,6730.96 5806.290000000001,6776.280000000001L5806.300000000001,6776.310000000001C5696.620000000002,6818.890000000001 5580.31,6851.500000000001 5459.040000000001,6872.890000000001L5459.050000000001,6872.920000000002L5459.030000000002,6872.910000000002C5358.460000000001,6890.6500000000015 5254.470000000001,6900.580000000002 5148.000000000002,6902.020000000001L5148.000000000002,6901.970000000001C5139.050000000002,6902.100000000001 5130.160000000002,6902.390000000001 5121.170000000002,6902.390000000001C5009.280000000002,6902.390000000001 4900.0700000000015,6892.850000000002 4794.520000000001,6874.860000000001L4794.520000000001,6874.870000000001L4794.500000000002,6874.860000000001C4672.040000000002,6854.01 4554.600000000001,6821.650000000001 4443.8200000000015,6779.210000000001L4443.8200000000015,6779.23L4443.8200000000015,6779.22C4327.930000000002,6734.82 4219.340000000002,6679.390000000001 4119.970000000002,6614.51C4052.090000000002,6570.2 3988.450000000002,6521.58 3929.8100000000018,6468.97L3832.0700000000015,6372.97L3832.0500000000015,6372.93L3522.3700000000013,6068.8L3522.3600000000015,6068.8099999999995L3191.630000000002,5744.009999999999L3191.620000000002,5744.0199999999995L3191.6100000000024,5743.989999999999L2851.4400000000023,5409.929999999999L2851.4600000000023,5409.899999999999L2527.3700000000026,5091.609999999999L2527.350000000002,5091.629999999999L2527.3400000000024,5091.599999999999L2193.5300000000025,4763.759999999999L2058.35,4631L2058.35,4613.360000000001L2058.35,4613.35L2058.35,4143.370000000001L2058.35,4143.35L2058.35,3684.55L2025.5600000000002,3684.55L2025.54,3684.540000000001L2058.35,3684.540000000001L2058.35,3424.340000000001L1458.3500000000001,3424.340000000001L1458.3500000000001,3684.540000000001L1487.38,3684.540000000001L1487.36,3684.55L1458.35,3684.55L1458.35,4143.35L1458.35,4143.370000000001L1458.35,4882.7300000000005L1458.35,4882.7300000000005L1769.2399999999998,5188.03L2103.0499999999997,5515.87L2103.12,5515.91L2427.16,5834.139999999999L2427.14,5834.17L2767.3199999999997,6168.26L2767.3399999999997,6168.27L2767.3399999999997,6168.28L3098.0899999999997,6493.099999999999L3098.0999999999995,6493.08L3403.2899999999995,6792.820000000001L3403.2899999999995,6792.820000000001L3403.2899999999995,6792.83L3519.12,6906.58L3529.2499999999995,6915.67C3614.2799999999993,6991.92 3705.2199999999993,7061.130000000001 3801.0499999999997,7123.26C3935.5899999999997,7210.48 4079.91,7283.46 4231.679999999999,7341.370000000001L4231.719999999999,7341.370000000001C4382.34,7398.820000000001 4540.259999999999,7441.410000000001 4703.219999999999,7468.280000000001L4703.24,7468.280000000001C4839.499999999999,7490.75 4979.24,7502.380000000001 5121.17,7502.380000000001C5130.11,7502.380000000001 5139.0599999999995,7502.260000000001 5147.99,7502.170000000001L5147.99,7502.220000000001C5289.299999999999,7500.760000000001 5429.37,7487.590000000001 5566.43,7463.210000000001L5566.45,7463.190000000002C5730.2699999999995,7434.030000000002 5889.78,7388.830000000002 6041.999999999999,7328.330000000002L6042.03,7328.2800000000025C6124.71,7295.410000000002 6205.219999999999,7258.060000000001 6283.09,7216.270000000002C6340.65,7185.390000000002 6396.21,7152.140000000001 6450.01,7117.0300000000025L6450.01,7117.020000000002C6602.41,7017.620000000002 6739.41,6901.910000000003 6857.84,6772.4900000000025L6857.86,6772.510000000002C6951.139999999999,6670.580000000002 7033.049999999999,6560.290000000003 7101.9,6442.930000000002L7136.329999999999,6389.220000000003L7136.329999999999,6389.200000000003L7384.619999999999,6002.010000000002L7384.619999999999,6001.980000000002L7384.629999999998,6001.990000000002L7620.209999999998,5634.620000000003L7620.239999999999,5634.640000000001L7887.579999999999,5217.760000000002L7887.5999999999985,5217.660000000002L8145.709999999999,4815.140000000002L8145.719999999999,4815.1500000000015L8209.729999999998,4715.330000000002L8214.149999999998,4708.340000000001C8259.589999999998,4635.280000000002 8301.89,4559.140000000001 8341.06,4480.420000000002L8341.06,4480.410000000002L8341.069999999998,4480.420000000002C8407.369999999999,4347.200000000002 8464.599999999999,4206.460000000001 8512.13,4060.0300000000016L8512.119999999999,4060.0100000000016L8512.16,4060.0200000000013C8553.269999999999,3933.4000000000015 8587.15,3802.5400000000013 8613.55,3668.680000000001L8613.529999999999,3668.680000000001C8639.509999999998,3536.8900000000012 8658.099999999999,3402.180000000001 8669.16,3265.730000000001L8669.15,3265.700000000001L8669.16,3265.700000000001C8670.529999999999,3248.910000000001 8671.82,3232.120000000001 8672.949999999999,3215.290000000001C8678.41,3134.040000000001 8681.22,3052.2300000000014 8681.22,2970.080000000001C8681.25,2933.56 8680.5,2897.2000000000003 8679.400000000001,2860.8999999999996z" fill="none" stroke="#dddddd" stroke-width="3"/>
      </g>
      <g id="LEVEL 400">
        <path d="M7906.369999999999,1703.85L7812.41,1744.04C7860.52,1842.45 7902.870000000001,1947.1299999999999 7939.0199999999995,2056.94L8140.179999999999,1991.25L7906.369999999999,1703.85z" id="438" fill="#ffffff" stroke="#dddddd" stroke-width="3"/>
        <path d="M8140.17,1991.25L7939.01,2056.94C7946.920000000001,2080.95 7954.630000000001,2105.11 7961.920000000001,2129.6099999999997C7975.960000000001,2176.85 7988.790000000001,2225.0299999999997 8000.470000000001,2273.97L8305.890000000001,2194.97L8140.17,1991.25z" id="437" fill="#ffffff" stroke="#dddddd" stroke-width="3"/>
        <path d="M8000.5,2274C8002.82,2283.71 8005.169999999999,2293.4 8007.389999999999,2303.17C8019.78,2357.55 8030.759999999999,2412.88 8040.129999999999,2469.1C8046.279999999999,2505.9700000000003 8051.689999999999,2543.25 8056.509999999999,2580.84L8551.57,2496.96L8305.92,2195L8000.5,2274z" id="436" fill="#ffffff" stroke="#dddddd" stroke-width="3"/>
        <path d="M8666.1,2637.74L8551.560000000001,2496.95L8056.500000000001,2580.83C8066.980000000001,2662.84 8074.280000000001,2746.47 8078.06,2831.5099999999993C8079.13,2855.8099999999995 8079.93,2880.2299999999996 8080.460000000001,2904.7399999999993L8679.400000000001,2860.919999999999C8678.720000000001,2838.419999999999 8678.01,2815.919999999999 8676.95,2793.5099999999993C8674.460000000001,2741.32 8670.81,2689.38 8666.1,2637.74z" id="434" fill="#ffffff" stroke="#dddddd" stroke-width="3"/>
        <path d="M8081.24,2970.05C8081.24,3040.54 8078.83,3110.22 8074.200000000001,3178.93C8073.510000000001,3189.21 8072.700000000001,3199.45 8071.91,3209.67L8669.2,3265.68C8670.57,3248.8900000000003 8671.86,3232.1 8672.990000000002,3215.27C8678.45,3134.02 8681.26,3052.21 8681.26,2970.0599999999995C8681.26,2933.5699999999997 8680.51,2897.2099999999996 8679.410000000002,2860.9099999999994L8080.470000000001,2904.7299999999996C8080.9400000000005,2926.42 8081.24,2948.19 8081.24,2970.05z" id="433" fill="#ffffff" stroke="#dddddd" stroke-width="3"/>
        <path d="M8029.400000000001,3531.56L8613.55,3668.67C8639.529999999999,3536.87 8658.12,3402.16 8669.18,3265.7000000000007L8071.889999999999,3209.6900000000005C8063.39,3319.76 8049.09,3427.2699999999995 8029.400000000001,3531.56z" id="432" fill="#ffffff" stroke="#dddddd" stroke-width="3"/>
        <path d="M7945.4,3864.09L8512.19,4060C8553.300000000001,3933.38 8587.18,3802.52 8613.58,3668.66L8029.430000000001,3531.5499999999997C8007.709999999999,3646.59 7979.51,3757.7300000000005 7945.4,3864.09z" id="431" fill="#ffffff" stroke="#dddddd" stroke-width="3"/>
        <path d="M7808.85,4203.55L8341.1,4480.400000000001C8407.4,4347.18 8464.63,4206.4400000000005 8512.16,4060.01L7945.370000000001,3864.1000000000004C7907.01,3983.71 7861.25,4097.3 7808.85,4203.55z" id="430" fill="#ffffff" stroke="#dddddd" stroke-width="3"/>
        <path d="M7704.6900000000005,4391.42L7627.55,4511.71L8145.73,4815.14L8209.74,4715.320000000001L8214.16,4708.33C8259.599999999999,4635.27 8301.9,4559.13 8341.07,4480.410000000001L7808.82,4203.56C7776.5599999999995,4269.04 7741.79,4331.77 7704.6900000000005,4391.42z" id="429" fill="#ffffff" stroke="#dddddd" stroke-width="3"/>
        <path d="M7373.099999999999,4908.4800000000005L7887.57,5217.72L8145.72,4815.13L7627.54,4511.7L7373.099999999999,4908.4800000000005z" id="428" fill="#ffffff" stroke="#dddddd" stroke-width="3"/>
        <path d="M7119.8,5303.540000000001L7620.25,5634.630000000001L7887.59,5217.750000000001L7373.12,4908.500000000001L7119.8,5303.540000000001z" id="427" fill="#ffffff" stroke="#dddddd" stroke-width="3"/>
        <path d="M6877.6,5681.18L7384.650000000001,6001.980000000001L7620.24,5634.59L7119.790000000001,5303.5L6877.6,5681.18z" id="425" fill="#ffffff" stroke="#dddddd" stroke-width="3"/>
        <path d="M6634,6061.040000000001L7136.329999999999,6389.200000000001L7384.629999999999,6002L6877.579999999999,5681.2L6634,6061.040000000001z" id="424" fill="#ffffff" stroke="#dddddd" stroke-width="3"/>
        <path d="M6589.82,6129.99C6542.55,6212.110000000001 6485.599999999999,6289.56 6420.44,6361.530000000001L6857.86,6772.5C6951.139999999999,6670.57 7033.049999999999,6560.280000000001 7101.9,6442.92L7136.329999999999,6389.210000000001L6634.009999999999,6061.0599999999995L6589.82,6129.99z" id="423" fill="#ffffff" stroke="#dddddd" stroke-width="3"/>
        <path d="M6131.849999999999,6608.339999999999L6450.0199999999995,7117.009999999999C6602.42,7017.609999999999 6739.43,6901.8899999999985 6857.86,6772.469999999999L6420.44,6361.5C6337.039999999999,6453.62 6240.0599999999995,6536.63 6131.849999999999,6608.339999999999z" id="422" fill="#ffffff" stroke="#dddddd" stroke-width="3"/>
        <path d="M5806.3,6776.2699999999995L6041.99,7328.289999999999C6124.679999999999,7295.41 6205.209999999999,7258.0599999999995 6283.09,7216.26C6340.65,7185.38 6396.21,7152.129999999999 6450.01,7117.02L6131.84,6608.35C6032.14,6674.44 5922.97,6730.950000000001 5806.3,6776.2699999999995z" id="421" fill="#ffffff" stroke="#dddddd" stroke-width="3"/>
        <path d="M5459.049999999999,6872.88L5566.4400000000005,7463.18C5730.259999999999,7434.0199999999995 5889.780000000001,7388.82 6042,7328.32L5806.310000000001,6776.3C5696.63,6818.88 5580.320000000001,6851.4800000000005 5459.049999999999,6872.88z" id="420" fill="#ffffff" stroke="#dddddd" stroke-width="3"/>
        <path d="M5148,6902.01L5148,7502.219999999999C5289.3099999999995,7500.76 5429.38,7487.59 5566.4400000000005,7463.21L5459.049999999999,6872.910000000001C5358.469999999999,6890.639999999999 5254.47,6900.57 5148,6902.01z" id="419" fill="#ffffff" stroke="#dddddd" stroke-width="3"/>
        <path d="M5121.1900000000005,6902.380000000001C5009.3,6902.380000000001 4900.09,6892.840000000001 4794.54,6874.85L4703.25,7468.28C4839.509999999999,7490.749999999999 4979.25,7502.379999999999 5121.179999999999,7502.379999999999C5130.129999999999,7502.379999999999 5139.079999999999,7502.26 5148.019999999999,7502.17L5148.019999999999,6901.96C5139.070000000001,6902.089999999999 5130.18,6902.380000000001 5121.1900000000005,6902.380000000001z" id="418" fill="#ffffff" stroke="#dddddd" stroke-width="3"/>
        <path d="M4443.84,6779.2L4231.7,7341.36C4382.33,7398.82 4540.25,7441.41 4703.2300000000005,7468.28L4794.52,6874.85C4672.06,6854 4554.62,6821.639999999999 4443.84,6779.2z" id="417" fill="#ffffff" stroke="#dddddd" stroke-width="3"/>
        <path d="M4119.98,6614.5L3801.05,7123.25C3935.59,7210.48 4079.9100000000003,7283.46 4231.6900000000005,7341.370000000001L4443.83,6779.210000000001C4327.94,6734.8 4219.35,6679.38 4119.98,6614.5z" id="416" fill="#ffffff" stroke="#dddddd" stroke-width="3"/>
        <path d="M3929.82,6468.959999999999L3832.0600000000004,6372.94L3403.3,6792.82L3519.1300000000006,6906.57L3529.26,6915.659999999999C3614.2900000000004,6991.909999999999 3705.2300000000005,7061.12 3801.0600000000004,7123.249999999999L4119.99,6614.499999999999C4052.11,6570.2 3988.47,6521.570000000001 3929.82,6468.959999999999z" id="415" fill="#ffffff" stroke="#dddddd" stroke-width="3"/>
        <path d="M3522.38,6068.8L3098.1,6493.08L3403.2999999999997,6792.83L3832.0599999999995,6372.94L3522.38,6068.8z" id="414" fill="#ffffff" stroke="#dddddd" stroke-width="3"/>
        <path d="M3191.63,5744L2767.3500000000004,6168.28L3098.1,6493.099999999999L3522.38,6068.82L3191.63,5744z" id="413" fill="#ffffff" stroke="#dddddd" stroke-width="3"/>
        <path d="M2851.43,5409.9L2427.1499999999996,5834.17L2767.3299999999995,6168.26L3191.6099999999997,5743.9800000000005L2851.43,5409.9z" id="411" fill="#ffffff" stroke="#dddddd" stroke-width="3"/>
        <path d="M2527.38,5091.6L2103.1,5515.879999999999L2427.19,5834.16L2851.47,5409.889999999999L2527.38,5091.6z" id="410" fill="#ffffff" stroke="#dddddd" stroke-width="3"/>
        <path d="M2193.53,4763.75L1769.25,5188.03L2103.06,5515.87L2527.34,5091.59L2193.53,4763.75z" id="409" fill="#ffffff" stroke="#dddddd" stroke-width="3"/>
        <path d="M1458.3500000000001,3684.5499999999997L2058.35,3684.5499999999997L2058.35,4143.37L1458.3500000000001,4143.37L1458.3500000000001,3684.5499999999997z" id="406" fill="#ffffff" stroke="#dddddd" stroke-width="3"/>
        <path d="M1458.3500000000001,3424.35L2058.35,3424.35L2058.35,3684.5499999999997L1458.3500000000001,3684.5499999999997L1458.3500000000001,3424.35z" id="405" fill="#ffffff" stroke="#dddddd" stroke-width="3"/>
        <path d="M1458.3500000000001,4882.71L2058.35,4613.34L2058.35,4630.99L2193.53,4763.74L1769.25,5188.019999999999L1458.3500000000001,4882.71z" id="408" fill="#ffffff" stroke="#dddddd" stroke-width="3"/>
        <path d="M2058.35,4143.349999999999L1458.3500000000001,4143.349999999999L1458.3500000000001,4882.73L2058.35,4613.36L2058.35,4143.349999999999z" id="407" fill="#ffffff" stroke="#dddddd" stroke-width="3"/>
      </g>
      <path d="M3748.7,4042.75L3765.05,3971.8L3634.5,3971.8L3622.95,4025.85z" fill="#ffffff" stroke-width="3"/>
    </g>
    <g id="DETAILS">
      <g>
        <g id="Layer 1">
          <path d="M5837,1931L5767.5,1929L5371.5,1526.0000000000002L5505.49,1391.0000000000002L5941.5,1826.5000000000005L5837,1931zM4151.75,4358.75L4152,4358.5L4225,4425.76L4838,4991.51L4788,5102.01L4670,5013.5L4083.5,4427L4151.75,4358.75zM5952.5,4218.5L5913.5,4286.51L5495,4946.51L5393,5050.5L5330.999999999999,4969.01L5880.5,4174.51L5952.5,4218.5z" fill="#dfdfdf" stroke-width="10"/>
          <path d="M0,0L10240,0L10240,7680L0,7680z" fill="none" stroke="#ffffff" stroke-width="5"/>
        </g>
      </g>
      <path d="M4773.15,3481.6L5076.862430889599,3481.6L5076.862430889599,3762.908021984294L4773.15,3762.908021984294z" id="MIX" transform="rotate(-6, 4773.15, 3481.6)" fill="#dfdfdf" stroke-width="3.2"/>
      <text font-family="averta,arial,'arial bold'" text-align="center" font-size="84.7192963829375" transform="rotate(-6, 4856.7332570108265, 3564.866741194795)" x="4934.15" y="3643.25" width="153.95" height="98" fill="#727272" stroke-width="10">
        <tspan text-anchor="middle" x="4934.15">MIX</tspan>
      </text>
    </g>
    <path d="M5330.91,4969C5254.4335,5032.8093 5168.1812,5053.0795 5089.4527,5053.0795C4952.2873,5053.0795 4837.96,4991.55 4837.96,4991.55L4788.01,5102.05L4752.6203,5179.6622L4740.4,5206.55C4756.2,5215.69 4772.74,5224.14 4789.93,5231.84L4789.8573864855225,5231.907386485523L4789.8573864855225,5231.907386485523L4789.91,5231.91C4867.25,5266.74 4957.92,5286.86 5054.97,5286.86C5055.6,5286.86 5056.2300000000005,5286.82 5056.86,5286.82L5055.007386485522,5286.8573864855225L5056.86,5286.81C5102.406,5286.7 5146.4722,5282.0508 5188.4588,5273.6522L5188.45,5273.61C5283.13,5254.66 5366.94,5216.14 5431.54,5164.15L5431.6586,5164.15L5431.63,5164.11C5443.3592,5154.6748 5454.5611,5144.8417 5464.968,5134.5611L5465.01,5134.5L5415.3369,5077.1214L5392.81,5051.13L5392.8238,5051.1159L5392.81,5051.1z" fill="#dfdfdf" stroke="#dddddd" stroke-width="3"/>
    <path d="M5700.05,5564.750050085559L5700.002,5564.75505008556C5607.2226,5648.190950085559 5460.7488,5711.980250085559 5286.6112,5742.038050085559L5286.62,5742.079950085559C5216.13,5754.229950085559 5141.14,5760.879950085559 5063.32,5761.039950085559L5063.379719047644,5761.029719047645L5063.4297190476445,5761.029719047645L5063.31,5761.039950085559C5062.35,5761.039950085559 5061.4,5761.069950085559 5060.44,5761.079950085559C4892.66,5761.079950085559 4737.83,5730.989950085559 4613.15,5680.2199500855595L4613.1899,5680.118750085559L4535.5,5824.900050085559C4535.5,5824.900050085559 4769.6286,5926.3930500855595 5080.1563,5926.3930500855595C5297.3484,5926.3930500855595 5551.9151,5876.742550085559 5789.8874,5707.987450085559C5791.4256,5706.896550085559 5792.9632,5705.800750085559 5794.5,5704.700050085559C5795.9797,5703.679750085559 5700.05,5564.750050085559 5700.05,5564.750050085559z" fill="#dfdfdf" stroke="#dddddd" stroke-width="3"/>
    <text font-family="averta,arial,'arial bold'" text-align="left" font-size="56.074874801514625" transform="rotate(-2.9999999999997096, 4964.850241062343, 5103.781078229413)" x="4966.400000000001" y="5155.650000000001" width="270.05" height="64.85" fill="#727272" stroke-width="10">
      <tspan text-anchor="start" x="4966.400000000001">DIAMOND</tspan>
    </text>
    <text font-family="averta,arial,'arial bold'" text-align="left" font-size="56.07487480151443" transform="rotate(-3.000000000000818, 5025.043558880938, 5169.331078229413)" x="5025.950000000001" y="5221.200000000001" width="157.95" height="64.85" fill="#727272" stroke-width="10">
      <tspan text-anchor="start" x="5025.950000000001">CLUB</tspan>
    </text>
    <text font-family="averta,arial,'arial bold'" text-align="left" font-size="56.1" transform="rotate(-4, 4929.405640358341, 5814.941086770839)" x="4932.1" y="5866.85" width="469.5" height="64.9" fill="#727272" stroke-width="10">
      <tspan text-anchor="start" x="4932.1">INSPERITY CLUB</tspan>
    </text>
    <path d="M5305.35,1891.9L5305.35,2974.0531235012377L5672.913397365687,2974.0531235012377L5672.913397365687,2698.1217048644194L5745.101316751731,2698.1217048644194L5745.101316751731,2458.0212662507292L5979.225290770159,2458.075290770159L5979.225290770159,2487.1752907701584L6029.325290770159,2487.1752907701584L6029.325290770159,2378.6752907701584L5979.225290770159,2378.6752907701584L5979.225290770159,2407.825290770159L5745.101316751731,2407.8003674155616L5745.101316751731,2167.8232005221344L5672.913397365687,2167.8232005221344L5672.913397365687,1891.9z" id="STAGE" transform="rotate(84.5, 5305.35, 1891.9)" fill="#262626" stroke-width="3"/>
    <text font-family="averta,arial,'arial bold'" text-align="center" font-size="230.87670151813657" transform="rotate(-5.747263661261941, 4370.1675779490515, 2028.0456112143897)" x="4774.55" y="2241.6" width="804.15" height="267" fill="#ffffff" stroke-width="10">
      <tspan text-anchor="middle" x="4774.55">STAGE</tspan>
    </text>
  </g>
</svg>